<svg xmlns="http://www.w3.org/2000/svg" width="626.318" height="255.542" viewBox="0 0 626.318 255.542">
  <g id="Grupo_154407" data-name="Grupo 154407" transform="translate(8754 8828.542)">
    <path id="Trazado_196482" data-name="Trazado 196482" d="M9.773,0H522.492l111.6,59.087-111.6,60.773H9.773L40.7,59.087Z" transform="translate(-8761.773 -8692.86)" fill="#c5e5fe"/>
    <path id="Trazado_196487" data-name="Trazado 196487" d="M-59.445-4.6h-2.672V0h-1.508V-11.375h3.766A4.457,4.457,0,0,1-56.9-10.5a3.148,3.148,0,0,1,1.035,2.547A3.062,3.062,0,0,1-56.441-6.1a3.428,3.428,0,0,1-1.6,1.18l2.672,4.828V0h-1.609Zm-2.672-1.227h2.3a2.6,2.6,0,0,0,1.777-.579,1.959,1.959,0,0,0,.66-1.55A2.062,2.062,0,0,0-58-9.577a2.663,2.663,0,0,0-1.816-.571h-2.3ZM-50.484.156a3.693,3.693,0,0,1-2.8-1.129,4.19,4.19,0,0,1-1.078-3.02v-.266a5.073,5.073,0,0,1,.48-2.246,3.748,3.748,0,0,1,1.344-1.547,3.378,3.378,0,0,1,1.871-.559A3.166,3.166,0,0,1-48.1-7.523a4.7,4.7,0,0,1,.914,3.109v.6h-5.727a3,3,0,0,0,.73,2.02,2.3,2.3,0,0,0,1.777.77,2.517,2.517,0,0,0,1.3-.312,3.259,3.259,0,0,0,.93-.828l.883.688A3.55,3.55,0,0,1-50.484.156Zm-.18-7.578a1.928,1.928,0,0,0-1.469.637A3.1,3.1,0,0,0-52.867-5h4.234v-.109a2.753,2.753,0,0,0-.594-1.707A1.815,1.815,0,0,0-50.664-7.422Zm7.109-3.078v2.047h1.578v1.117h-1.578v5.249a1.173,1.173,0,0,0,.211.763.888.888,0,0,0,.719.254,3.5,3.5,0,0,0,.688-.094V0a4.215,4.215,0,0,1-1.109.155A1.8,1.8,0,0,1-44.508-.43,2.517,2.517,0,0,1-45-2.094V-7.336h-1.539V-8.453H-45V-10.5ZM-36.2-7.156a4.331,4.331,0,0,0-.711-.055A1.9,1.9,0,0,0-38.844-6V0h-1.445V-8.453h1.406l.023.977a2.251,2.251,0,0,1,2.016-1.133A1.477,1.477,0,0,1-36.2-8.5Zm.789,2.852a4.993,4.993,0,0,1,.488-2.234A3.643,3.643,0,0,1-33.566-8.07a3.7,3.7,0,0,1,1.988-.539,3.565,3.565,0,0,1,2.793,1.2,4.6,4.6,0,0,1,1.066,3.18v.1a5.036,5.036,0,0,1-.473,2.215A3.589,3.589,0,0,1-29.543-.391a3.743,3.743,0,0,1-2.02.547,3.556,3.556,0,0,1-2.785-1.2A4.575,4.575,0,0,1-35.414-4.2Zm1.453.172a3.616,3.616,0,0,0,.652,2.258,2.088,2.088,0,0,0,1.746.852,2.075,2.075,0,0,0,1.75-.863A3.955,3.955,0,0,0-29.164-4.3a3.61,3.61,0,0,0-.66-2.254,2.1,2.1,0,0,0-1.754-.863A2.075,2.075,0,0,0-33.3-6.57,3.925,3.925,0,0,0-33.961-4.133ZM-20.687,0a3.036,3.036,0,0,1-.2-.891A3.225,3.225,0,0,1-23.3.156a2.984,2.984,0,0,1-2.051-.707,2.287,2.287,0,0,1-.8-1.793,2.39,2.39,0,0,1,1-2.051,4.733,4.733,0,0,1,2.824-.73h1.406v-.664A1.623,1.623,0,0,0-21.367-7,1.821,1.821,0,0,0-22.7-7.445a2.108,2.108,0,0,0-1.3.391,1.151,1.151,0,0,0-.523.945h-1.453a2,2,0,0,1,.449-1.223,3.066,3.066,0,0,1,1.219-.934,4.1,4.1,0,0,1,1.691-.344,3.342,3.342,0,0,1,2.289.73,2.635,2.635,0,0,1,.859,2.012v3.891a4.757,4.757,0,0,0,.3,1.852V0Zm-2.4-1.1A2.54,2.54,0,0,0-21.8-1.453a2.127,2.127,0,0,0,.883-.914V-4.1h-1.133Q-24.7-4.1-24.7-2.547a1.316,1.316,0,0,0,.453,1.063A1.742,1.742,0,0,0-23.086-1.1ZM-15.633,0h-1.445V-12h1.445Zm3.883,0H-13.2V-8.453h1.445Zm-1.562-10.7a.863.863,0,0,1,.215-.594.807.807,0,0,1,.637-.242.819.819,0,0,1,.641.242.854.854,0,0,1,.219.594.826.826,0,0,1-.219.586.834.834,0,0,1-.641.234.821.821,0,0,1-.637-.234A.834.834,0,0,1-13.312-10.7Zm5.234,2.242.039.938A3.122,3.122,0,0,1-5.531-8.609,2.417,2.417,0,0,1-3.117-7.25a3.2,3.2,0,0,1,1.1-.984,3.242,3.242,0,0,1,1.6-.375q2.781,0,2.828,2.945V0H.961V-5.578A1.941,1.941,0,0,0,.547-6.934,1.823,1.823,0,0,0-.844-7.383,1.916,1.916,0,0,0-2.18-6.9,1.949,1.949,0,0,0-2.8-5.609V0H-4.25V-5.539a1.613,1.613,0,0,0-1.8-1.844A1.934,1.934,0,0,0-8-6.172V0H-9.445V-8.453ZM8.094.156A3.693,3.693,0,0,1,5.3-.973a4.19,4.19,0,0,1-1.078-3.02v-.266A5.073,5.073,0,0,1,4.7-6.5,3.748,3.748,0,0,1,6.043-8.051a3.378,3.378,0,0,1,1.871-.559,3.166,3.166,0,0,1,2.563,1.086,4.7,4.7,0,0,1,.914,3.109v.6H5.664a3,3,0,0,0,.73,2.02,2.3,2.3,0,0,0,1.777.77,2.517,2.517,0,0,0,1.3-.312,3.259,3.259,0,0,0,.93-.828l.883.688A3.55,3.55,0,0,1,8.094.156Zm-.18-7.578a1.928,1.928,0,0,0-1.469.637A3.1,3.1,0,0,0,5.711-5H9.945v-.109a2.753,2.753,0,0,0-.594-1.707A1.815,1.815,0,0,0,7.914-7.422ZM14.43-8.453l.047,1.063a3.08,3.08,0,0,1,2.531-1.219q2.68,0,2.7,3.023V0H18.266V-5.594a1.946,1.946,0,0,0-.418-1.352,1.675,1.675,0,0,0-1.277-.437,2.086,2.086,0,0,0-1.234.375,2.546,2.546,0,0,0-.828.984V0H13.063V-8.453ZM23.852-10.5v2.047H25.43v1.117H23.852v5.249a1.173,1.173,0,0,0,.211.763.888.888,0,0,0,.719.254,3.5,3.5,0,0,0,.688-.094V0a4.215,4.215,0,0,1-1.109.155A1.8,1.8,0,0,1,22.9-.43a2.517,2.517,0,0,1-.492-1.664V-7.336H20.867V-8.453h1.539V-10.5ZM32.336,0a3.036,3.036,0,0,1-.2-.891A3.225,3.225,0,0,1,29.727.156a2.984,2.984,0,0,1-2.051-.707,2.287,2.287,0,0,1-.8-1.793,2.39,2.39,0,0,1,1-2.051,4.733,4.733,0,0,1,2.824-.73h1.406v-.664A1.623,1.623,0,0,0,31.656-7a1.821,1.821,0,0,0-1.336-.449,2.108,2.108,0,0,0-1.3.391,1.151,1.151,0,0,0-.523.945H27.047A2,2,0,0,1,27.5-7.332a3.066,3.066,0,0,1,1.219-.934,4.1,4.1,0,0,1,1.691-.344,3.342,3.342,0,0,1,2.289.73,2.635,2.635,0,0,1,.859,2.012v3.891a4.757,4.757,0,0,0,.3,1.852V0Zm-2.4-1.1a2.54,2.54,0,0,0,1.289-.352,2.127,2.127,0,0,0,.883-.914V-4.1H30.977q-2.656,0-2.656,1.555a1.316,1.316,0,0,0,.453,1.063A1.742,1.742,0,0,0,29.938-1.1Zm9.273.078a2.082,2.082,0,0,0,1.352-.469A1.649,1.649,0,0,0,41.2-2.664H42.57a2.621,2.621,0,0,1-.5,1.383A3.293,3.293,0,0,1,40.84-.234a3.55,3.55,0,0,1-1.629.391A3.482,3.482,0,0,1,36.465-1a4.59,4.59,0,0,1-1.02-3.152v-.242a5.089,5.089,0,0,1,.453-2.2,3.451,3.451,0,0,1,1.3-1.492,3.7,3.7,0,0,1,2-.531,3.39,3.39,0,0,1,2.363.852,3.043,3.043,0,0,1,1,2.211H41.2a1.992,1.992,0,0,0-.621-1.348A1.932,1.932,0,0,0,39.2-7.422a2.023,2.023,0,0,0-1.707.793,3.724,3.724,0,0,0-.605,2.293v.273a3.65,3.65,0,0,0,.6,2.25A2.033,2.033,0,0,0,39.211-1.023ZM45.766,0H44.32V-8.453h1.445ZM44.2-10.7a.863.863,0,0,1,.215-.594.807.807,0,0,1,.637-.242.819.819,0,0,1,.641.242.854.854,0,0,1,.219.594.826.826,0,0,1-.219.586.834.834,0,0,1-.641.234.821.821,0,0,1-.637-.234A.834.834,0,0,1,44.2-10.7ZM47.7-4.3a4.993,4.993,0,0,1,.488-2.234A3.643,3.643,0,0,1,49.543-8.07a3.7,3.7,0,0,1,1.988-.539,3.565,3.565,0,0,1,2.793,1.2,4.6,4.6,0,0,1,1.066,3.18v.1a5.036,5.036,0,0,1-.473,2.215A3.589,3.589,0,0,1,53.566-.391a3.743,3.743,0,0,1-2.02.547,3.556,3.556,0,0,1-2.785-1.2A4.575,4.575,0,0,1,47.7-4.2Zm1.453.172A3.616,3.616,0,0,0,49.8-1.875a2.088,2.088,0,0,0,1.746.852,2.075,2.075,0,0,0,1.75-.863A3.955,3.955,0,0,0,53.945-4.3a3.61,3.61,0,0,0-.66-2.254,2.1,2.1,0,0,0-1.754-.863A2.075,2.075,0,0,0,49.8-6.57,3.925,3.925,0,0,0,49.148-4.133Zm3.039-7.852h1.75l-2.094,2.3-1.164,0ZM58.57-8.453l.047,1.063a3.08,3.08,0,0,1,2.531-1.219q2.68,0,2.7,3.023V0H62.406V-5.594a1.946,1.946,0,0,0-.418-1.352,1.675,1.675,0,0,0-1.277-.437,2.086,2.086,0,0,0-1.234.375,2.546,2.546,0,0,0-.828.984V0H57.2V-8.453Z" transform="translate(-8435 -8740.542)" fill="#12263f"/>
    <path id="Trazado_196484" data-name="Trazado 196484" d="M0,0H170.019L203.86,32.834,170.019,66.6H0Z" transform="translate(-8754 -8827.542)" fill="#ede7f7"/>
    <path id="Trazado_196488" data-name="Trazado 196488" d="M-33.031-4.945h-4.5v3.063h5.281V0h-7.625V-11.375h7.609v1.9h-5.266v2.711h4.5ZM-21.625,0h-2.344l-4.562-7.484V0h-2.344V-11.375h2.344l4.57,7.5v-7.5h2.336Zm10.383-9.477h-3.484V0H-17.07V-9.477h-3.437v-1.9h9.266ZM-5.7-4.164H-7.562V0H-9.906V-11.375H-5.68a4.778,4.778,0,0,1,3.109.9A3.1,3.1,0,0,1-1.477-7.937,3.5,3.5,0,0,1-1.98-6,3.437,3.437,0,0,1-3.508-4.758L-1.047-.109V0H-3.562Zm-1.867-1.9h1.891A1.936,1.936,0,0,0-4.3-6.512,1.606,1.606,0,0,0-3.82-7.75a1.719,1.719,0,0,0-.457-1.266,1.9,1.9,0,0,0-1.4-.461H-7.562ZM6.727-2.344H2.617L1.836,0H-.656L3.578-11.375H5.75L10.008,0H7.516ZM3.25-4.242H6.094L4.664-8.5ZM11.07,0V-11.375h3.5a5.315,5.315,0,0,1,2.684.676A4.712,4.712,0,0,1,19.1-8.777a5.928,5.928,0,0,1,.664,2.832v.523a5.945,5.945,0,0,1-.652,2.82,4.672,4.672,0,0,1-1.84,1.914A5.355,5.355,0,0,1,14.594,0Zm2.344-9.477v7.594h1.133a2.545,2.545,0,0,0,2.1-.9,4.06,4.06,0,0,0,.742-2.57v-.6a4.124,4.124,0,0,0-.719-2.629,2.537,2.537,0,0,0-2.1-.895ZM27.727-2.344H23.617L22.836,0H20.344l4.234-11.375H26.75L31.008,0H28.516Zm-3.477-1.9h2.844L25.664-8.5ZM37.969-2.984A1.2,1.2,0,0,0,37.5-4a6.148,6.148,0,0,0-1.687-.75,11.962,11.962,0,0,1-1.93-.777,3.153,3.153,0,0,1-1.937-2.82A2.747,2.747,0,0,1,32.465-10a3.389,3.389,0,0,1,1.492-1.129,5.616,5.616,0,0,1,2.184-.406,5.112,5.112,0,0,1,2.172.441,3.458,3.458,0,0,1,1.48,1.246,3.261,3.261,0,0,1,.527,1.828H37.977a1.534,1.534,0,0,0-.492-1.215A2.023,2.023,0,0,0,36.1-9.664a2.162,2.162,0,0,0-1.336.363,1.146,1.146,0,0,0-.477.957,1.1,1.1,0,0,0,.559.93,6.311,6.311,0,0,0,1.645.7,7.106,7.106,0,0,1,2.914,1.492A2.972,2.972,0,0,1,40.32-3,2.737,2.737,0,0,1,39.2-.684,4.891,4.891,0,0,1,36.2.156,5.808,5.808,0,0,1,33.8-.324,3.783,3.783,0,0,1,32.16-1.641a3.371,3.371,0,0,1-.566-1.937h2.352q0,1.883,2.25,1.883a2.189,2.189,0,0,0,1.3-.34A1.106,1.106,0,0,0,37.969-2.984ZM-40.638,13.242a9.742,9.742,0,0,1,.387-2.768,7.3,7.3,0,0,1,1.143-2.326A4.266,4.266,0,0,1-37.47,6.742l.355.99a4.418,4.418,0,0,0-1.447,2.12,9.817,9.817,0,0,0-.521,3.352v.2a10,10,0,0,0,.514,3.364,4.5,4.5,0,0,0,1.454,2.152l-.355.971a4.268,4.268,0,0,1-1.609-1.368,7.181,7.181,0,0,1-1.139-2.263,9.684,9.684,0,0,1-.419-2.679Zm6.506.5V17h-1.9V7.758h3.605a4.171,4.171,0,0,1,1.831.381,2.807,2.807,0,0,1,1.216,1.082,3.018,3.018,0,0,1,.425,1.6,2.654,2.654,0,0,1-.93,2.142,3.873,3.873,0,0,1-2.574.784Zm0-1.542h1.7a1.673,1.673,0,0,0,1.152-.355,1.293,1.293,0,0,0,.4-1.016,1.524,1.524,0,0,0-.4-1.1,1.494,1.494,0,0,0-1.1-.432h-1.746Zm10.22-.349a4.984,4.984,0,0,0-.66-.051,1.344,1.344,0,0,0-1.365.7V17h-1.834V10.132h1.733l.051.819A1.7,1.7,0,0,1-24.458,10a1.922,1.922,0,0,1,.571.083Zm.368,1.65a4.073,4.073,0,0,1,.394-1.822,2.881,2.881,0,0,1,1.133-1.238A3.306,3.306,0,0,1-20.3,10a3.127,3.127,0,0,1,2.269.851,3.414,3.414,0,0,1,.981,2.311l.013.47a3.59,3.59,0,0,1-.882,2.536,3.067,3.067,0,0,1-2.368.955,3.082,3.082,0,0,1-2.371-.952,3.653,3.653,0,0,1-.885-2.59Zm1.834.13a2.567,2.567,0,0,0,.368,1.5,1.215,1.215,0,0,0,1.054.518,1.217,1.217,0,0,0,1.041-.512,2.809,2.809,0,0,0,.375-1.637,2.542,2.542,0,0,0-.375-1.488,1.217,1.217,0,0,0-1.054-.528,1.2,1.2,0,0,0-1.041.524A2.857,2.857,0,0,0-21.709,13.633Zm8.277,1.127,1.276-4.627h1.917L-12.556,17h-1.752l-2.317-6.868h1.917Zm7.078,2.368a3.372,3.372,0,0,1-2.46-.927,3.294,3.294,0,0,1-.949-2.469v-.178a4.149,4.149,0,0,1,.4-1.85A2.935,2.935,0,0,1-8.23,10.446,3.18,3.18,0,0,1-6.557,10a2.85,2.85,0,0,1,2.219.889,3.611,3.611,0,0,1,.809,2.52v.749H-7.9a1.7,1.7,0,0,0,.536,1.079,1.621,1.621,0,0,0,1.133.406,1.98,1.98,0,0,0,1.657-.768l.9,1.009a2.754,2.754,0,0,1-1.117.911A3.665,3.665,0,0,1-6.354,17.127Zm-.209-5.643a1.146,1.146,0,0,0-.885.37,1.915,1.915,0,0,0-.435,1.058h2.552v-.147a1.366,1.366,0,0,0-.33-.947A1.183,1.183,0,0,0-6.563,11.484ZM.673,17.127a3.372,3.372,0,0,1-2.46-.927,3.294,3.294,0,0,1-.949-2.469v-.178a4.149,4.149,0,0,1,.4-1.85A2.935,2.935,0,0,1-1.2,10.446,3.18,3.18,0,0,1,.47,10a2.85,2.85,0,0,1,2.219.889,3.611,3.611,0,0,1,.809,2.52v.749H-.876A1.7,1.7,0,0,0-.34,15.242a1.621,1.621,0,0,0,1.133.406A1.98,1.98,0,0,0,2.45,14.88l.9,1.009a2.754,2.754,0,0,1-1.117.911A3.665,3.665,0,0,1,.673,17.127ZM.463,11.484a1.146,1.146,0,0,0-.885.37,1.915,1.915,0,0,0-.435,1.058H1.695v-.147a1.366,1.366,0,0,0-.33-.947A1.183,1.183,0,0,0,.463,11.484Zm3.79,2.031a4.139,4.139,0,0,1,.72-2.558A2.338,2.338,0,0,1,6.944,10a2.1,2.1,0,0,1,1.657.749V7.25h1.841V17H8.785L8.7,16.27a2.159,2.159,0,0,1-1.765.857,2.331,2.331,0,0,1-1.946-.955A4.272,4.272,0,0,1,4.253,13.515Zm1.834.131a2.726,2.726,0,0,0,.336,1.486,1.1,1.1,0,0,0,.978.517,1.227,1.227,0,0,0,1.2-.721V12.2a1.21,1.21,0,0,0-1.187-.721Q6.087,11.484,6.087,13.646Zm5.491-.143a4.073,4.073,0,0,1,.394-1.822A2.881,2.881,0,0,1,13.1,10.443,3.306,3.306,0,0,1,14.822,10a3.127,3.127,0,0,1,2.269.851,3.414,3.414,0,0,1,.981,2.311l.013.47a3.59,3.59,0,0,1-.882,2.536,3.067,3.067,0,0,1-2.368.955,3.082,3.082,0,0,1-2.371-.952,3.653,3.653,0,0,1-.885-2.59Zm1.834.13a2.567,2.567,0,0,0,.368,1.5,1.323,1.323,0,0,0,2.095.006A2.809,2.809,0,0,0,16.25,13.5a2.542,2.542,0,0,0-.375-1.488,1.217,1.217,0,0,0-1.054-.528,1.2,1.2,0,0,0-1.041.524A2.857,2.857,0,0,0,13.413,13.633Zm9.661-1.781a4.984,4.984,0,0,0-.66-.051,1.344,1.344,0,0,0-1.365.7V17H19.214V10.132h1.733l.051.819A1.7,1.7,0,0,1,22.528,10a1.922,1.922,0,0,1,.571.083ZM27,17.127a3.372,3.372,0,0,1-2.46-.927,3.294,3.294,0,0,1-.949-2.469v-.178a4.149,4.149,0,0,1,.4-1.85,2.935,2.935,0,0,1,1.133-1.257A3.18,3.18,0,0,1,26.793,10a2.85,2.85,0,0,1,2.219.889,3.611,3.611,0,0,1,.809,2.52v.749H25.448a1.7,1.7,0,0,0,.536,1.079,1.621,1.621,0,0,0,1.133.406,1.98,1.98,0,0,0,1.657-.768l.9,1.009a2.754,2.754,0,0,1-1.117.911A3.665,3.665,0,0,1,27,17.127Zm-.209-5.643a1.146,1.146,0,0,0-.885.37,1.915,1.915,0,0,0-.435,1.058h2.552v-.147a1.366,1.366,0,0,0-.33-.947A1.183,1.183,0,0,0,26.787,11.484ZM34.582,15.1a.591.591,0,0,0-.333-.53,3.785,3.785,0,0,0-1.07-.346q-2.45-.514-2.45-2.082a1.887,1.887,0,0,1,.759-1.527A3.06,3.06,0,0,1,33.471,10a3.293,3.293,0,0,1,2.092.616,1.94,1.94,0,0,1,.784,1.6H34.512a.888.888,0,0,0-.254-.651,1.075,1.075,0,0,0-.793-.257,1.1,1.1,0,0,0-.717.209.661.661,0,0,0-.254.533.565.565,0,0,0,.289.492,2.971,2.971,0,0,0,.974.324,7.959,7.959,0,0,1,1.155.308,1.9,1.9,0,0,1,1.454,1.847,1.792,1.792,0,0,1-.806,1.52,3.478,3.478,0,0,1-2.082.581,3.632,3.632,0,0,1-1.533-.308,2.572,2.572,0,0,1-1.051-.844,1.962,1.962,0,0,1-.381-1.158h1.739a.958.958,0,0,0,.362.749,1.435,1.435,0,0,0,.9.26,1.328,1.328,0,0,0,.8-.2A.622.622,0,0,0,34.582,15.1Zm6.125-1.714a9.244,9.244,0,0,1-.413,2.761,7.5,7.5,0,0,1-1.187,2.342,4.277,4.277,0,0,1-1.657,1.4l-.355-.971a4.464,4.464,0,0,0,1.422-2.095,9.7,9.7,0,0,0,.54-3.256v-.336a9.919,9.919,0,0,0-.517-3.345A4.653,4.653,0,0,0,37.1,7.713l.355-.971A4.278,4.278,0,0,1,39.079,8.1a7.4,7.4,0,0,1,1.187,2.292,9.178,9.178,0,0,1,.441,2.71Z" transform="translate(-8673 -8796.543)" fill="#12263f"/>
    <path id="Trazado_196485" data-name="Trazado 196485" d="M9.773,0h6.8l235.11-1.8,33.841,32.834L251.685,64.8,16.246,66.6H9.773L45.913,32.834Z" transform="translate(-8582.773 -8826.737)" fill="#fffad8"/>
    <path id="Trazado_196486" data-name="Trazado 196486" d="M9.773,0H165.249L199.09,32.834,165.249,66.6H9.773L45.913,32.834Z" transform="translate(-8326.772 -8827.542)" fill="#ddedf8"/>
    <path id="Trazado_196489" data-name="Trazado 196489" d="M-32.605-4.008V0h-2.344V-11.375h4.438a5.134,5.134,0,0,1,2.254.469,3.454,3.454,0,0,1,1.5,1.332,3.714,3.714,0,0,1,.523,1.965,3.266,3.266,0,0,1-1.145,2.637,4.767,4.767,0,0,1-3.168.965Zm0-1.9h2.094a2.059,2.059,0,0,0,1.418-.437,1.591,1.591,0,0,0,.488-1.25A1.876,1.876,0,0,0-29.1-8.945a1.839,1.839,0,0,0-1.359-.531h-2.148Zm12.188,1.742h-1.867V0h-2.344V-11.375H-20.4a4.778,4.778,0,0,1,3.109.9A3.1,3.1,0,0,1-16.2-7.937,3.5,3.5,0,0,1-16.7-6,3.437,3.437,0,0,1-18.23-4.758L-15.77-.109V0h-2.516Zm-1.867-1.9h1.891a1.936,1.936,0,0,0,1.367-.449,1.606,1.606,0,0,0,.484-1.238A1.719,1.719,0,0,0-19-9.016a1.9,1.9,0,0,0-1.4-.461h-1.883Zm17.211.633a6.867,6.867,0,0,1-.594,2.945,4.472,4.472,0,0,1-1.7,1.953A4.7,4.7,0,0,1-9.9.156a4.732,4.732,0,0,1-2.523-.68,4.515,4.515,0,0,1-1.719-1.941,6.67,6.67,0,0,1-.617-2.9V-5.93a6.831,6.831,0,0,1,.605-2.957,4.508,4.508,0,0,1,1.711-1.961,4.706,4.706,0,0,1,2.527-.684,4.706,4.706,0,0,1,2.527.684A4.508,4.508,0,0,1-5.68-8.887a6.811,6.811,0,0,1,.605,2.949Zm-2.375-.516A4.787,4.787,0,0,0-8.09-8.664a2.088,2.088,0,0,0-1.828-.93,2.088,2.088,0,0,0-1.82.918,4.732,4.732,0,0,0-.648,2.691v.555a4.847,4.847,0,0,0,.641,2.7A2.082,2.082,0,0,0-9.9-1.766,2.064,2.064,0,0,0-8.09-2.691a4.819,4.819,0,0,0,.641-2.7ZM5.559-3.789A4.025,4.025,0,0,1,4.2-.9,4.76,4.76,0,0,1,.98.156,4.28,4.28,0,0,1-2.461-1.316,6.038,6.038,0,0,1-3.715-5.359v-.7a6.819,6.819,0,0,1,.578-2.891,4.332,4.332,0,0,1,1.652-1.918,4.629,4.629,0,0,1,2.5-.668,4.637,4.637,0,0,1,3.172,1.055A4.326,4.326,0,0,1,5.574-7.516H3.23a2.376,2.376,0,0,0-.613-1.6,2.271,2.271,0,0,0-1.605-.5,1.991,1.991,0,0,0-1.754.84,4.707,4.707,0,0,0-.6,2.605V-5.3a5.038,5.038,0,0,0,.559,2.7A1.954,1.954,0,0,0,.98-1.758a2.314,2.314,0,0,0,1.621-.5,2.241,2.241,0,0,0,.613-1.535Zm8.383-1.156h-4.5v3.063h5.281V0H7.1V-11.375h7.609v1.9H9.441v2.711h4.5ZM22-2.984A1.2,1.2,0,0,0,21.527-4a6.148,6.148,0,0,0-1.687-.75,11.963,11.963,0,0,1-1.93-.777,3.153,3.153,0,0,1-1.937-2.82A2.747,2.747,0,0,1,16.492-10a3.389,3.389,0,0,1,1.492-1.129,5.616,5.616,0,0,1,2.184-.406,5.112,5.112,0,0,1,2.172.441,3.458,3.458,0,0,1,1.48,1.246,3.261,3.261,0,0,1,.527,1.828H22a1.534,1.534,0,0,0-.492-1.215,2.023,2.023,0,0,0-1.383-.434,2.162,2.162,0,0,0-1.336.363,1.146,1.146,0,0,0-.477.957,1.1,1.1,0,0,0,.559.93,6.311,6.311,0,0,0,1.645.7,7.106,7.106,0,0,1,2.914,1.492A2.972,2.972,0,0,1,24.348-3,2.737,2.737,0,0,1,23.23-.684a4.891,4.891,0,0,1-3.008.84,5.808,5.808,0,0,1-2.391-.48,3.783,3.783,0,0,1-1.645-1.316,3.371,3.371,0,0,1-.566-1.937h2.352q0,1.883,2.25,1.883a2.189,2.189,0,0,0,1.3-.34A1.106,1.106,0,0,0,22-2.984ZM35.277-5.43a6.867,6.867,0,0,1-.594,2.945,4.472,4.472,0,0,1-1.7,1.953,4.7,4.7,0,0,1-2.535.688,4.732,4.732,0,0,1-2.523-.68,4.515,4.515,0,0,1-1.719-1.941,6.67,6.67,0,0,1-.617-2.9V-5.93A6.831,6.831,0,0,1,26.2-8.887a4.508,4.508,0,0,1,1.711-1.961,4.706,4.706,0,0,1,2.527-.684,4.706,4.706,0,0,1,2.527.684,4.508,4.508,0,0,1,1.711,1.961,6.811,6.811,0,0,1,.605,2.949ZM32.9-5.945a4.787,4.787,0,0,0-.641-2.719,2.088,2.088,0,0,0-1.828-.93,2.088,2.088,0,0,0-1.82.918,4.732,4.732,0,0,0-.648,2.691v.555a4.847,4.847,0,0,0,.641,2.7,2.082,2.082,0,0,0,1.844.961,2.064,2.064,0,0,0,1.813-.926,4.819,4.819,0,0,0,.641-2.7ZM-39.543,13.242a9.742,9.742,0,0,1,.387-2.768,7.3,7.3,0,0,1,1.143-2.326,4.266,4.266,0,0,1,1.638-1.406l.355.99a4.418,4.418,0,0,0-1.447,2.12,9.817,9.817,0,0,0-.521,3.352v.2a10,10,0,0,0,.514,3.364,4.5,4.5,0,0,0,1.454,2.152l-.355.971a4.268,4.268,0,0,1-1.609-1.368,7.181,7.181,0,0,1-1.139-2.263,9.684,9.684,0,0,1-.419-2.679Zm12.181-.654a5.568,5.568,0,0,1-.419,2.25,3.863,3.863,0,0,1-1.162,1.533l1.536,1.206-1.212,1.073-1.968-1.581a4.165,4.165,0,0,1-.7.057,3.845,3.845,0,0,1-2.05-.552A3.669,3.669,0,0,1-34.731,15a5.42,5.42,0,0,1-.5-2.358v-.457a5.55,5.55,0,0,1,.492-2.4,3.663,3.663,0,0,1,1.39-1.593A3.824,3.824,0,0,1-31.3,7.631a3.824,3.824,0,0,1,2.053.555,3.663,3.663,0,0,1,1.39,1.593,5.534,5.534,0,0,1,.492,2.4Zm-1.93-.419a3.889,3.889,0,0,0-.521-2.209A1.7,1.7,0,0,0-31.3,9.205a1.7,1.7,0,0,0-1.479.746,3.845,3.845,0,0,0-.527,2.187v.451a3.938,3.938,0,0,0,.521,2.2,1.692,1.692,0,0,0,1.5.781,1.677,1.677,0,0,0,1.473-.752,3.915,3.915,0,0,0,.521-2.193Zm7.319,4.132a2.3,2.3,0,0,1-1.879.825,2.17,2.17,0,0,1-1.685-.635,2.71,2.71,0,0,1-.594-1.86v-4.5H-24.3v4.442q0,1.074.978,1.074A1.325,1.325,0,0,0-22.036,15V10.132H-20.2V17h-1.727Zm6.322.825a3.372,3.372,0,0,1-2.46-.927,3.294,3.294,0,0,1-.949-2.469v-.178a4.149,4.149,0,0,1,.4-1.85,2.935,2.935,0,0,1,1.133-1.257A3.18,3.18,0,0,1-15.853,10a2.85,2.85,0,0,1,2.219.889,3.611,3.611,0,0,1,.809,2.52v.749H-17.2a1.7,1.7,0,0,0,.536,1.079,1.621,1.621,0,0,0,1.133.406,1.98,1.98,0,0,0,1.657-.768l.9,1.009a2.754,2.754,0,0,1-1.117.911A3.665,3.665,0,0,1-15.65,17.127Zm-.209-5.643a1.146,1.146,0,0,0-.885.37,1.915,1.915,0,0,0-.435,1.058h2.552v-.147a1.366,1.366,0,0,0-.33-.947A1.183,1.183,0,0,0-15.86,11.484Zm.165-4.234h2l-1.758,1.968h-1.492ZM-4.827,15.1a.591.591,0,0,0-.333-.53,3.785,3.785,0,0,0-1.07-.346q-2.45-.514-2.45-2.082a1.887,1.887,0,0,1,.759-1.527A3.06,3.06,0,0,1-5.938,10a3.293,3.293,0,0,1,2.092.616,1.94,1.94,0,0,1,.784,1.6H-4.9a.888.888,0,0,0-.254-.651,1.075,1.075,0,0,0-.793-.257,1.1,1.1,0,0,0-.717.209.661.661,0,0,0-.254.533.565.565,0,0,0,.289.492,2.971,2.971,0,0,0,.974.324,7.958,7.958,0,0,1,1.155.308,1.9,1.9,0,0,1,1.454,1.847,1.792,1.792,0,0,1-.806,1.52,3.478,3.478,0,0,1-2.082.581,3.632,3.632,0,0,1-1.533-.308,2.572,2.572,0,0,1-1.051-.844A1.962,1.962,0,0,1-8.9,14.816h1.739a.958.958,0,0,0,.362.749,1.435,1.435,0,0,0,.9.26,1.328,1.328,0,0,0,.8-.2A.622.622,0,0,0-4.827,15.1ZM1.3,17.127a3.372,3.372,0,0,1-2.46-.927,3.294,3.294,0,0,1-.949-2.469v-.178a4.149,4.149,0,0,1,.4-1.85A2.935,2.935,0,0,1-.578,10.446,3.18,3.18,0,0,1,1.095,10a2.85,2.85,0,0,1,2.219.889,3.611,3.611,0,0,1,.809,2.52v.749H-.251a1.7,1.7,0,0,0,.536,1.079,1.621,1.621,0,0,0,1.133.406,1.98,1.98,0,0,0,1.657-.768l.9,1.009A2.754,2.754,0,0,1,2.86,16.8,3.665,3.665,0,0,1,1.3,17.127Zm-.209-5.643a1.146,1.146,0,0,0-.885.37,1.915,1.915,0,0,0-.435,1.058H2.32v-.147a1.366,1.366,0,0,0-.33-.947A1.183,1.183,0,0,0,1.089,11.484Zm9.1-.6A2.29,2.29,0,0,1,12.026,10q2.234,0,2.266,2.6V17H12.457V12.642a1.281,1.281,0,0,0-.254-.875,1.087,1.087,0,0,0-.844-.283,1.248,1.248,0,0,0-1.168.623V17H8.357V7.25h1.834ZM19.656,17a2.037,2.037,0,0,1-.184-.616,2.22,2.22,0,0,1-1.733.743,2.439,2.439,0,0,1-1.673-.584A1.878,1.878,0,0,1,15.4,15.07a1.941,1.941,0,0,1,.809-1.676,3.994,3.994,0,0,1,2.339-.59H19.4v-.394a1.132,1.132,0,0,0-.244-.762.961.961,0,0,0-.771-.286,1.093,1.093,0,0,0-.727.222.755.755,0,0,0-.263.609H15.555a1.843,1.843,0,0,1,.368-1.1,2.434,2.434,0,0,1,1.041-.8A3.794,3.794,0,0,1,18.475,10a3,3,0,0,1,2.015.638,2.232,2.232,0,0,1,.746,1.793v2.977a3.284,3.284,0,0,0,.273,1.479V17Zm-1.517-1.276a1.58,1.58,0,0,0,.749-.181,1.188,1.188,0,0,0,.508-.486V13.877H18.71q-1.377,0-1.466.952l-.006.108a.734.734,0,0,0,.241.565A.937.937,0,0,0,18.138,15.724Zm7.363-.076a1.2,1.2,0,0,0,.825-.279.979.979,0,0,0,.33-.743h1.72A2.353,2.353,0,0,1,28,15.905a2.513,2.513,0,0,1-1.025.9,3.208,3.208,0,0,1-1.438.321,2.982,2.982,0,0,1-2.323-.936A3.705,3.705,0,0,1,22.36,13.6v-.121a3.663,3.663,0,0,1,.844-2.533A2.947,2.947,0,0,1,25.521,10a2.889,2.889,0,0,1,2.066.733,2.6,2.6,0,0,1,.79,1.952h-1.72a1.261,1.261,0,0,0-.33-.871,1.227,1.227,0,0,0-1.806.132,2.708,2.708,0,0,0-.327,1.516v.191a2.742,2.742,0,0,0,.324,1.526A1.119,1.119,0,0,0,25.5,15.648Zm7.084,1.479a3.372,3.372,0,0,1-2.46-.927,3.294,3.294,0,0,1-.949-2.469v-.178a4.149,4.149,0,0,1,.4-1.85,2.935,2.935,0,0,1,1.133-1.257A3.18,3.18,0,0,1,32.383,10a2.85,2.85,0,0,1,2.219.889,3.611,3.611,0,0,1,.809,2.52v.749H31.037a1.7,1.7,0,0,0,.536,1.079,1.621,1.621,0,0,0,1.133.406,1.98,1.98,0,0,0,1.657-.768l.9,1.009a2.754,2.754,0,0,1-1.117.911A3.665,3.665,0,0,1,32.586,17.127Zm-.209-5.643a1.146,1.146,0,0,0-.885.37,1.915,1.915,0,0,0-.435,1.058h2.552v-.147a1.366,1.366,0,0,0-.33-.947A1.183,1.183,0,0,0,32.376,11.484Zm7.236,1.9a9.244,9.244,0,0,1-.413,2.761,7.5,7.5,0,0,1-1.187,2.342,4.277,4.277,0,0,1-1.657,1.4L36,18.917a4.464,4.464,0,0,0,1.422-2.095,9.7,9.7,0,0,0,.54-3.256v-.336a9.919,9.919,0,0,0-.517-3.345A4.653,4.653,0,0,0,36,7.713l.355-.971A4.278,4.278,0,0,1,37.984,8.1a7.4,7.4,0,0,1,1.187,2.292,9.178,9.178,0,0,1,.441,2.71ZM-76.838,30.242a9.741,9.741,0,0,1,.387-2.768,7.3,7.3,0,0,1,1.143-2.326,4.266,4.266,0,0,1,1.638-1.406l.355.99a4.418,4.418,0,0,0-1.447,2.12,9.817,9.817,0,0,0-.521,3.352v.2a10,10,0,0,0,.514,3.364,4.5,4.5,0,0,0,1.454,2.152l-.355.971A4.268,4.268,0,0,1-75.28,35.52a7.181,7.181,0,0,1-1.139-2.263,9.684,9.684,0,0,1-.419-2.679Zm12.181-.654a5.568,5.568,0,0,1-.419,2.25,3.863,3.863,0,0,1-1.162,1.533l1.536,1.206-1.212,1.073-1.968-1.581a4.165,4.165,0,0,1-.7.057,3.845,3.845,0,0,1-2.05-.552A3.669,3.669,0,0,1-72.027,32a5.42,5.42,0,0,1-.5-2.358v-.457a5.55,5.55,0,0,1,.492-2.4,3.663,3.663,0,0,1,1.39-1.593,3.824,3.824,0,0,1,2.053-.555,3.824,3.824,0,0,1,2.053.555,3.663,3.663,0,0,1,1.39,1.593,5.534,5.534,0,0,1,.492,2.4Zm-1.93-.419a3.889,3.889,0,0,0-.521-2.209,1.7,1.7,0,0,0-1.485-.755,1.7,1.7,0,0,0-1.479.746,3.845,3.845,0,0,0-.527,2.187v.451a3.938,3.938,0,0,0,.521,2.2,1.692,1.692,0,0,0,1.5.781,1.677,1.677,0,0,0,1.473-.752,3.915,3.915,0,0,0,.521-2.193Zm7.319,4.132a2.3,2.3,0,0,1-1.879.825,2.17,2.17,0,0,1-1.685-.635,2.71,2.71,0,0,1-.594-1.86v-4.5h1.834v4.442q0,1.074.978,1.074A1.325,1.325,0,0,0-59.332,32V27.132h1.841V34h-1.727Zm5.1.7h-1.841V27.132h1.841Zm-1.949-8.646a.9.9,0,0,1,.276-.679,1.037,1.037,0,0,1,.752-.267,1.04,1.04,0,0,1,.749.267.9.9,0,0,1,.279.679.9.9,0,0,1-.282.686,1.042,1.042,0,0,1-.746.267,1.042,1.042,0,0,1-.746-.267A.9.9,0,0,1-56.12,25.354Zm6.621,8.772a3.372,3.372,0,0,1-2.46-.927,3.294,3.294,0,0,1-.949-2.469v-.178a4.149,4.149,0,0,1,.4-1.85,2.935,2.935,0,0,1,1.133-1.257A3.18,3.18,0,0,1-49.7,27a2.85,2.85,0,0,1,2.219.889,3.611,3.611,0,0,1,.809,2.52v.749h-4.374a1.7,1.7,0,0,0,.536,1.079,1.621,1.621,0,0,0,1.133.406,1.98,1.98,0,0,0,1.657-.768l.9,1.009a2.754,2.754,0,0,1-1.117.911A3.665,3.665,0,0,1-49.5,34.127Zm-.209-5.643a1.146,1.146,0,0,0-.885.37,1.915,1.915,0,0,0-.435,1.058h2.552v-.147a1.366,1.366,0,0,0-.33-.947A1.183,1.183,0,0,0-49.708,28.484Zm.165-4.234h2L-49.3,26.218h-1.492Zm5.6,2.882.057.793A2.4,2.4,0,0,1-41.914,27a1.993,1.993,0,0,1,1.625.641,2.991,2.991,0,0,1,.546,1.917V34h-1.834V29.6a1.2,1.2,0,0,0-.254-.849,1.135,1.135,0,0,0-.844-.264,1.261,1.261,0,0,0-1.162.662V34h-1.834V27.132Zm11.991,7a3.372,3.372,0,0,1-2.46-.927,3.294,3.294,0,0,1-.949-2.469v-.178a4.149,4.149,0,0,1,.4-1.85,2.935,2.935,0,0,1,1.133-1.257A3.18,3.18,0,0,1-32.157,27a2.85,2.85,0,0,1,2.219.889,3.611,3.611,0,0,1,.809,2.52v.749H-33.5a1.7,1.7,0,0,0,.536,1.079,1.621,1.621,0,0,0,1.133.406,1.98,1.98,0,0,0,1.657-.768l.9,1.009a2.754,2.754,0,0,1-1.117.911A3.665,3.665,0,0,1-31.954,34.127Zm-.209-5.643a1.146,1.146,0,0,0-.885.37,1.915,1.915,0,0,0-.435,1.058h2.552v-.147a1.366,1.366,0,0,0-.33-.947A1.183,1.183,0,0,0-32.164,28.484Zm7.795,3.618a.591.591,0,0,0-.333-.53,3.785,3.785,0,0,0-1.07-.346q-2.45-.514-2.45-2.082a1.887,1.887,0,0,1,.759-1.527A3.06,3.06,0,0,1-25.479,27a3.293,3.293,0,0,1,2.092.616,1.94,1.94,0,0,1,.784,1.6h-1.834a.888.888,0,0,0-.254-.651,1.075,1.075,0,0,0-.793-.257,1.1,1.1,0,0,0-.717.209.661.661,0,0,0-.254.533.565.565,0,0,0,.289.492,2.971,2.971,0,0,0,.974.324,7.958,7.958,0,0,1,1.155.308,1.9,1.9,0,0,1,1.454,1.847,1.792,1.792,0,0,1-.806,1.52,3.478,3.478,0,0,1-2.082.581,3.632,3.632,0,0,1-1.533-.308,2.572,2.572,0,0,1-1.051-.844,1.962,1.962,0,0,1-.381-1.158H-26.7a.958.958,0,0,0,.362.749,1.435,1.435,0,0,0,.9.26,1.328,1.328,0,0,0,.8-.2A.622.622,0,0,0-24.369,32.1Zm9.363,2.025a3.372,3.372,0,0,1-2.46-.927,3.294,3.294,0,0,1-.949-2.469v-.178a4.149,4.149,0,0,1,.4-1.85,2.935,2.935,0,0,1,1.133-1.257A3.18,3.18,0,0,1-15.209,27a2.85,2.85,0,0,1,2.219.889,3.611,3.611,0,0,1,.809,2.52v.749h-4.374a1.7,1.7,0,0,0,.536,1.079,1.621,1.621,0,0,0,1.133.406,1.98,1.98,0,0,0,1.657-.768l.9,1.009a2.754,2.754,0,0,1-1.117.911A3.665,3.665,0,0,1-15.006,34.127Zm-.209-5.643a1.146,1.146,0,0,0-.885.37,1.915,1.915,0,0,0-.435,1.058h2.552v-.147a1.366,1.366,0,0,0-.33-.947A1.183,1.183,0,0,0-15.215,28.484ZM-9.2,34h-1.841V24.25H-9.2ZM-.6,28.852a4.984,4.984,0,0,0-.66-.051,1.344,1.344,0,0,0-1.365.7V34H-4.456V27.132h1.733l.051.819A1.7,1.7,0,0,1-1.143,27a1.922,1.922,0,0,1,.571.083Zm3.923,5.275A3.372,3.372,0,0,1,.866,33.2a3.294,3.294,0,0,1-.949-2.469v-.178a4.149,4.149,0,0,1,.4-1.85A2.935,2.935,0,0,1,1.45,27.446,3.18,3.18,0,0,1,3.123,27a2.85,2.85,0,0,1,2.219.889,3.611,3.611,0,0,1,.809,2.52v.749H1.777a1.7,1.7,0,0,0,.536,1.079,1.621,1.621,0,0,0,1.133.406A1.98,1.98,0,0,0,5.1,31.88L6,32.889a2.754,2.754,0,0,1-1.117.911A3.665,3.665,0,0,1,3.326,34.127Zm-.209-5.643a1.146,1.146,0,0,0-.885.37A1.915,1.915,0,0,0,1.8,29.912H4.348v-.147a1.366,1.366,0,0,0-.33-.947A1.183,1.183,0,0,0,3.117,28.484ZM10.912,32.1a.591.591,0,0,0-.333-.53,3.785,3.785,0,0,0-1.07-.346q-2.45-.514-2.45-2.082a1.887,1.887,0,0,1,.759-1.527A3.06,3.06,0,0,1,9.8,27a3.293,3.293,0,0,1,2.092.616,1.94,1.94,0,0,1,.784,1.6H10.842a.888.888,0,0,0-.254-.651,1.075,1.075,0,0,0-.793-.257,1.1,1.1,0,0,0-.717.209.661.661,0,0,0-.254.533.565.565,0,0,0,.289.492,2.971,2.971,0,0,0,.974.324,7.958,7.958,0,0,1,1.155.308A1.9,1.9,0,0,1,12.7,32.026a1.792,1.792,0,0,1-.806,1.52,3.478,3.478,0,0,1-2.082.581,3.632,3.632,0,0,1-1.533-.308,2.572,2.572,0,0,1-1.051-.844,1.962,1.962,0,0,1-.381-1.158H8.582a.958.958,0,0,0,.362.749,1.435,1.435,0,0,0,.9.26,1.328,1.328,0,0,0,.8-.2A.622.622,0,0,0,10.912,32.1Zm9.147-1.473a4.119,4.119,0,0,1-.72,2.542,2.31,2.31,0,0,1-1.946.955A2.14,2.14,0,0,1,15.71,33.4v3.237H13.876V27.132h1.7l.063.673A2.156,2.156,0,0,1,17.38,27a2.326,2.326,0,0,1,1.974.939,4.231,4.231,0,0,1,.7,2.59Zm-1.834-.14a2.718,2.718,0,0,0-.34-1.484,1.105,1.105,0,0,0-.987-.522,1.2,1.2,0,0,0-1.187.662v2.821a1.221,1.221,0,0,0,1.2.681Q18.224,32.648,18.224,30.49Zm2.685.013a4.073,4.073,0,0,1,.394-1.822,2.881,2.881,0,0,1,1.133-1.238A3.306,3.306,0,0,1,24.153,27a3.128,3.128,0,0,1,2.269.851,3.414,3.414,0,0,1,.981,2.311l.013.47a3.59,3.59,0,0,1-.882,2.536,3.067,3.067,0,0,1-2.368.955,3.082,3.082,0,0,1-2.371-.952,3.653,3.653,0,0,1-.885-2.59Zm1.834.13a2.567,2.567,0,0,0,.368,1.5,1.323,1.323,0,0,0,2.095.006,2.809,2.809,0,0,0,.375-1.637,2.542,2.542,0,0,0-.375-1.488,1.217,1.217,0,0,0-1.054-.528,1.2,1.2,0,0,0-1.041.524A2.857,2.857,0,0,0,22.744,30.633Zm7.49-3.5.057.793A2.4,2.4,0,0,1,32.265,27a1.993,1.993,0,0,1,1.625.641,2.991,2.991,0,0,1,.546,1.917V34H32.6V29.6a1.2,1.2,0,0,0-.254-.849,1.135,1.135,0,0,0-.844-.264,1.261,1.261,0,0,0-1.162.662V34H28.507V27.132Zm9.312,4.97a.591.591,0,0,0-.333-.53,3.785,3.785,0,0,0-1.07-.346q-2.45-.514-2.45-2.082a1.887,1.887,0,0,1,.759-1.527A3.06,3.06,0,0,1,38.435,27a3.293,3.293,0,0,1,2.092.616,1.94,1.94,0,0,1,.784,1.6H39.476a.888.888,0,0,0-.254-.651,1.075,1.075,0,0,0-.793-.257,1.1,1.1,0,0,0-.717.209.661.661,0,0,0-.254.533.565.565,0,0,0,.289.492,2.971,2.971,0,0,0,.974.324,7.958,7.958,0,0,1,1.155.308,1.9,1.9,0,0,1,1.454,1.847,1.792,1.792,0,0,1-.806,1.52,3.478,3.478,0,0,1-2.082.581,3.632,3.632,0,0,1-1.533-.308,2.572,2.572,0,0,1-1.051-.844,1.962,1.962,0,0,1-.381-1.158h1.739a.958.958,0,0,0,.362.749,1.435,1.435,0,0,0,.9.26,1.328,1.328,0,0,0,.8-.2A.622.622,0,0,0,39.546,32.1ZM46.49,34a2.037,2.037,0,0,1-.184-.616,2.22,2.22,0,0,1-1.733.743,2.439,2.439,0,0,1-1.673-.584,1.878,1.878,0,0,1-.663-1.473,1.941,1.941,0,0,1,.809-1.676,3.994,3.994,0,0,1,2.339-.59h.844v-.394a1.132,1.132,0,0,0-.244-.762.961.961,0,0,0-.771-.286,1.093,1.093,0,0,0-.727.222.755.755,0,0,0-.263.609H42.39a1.843,1.843,0,0,1,.368-1.1,2.434,2.434,0,0,1,1.041-.8A3.794,3.794,0,0,1,45.31,27a3,3,0,0,1,2.015.638,2.232,2.232,0,0,1,.746,1.793v2.977a3.284,3.284,0,0,0,.273,1.479V34Zm-1.517-1.276a1.58,1.58,0,0,0,.749-.181,1.188,1.188,0,0,0,.508-.486V30.877h-.686q-1.377,0-1.466.952l-.006.108a.734.734,0,0,0,.241.565A.937.937,0,0,0,44.973,32.724Zm10.7-2.095a4.159,4.159,0,0,1-.7,2.574A2.334,2.334,0,0,1,53,34.127a2.144,2.144,0,0,1-1.784-.857L51.13,34H49.48V24.25h1.834v3.5A2.089,2.089,0,0,1,52.984,27a2.353,2.353,0,0,1,1.971.924,4.165,4.165,0,0,1,.714,2.6Zm-1.834-.14a2.747,2.747,0,0,0-.33-1.525,1.115,1.115,0,0,0-.984-.481,1.21,1.21,0,0,0-1.206.719v2.719a1.226,1.226,0,0,0,1.219.726,1.133,1.133,0,0,0,1.168-.879A4.546,4.546,0,0,0,53.834,30.49Zm4.9,3.51H56.894V24.25h1.841Zm4.672.127a3.372,3.372,0,0,1-2.46-.927A3.294,3.294,0,0,1,60,30.731v-.178a4.149,4.149,0,0,1,.4-1.85,2.935,2.935,0,0,1,1.133-1.257A3.18,3.18,0,0,1,63.2,27a2.85,2.85,0,0,1,2.219.889,3.611,3.611,0,0,1,.809,2.52v.749H61.858a1.7,1.7,0,0,0,.536,1.079,1.621,1.621,0,0,0,1.133.406,1.98,1.98,0,0,0,1.657-.768l.9,1.009a2.754,2.754,0,0,1-1.117.911A3.665,3.665,0,0,1,63.407,34.127ZM63.2,28.484a1.146,1.146,0,0,0-.885.37,1.915,1.915,0,0,0-.435,1.058h2.552v-.147a1.366,1.366,0,0,0-.33-.947A1.183,1.183,0,0,0,63.2,28.484Zm7.236,1.9a9.244,9.244,0,0,1-.413,2.761,7.5,7.5,0,0,1-1.187,2.342,4.277,4.277,0,0,1-1.657,1.4l-.355-.971a4.464,4.464,0,0,0,1.422-2.095,9.7,9.7,0,0,0,.54-3.256v-.336a9.919,9.919,0,0,0-.517-3.345,4.653,4.653,0,0,0-1.444-2.171l.355-.971A4.278,4.278,0,0,1,68.805,25.1a7.4,7.4,0,0,1,1.187,2.292,9.178,9.178,0,0,1,.441,2.71Z" transform="translate(-8435 -8805.542)" fill="#12263f"/>
    <path id="Trazado_196493" data-name="Trazado 196493" d="M-16.7-2.425a.977.977,0,0,0-.381-.828,5,5,0,0,0-1.371-.609,9.72,9.72,0,0,1-1.568-.632,2.562,2.562,0,0,1-1.574-2.292,2.232,2.232,0,0,1,.422-1.336,2.753,2.753,0,0,1,1.212-.917,4.563,4.563,0,0,1,1.774-.33,4.154,4.154,0,0,1,1.765.359A2.81,2.81,0,0,1-15.215-8a2.649,2.649,0,0,1,.428,1.485h-1.9a1.246,1.246,0,0,0-.4-.987,1.644,1.644,0,0,0-1.124-.352,1.756,1.756,0,0,0-1.085.3.931.931,0,0,0-.387.778.892.892,0,0,0,.454.755,5.128,5.128,0,0,0,1.336.571A5.773,5.773,0,0,1-15.53-4.24a2.415,2.415,0,0,1,.743,1.8,2.224,2.224,0,0,1-.908,1.882,3.974,3.974,0,0,1-2.444.682,4.719,4.719,0,0,1-1.942-.39,3.074,3.074,0,0,1-1.336-1.07,2.739,2.739,0,0,1-.46-1.574h1.911q0,1.53,1.828,1.53a1.778,1.778,0,0,0,1.06-.276A.9.9,0,0,0-16.7-2.425Zm8.417.521h-3.339L-12.254,0h-2.025l3.44-9.242h1.765L-5.615,0H-7.639Zm-2.825-1.542h2.311L-9.956-6.906ZM-2.847-1.53H1.2V0H-4.751V-9.242h1.9ZM4.313,0h-1.9V-9.242h1.9ZM6.078,0V-9.242H8.922a4.319,4.319,0,0,1,2.18.549,3.829,3.829,0,0,1,1.5,1.562,4.816,4.816,0,0,1,.54,2.3v.425a4.83,4.83,0,0,1-.53,2.292A3.8,3.8,0,0,1,11.118-.559,4.351,4.351,0,0,1,8.941,0Zm1.9-7.7v6.17H8.9a2.068,2.068,0,0,0,1.708-.73,3.3,3.3,0,0,0,.6-2.088v-.489a3.351,3.351,0,0,0-.584-2.136A2.061,2.061,0,0,0,8.922-7.7ZM19.611-1.9H16.272L15.637,0H13.613l3.44-9.242h1.765L22.277,0H20.252ZM16.786-3.447H19.1L17.935-6.906ZM-24.35,13.242a9.742,9.742,0,0,1,.387-2.768A7.3,7.3,0,0,1-22.82,8.148a4.266,4.266,0,0,1,1.638-1.406l.355.99a4.418,4.418,0,0,0-1.447,2.12,9.817,9.817,0,0,0-.521,3.352v.2a10,10,0,0,0,.514,3.364,4.5,4.5,0,0,0,1.454,2.152l-.355.971a4.268,4.268,0,0,1-1.609-1.368,7.181,7.181,0,0,1-1.139-2.263,9.684,9.684,0,0,1-.419-2.679Zm11.857.679a3.27,3.27,0,0,1-1.1,2.349,3.868,3.868,0,0,1-2.618.857,3.478,3.478,0,0,1-2.8-1.2,4.906,4.906,0,0,1-1.019-3.285v-.565a5.54,5.54,0,0,1,.47-2.349,3.52,3.52,0,0,1,1.343-1.558,3.761,3.761,0,0,1,2.028-.543,3.768,3.768,0,0,1,2.577.857,3.515,3.515,0,0,1,1.13,2.406h-1.9a1.93,1.93,0,0,0-.5-1.3,1.845,1.845,0,0,0-1.3-.4,1.618,1.618,0,0,0-1.425.682,3.824,3.824,0,0,0-.486,2.117v.7a4.093,4.093,0,0,0,.454,2.19,1.588,1.588,0,0,0,1.431.692,1.88,1.88,0,0,0,1.317-.4,1.821,1.821,0,0,0,.5-1.247ZM-9.426,17h-1.841V7.25h1.841Zm3.447,0H-7.82V10.132h1.841ZM-7.928,8.354a.9.9,0,0,1,.276-.679A1.037,1.037,0,0,1-6.9,7.409a1.04,1.04,0,0,1,.749.267.9.9,0,0,1,.279.679.9.9,0,0,1-.282.686,1.042,1.042,0,0,1-.746.267,1.042,1.042,0,0,1-.746-.267A.9.9,0,0,1-7.928,8.354Zm6.621,8.772a3.372,3.372,0,0,1-2.46-.927,3.294,3.294,0,0,1-.949-2.469v-.178a4.149,4.149,0,0,1,.4-1.85,2.935,2.935,0,0,1,1.133-1.257A3.18,3.18,0,0,1-1.511,10a2.85,2.85,0,0,1,2.219.889,3.611,3.611,0,0,1,.809,2.52v.749H-2.856a1.7,1.7,0,0,0,.536,1.079,1.621,1.621,0,0,0,1.133.406A1.98,1.98,0,0,0,.47,14.88l.9,1.009A2.754,2.754,0,0,1,.254,16.8,3.665,3.665,0,0,1-1.308,17.127Zm-.209-5.643a1.146,1.146,0,0,0-.885.37,1.915,1.915,0,0,0-.435,1.058H-.286v-.147a1.366,1.366,0,0,0-.33-.947A1.183,1.183,0,0,0-1.517,11.484Zm5.764-1.352.057.793A2.4,2.4,0,0,1,6.278,10a1.993,1.993,0,0,1,1.625.641,2.991,2.991,0,0,1,.546,1.917V17H6.614V12.6a1.2,1.2,0,0,0-.254-.849,1.135,1.135,0,0,0-.844-.264,1.261,1.261,0,0,0-1.162.662V17H2.52V10.132Zm7.789-1.688v1.688h1.174v1.346H12.035v3.428a.818.818,0,0,0,.146.546.733.733,0,0,0,.559.165,2.925,2.925,0,0,0,.54-.044v1.39a3.777,3.777,0,0,1-1.111.165A1.752,1.752,0,0,1,10.2,15.178v-3.7h-1V10.132h1V8.443Zm5.357,8.684a3.372,3.372,0,0,1-2.46-.927,3.294,3.294,0,0,1-.949-2.469v-.178a4.149,4.149,0,0,1,.4-1.85,2.935,2.935,0,0,1,1.133-1.257A3.18,3.18,0,0,1,17.189,10a2.85,2.85,0,0,1,2.219.889,3.611,3.611,0,0,1,.809,2.52v.749H15.844a1.7,1.7,0,0,0,.536,1.079,1.621,1.621,0,0,0,1.133.406,1.98,1.98,0,0,0,1.657-.768l.9,1.009a2.754,2.754,0,0,1-1.117.911A3.665,3.665,0,0,1,17.393,17.127Zm-.209-5.643a1.146,1.146,0,0,0-.885.37,1.915,1.915,0,0,0-.435,1.058h2.552v-.147a1.366,1.366,0,0,0-.33-.947A1.183,1.183,0,0,0,17.183,11.484Zm7.236,1.9a9.244,9.244,0,0,1-.413,2.761,7.5,7.5,0,0,1-1.187,2.342,4.277,4.277,0,0,1-1.657,1.4l-.355-.971a4.464,4.464,0,0,0,1.422-2.095,9.7,9.7,0,0,0,.54-3.256v-.336a9.919,9.919,0,0,0-.517-3.345,4.653,4.653,0,0,0-1.444-2.171l.355-.971A4.278,4.278,0,0,1,22.791,8.1a7.4,7.4,0,0,1,1.187,2.292,9.178,9.178,0,0,1,.441,2.71Z" transform="translate(-8214 -8798.543)" fill="#12263f"/>
    <g id="Grupo_154406" data-name="Grupo 154406" transform="translate(-9254.863 -11023.542)">
      <text id="PROCEDIMIENTOS_cómo_se_hace_" data-name="PROCEDIMIENTOS  (cómo se hace) " transform="translate(815.366 2427)" fill="#12263f" font-size="16" font-family="Roboto-Regular, Roboto"><tspan x="-117.024" y="0">PROCEDIMIENTOS </tspan><tspan y="0" xml:space="preserve" font-size="13"> (cómo se hace) </tspan></text>
      <path id="Trazado_196205" data-name="Trazado 196205" d="M0,0H88.911l17.7,15.345-17.7,15.782H0Z" transform="translate(606.863 2369.326)" fill="#fffad8"/>
      <path id="Trazado_196206" data-name="Trazado 196206" d="M9.773,0h98.44L129.64,15.345,108.214,31.127H9.773L28.8,15.345Z" transform="translate(689.511 2369.326)" fill="#3cafff"/>
      <path id="Trazado_196207" data-name="Trazado 196207" d="M9.773,0h98.44L129.64,15.345,108.214,31.127H9.773L32.655,15.345Z" transform="translate(792.02 2369.326)" fill="#cdb8f1"/>
      <path id="Trazado_196208" data-name="Trazado 196208" d="M9.773,0h98.44L129.64,15.345,108.214,31.127H9.773L32.655,15.345Z" transform="translate(894.528 2369.326)" fill="#fff"/>
      <text id="Actividad" transform="translate(649.005 2388.702)" fill="#12263f" font-size="14" font-family="Roboto-Regular, Roboto"><tspan x="-29.008" y="0">Actividad</tspan></text>
      <text id="Actividad-2" data-name="Actividad" transform="translate(762.027 2388.702)" fill="#12263f" font-size="14" font-family="Roboto-Regular, Roboto"><tspan x="-29.008" y="0">Actividad</tspan></text>
      <text id="Actividad-3" data-name="Actividad" transform="translate(864.536 2388.702)" fill="#12263f" font-size="14" font-family="Roboto-Regular, Roboto"><tspan x="-29.008" y="0">Actividad</tspan></text>
      <text id="Actividad-4" data-name="Actividad" transform="translate(967.045 2388.702)" fill="#12263f" font-size="14" font-family="Roboto-Regular, Roboto"><tspan x="-29.008" y="0">Actividad</tspan></text>
    </g>
    <path id="Trazado_196483" data-name="Trazado 196483" d="M-7326.5-9512.062V-9487h461.37v-25.062" transform="translate(-1348.874 756.458)" fill="none" stroke="#3cafff" stroke-width="3"/>
    <path id="Trazado_196490" data-name="Trazado 196490" d="M8,0l8,14H0Z" transform="translate(-8683 -8760.542)" fill="#3cafff"/>
    <path id="Trazado_196491" data-name="Trazado 196491" d="M5,0l5,10H0Z" transform="translate(-8430 -8701.542) rotate(180)" fill="#3cafff"/>
    <path id="Trazado_196492" data-name="Trazado 196492" d="M0,0V24" transform="translate(-8435.5 -8730.542)" fill="none" stroke="#3cafff" stroke-width="3"/>
  </g>
</svg>
