<svg xmlns="http://www.w3.org/2000/svg" xmlns:xlink="http://www.w3.org/1999/xlink" width="97" height="90.329" viewBox="0 0 97 90.329">
  <defs>
    <filter id="Trazado_196174" x="16.5" y="1.321" width="63.35" height="77.008" filterUnits="userSpaceOnUse">
      <feOffset dy="3" input="SourceAlpha"/>
      <feGaussianBlur stdDeviation="3" result="blur"/>
      <feFlood flood-opacity="0.161"/>
      <feComposite operator="in" in2="blur"/>
      <feComposite in="SourceGraphic"/>
    </filter>
  </defs>
  <g id="Grupo_153293" data-name="Grupo 153293" transform="translate(-279.5 -2670.671)">
    <g transform="matrix(1, 0, 0, 1, 279.5, 2670.67)" filter="url(#Trazado_196174)">
      <path id="Trazado_196174-2" data-name="Trazado 196174" d="M-8.065-20.223V0h-13.7V-59.008H.77q10.5,0,16.657,5.35A17.724,17.724,0,0,1,23.587-39.6a17.663,17.663,0,0,1-6.16,14.043Q11.267-20.223.77-20.223Zm0-10.537H.77q4.458,0,6.809-2.452a8.732,8.732,0,0,0,2.351-6.3A9.1,9.1,0,0,0,7.6-45.958Q5.269-48.471.77-48.471H-8.065Z" transform="translate(47.26 66.33)" fill="#fff"/>
    </g>
    <line id="Línea_1805" data-name="Línea 1805" x2="97" transform="translate(279.5 2760.5)" fill="none" stroke="#fff" stroke-width="1" stroke-dasharray="6"/>
    <g id="Grupo_152595" data-name="Grupo 152595" transform="translate(407.146 2685.313) rotate(180)">
      <rect id="Rectángulo_45221" data-name="Rectángulo 45221" width="2.789" height="2.789" transform="translate(106.677 11.853)" fill="#1894f6"/>
      <rect id="Rectángulo_45222" data-name="Rectángulo 45222" width="2.789" height="2.789" transform="translate(100.751 11.853)" fill="#1894f6"/>
      <rect id="Rectángulo_45223" data-name="Rectángulo 45223" width="2.789" height="2.789" transform="translate(94.825 11.853)" fill="#1894f6"/>
      <rect id="Rectángulo_45232" data-name="Rectángulo 45232" width="2.789" height="2.789" transform="translate(106.677 5.926)" fill="#1894f6"/>
      <rect id="Rectángulo_45233" data-name="Rectángulo 45233" width="2.789" height="2.789" transform="translate(100.751 5.926)" fill="#1894f6"/>
      <rect id="Rectángulo_45234" data-name="Rectángulo 45234" width="2.789" height="2.789" transform="translate(94.825 5.926)" fill="#1894f6"/>
      <rect id="Rectángulo_45243" data-name="Rectángulo 45243" width="2.789" height="2.789" transform="translate(106.677)" fill="#1894f6"/>
      <rect id="Rectángulo_45244" data-name="Rectángulo 45244" width="2.789" height="2.789" transform="translate(100.751)" fill="#1894f6"/>
      <rect id="Rectángulo_45245" data-name="Rectángulo 45245" width="2.789" height="2.789" transform="translate(94.825)" fill="#1894f6"/>
    </g>
  </g>
</svg>
