<svg xmlns="http://www.w3.org/2000/svg" xmlns:xlink="http://www.w3.org/1999/xlink" width="97" height="89.008" viewBox="0 0 97 89.008">
  <defs>
    <filter id="Trazado_196177" x="12.5" y="0" width="71.253" height="77.008" filterUnits="userSpaceOnUse">
      <feOffset dy="3" input="SourceAlpha"/>
      <feGaussianBlur stdDeviation="3" result="blur"/>
      <feFlood flood-opacity="0.161"/>
      <feComposite operator="in" in2="blur"/>
      <feComposite in="SourceGraphic"/>
    </filter>
  </defs>
  <g id="Grupo_153296" data-name="Grupo 153296" transform="translate(-1224.5 -2671.992)">
    <g transform="matrix(1, 0, 0, 1, 1224.5, 2671.99)" filter="url(#Trazado_196177)">
      <path id="Trazado_196177-2" data-name="Trazado 196177" d="M9.1-11.469H-8.45L-11.854,0H-26.282l19.25-59.008H.3v.041l.041-.041H7.68L26.971,0H12.543ZM-5.289-22.006H5.937L.426-40.325H.182Z" transform="translate(47.78 65.01)" fill="#fff"/>
    </g>
    <line id="Línea_1808" data-name="Línea 1808" x2="97" transform="translate(1224.5 2760.5)" fill="none" stroke="#fff" stroke-width="1" stroke-dasharray="6"/>
    <g id="Grupo_153194" data-name="Grupo 153194" transform="translate(1401.398 2737) rotate(180)">
      <rect id="Rectángulo_45221" data-name="Rectángulo 45221" width="2.789" height="2.789" transform="translate(106.677 11.853)" fill="#1894f6"/>
      <rect id="Rectángulo_45222" data-name="Rectángulo 45222" width="2.789" height="2.789" transform="translate(100.751 11.853)" fill="#1894f6"/>
      <rect id="Rectángulo_45223" data-name="Rectángulo 45223" width="2.789" height="2.789" transform="translate(94.825 11.853)" fill="#1894f6"/>
      <rect id="Rectángulo_45232" data-name="Rectángulo 45232" width="2.789" height="2.789" transform="translate(106.677 5.926)" fill="#1894f6"/>
      <rect id="Rectángulo_45233" data-name="Rectángulo 45233" width="2.789" height="2.789" transform="translate(100.751 5.926)" fill="#1894f6"/>
      <rect id="Rectángulo_45234" data-name="Rectángulo 45234" width="2.789" height="2.789" transform="translate(94.825 5.926)" fill="#1894f6"/>
      <rect id="Rectángulo_45243" data-name="Rectángulo 45243" width="2.789" height="2.789" transform="translate(106.677)" fill="#1894f6"/>
      <rect id="Rectángulo_45244" data-name="Rectángulo 45244" width="2.789" height="2.789" transform="translate(100.751)" fill="#1894f6"/>
      <rect id="Rectángulo_45245" data-name="Rectángulo 45245" width="2.789" height="2.789" transform="translate(94.825)" fill="#1894f6"/>
    </g>
  </g>
</svg>
