<svg xmlns="http://www.w3.org/2000/svg" xmlns:xlink="http://www.w3.org/1999/xlink" width="108" height="108" viewBox="0 0 108 108">
  <defs>
    <clipPath id="clip-path">
      <rect id="Rectángulo_45974" data-name="Rectángulo 45974" width="71.301" height="71.216" fill="#fff"/>
    </clipPath>
  </defs>
  <g id="Grupo_154404" data-name="Grupo 154404" transform="translate(6120 4319)">
    <g id="Grupo_154400" data-name="Grupo 154400">
      <circle id="Elipse_5720" data-name="Elipse 5720" cx="54" cy="54" r="54" transform="translate(-6120 -4319)" fill="#baa1e1"/>
      <g id="Grupo_153408" data-name="Grupo 153408" transform="translate(-6102 -4301)">
        <g id="Grupo_153407" data-name="Grupo 153407" transform="translate(0 0)" clip-path="url(#clip-path)">
          <path id="Trazado_196227" data-name="Trazado 196227" d="M86.661,17,87.8,18.985a45.322,45.322,0,0,1,2.863,7.378L91.2,28.6a42.846,42.846,0,0,1,.629,7.7c-.024.76-.068,1.52-.1,2.283l-.442,3.374a36.615,36.615,0,0,1-3.164,9.442c-.555,1.105-1.108,1.273-2.192.661-.985-.555-1.977-1.105-2.965-1.657a10.3,10.3,0,0,0-1.812-1.048c-.544-.333-1.083-.676-1.635-1-1.154-.671-1.3-1.052-.721-2.276a23.569,23.569,0,0,0,2.005-6.55,16.721,16.721,0,0,0,.289-3.226,22.7,22.7,0,0,0-1.443-9.058,8.507,8.507,0,0,0-.857-2.091,21.651,21.651,0,0,0-4.306-6.456,6.615,6.615,0,0,0-1.284-1.3,21.743,21.743,0,0,0-6.268-4.3,8.9,8.9,0,0,0-2.121-.893,21.348,21.348,0,0,0-6.2-1.461c-.7-.07-1.4-.1-1.719-.886l-.1-2.674q.026-2.781.05-5.561c.01-1.384.417-1.713,1.818-1.625,1.559.1,3.091.355,4.631.592l2.369.568A41.861,41.861,0,0,1,73.1,4.138l1.781,1.03a46.849,46.849,0,0,1,5.771,4.421L82.3,11.252A46.746,46.746,0,0,1,86.661,17M59.277,2.6a5.979,5.979,0,0,0,0,1.626,16.187,16.187,0,0,0,.007,2.831c-.144,1.31-.144,1.31,1.107,1.5.073.011.144.034.218.045a32.714,32.714,0,0,1,6.115,1.716l2.092,1a32.8,32.8,0,0,1,5.946,4.185l1.626,1.642a33.717,33.717,0,0,1,4.268,6.2l.776,1.672a31.665,31.665,0,0,1,2.032,8.487l.077,2.8a28.862,28.862,0,0,1-1.732,8.8c-.6,1.587-.59,1.587.978,2.355a.256.256,0,0,0,.072.013,12.547,12.547,0,0,0,2.005,1.162c.391.242.792.474,1.174.733.289.2.4.08.519-.2a24.127,24.127,0,0,0,1.26-3.352,20.932,20.932,0,0,0,1.01-3.865,31.289,31.289,0,0,0,.313-10.839,11.439,11.439,0,0,0-.433-2.378,28.266,28.266,0,0,0-2.692-7.871,9.089,9.089,0,0,0-.977-1.793,27.053,27.053,0,0,0-4.466-6.09,10.725,10.725,0,0,0-1.643-1.652A26.574,26.574,0,0,0,72.98,6.9a6.967,6.967,0,0,0-1.669-.923,28.083,28.083,0,0,0-7.887-2.833,15.283,15.283,0,0,0-2.631-.5l-1.336-.155c-.1-.019-.22-.072-.18.115" transform="translate(-20.532 0)" fill="#fff"/>
          <path id="Trazado_196228" data-name="Trazado 196228" d="M20.623,93.754A47.8,47.8,0,0,1,14.7,89.243l-1.481-1.486c-1.027-1.228-2.106-2.412-3.018-3.733-.654-.949-.547-1.558.433-2.128q3.386-1.962,6.781-3.9a1.218,1.218,0,0,1,1.717.14,1.268,1.268,0,0,1,.142.208,14.36,14.36,0,0,0,1.639,1.892A8.129,8.129,0,0,0,22.4,81.712a21.6,21.6,0,0,0,6.372,4.21,7.1,7.1,0,0,0,1.8.744,22.936,22.936,0,0,0,9.359,1.548,16.909,16.909,0,0,0,3.273-.308,22.476,22.476,0,0,0,5.608-1.6,24.881,24.881,0,0,0,10.872-8.782c.694-.987,1.1-1.065,2.173-.456.494.278.994.54,1.491.809a13.231,13.231,0,0,0,1.987,1.154c1,.591,1.99,1.188,2.99,1.771,1.085.632,1.238,1.2.544,2.224A35.269,35.269,0,0,1,46.3,98.23c-.241.051-.481.114-.721.17l-3.359.433a39.9,39.9,0,0,1-9.857-.506L30.31,97.85A44.652,44.652,0,0,1,22.636,94.9Zm-1.456-11.8c-.332-.4-.676-.783-.993-1.192a.387.387,0,0,0-.517-.179.377.377,0,0,0-.092.063c-1.587.937-3.195,1.847-4.849,2.8a22.5,22.5,0,0,0,2.4,2.742,9.061,9.061,0,0,0,1.488,1.48,26.726,26.726,0,0,0,6.09,4.462,8.924,8.924,0,0,0,1.791.981,28.682,28.682,0,0,0,7.87,2.7,11.715,11.715,0,0,0,2.379.433,30.4,30.4,0,0,0,11.009-.372,20.425,20.425,0,0,0,3.8-.976,28.2,28.2,0,0,0,4.317-1.743,32.961,32.961,0,0,0,12.156-10.2c.144-.193.608-.433.047-.721-.866-.462-1.725-.955-2.586-1.443-.629-.379-1.263-.75-1.885-1.143-.252-.158-.4-.157-.594.105a28.827,28.827,0,0,1-4.3,4.56,37.545,37.545,0,0,1-3.763,2.6,28.035,28.035,0,0,1-13,3.731l-2.811-.058a32.221,32.221,0,0,1-8.48-2.034l-1.93-.9A32.806,32.806,0,0,1,20.7,83.451Z" transform="translate(-3.538 -27.723)" fill="#fff"/>
          <path id="Trazado_196229" data-name="Trazado 196229" d="M34.049,58.521a4.835,4.835,0,0,1-1.567-4.6.47.47,0,0,0-.248-.544c-.748-.52-1.483-1.052-2.225-1.578l-1.626-1.2c-.183-.255-.361-.12-.567-.016a4.833,4.833,0,0,1-7.173-2.6,6.868,6.868,0,0,1-.049-2.669,4.6,4.6,0,0,1,3.448-3.463,6.753,6.753,0,0,1,2.666.072c2.669,1.225,3.867,3.433,3.09,5.894-.2.632-.057.9.464,1.135l1.62,1.2c.433.326.884.633,1.3.985a.561.561,0,0,0,.789.084.6.6,0,0,0,.076-.075,4.829,4.829,0,0,1,6.2.059.576.576,0,0,0,.815.051.551.551,0,0,0,.051-.051c1.01-.762,2.02-1.515,3.049-2.235a.689.689,0,0,0,.332-.915l-.016-.032a4.73,4.73,0,0,1,2.6-5.858,5.1,5.1,0,0,1,3.334-.232,7.216,7.216,0,0,1,1.984,1.2,4.17,4.17,0,0,1,1.288,3.837c-.45,1.516.289,2.117,1.332,2.728.211.123.41.264.615.4a11.3,11.3,0,0,1,1.092.866c.511.508.937.486,1.352-.088,3.272-1.712,6.044-.735,7.422,2.617a7.071,7.071,0,0,1-.023,2.822,4.888,4.888,0,0,1-3.1,3.126,7.528,7.528,0,0,1-2.824.017c-2.463-.986-3.671-2.675-3.381-5.011a1.187,1.187,0,0,0-.756-1.477l-1.511-1.1c-.529-.4-1.075-.783-1.58-1.213-.3-.257-.513-.2-.838-.031a4.926,4.926,0,0,1-4.823.062.739.739,0,0,0-.922.062c-1.154.886-2.336,1.749-3.521,2.6a.787.787,0,0,0-.389.895,4.722,4.722,0,0,1-3.607,5.223,6.016,6.016,0,0,1-2.57-.059ZM47.115,47.884a2.163,2.163,0,0,0,2.38.939A2.241,2.241,0,0,0,51.318,47a2.165,2.165,0,0,0-.942-2.381,2.329,2.329,0,0,0-3.263,3.265Zm-11.487,8.73a2.332,2.332,0,1,0-.35-.35,2.385,2.385,0,0,0,.35.35M27.61,46.521a2.374,2.374,0,1,0-2.385,2.362h.017A2.391,2.391,0,0,0,27.6,46.521Zm35.651,8.307A2.374,2.374,0,1,0,60.848,57.2a2.374,2.374,0,0,0,2.413-2.375v0Z" transform="translate(-7.406 -15.096)" fill="#fff"/>
          <path id="Trazado_196230" data-name="Trazado 196230" d="M5.649,64.161a1.67,1.67,0,0,1-1.412-1.075,40.837,40.837,0,0,1-2.972-7.433L.7,53.285a38.527,38.527,0,0,1-.619-9.8l.364-3.255a40.5,40.5,0,0,1,2.087-7.241c.392-.932.805-1.855,1.246-2.765a1.257,1.257,0,0,1,2-.621c1.034.577,2.062,1.154,3.094,1.732a12.9,12.9,0,0,0,1.857,1.083c.633.377,1.271.746,1.9,1.133A1.207,1.207,0,0,1,13.2,35.3c-.116.271-.258.531-.372.8a22.021,22.021,0,0,0-1.821,6.5,12.808,12.808,0,0,0-.268,3.121,22.787,22.787,0,0,0,1.55,9.082,9.224,9.224,0,0,0,.909,2.137c.2.421.407.84.6,1.264a1.108,1.108,0,0,1-.37,1.523l-.054.031c-2.574,1.481-5.08,3.063-7.729,4.4M7.161,33.184c-.421-.253-.851-.49-1.258-.762-.312-.209-.476-.208-.639.188A32.914,32.914,0,0,0,3.923,36.2a19.905,19.905,0,0,0-.941,3.887,3.148,3.148,0,0,0-.13.421,32.618,32.618,0,0,0-.127,10.315,16.677,16.677,0,0,0,.459,2.505A32.547,32.547,0,0,0,5.766,60.81c.257.544.48.405.793.118,1.1-.614,2.2-1.219,3.286-1.844,1.366-.785,1.363-.792.6-2.231A30.883,30.883,0,0,1,8.4,48.522l-.1-2.793a28.634,28.634,0,0,1,1.732-9.091c.593-1.578.589-1.587-.978-2.339Z" transform="translate(0 -10.601)" fill="#fff"/>
          <path id="Trazado_196231" data-name="Trazado 196231" d="M36.091.029C38.175,0,38.273.1,38.281,2.241c0,1.852.029,3.7.045,5.555-.016.512-.027,1.024-.049,1.537-.037.873-.352,1.2-1.226,1.359a8.917,8.917,0,0,0-1.815.237,4.338,4.338,0,0,0-.515.026,24.838,24.838,0,0,0-16.35,10.3c-.778,1.111-1.154,1.179-2.339.5-.471-.27-.948-.525-1.421-.787l-1.53-.88-3.5-2.059c-.988-.577-1.135-1.172-.482-2.13A35.518,35.518,0,0,1,32.445.517a4.011,4.011,0,0,0,.419-.128ZM32.712,2.922a20.5,20.5,0,0,0-3.851.948,30.53,30.53,0,0,0-7.019,3.108,33.1,33.1,0,0,0-9.886,8.955c-.2.273-.467.505.059.771.922.466,1.812,1,2.717,1.5.567.344,1.138.677,1.7,1.035.223.144.368.16.543-.082a28.131,28.131,0,0,1,5.808-5.772,31.125,31.125,0,0,1,5.153-2.9A27.256,27.256,0,0,1,35.188,8.5c.277-.034.73.1.721-.489-.025-1.707-.015-3.414,0-5.121,0-.315-.072-.462-.416-.405A23.391,23.391,0,0,0,32.712,2.922Z" transform="translate(-3.145 -0.009)" fill="#fff"/>
        </g>
      </g>
    </g>
  </g>
</svg>
