<svg xmlns="http://www.w3.org/2000/svg" xmlns:xlink="http://www.w3.org/1999/xlink" width="108" height="108" viewBox="0 0 108 108">
  <defs>
    <clipPath id="clip-path">
      <rect id="Rectángulo_45972" data-name="Rectángulo 45972" width="59.801" height="59.773" fill="#fff"/>
    </clipPath>
  </defs>
  <g id="Grupo_153404" data-name="Grupo 153404" transform="translate(-746 -7380.877)">
    <circle id="Elipse_5717" data-name="Elipse 5717" cx="54" cy="54" r="54" transform="translate(746 7380.877)" fill="#baa1e1"/>
    <g id="Grupo_153403" data-name="Grupo 153403" transform="translate(770.1 7404.991)">
      <g id="Grupo_153402" data-name="Grupo 153402" clip-path="url(#clip-path)">
        <path id="Trazado_196221" data-name="Trazado 196221" d="M30.713,9.746A20.924,20.924,0,1,0,51.635,30.671h0A20.924,20.924,0,0,0,30.713,9.746m0,1.993a18.91,18.91,0,0,1,15.465,8.04l-2.492,2.492a3.931,3.931,0,0,0-2.008-.568,3.985,3.985,0,0,0-3.985,3.985,3.934,3.934,0,0,0,.553,2.006l-6.524,6.524a3.864,3.864,0,0,0-4.024,0l-4.531-4.531a3.933,3.933,0,0,0,.566-2.011,3.977,3.977,0,0,0-7.829-1H12.21a18.958,18.958,0,0,1,18.5-14.94M43.666,25.688A1.993,1.993,0,1,1,41.672,23.7a1.993,1.993,0,0,1,1.993,1.993ZM31.709,37.644a1.993,1.993,0,1,1-1.993-1.993h0a1.993,1.993,0,0,1,1.991,1.993m-9.963-9.963a1.993,1.993,0,1,1-1.993-1.993,1.993,1.993,0,0,1,1.993,1.993ZM39.911,47.221A18.926,18.926,0,0,1,11.889,28.676H15.91a3.986,3.986,0,0,0,3.844,2.993,3.934,3.934,0,0,0,2.011-.566L26.3,35.634a3.933,3.933,0,0,0-.566,2.011,3.986,3.986,0,1,0,7.971,0,3.933,3.933,0,0,0-.566-2.011L39.66,29.11a3.933,3.933,0,0,0,2.011.566,3.985,3.985,0,0,0,3.985-3.985,3.93,3.93,0,0,0-.566-2.011l2.173-2.171a18.914,18.914,0,0,1-7.351,25.712" transform="translate(-5.785 -5.76)" fill="#fff"/>
        <path id="Trazado_196222" data-name="Trazado 196222" d="M49.836,9.964A3.984,3.984,0,0,0,53.68,6.971H59.8V4.982H53.68a3.977,3.977,0,0,0-7.829,1,3.93,3.93,0,0,0,.566,2.011L44.666,9.741a24.908,24.908,0,1,0-6.214,36.074l3.008,3.008,1.41,1.41,8.021,8.021a5.224,5.224,0,0,0,7.387-7.388l-8.021-8.02-1.409-1.408L45.84,38.429a24.828,24.828,0,0,0,0-27.036L47.833,9.4a3.933,3.933,0,0,0,2,.564m0-5.985a1.99,1.99,0,1,0,0,.007Zm7.021,48.294a3.231,3.231,0,1,1-4.343,4.783c-.059-.054-.116-.11-.171-.167l-.052-.052L44.27,48.815l4.57-4.57ZM47.43,42.845l-4.57,4.57L40.1,44.654c.141-.108.272-.226.41-.337s.3-.243.449-.368c.218-.184.434-.368.645-.56.109-.1.213-.2.319-.3q.612-.575,1.187-1.187c.1-.106.2-.209.3-.319.19-.211.375-.427.559-.645q.187-.221.368-.449c.109-.137.227-.269.335-.41Zm-3.864-4.628c-.314.438-.638.868-.98,1.281-.1.121-.207.236-.308.356q-.458.532-.944,1.032-.212.218-.431.431-.5.488-1.032.944c-.118.1-.235.208-.356.308-.413.341-.842.666-1.281.98a22.951,22.951,0,1,1,5.333-5.333" transform="translate(0 0)" fill="#fff"/>
      </g>
    </g>
  </g>
</svg>
