<svg xmlns="http://www.w3.org/2000/svg" xmlns:xlink="http://www.w3.org/1999/xlink" width="108" height="108" viewBox="0 0 108 108">
  <defs>
    <clipPath id="clip-path">
      <rect id="Rectángulo_45976" data-name="Rectángulo 45976" width="63.25" height="63.25" fill="#fff"/>
    </clipPath>
  </defs>
  <g id="Grupo_154402" data-name="Grupo 154402" transform="translate(5497 4317)">
    <circle id="Elipse_5719" data-name="Elipse 5719" cx="54" cy="54" r="54" transform="translate(-5497 -4317)" fill="#baa1e1"/>
    <g id="Grupo_153412" data-name="Grupo 153412" transform="translate(-5475 -4295)">
      <g id="Grupo_153411" data-name="Grupo 153411" clip-path="url(#clip-path)">
        <path id="Trazado_196242" data-name="Trazado 196242" d="M63.25,32a1.565,1.565,0,0,1-1.4.572c-1.233-.025-2.466-.007-3.756-.007A26.565,26.565,0,0,1,32.55,58.095c0,1,0,1.985,0,2.965,0,.412.015.825-.011,1.235a.915.915,0,0,1-.923.956.905.905,0,0,1-.909-.967c-.025-1.194-.011-2.388-.012-3.583,0-.183,0-.365,0-.6A26.569,26.569,0,0,1,5.155,32.563H2.931c-.638,0-1.277.017-1.914-.01A.929.929,0,0,1,0,31.622a.915.915,0,0,1,1.029-.907c1.132-.015,2.265-.005,3.4-.006H5.1c.153-1.231.263-2.413.453-3.582a25.742,25.742,0,0,1,4.613-10.991.937.937,0,0,1,1.374-.361c.477.329.534.869.112,1.459a23.982,23.982,0,0,0-4.163,9.6c-.234,1.247-.354,2.516-.535,3.832h3.238A21.687,21.687,0,0,1,30.658,10.19V7c-1.008.109-2.007.168-2.99.331A24.3,24.3,0,0,0,14.35,14.093a2.043,2.043,0,0,1-.754.5.806.806,0,0,1-.986-.439.844.844,0,0,1,.194-1.12c1-.892,1.961-1.829,3.027-2.63A25.939,25.939,0,0,1,30.3,5.195c.1-.006.2-.018.4-.035V2.95c0-.535.022-1.072-.006-1.606A1.448,1.448,0,0,1,31.252,0h.741a1.506,1.506,0,0,1,.563,1.4c-.029.575-.006,1.153-.006,1.729V5.162c.216.017.337.028.457.035a25.942,25.942,0,0,1,14.4,5.2c1.018.762,1.952,1.641,2.892,2.5a.87.87,0,0,1,.027,1.319.943.943,0,0,1-1.287.012,3.555,3.555,0,0,1-.272-.251A24.138,24.138,0,0,0,36.323,7.471c-1.22-.235-2.466-.333-3.721-.5v3.26a21.532,21.532,0,0,1,20.42,20.443h3.265c-.175-1.3-.288-2.57-.523-3.813a23.992,23.992,0,0,0-4.3-9.8c-.43-.589-.385-1.123.088-1.463a.943.943,0,0,1,1.381.342,25.73,25.73,0,0,1,4.75,11.126c.2,1.188.306,2.391.461,3.642,1.253,0,2.507.02,3.758-.009a1.5,1.5,0,0,1,1.345.557Zm-12.09-.371A19.538,19.538,0,1,0,31.591,51.166,19.534,19.534,0,0,0,51.16,31.628M7.1,32.6c.1,12.566,11.2,23.477,23.543,23.548V53.169c-12.1-1.694-18.911-8.509-20.569-20.605-.794,0-1.677,0-2.559,0-.139,0-.278.021-.414.032M32.588,56.233A24.348,24.348,0,0,0,49.635,48.36a24.209,24.209,0,0,0,6.584-15.745H53.166c-1.709,12.105-8.525,18.911-20.578,20.55Z" transform="translate(0 0)" fill="#fff"/>
        <path id="Trazado_196243" data-name="Trazado 196243" d="M54.784,45.054c1.706,0,3.372,0,5.038,0a4.647,4.647,0,0,1,.616.02.844.844,0,0,1,.792.876.818.818,0,0,1-.749.907,13.863,13.863,0,0,1-1.54.048c-1.376.005-2.752,0-4.156,0-.818,4.43-3.416,7.056-7.9,7.888v1.39c0,1.317.007,2.634,0,3.952-.006.686-.355,1.1-.9,1.115-.562.019-.944-.412-.949-1.123-.012-1.543,0-3.087,0-4.631v-.7a9.053,9.053,0,0,1-7.893-7.889H35.755c-1.317,0-2.634.01-3.952-.006-.709-.008-1.14-.4-1.12-.958.02-.543.432-.883,1.118-.886,1.768-.007,3.537,0,5.336,0,.8-4.452,3.427-7.075,7.9-7.906,0-1.572,0-3.131,0-4.691,0-.288-.012-.578.015-.864a.922.922,0,0,1,.915-.9.9.9,0,0,1,.905.906c.033.9.017,1.811.019,2.716,0,.925,0,1.851,0,2.827,4.43.805,7.067,3.419,7.894,7.911m-15.669,0h.657c.989,0,1.977-.011,2.965.013a.838.838,0,0,1,.887.843.867.867,0,0,1-.824.968,6.549,6.549,0,0,1-.862.028c-.941,0-1.882,0-2.828,0,.261,2.994,3.3,5.991,5.926,5.864,0-.24,0-.484,0-.727,0-.947-.015-1.9.018-2.841a.86.86,0,0,1,.9-.9.876.876,0,0,1,.919.881c.027.265.015.535.015.8q0,1.412,0,2.826c2.942-.2,5.943-3.225,5.878-5.91-.529,0-1.061,0-1.593,0-.7-.006-1.4.015-2.1-.043a.813.813,0,0,1-.777-.938.83.83,0,0,1,.81-.851,6.34,6.34,0,0,1,.74-.019q1.472,0,2.947,0a6.734,6.734,0,0,0-5.908-5.911v.665c0,.947.014,1.895-.01,2.841a.92.92,0,1,1-1.835.014c-.025-.679-.009-1.359-.01-2.038,0-.5,0-1.007,0-1.521a6.836,6.836,0,0,0-5.92,5.95" transform="translate(-14.34 -14.345)" fill="#fff"/>
      </g>
    </g>
  </g>
</svg>
