<svg xmlns="http://www.w3.org/2000/svg" xmlns:xlink="http://www.w3.org/1999/xlink" width="220" height="103" viewBox="0 0 220 103">
  <defs>
    <clipPath id="clip-path">
      <rect id="Rectángulo_45978" data-name="Rectángulo 45978" width="91.962" height="91.966" fill="#fff"/>
    </clipPath>
  </defs>
  <g id="Grupo_154409" data-name="Grupo 154409" transform="translate(5242 9763)">
    <g id="Grupo_154406" data-name="Grupo 154406" transform="translate(-5 4)">
      <path id="Trazado_196512" data-name="Trazado 196512" d="M3.946,17H1.31V4.2H3.946ZM8.561,7.49l.079,1.1a3.32,3.32,0,0,1,2.733-1.274,2.759,2.759,0,0,1,2.25.888,4.142,4.142,0,0,1,.756,2.654V17h-2.54V10.9a1.654,1.654,0,0,0-.352-1.176,1.572,1.572,0,0,0-1.169-.366,1.747,1.747,0,0,0-1.608.916V17H6.17V7.49ZM19.345,5.152V7.49h1.626V9.354H19.345V14.1a1.133,1.133,0,0,0,.2.756,1.015,1.015,0,0,0,.773.229,4.051,4.051,0,0,0,.747-.062v1.925a5.229,5.229,0,0,1-1.538.229,2.425,2.425,0,0,1-2.725-2.7V9.354H15.416V7.49H16.8V5.152Zm7.418,12.023a4.668,4.668,0,0,1-3.406-1.283,4.561,4.561,0,0,1-1.314-3.419v-.246A5.745,5.745,0,0,1,22.6,9.666a4.064,4.064,0,0,1,1.569-1.74,4.4,4.4,0,0,1,2.316-.611,3.947,3.947,0,0,1,3.072,1.23,5,5,0,0,1,1.121,3.489v1.037H24.618a2.36,2.36,0,0,0,.743,1.494,2.245,2.245,0,0,0,1.569.563,2.742,2.742,0,0,0,2.294-1.063l1.248,1.4a3.813,3.813,0,0,1-1.547,1.261A5.075,5.075,0,0,1,26.763,17.176Zm-.29-7.813a1.587,1.587,0,0,0-1.226.512,2.651,2.651,0,0,0-.6,1.466h3.533v-.2a1.891,1.891,0,0,0-.457-1.311A1.638,1.638,0,0,0,26.473,9.362Zm10.986.51a6.9,6.9,0,0,0-.914-.07,1.86,1.86,0,0,0-1.89.976V17h-2.54V7.49h2.4l.07,1.134A2.354,2.354,0,0,1,36.7,7.314a2.662,2.662,0,0,1,.791.114Zm3.56-2.382.079,1.1a3.32,3.32,0,0,1,2.733-1.274,2.759,2.759,0,0,1,2.25.888,4.142,4.142,0,0,1,.756,2.654V17H44.3V10.9a1.654,1.654,0,0,0-.352-1.176,1.572,1.572,0,0,0-1.169-.366,1.747,1.747,0,0,0-1.608.916V17h-2.54V7.49Zm7.348,4.667a5.64,5.64,0,0,1,.545-2.522A3.989,3.989,0,0,1,50.48,7.921a4.577,4.577,0,0,1,2.377-.606A4.33,4.33,0,0,1,56,8.492a4.727,4.727,0,0,1,1.358,3.2l.018.65a4.97,4.97,0,0,1-1.222,3.511,4.735,4.735,0,0,1-6.561,0,5.058,5.058,0,0,1-1.226-3.586Zm2.54.18a3.555,3.555,0,0,0,.51,2.073,1.831,1.831,0,0,0,2.9.009,3.89,3.89,0,0,0,.519-2.267,3.519,3.519,0,0,0-.519-2.06,1.686,1.686,0,0,0-1.459-.731,1.658,1.658,0,0,0-1.441.726A3.955,3.955,0,0,0,50.906,12.338ZM64.09,14.372a.818.818,0,0,0-.461-.734,5.241,5.241,0,0,0-1.481-.479q-3.393-.712-3.393-2.883a2.613,2.613,0,0,1,1.05-2.114,4.237,4.237,0,0,1,2.747-.848,4.56,4.56,0,0,1,2.9.853,2.687,2.687,0,0,1,1.085,2.215h-2.54a1.229,1.229,0,0,0-.352-.9,1.488,1.488,0,0,0-1.1-.356,1.52,1.52,0,0,0-.993.29.916.916,0,0,0-.352.738.783.783,0,0,0,.4.681,4.114,4.114,0,0,0,1.349.448,11.019,11.019,0,0,1,1.6.426,2.628,2.628,0,0,1,2.013,2.558,2.481,2.481,0,0,1-1.116,2.1,4.815,4.815,0,0,1-2.883.8,5.029,5.029,0,0,1-2.123-.426,3.561,3.561,0,0,1-1.455-1.169,2.716,2.716,0,0,1-.527-1.6h2.408a1.326,1.326,0,0,0,.5,1.037,1.987,1.987,0,0,0,1.248.36,1.839,1.839,0,0,0,1.1-.277A.861.861,0,0,0,64.09,14.372Z" transform="translate(-5096 -9690.617)" fill="#3cffe9"/>
      <g id="Grupo_154304" data-name="Grupo 154304" transform="translate(-5468.033 -11700.758)">
        <g id="Grupo_152595" data-name="Grupo 152595" transform="translate(368.142 2000.466) rotate(180)">
          <rect id="Rectángulo_45221" data-name="Rectángulo 45221" width="5.578" height="5.578" transform="translate(118.531 23.706)" fill="#1894f6"/>
          <rect id="Rectángulo_45222" data-name="Rectángulo 45222" width="5.578" height="5.578" transform="translate(106.678 23.706)" fill="#1894f6"/>
          <rect id="Rectángulo_45223" data-name="Rectángulo 45223" width="5.578" height="5.578" transform="translate(94.825 23.706)" fill="#1894f6"/>
          <rect id="Rectángulo_45232" data-name="Rectángulo 45232" width="5.578" height="5.578" transform="translate(118.531 11.853)" fill="#1894f6"/>
          <rect id="Rectángulo_45233" data-name="Rectángulo 45233" width="5.578" height="5.578" transform="translate(106.678 11.853)" fill="#1894f6"/>
          <rect id="Rectángulo_45234" data-name="Rectángulo 45234" width="5.578" height="5.578" transform="translate(94.825 11.853)" fill="#1894f6"/>
          <rect id="Rectángulo_45243" data-name="Rectángulo 45243" width="5.578" height="5.578" transform="translate(118.531)" fill="#1894f6"/>
          <rect id="Rectángulo_45244" data-name="Rectángulo 45244" width="5.578" height="5.578" transform="translate(106.678)" fill="#1894f6"/>
          <rect id="Rectángulo_45245" data-name="Rectángulo 45245" width="5.578" height="5.578" transform="translate(94.825)" fill="#1894f6"/>
        </g>
        <g id="Grupo_154303" data-name="Grupo 154303" transform="translate(258.675 1939.758)">
          <g id="Grupo_154303-2" data-name="Grupo 154303" transform="translate(0 0)" clip-path="url(#clip-path)">
            <path id="Trazado_196253" data-name="Trazado 196253" d="M91.95,26.175A4.571,4.571,0,0,0,87.5,21.485c-.1,0-.193,0-.289,0-1.726-.013-3.452-.038-5.178.016-.679.02-.833-.17-.83-.836.029-5.139.017-10.277.015-15.418A4.658,4.658,0,0,0,76.043.033H15.919a4.66,4.66,0,0,0-5.177,5.219c0,8.2-.01,16.405.015,24.61,0,.67-.157.855-.832.833-1.726-.053-3.452-.027-5.177-.016a4.572,4.572,0,0,0-4.734,4.4c0,.1,0,.191,0,.285q-.024,7.564,0,15.13a4.576,4.576,0,0,0,4.455,4.693c.094,0,.188,0,.282,0,1.691.013,3.384.046,5.074-.017.755-.027.929.19.927.932q-.039,15.272-.017,30.545c0,3.527,1.772,5.314,5.27,5.314H75.851c3.6,0,5.365-1.75,5.365-5.316V75.256q0-14.22-.016-28.44c0-.67.157-.855.831-.833,1.726.053,3.452.029,5.178.015a4.57,4.57,0,0,0,4.733-4.4c0-.1,0-.195,0-.292q.032-7.564,0-15.13M23.5,3.1a1.243,1.243,0,0,0,.191,0C26.07,3.043,26.07,3.043,26.07,5.4V7.074c-1.184-1.189-1.839-1.189-3.065-.042,0-1.21.015-2.341-.008-3.472-.007-.394.153-.506.5-.463M5.143,52.127c-1.569,0-2.052-.489-2.052-2.056V35.716c0-1.448.515-1.973,1.94-1.973H28.763c1.367,0,1.9.539,1.9,1.915V50.2c0,1.378-.537,1.916-1.9,1.923H23.984c-2.173,0-2.51.328-2.51,2.462v1.553c-1.1-1.13-2.04-2.027-2.9-3a3,3,0,0,0-2.526-1.032c-3.637.053-7.274.031-10.911.021ZM78.164,56.06V86.7c0,1.758-.441,2.2-2.2,2.2H16.023c-1.767,0-2.2-.436-2.2-2.2q0-15.272-.019-30.545c0-.785.157-.979.967-1.006a3.036,3.036,0,0,1,2.572,1.069c1.38,1.5,2.873,2.9,4.309,4.354a1.631,1.631,0,0,0,1.95.586,1.679,1.679,0,0,0,.936-1.8c-.024-1.18.019-2.363-.017-3.543-.016-.507.139-.647.639-.628,1.307.033,2.617.025,3.923,0A4.561,4.561,0,0,0,33.718,50.7c0-.037,0-.073,0-.11q.037-7.661,0-15.322a4.55,4.55,0,0,0-4.513-4.587c-.042,0-.086,0-.128,0q-7.229-.028-14.459.012c-.68,0-.828-.174-.826-.838.025-8.267.014-16.534.017-24.8,0-1.439.52-1.952,1.958-1.958,1.149,0,2.3.035,3.452-.015.591-.025.746.136.737.732-.036,2.68,0,5.363-.024,8.043-.008.883.2,1.609,1.11,1.883s1.5-.248,1.96-.978.976-1.47,1.534-2.309c.518.773.984,1.443,1.42,2.134.483.763,1.02,1.462,2.059,1.153s1.135-1.143,1.126-2.072c-.025-2.617.009-5.234-.024-7.845,0-.578.119-.744.727-.742q23.221.028,46.443.017c1.318,0,1.874.547,1.875,1.848,0,5.267-.013,10.533.022,15.8,0,.688-.253.749-.818.746-4.691-.019-9.384-.013-14.076-.01a4.625,4.625,0,0,0-5.043,5.061V41a4.616,4.616,0,0,0,5.012,5c1.148,0,2.3.032,3.452-.012.566-.022.785.1.75.719-.056,1.21,0,2.426-.02,3.639a1.571,1.571,0,0,0,.941,1.621,1.515,1.515,0,0,0,1.814-.448q2.511-2.5,5.021-5a4.2,4.2,0,0,1,2.771-.5c.348.179.176.51.176.763q.006,4.648,0,9.288M88.888,41.017c0,1.371-.542,1.911-1.908,1.913-3.733,0-7.465.025-11.2-.015a2.779,2.779,0,0,0-2.28.929c-.9.992-1.875,1.913-3,3.047,0-.892.011-1.551,0-2.208a1.569,1.569,0,0,0-1.361-1.752,1.616,1.616,0,0,0-.421,0c-1.85-.012-3.7,0-5.552,0-1.307,0-1.854-.554-1.856-1.867q-.01-7.32,0-14.642c0-1.318.546-1.872,1.848-1.872h23.83c1.365,0,1.9.542,1.9,1.923q0,7.27,0,14.543Z" transform="translate(0 0)" fill="#fff"/>
            <path id="Trazado_196254" data-name="Trazado 196254" d="M27.282,89.529q22.933-.039,45.866-.019c2.214,0,2.178,0,2.223-2.2.015-.725-.179-.88-.887-.879-7.845.028-15.7.017-23.555.017h-22.5c-2.11,0-2.066,0-2.129,2.109-.024.8.194.968.984.968" transform="translate(-4.847 -15.93)" fill="#fff"/>
            <path id="Trazado_196255" data-name="Trazado 196255" d="M77.853,93.937q-15.272.045-30.544.02c-2.214,0-2.18,0-2.224,2.2-.014.72.173.885.885.88,5.335-.033,10.66-.019,15.99-.019H76.71c2.112,0,2.068,0,2.131-2.107.019-.8-.195-.975-.987-.972" transform="translate(-8.309 -17.313)" fill="#fff"/>
            <path id="Trazado_196256" data-name="Trazado 196256" d="M48.837,73.611c-.014.719.168.887.883.882,4.787-.036,9.571-.019,14.363-.019h13.31c2.112,0,2.069,0,2.131-2.105.024-.8-.187-.983-.98-.98-9.16.032-18.32.02-27.48.02-2.214,0-2.179,0-2.226,2.2" transform="translate(-9.001 -13.157)" fill="#fff"/>
            <path id="Trazado_196257" data-name="Trazado 196257" d="M51.408,25.878a7.374,7.374,0,0,0,8.148-1.05c.923-.724.9-.748,0-1.539a8.206,8.206,0,0,1-.785-.7c-.428-.483-.72-.538-1.29-.053a4.463,4.463,0,0,1-6.008-.27,4.563,4.563,0,0,1-.526-6.008,4.638,4.638,0,0,1,5.987-1.295c.457.251.757.955,1.29.785.471-.149.83-.671,1.237-1.026a2.632,2.632,0,0,1,.36-.314c.649-.383.471-.709,0-1.113a7.42,7.42,0,0,0-8.2-1.346,7.6,7.6,0,0,0-.2,13.925Z" transform="translate(-8.656 -2.077)" fill="#fff"/>
            <path id="Trazado_196258" data-name="Trazado 196258" d="M34.7,82.014c6.1-.031,12.191-.019,18.287-.019,2.328,0,2.3,0,2.317-2.3,0-.628-.157-.785-.785-.785q-2.464.023-4.93.02H36.039c-2.215,0-2.181,0-2.225,2.2-.014.72.17.887.883.883" transform="translate(-6.232 -14.544)" fill="#fff"/>
            <path id="Trazado_196259" data-name="Trazado 196259" d="M45.075,38.054c-.068.6.146.739.732.731q2.107-.023,4.213-.02H61.227c2.265,0,2.234,0,2.268-2.251.01-.678-.171-.833-.836-.829-5.074.03-10.149.011-15.219.022-.757,0-1.748-.326-2.206.135s-.069,1.459-.158,2.212" transform="translate(-8.295 -6.56)" fill="#fff"/>
            <path id="Trazado_196260" data-name="Trazado 196260" d="M52.135,46.3H61.23c2.275,0,2.246,0,2.277-2.242.009-.661-.143-.844-.825-.839-5.105.033-10.213.017-15.318.017-2.3,0-2.276,0-2.276,2.338,0,.578.122.75.728.742,2.107-.024,4.215-.019,6.32-.015" transform="translate(-8.31 -7.965)" fill="#fff"/>
            <path id="Trazado_196261" data-name="Trazado 196261" d="M45.824,53.835c2.105-.027,4.213-.022,6.318-.017h9.1c2.27,0,2.24,0,2.273-2.247.009-.67-.157-.838-.832-.834-5.105.031-10.213.017-15.318.017-2.294,0-2.27,0-2.272,2.343,0,.588.136.746.734.739" transform="translate(-8.31 -9.351)" fill="#fff"/>
            <path id="Trazado_196262" data-name="Trazado 196262" d="M62.631,58.253c-5.074.034-10.148.019-15.219.019-2.327,0-2.3,0-2.316,2.3,0,.627.157.785.784.785,2.808-.035,5.618-.015,8.426-.015h6.988c2.214,0,2.178,0,2.224-2.2.011-.733-.178-.9-.887-.89" transform="translate(-8.311 -10.736)" fill="#fff"/>
            <path id="Trazado_196263" data-name="Trazado 196263" d="M37.908,93.946c-1.34.025-2.68.02-4.02.015H28.625c-2.326,0-2.3,0-2.317,2.3,0,.628.157.785.785.785,3.063-.033,6.119-.015,9.19-.015,2.353,0,2.341,0,2.314-2.393-.007-.544-.147-.7-.688-.688" transform="translate(-4.849 -17.314)" fill="#fff"/>
            <path id="Trazado_196264" data-name="Trazado 196264" d="M83.644,78.914c-2.04.042-4.079.015-6.119.015-2.433,0-2.419,0-2.367,2.434.009.485.111.659.627.643.654-.019,1.307-.022,1.962-.02s1.308.008,1.963.008H82.1c2.3,0,2.275,0,2.275-2.338-.007-.576-.127-.752-.732-.742" transform="translate(-13.849 -14.544)" fill="#fff"/>
            <path id="Trazado_196265" data-name="Trazado 196265" d="M38.267,74.5c1.569-.034,3.127-.046,4.688,0,.628.019.785-.168.785-.785-.014-2.294.011-2.294-2.319-2.294H39.89c-2.353,0-2.338,0-2.31,2.4,0,.548.146.693.688.681" transform="translate(-6.925 -13.162)" fill="#fff"/>
            <path id="Trazado_196266" data-name="Trazado 196266" d="M67.033,78.935h-.767c-2.51,0-2.51,0-2.388,2.511.017.367.037.578.5.571,1.727-.027,3.452-.014,5.168,0,.29,0,.432-.044.479-.4.341-2.469.185-2.667-2.229-2.667Z" transform="translate(-11.765 -14.548)" fill="#fff"/>
            <path id="Trazado_196267" data-name="Trazado 196267" d="M27.838,82c1.551,0,1.551,0,1.551-1.512,0-1.552,0-1.552-1.512-1.552-1.551,0-1.551,0-1.551,1.513,0,1.551,0,1.551,1.512,1.551" transform="translate(-4.852 -14.548)" fill="#fff"/>
            <path id="Trazado_196268" data-name="Trazado 196268" d="M81.656,38.809c5.074-.034,10.148-.019,15.219-.019,2.329,0,2.3,0,2.317-2.3,0-.628-.157-.785-.784-.785-2.776.036-5.553.015-8.331.015H83c-2.215,0-2.181,0-2.225,2.2-.014.724.168.893.883.888" transform="translate(-14.886 -6.581)" fill="#fff"/>
            <path id="Trazado_196269" data-name="Trazado 196269" d="M98.41,43.227c-2.807.034-5.617.015-8.425.015H83c-2.214,0-2.179,0-2.223,2.2-.015.72.17.885.883.88C86.73,46.285,91.8,46.3,96.876,46.3c2.326,0,2.3,0,2.316-2.3.009-.622-.158-.783-.781-.775" transform="translate(-14.886 -7.967)" fill="#fff"/>
            <path id="Trazado_196270" data-name="Trazado 196270" d="M10.279,50.079c5.074-.034,10.148-.019,15.22-.019,2.326,0,2.3,0,2.315-2.3,0-.627-.156-.785-.784-.785-2.808.035-5.618.015-8.426.015H11.615c-2.214,0-2.18,0-2.224,2.2-.012.73.175.895.887.89" transform="translate(-1.731 -8.658)" fill="#fff"/>
            <path id="Trazado_196271" data-name="Trazado 196271" d="M25.6,57.575c2.214,0,2.18,0,2.225-2.2.014-.719-.17-.887-.883-.882-5.074.034-10.149.019-15.22.019-2.326,0-2.3,0-2.317,2.3,0,.628.157.785.785.785,2.776-.034,5.553-.016,8.328-.016Z" transform="translate(-1.733 -10.044)" fill="#fff"/>
          </g>
        </g>
      </g>
      <path id="Trazado_196511" data-name="Trazado 196511" d="M0,0H107V94H0Z" transform="translate(-5224 -9762)" fill="none"/>
    </g>
    <rect id="Rectángulo_46070" data-name="Rectángulo 46070" width="220" height="103" transform="translate(-5242 -9763)" fill="none"/>
  </g>
</svg>
