<svg xmlns="http://www.w3.org/2000/svg" xmlns:xlink="http://www.w3.org/1999/xlink" width="220" height="103" viewBox="0 0 220 103">
  <defs>
    <clipPath id="clip-path">
      <rect id="Rectángulo_45977" data-name="Rectángulo 45977" width="87" height="93.612" fill="#fff"/>
    </clipPath>
  </defs>
  <g id="Grupo_154410" data-name="Grupo 154410" transform="translate(5242 9642)">
    <g id="Grupo_154408" data-name="Grupo 154408" transform="translate(-38 -100)">
      <path id="Trazado_196513" data-name="Trazado 196513" d="M8.842,11.437H3.779v3.445H9.721V17H1.143V4.2H9.7V6.339H3.779v3.05H8.842Zm5.88-1.107,1.6-2.839h2.716L16.33,12.148,19.151,17H16.427l-1.7-2.988L13.043,17H10.31l2.821-4.852-2.7-4.658h2.725ZM23.3,5.152V7.49h1.626V9.354H23.3V14.1a1.133,1.133,0,0,0,.2.756,1.015,1.015,0,0,0,.773.229,4.051,4.051,0,0,0,.747-.062v1.925a5.229,5.229,0,0,1-1.538.229,2.425,2.425,0,0,1-2.725-2.7V9.354H19.371V7.49H20.76V5.152Zm7.418,12.023a4.668,4.668,0,0,1-3.406-1.283A4.561,4.561,0,0,1,26,12.474v-.246a5.745,5.745,0,0,1,.554-2.562,4.064,4.064,0,0,1,1.569-1.74,4.4,4.4,0,0,1,2.316-.611,3.947,3.947,0,0,1,3.072,1.23,5,5,0,0,1,1.121,3.489v1.037H28.573a2.36,2.36,0,0,0,.743,1.494,2.245,2.245,0,0,0,1.569.563,2.742,2.742,0,0,0,2.294-1.063l1.248,1.4a3.813,3.813,0,0,1-1.547,1.261A5.075,5.075,0,0,1,30.718,17.176Zm-.29-7.813a1.587,1.587,0,0,0-1.226.512,2.651,2.651,0,0,0-.6,1.466h3.533v-.2a1.891,1.891,0,0,0-.457-1.311A1.638,1.638,0,0,0,30.428,9.362Zm10.986.51A6.9,6.9,0,0,0,40.5,9.8a1.86,1.86,0,0,0-1.89.976V17H36.07V7.49h2.4l.07,1.134a2.354,2.354,0,0,1,2.118-1.31,2.662,2.662,0,0,1,.791.114Zm3.56-2.382.079,1.1a3.32,3.32,0,0,1,2.733-1.274,2.759,2.759,0,0,1,2.25.888,4.142,4.142,0,0,1,.756,2.654V17h-2.54V10.9A1.654,1.654,0,0,0,47.9,9.728a1.572,1.572,0,0,0-1.169-.366,1.747,1.747,0,0,0-1.608.916V17h-2.54V7.49Zm7.348,4.667a5.64,5.64,0,0,1,.545-2.522,3.989,3.989,0,0,1,1.569-1.714,4.577,4.577,0,0,1,2.377-.606,4.33,4.33,0,0,1,3.142,1.178,4.727,4.727,0,0,1,1.358,3.2l.018.65a4.97,4.97,0,0,1-1.222,3.511,4.735,4.735,0,0,1-6.561,0,5.058,5.058,0,0,1-1.226-3.586Zm2.54.18a3.555,3.555,0,0,0,.51,2.073,1.831,1.831,0,0,0,2.9.009,3.89,3.89,0,0,0,.519-2.267,3.519,3.519,0,0,0-.519-2.06,1.686,1.686,0,0,0-1.459-.731,1.658,1.658,0,0,0-1.441.726A3.955,3.955,0,0,0,54.861,12.338Zm13.184,2.035a.818.818,0,0,0-.461-.734,5.241,5.241,0,0,0-1.481-.479q-3.393-.712-3.393-2.883a2.613,2.613,0,0,1,1.05-2.114,4.237,4.237,0,0,1,2.747-.848,4.56,4.56,0,0,1,2.9.853,2.687,2.687,0,0,1,1.085,2.215h-2.54a1.229,1.229,0,0,0-.352-.9,1.488,1.488,0,0,0-1.1-.356,1.52,1.52,0,0,0-.993.29.916.916,0,0,0-.352.738.783.783,0,0,0,.4.681,4.114,4.114,0,0,0,1.349.448,11.019,11.019,0,0,1,1.6.426,2.628,2.628,0,0,1,2.013,2.558,2.481,2.481,0,0,1-1.116,2.1,4.815,4.815,0,0,1-2.883.8,5.029,5.029,0,0,1-2.123-.426,3.561,3.561,0,0,1-1.455-1.169,2.716,2.716,0,0,1-.527-1.6h2.408a1.326,1.326,0,0,0,.5,1.037,1.987,1.987,0,0,0,1.248.36,1.839,1.839,0,0,0,1.1-.277A.861.861,0,0,0,68.045,14.372Z" transform="translate(-5059 -9467.818)" fill="#3cffe9"/>
      <g id="Grupo_154407" data-name="Grupo 154407" transform="translate(-6065 -11477)">
        <g id="Grupo_152594" data-name="Grupo 152594" transform="translate(17 1142.068)">
          <g id="Grupo_152593" data-name="Grupo 152593" transform="translate(878.284 860.284) rotate(180)">
            <rect id="Rectángulo_45221" data-name="Rectángulo 45221" width="5.578" height="5.578" transform="translate(23.706 23.706)" fill="#1894f6"/>
            <rect id="Rectángulo_45222" data-name="Rectángulo 45222" width="5.578" height="5.578" transform="translate(11.853 23.706)" fill="#1894f6"/>
            <rect id="Rectángulo_45223" data-name="Rectángulo 45223" width="5.578" height="5.578" transform="translate(0 23.706)" fill="#1894f6"/>
            <rect id="Rectángulo_45232" data-name="Rectángulo 45232" width="5.578" height="5.578" transform="translate(23.706 11.853)" fill="#1894f6"/>
            <rect id="Rectángulo_45233" data-name="Rectángulo 45233" width="5.578" height="5.578" transform="translate(11.853 11.853)" fill="#1894f6"/>
            <rect id="Rectángulo_45234" data-name="Rectángulo 45234" width="5.578" height="5.578" transform="translate(0 11.853)" fill="#1894f6"/>
            <rect id="Rectángulo_45243" data-name="Rectángulo 45243" width="5.578" height="5.578" transform="translate(23.706)" fill="#1894f6"/>
            <rect id="Rectángulo_45244" data-name="Rectángulo 45244" width="5.578" height="5.578" transform="translate(11.853)" fill="#1894f6"/>
            <rect id="Rectángulo_45245" data-name="Rectángulo 45245" width="5.578" height="5.578" transform="translate(0)" fill="#1894f6"/>
          </g>
          <g id="Grupo_154302" data-name="Grupo 154302" transform="translate(869 797.932)">
            <g id="Grupo_154302-2" data-name="Grupo 154302" clip-path="url(#clip-path)">
              <path id="Trazado_196244" data-name="Trazado 196244" d="M77.251,0a2.792,2.792,0,0,1,1.678,2.917c-.061,3.412-.027,6.825-.015,10.237a1.512,1.512,0,0,1-.88,1.636c-.944.374-1.81-.313-1.824-1.481-.026-2.042-.008-4.083-.009-6.125V2.818H19.7v23.4c.284.017.568.047.852.05,1.323.013,2.649-.024,3.97.036a5.825,5.825,0,0,1,2.161,11.06c-.659.3-.938.637-.839,1.349a4.833,4.833,0,0,1,0,1.1,2.462,2.462,0,0,0,.737,2.1,5.135,5.135,0,0,1,.808,2.059,4.659,4.659,0,0,1,.016,1.169c1.888,0,3.685.012,5.481-.018.177,0,.391-.23.519-.406a2.305,2.305,0,0,1,2-1.036c1.264.011,2.528.009,3.791,0a2.44,2.44,0,0,1,1.94.985,1.418,1.418,0,0,0,.938.458q4.061.054,8.122,0c.348,0,.693-.312,1.036-.486.622-.314,1.232-.879,1.864-.906,2.523-.106,5.052-.055,7.579-.042a1.326,1.326,0,0,1,1.487,1.349,1.354,1.354,0,0,1-1.476,1.378c-2.045.024-4.091.009-6.137.01H53.5V52.79c.22.015.422.042.623.042q13.4,0,26.8,0a3.156,3.156,0,0,0,3.206-2.3,3.051,3.051,0,0,0-1.311-3.567,4.425,4.425,0,0,0-2.047-.523c-4.271-.046-8.543-.023-12.815-.024-.241,0-.482.011-.722,0a1.364,1.364,0,0,1-1.421-1.434,1.3,1.3,0,0,1,1.444-1.295c2.557-.017,5.114-.007,7.67-.008H76.2V20.955c0-.243-.006-.487,0-.731.039-1.051.576-1.668,1.418-1.638.822.029,1.284.595,1.285,1.643q.008,11.106,0,22.212v1.243c.828,0,1.6-.019,2.363,0A5.933,5.933,0,0,1,82.766,55.3a25.643,25.643,0,0,1-3.857.412v1.012q0,16.957,0,33.913c0,2.228-.732,2.979-2.9,2.979H2.906c-2.1,0-2.9-.805-2.905-2.9q0-1.691,0-3.382c0-2.685.592-3.483,3.2-4.244,0-.676-.013-1.375,0-2.072a3.149,3.149,0,0,1,3.343-3.281c3.189-.016,6.378,0,9.566-.006.236,0,.472-.025.765-.042V72.965c-.838,0-1.7.007-2.553,0a17.2,17.2,0,0,1-2.341-.069,5.851,5.851,0,0,1-1.542-11.042,1.089,1.089,0,0,0,.773-1.29,7.448,7.448,0,0,1,0-1.279,2.273,2.273,0,0,0-.687-1.934A3.115,3.115,0,0,1,9.748,55.4c-.072-3.837-.089-7.679.009-11.516a7.028,7.028,0,0,1,.953-2.269c.168-.385.351-.766.489-1.164a2.827,2.827,0,0,0,.012-.544A2.543,2.543,0,0,0,9.72,36.908a5.473,5.473,0,0,1-2.4-6.336A5.679,5.679,0,0,1,12.573,26.3c1.406-.059,2.818-.011,4.366-.011V25.138c0-7.374.027-14.748-.023-22.121A2.9,2.9,0,0,1,18.585,0Zm-49.5,54.12a10.831,10.831,0,0,1-1.162,3.166,3.041,3.041,0,0,0-.744,2.278,8.715,8.715,0,0,1,0,1.187.935.935,0,0,0,.626,1.037,6.894,6.894,0,0,1,1.966,1.4,5.537,5.537,0,0,1,1.073,6.188,5.477,5.477,0,0,1-5.2,3.573c-1.522.049-3.048.01-4.59.01v4.765h1.046c3.248,0,6.5-.01,9.743,0a3.22,3.22,0,0,1,3.406,3.426c.01.665,0,1.329,0,1.822a13.524,13.524,0,0,1,1.974.966,3.073,3.073,0,0,1,1.188,2.724c-.014,1.386,0,2.771,0,4.134H76.126V55.575h-1.15q-10.735,0-21.471.007a2.878,2.878,0,0,1-2.26-.913,1.719,1.719,0,0,0-1.094-.525c-2.676-.045-5.352-.015-8.029-.033A1.506,1.506,0,0,0,41,54.636a3.581,3.581,0,0,1-1.857.9,34.424,34.424,0,0,1-3.6.045,2.43,2.43,0,0,1-2.163-1.08.921.921,0,0,0-.629-.364c-1.74-.029-3.48-.016-5-.016m6.61,36.705c0-1.323-.044-2.543.015-3.758.043-.885-.272-1.146-1.138-1.139-4.873.037-9.746.019-14.619.017a6.244,6.244,0,0,1-.9-.02,1.261,1.261,0,0,1-1.177-1.279,1.278,1.278,0,0,1,1.05-1.394,3.524,3.524,0,0,1,.9-.046q5.865,0,11.731,0c.316,0,.631-.028.983-.045V81.865c0-1.394,0-1.394-1.408-1.394H7.235a2.324,2.324,0,0,0-.8.033c-.2.079-.473.323-.488.513-.057.71-.023,1.428-.023,2.188H7.044c1.443,0,2.888-.014,4.331.007a1.371,1.371,0,1,1,.039,2.733c-.24.011-.481,0-.722,0q-3.519,0-7.038,0c-.473,0-.942-.016-.943.663,0,1.392,0,2.784,0,4.217ZM18.51,43.5c-1.745,0-3.49.017-5.234-.009-.6-.009-.874.162-.871.822q.031,5.3,0,10.6c0,.636.237.853.854.849q5.28-.027,10.559,0c.678,0,.891-.278.888-.93-.017-3.474-.023-6.947,0-10.42,0-.736-.282-.942-.967-.929-1.744.035-3.489.011-5.234.011m.022,26.722c1.832,0,3.665.009,5.5,0a3.1,3.1,0,1,0,.067-6.206q-5.542-.034-11.084,0a3.1,3.1,0,1,0,.023,6.206c1.832.013,3.665,0,5.5,0m.041-34.984v0c1.861,0,3.725.045,5.586-.012a3.067,3.067,0,0,0,3.1-3.118,3.016,3.016,0,0,0-3.116-3.078c-3.754-.034-7.509-.058-11.261.033a3.746,3.746,0,0,0-2.155.913,2.763,2.763,0,0,0-.688,3.257,2.978,2.978,0,0,0,2.947,2c1.861.036,3.724.009,5.587.009m22.971,16.08h9.125V47.941H41.544ZM23.085,38.052h-9.1v2.659h9.1Zm.007,20.505H13.98v2.666h9.113ZM38.765,46.489H35.812v6.3h2.953Zm-5.79,1.453h-5.5v3.405h5.5Z" transform="translate(0 0)" fill="#fff"/>
              <path id="Trazado_196245" data-name="Trazado 196245" d="M56.144,10.463A14.2,14.2,0,1,1,42.11,24.6,14.072,14.072,0,0,1,56.144,10.463m.022,2.742A11.453,11.453,0,1,0,67.414,24.7,11.369,11.369,0,0,0,56.166,13.205" transform="translate(-8.192 -1.926)" fill="#fff"/>
              <path id="Trazado_196246" data-name="Trazado 196246" d="M65.115,89.628q5.859,0,11.718,0a4.214,4.214,0,0,1,.9.036,1.363,1.363,0,0,1-.038,2.681,3.835,3.835,0,0,1-.719.023h-23.8c-.12,0-.24,0-.36,0-.983-.027-1.555-.541-1.544-1.387s.582-1.332,1.583-1.352c.631-.011,1.262,0,1.893,0H65.115" transform="translate(-9.974 -16.494)" fill="#fff"/>
              <path id="Trazado_196247" data-name="Trazado 196247" d="M65.03,76.022H53.222A4.243,4.243,0,0,1,52.412,76a1.271,1.271,0,0,1-1.131-1.226,1.289,1.289,0,0,1,1-1.434,2.741,2.741,0,0,1,.8-.057q11.988,0,23.977,0a3.96,3.96,0,0,1,.54.014,1.343,1.343,0,0,1,1.234,1.427,1.3,1.3,0,0,1-1.274,1.29c-.238.024-.48.011-.721.011H65.03" transform="translate(-9.975 -13.486)" fill="#fff"/>
              <path id="Trazado_196248" data-name="Trazado 196248" d="M59.776,97.822c2.224,0,4.447-.006,6.671,0,1.108,0,1.682.455,1.71,1.306.029.892-.569,1.425-1.7,1.427q-6.76.018-13.521,0c-1.1,0-1.656-.5-1.66-1.37s.549-1.356,1.65-1.362c2.283-.011,4.568,0,6.851,0" transform="translate(-9.975 -18.002)" fill="#fff"/>
              <path id="Trazado_196249" data-name="Trazado 196249" d="M74.076,81.466c2.044,0,4.089-.02,6.133.007,1.158.016,1.894.925,1.412,1.82a1.84,1.84,0,0,1-1.307.868c-4.208.066-8.416.051-12.625.029a1.315,1.315,0,0,1-1.443-1.4c.021-.805.56-1.31,1.518-1.32,2.1-.023,4.208-.007,6.312-.007" transform="translate(-12.887 -14.991)" fill="#fff"/>
              <path id="Trazado_196250" data-name="Trazado 196250" d="M56.242,84.205c-1.111,0-2.222.014-3.333,0-1.084-.017-1.644-.508-1.634-1.388.009-.849.544-1.333,1.581-1.342q3.423-.027,6.846,0c1.024.008,1.58.5,1.595,1.334.015.865-.566,1.38-1.632,1.4-1.141.018-2.282,0-3.423,0" transform="translate(-9.975 -14.991)" fill="#fff"/>
              <path id="Trazado_196251" data-name="Trazado 196251" d="M78.728,97.823c1.021,0,2.043-.019,3.065.006a1.357,1.357,0,0,1,1.487,1.356,1.334,1.334,0,0,1-1.406,1.354q-3.2.056-6.4,0a1.3,1.3,0,0,1-1.385-1.362c0-.817.538-1.326,1.484-1.348,1.051-.024,2.1,0,3.155,0" transform="translate(-14.413 -18.002)" fill="#fff"/>
              <path id="Trazado_196252" data-name="Trazado 196252" d="M57.308,28.678c1.778-1.8,3.429-3.477,5.085-5.148a4.152,4.152,0,0,1,.74-.661,1.218,1.218,0,0,1,1.638.232,1.283,1.283,0,0,1,.155,1.672,3.217,3.217,0,0,1-.474.547q-2.895,2.941-5.8,5.876c-1.009,1.017-1.59,1.016-2.585.015q-1.822-1.833-3.63-3.68c-.742-.762-.8-1.561-.178-2.158a1.383,1.383,0,0,1,2.067.206c.978.987,1.927,2,2.978,3.1" transform="translate(-10.084 -4.169)" fill="#fff"/>
            </g>
          </g>
        </g>
        <rect id="Rectángulo_45980" data-name="Rectángulo 45980" width="107" height="94" transform="translate(866 1940)" fill="none"/>
      </g>
    </g>
    <rect id="Rectángulo_46069" data-name="Rectángulo 46069" width="220" height="103" transform="translate(-5242 -9642)" fill="none"/>
  </g>
</svg>
