<svg xmlns="http://www.w3.org/2000/svg" xmlns:xlink="http://www.w3.org/1999/xlink" width="108" height="108" viewBox="0 0 108 108">
  <defs>
    <clipPath id="clip-path">
      <rect id="Rectángulo_45993" data-name="Rectángulo 45993" width="60.906" height="66.073" fill="#fff"/>
    </clipPath>
  </defs>
  <g id="Grupo_154417" data-name="Grupo 154417" transform="translate(-4500 9257)">
    <circle id="Elipse_5725" data-name="Elipse 5725" cx="54" cy="54" r="54" transform="translate(4500 -9257)" fill="#2194e5"/>
    <g id="Grupo_154342" data-name="Grupo 154342" transform="translate(4534 -9246.965)">
      <g id="Grupo_154341" data-name="Grupo 154341" transform="translate(-9 8)" clip-path="url(#clip-path)">
        <path id="Trazado_196336" data-name="Trazado 196336" d="M15.749,0c.092.211.3.119.451.162a5.659,5.659,0,0,1,4.02,3.832c.158.477.369.562.809.561q12.579-.017,25.158-.008c3.218,0,5.225,1.516,6.042,4.6a.76.76,0,0,0,.492.523c1.574.785,3.152,1.562,4.721,2.356a5.92,5.92,0,0,1,3.315,6.842Q56.6,39.611,52.475,60.356a11.009,11.009,0,0,1-1.137,3.578.919.919,0,0,0-.075.3c-.068-.226-.08-.238-.268-.037a5.764,5.764,0,0,1-2.776,1.671,6.743,6.743,0,0,1-1.721.21q-20.288,0-40.575,0A5.629,5.629,0,0,1,0,60.161Q0,35.326,0,10.49A5.679,5.679,0,0,1,4.286,4.766c.219-.065.389-.131.454-.382A5.689,5.689,0,0,1,9.044.127C9.093.113,9.126.043,9.168,0ZM52.418,15.379c-.007.15-.019.3-.019.45q0,16.021,0,32.041c0,.161-.065.342.086.522,1.049-5.247,2.095-10.459,3.13-15.673q1.4-7.068,2.789-14.139a3.306,3.306,0,0,0-1.141-3.965,39.62,39.62,0,0,0-4.847-2.525Zm-2.31,19.948q0-12.42,0-24.84a3.347,3.347,0,0,0-3.649-3.65Q33.779,6.831,21.1,6.824c-.479,0-.6.11-.6.6.023,3.505.013,7.011.012,10.516s.028,7.011-.008,10.516a5.706,5.706,0,1,1-11.4-.323c.044-5.828.012-11.656.013-17.484a4.145,4.145,0,0,1,.028-.579,1.029,1.029,0,0,1,1.172-.935,1.016,1.016,0,0,1,1.055.994c.021.235.012.473.012.709q0,8.71,0,17.42A3.389,3.389,0,0,0,12.865,31.3a3.343,3.343,0,0,0,3.55.193,3.158,3.158,0,0,0,1.793-2.984q.016-8.71.007-17.42c0-1.269-.007-2.538,0-3.807,0-.3-.033-.46-.406-.458-4.108.015-8.216,0-12.323.025A3.248,3.248,0,0,0,2.435,9.21a5,5,0,0,0-.147,1.533q0,24.582,0,49.164c0,.215,0,.431.01.645a3.278,3.278,0,0,0,3.284,3.217c1.01.028,2.022-.009,3.032.017.395.01.519-.111.507-.507-.026-.924-.02-1.849,0-2.774.015-.838.414-1.268,1.131-1.269s1.12.44,1.129,1.265c.01.925.021,1.85-.006,2.774-.012.392.1.513.5.511q5.194-.021,10.388,0c.444,0,.535-.152.524-.554q-.036-1.386,0-2.774c.021-.814.462-1.248,1.178-1.223.691.024,1.073.454,1.086,1.244.009.537,0,1.075,0,1.613s-.173,1.241.1,1.556c.317.371,1.05.067,1.6.134.48.059.617-.1.611-.6-.027-2.43-.019-4.86-.008-7.291a1.1,1.1,0,0,1,1.434-1.176c.667.16.833.67.833,1.281,0,2.022-.008,4.043.006,6.065,0,.55-.243,1.269.113,1.607s1.067.056,1.618.109c.41.039.562-.083.544-.522-.036-.859-.013-1.72-.01-2.581,0-.975.389-1.453,1.16-1.445s1.132.485,1.135,1.473c0,.839.028,1.679-.01,2.516-.021.463.132.564.575.563,3.936-.018,7.872-.008,11.807-.015a4.226,4.226,0,0,0,1.021-.1A3.319,3.319,0,0,0,50.107,60.1q0-12.387,0-24.775M7.149,4.491c.017.01.032.03.049.03q5.217.014,10.433.029c.368,0,.319-.153.2-.389a2.99,2.99,0,0,0-2.55-1.82c-1.842-.084-3.693-.072-5.537,0A2.946,2.946,0,0,0,7.149,4.491" transform="translate(0)" fill="#fff"/>
        <path id="Trazado_196337" data-name="Trazado 196337" d="M101.249,31.159q-1.394,7.07-2.789,14.14c-1.035,5.213-2.081,10.425-3.13,15.672-.151-.179-.086-.361-.086-.522q-.007-16.021,0-32.041c0-.15.013-.3.019-.451q2.366,1.161,4.731,2.323a4,4,0,0,1,1.257.879" transform="translate(-42.843 -12.578)" fill="#fff"/>
        <path id="Trazado_196338" data-name="Trazado 196338" d="M29.13,74.563q5.607,0,11.213,0c.97,0,1.486.639,1.234,1.481a.959.959,0,0,1-.864.748,7.071,7.071,0,0,1-.771.034q-10.827,0-21.654,0a6.316,6.316,0,0,1-.707-.023,1.037,1.037,0,0,1-.989-1.187,1,1,0,0,1,1.067-1.046c1.676-.02,3.351-.009,5.027-.01H29.13" transform="translate(-7.463 -33.544)" fill="#fff"/>
        <path id="Trazado_196339" data-name="Trazado 196339" d="M57.707,82.82c2.214,0,4.428,0,6.642,0,.839,0,1.263.387,1.274,1.118S65.211,85.1,64.4,85.107c-1.376.015-2.752,0-4.127,0q-4.611,0-9.222,0c-.776,0-1.207-.295-1.323-.868a1.118,1.118,0,0,1,1.213-1.418c2.257-.012,4.514,0,6.771,0" transform="translate(-22.356 -37.259)" fill="#fff"/>
        <path id="Trazado_196340" data-name="Trazado 196340" d="M57.663,24.855q3.32,0,6.641,0c.893,0,1.326.371,1.332,1.119s-.421,1.16-1.3,1.162q-6.641.014-13.282,0c-.918,0-1.358-.422-1.332-1.2.024-.738.451-1.082,1.368-1.083q3.288,0,6.577,0" transform="translate(-22.367 -11.182)" fill="#fff"/>
        <path id="Trazado_196341" data-name="Trazado 196341" d="M24.5,82.821q3.321,0,6.642,0c.928,0,1.376.386,1.369,1.157-.007.739-.453,1.13-1.336,1.131q-6.642.007-13.284,0c-.874,0-1.309-.407-1.3-1.161s.445-1.124,1.332-1.126c2.193,0,4.385,0,6.578,0" transform="translate(-7.464 -37.26)" fill="#fff"/>
        <path id="Trazado_196342" data-name="Trazado 196342" d="M57.651,49.708c2.257,0,4.513-.007,6.769,0a1.085,1.085,0,0,1,1.2,1.359.939.939,0,0,1-.765.847,3.921,3.921,0,0,1-.831.068q-6.35.006-12.7,0a4.611,4.611,0,0,1-.579-.024A1.048,1.048,0,0,1,49.718,50.8a1.027,1.027,0,0,1,1.1-1.084c.945-.021,1.891-.007,2.836-.008h4" transform="translate(-22.367 -22.361)" fill="#fff"/>
        <path id="Trazado_196343" data-name="Trazado 196343" d="M57.689,68.526q-3.32,0-6.64,0c-.9,0-1.325-.368-1.333-1.116s.415-1.155,1.307-1.157q6.672-.015,13.345,0c.872,0,1.291.431,1.266,1.193-.024.72-.444,1.077-1.3,1.079-2.214,0-4.427,0-6.64,0" transform="translate(-22.367 -29.802)" fill="#fff"/>
        <path id="Trazado_196344" data-name="Trazado 196344" d="M57.668,43.683c-2.256,0-4.513.008-6.769,0a1.117,1.117,0,0,1-1.143-1.555c.228-.611.74-.71,1.311-.709q3.127.007,6.253,0c2.32,0,4.641-.006,6.961,0,.909,0,1.327.372,1.332,1.121s-.415,1.136-1.243,1.139c-2.234.008-4.47,0-6.7,0" transform="translate(-22.345 -18.632)" fill="#fff"/>
        <path id="Trazado_196345" data-name="Trazado 196345" d="M53.076,35.4c-.729,0-1.459.014-2.187,0a1.139,1.139,0,1,1-.036-2.277q2.284-.037,4.568,0a1.138,1.138,0,1,1-.029,2.275c-.771.021-1.544,0-2.316,0" transform="translate(-22.367 -14.891)" fill="#fff"/>
        <path id="Trazado_196346" data-name="Trazado 196346" d="M69.677,35.4c-.729,0-1.458.01-2.187,0a1.145,1.145,0,1,1,0-2.284q2.187-.024,4.374,0a1.072,1.072,0,0,1,1.214,1.175c-.015.7-.432,1.094-1.215,1.108-.728.013-1.458,0-2.187,0" transform="translate(-29.81 -14.893)" fill="#fff"/>
        <path id="Trazado_196347" data-name="Trazado 196347" d="M53.1,60.254c-.729,0-1.459.014-2.187,0a1.142,1.142,0,1,1-.012-2.282q2.22-.026,4.439,0a1.143,1.143,0,1,1,.011,2.282c-.75.019-1.5,0-2.252,0" transform="translate(-22.368 -26.073)" fill="#fff"/>
        <path id="Trazado_196348" data-name="Trazado 196348" d="M69.625,57.965c.729,0,1.458-.008,2.187,0,.83.012,1.256.4,1.265,1.124s-.415,1.155-1.227,1.162q-2.187.021-4.374,0a1.09,1.09,0,0,1-1.215-1.122c-.012-.712.441-1.147,1.241-1.162.707-.013,1.415,0,2.123,0" transform="translate(-29.81 -26.076)" fill="#fff"/>
        <path id="Trazado_196349" data-name="Trazado 196349" d="M69.691,74.565c.753,0,1.506-.014,2.258,0a1.12,1.12,0,0,1,.069,2.238q-2.353.045-4.708,0a1.026,1.026,0,0,1-1.047-1.141,1.053,1.053,0,0,1,1.105-1.092c.773-.02,1.549,0,2.323,0" transform="translate(-29.811 -33.543)" fill="#fff"/>
      </g>
    </g>
  </g>
</svg>
