<svg xmlns="http://www.w3.org/2000/svg" xmlns:xlink="http://www.w3.org/1999/xlink" width="108" height="108" viewBox="0 0 108 108">
  <defs>
    <clipPath id="clip-path">
      <rect id="Rectángulo_46026" data-name="Rectángulo 46026" width="66.815" height="71.591" fill="#fff"/>
    </clipPath>
  </defs>
  <g id="Grupo_154422" data-name="Grupo 154422" transform="translate(-5181 8769)">
    <circle id="Elipse_5733" data-name="Elipse 5733" cx="54" cy="54" r="54" transform="translate(5181 -8769)" fill="#7f4fc7"/>
    <g id="Grupo_154355" data-name="Grupo 154355" transform="translate(5202 -8750)">
      <rect id="Rectángulo_46013" data-name="Rectángulo 46013" width="9.542" height="4.77" transform="translate(5.988 22.688)" fill="#fff"/>
      <path id="Trazado_196386" data-name="Trazado 196386" d="M10.008,59.838h9.535L14.773,65.8Z" transform="translate(-4.018 -24.023)" fill="#fff"/>
      <g id="Grupo_154354" data-name="Grupo 154354" transform="translate(0 0)">
        <g id="Grupo_154353" data-name="Grupo 154353" clip-path="url(#clip-path)">
          <path id="Trazado_196387" data-name="Trazado 196387" d="M25.947,73.361a9.536,9.536,0,1,0,9.536-9.535,9.535,9.535,0,0,0-9.536,9.535m9.536,7.157a7.114,7.114,0,0,1-3.473-.9l4.049-5.059h6.475a7.161,7.161,0,0,1-7.044,5.961Zm7.054-8.349H36.681V66.313a7.166,7.166,0,0,1,5.857,5.856ZM34.3,66.313v6.631l-4.139,5.175A7.137,7.137,0,0,1,34.3,66.313" transform="translate(-10.417 -25.624)" fill="#fff"/>
          <rect id="Rectángulo_46014" data-name="Rectángulo 46014" width="2.385" height="2.385" transform="translate(15.53 59.661)" fill="#fff"/>
          <rect id="Rectángulo_46015" data-name="Rectángulo 46015" width="14.312" height="2.385" transform="translate(20.301 59.661)" fill="#fff"/>
          <rect id="Rectángulo_46016" data-name="Rectángulo 46016" width="19.083" height="2.385" transform="translate(15.53 64.433)" fill="#fff"/>
          <rect id="Rectángulo_46017" data-name="Rectángulo 46017" width="2.385" height="2.385" transform="translate(41.769 59.661)" fill="#fff"/>
          <rect id="Rectángulo_46018" data-name="Rectángulo 46018" width="14.312" height="2.385" transform="translate(46.541 59.661)" fill="#fff"/>
          <rect id="Rectángulo_46019" data-name="Rectángulo 46019" width="19.083" height="2.385" transform="translate(41.769 64.433)" fill="#fff"/>
          <rect id="Rectángulo_46020" data-name="Rectángulo 46020" width="2.385" height="2.385" transform="translate(44.154 11.953)" fill="#fff"/>
          <rect id="Rectángulo_46021" data-name="Rectángulo 46021" width="11.927" height="2.385" transform="translate(48.926 11.953)" fill="#fff"/>
          <rect id="Rectángulo_46022" data-name="Rectángulo 46022" width="16.697" height="2.385" transform="translate(44.154 16.723)" fill="#fff"/>
          <rect id="Rectángulo_46023" data-name="Rectángulo 46023" width="2.385" height="2.385" transform="translate(44.154 25.073)" fill="#fff"/>
          <rect id="Rectángulo_46024" data-name="Rectángulo 46024" width="11.927" height="2.385" transform="translate(48.926 25.073)" fill="#fff"/>
          <rect id="Rectángulo_46025" data-name="Rectángulo 46025" width="16.697" height="2.385" transform="translate(44.154 29.843)" fill="#fff"/>
          <path id="Trazado_196388" data-name="Trazado 196388" d="M72.973,82.9H87.287a1.193,1.193,0,0,0,1.192-1.193V72.173a1.193,1.193,0,0,0-1.192-1.193H83.708V65.018a1.193,1.193,0,0,0-1.192-1.193h-4.77a1.193,1.193,0,0,0-1.193,1.193V68.6H72.974a1.193,1.193,0,0,0-1.192,1.193V81.715A1.192,1.192,0,0,0,72.973,82.9m13.12-2.38H83.708V73.366h2.385ZM78.938,66.21h2.385V80.522H78.938Zm-4.77,4.77h2.385v9.535H74.167Z" transform="translate(-28.818 -25.623)" fill="#fff"/>
          <path id="Trazado_196389" data-name="Trazado 196389" d="M43.083,27.524H57.4a1.192,1.192,0,0,0,1.192-1.192V19.174A1.192,1.192,0,0,0,57.4,17.982H43.083a1.193,1.193,0,0,0-1.193,1.192V26.33a1.192,1.192,0,0,0,1.191,1.193Zm1.192-7.157H56.2v4.77H44.273Z" transform="translate(-16.817 -7.219)" fill="#fff"/>
          <path id="Trazado_196390" data-name="Trazado 196390" d="M43.083,49.448H57.4a1.192,1.192,0,0,0,1.192-1.192V41.1A1.193,1.193,0,0,0,57.4,39.907H43.083A1.193,1.193,0,0,0,41.89,41.1v7.156a1.193,1.193,0,0,0,1.193,1.192m1.192-7.156H56.2v4.77H44.273Z" transform="translate(-16.817 -16.021)" fill="#fff"/>
          <path id="Trazado_196391" data-name="Trazado 196391" d="M4.8,19.678V35.81a1.194,1.194,0,0,0,.262.746l4.509,5.639V70.4a1.193,1.193,0,0,0,1.193,1.192H65.623A1.192,1.192,0,0,0,66.815,70.4V5.992A1.193,1.193,0,0,0,65.623,4.8H19.68A10.735,10.735,0,1,0,4.8,19.678m9.536,6.591H7.183V23.884h7.15Zm-3.573,13.6L8.471,37h4.58ZM7.183,28.654H9.568v5.964H7.183Zm7.157,5.964H11.954V28.654h2.385ZM64.433,7.187V69.208H11.954V42.194l4.509-5.636a1.194,1.194,0,0,0,.262-.746V19.678A10.672,10.672,0,0,0,20.868,7.187ZM10.761,2.414a8.35,8.35,0,0,1,4.18,15.572,1.193,1.193,0,0,0-.6,1.032V21.5h-2.39V14.838l3.229-3.232L13.5,9.92l-2.737,2.735L8.025,9.92,6.339,11.606l3.229,3.229V21.5H7.183V19.015a1.19,1.19,0,0,0-.6-1.032,8.349,8.349,0,0,1,4.18-15.572Z" transform="translate(0 0)" fill="#fff"/>
        </g>
      </g>
    </g>
  </g>
</svg>
