<svg xmlns="http://www.w3.org/2000/svg" xmlns:xlink="http://www.w3.org/1999/xlink" width="108" height="108" viewBox="0 0 108 108">
  <defs>
    <clipPath id="clip-path">
      <rect id="Rectángulo_46001" data-name="Rectángulo 46001" width="64.696" height="64.667" fill="#fff"/>
    </clipPath>
  </defs>
  <g id="Grupo_154415" data-name="Grupo 154415" transform="translate(-5128 9257)">
    <circle id="Elipse_5728" data-name="Elipse 5728" cx="54" cy="54" r="54" transform="translate(5128 -9257)" fill="#2194e5"/>
    <g id="Grupo_154348" data-name="Grupo 154348" transform="translate(5150 -9235)">
      <g id="Grupo_154347" data-name="Grupo 154347" clip-path="url(#clip-path)">
        <path id="Trazado_196372" data-name="Trazado 196372" d="M62.482,85.577H64.6v2.108H30.172v2.939a3.255,3.255,0,0,1-2.932,3.548,3.218,3.218,0,0,1-.629,0H3.6a3.266,3.266,0,0,1-3.577-3.6q0-12.114-.01-24.227a3.817,3.817,0,0,1,1.185-2.885q3.472-3.427,6.9-6.9a3.745,3.745,0,0,1,2.825-1.166c5.091.02,10.186.09,15.276-.025a3.539,3.539,0,0,1,3.942,4.29H28.05c-.01-.207-.028-.422-.031-.638-.011-1.135-.341-1.463-1.5-1.464H10.789v4.885a3.3,3.3,0,0,1-3.716,3.732q-2.355,0-4.711.011a.837.837,0,0,0-.188.074V90.438c0,1.282.3,1.581,1.583,1.581H26.436c1.281,0,1.582-.3,1.584-1.582V87.775c-.655-.094-1.189-.229-1.609.562a3.068,3.068,0,0,1-3.6,1.389,3.221,3.221,0,0,1,.1-6.214A3.139,3.139,0,0,1,26.477,85a.935.935,0,0,0,.984.562c2.308-.028,4.617-.013,7.027-.013V79.357c0-.968.376-1.342,1.344-1.345h5.117V73.75c0-2.129.069-2.2,2.175-2.2q2.052,0,4.105-.013c.039,0,.077-.032.182-.077v-4.8c0-1.276.3-1.571,1.591-1.571h4.869v-.673c0-1.525-.008-3.051,0-4.576a1.077,1.077,0,0,1,1.206-1.208q3.092-.017,6.192,0c.86,0,1.212.43,1.212,1.405V85.577ZM56.069,60.823V85.538h4.216V60.823Zm-6.464,6.448V85.518h4.216V67.268Zm-2.223,6.5H43.156V85.529h4.226Zm-6.464,11.77V80.22H36.688v5.318ZM8.639,59.293,3.921,64.014c1.228,0,2.5.035,3.762-.015a.968.968,0,0,0,.951-.985c0-.017,0-.035,0-.052.015-1.228,0-2.457,0-3.669Zm15.093,26.28a1.074,1.074,0,1,0,1.059,1.087v-.018a1.085,1.085,0,0,0-1.073-1.075Z" transform="translate(0 -29.52)" fill="#fff"/>
        <path id="Trazado_196373" data-name="Trazado 196373" d="M66.245,26.439l-4.262,4.272c-.713.714-1.42,1.436-2.143,2.14-2.08,2.022-1.1,1.6-4.011,1.646-1.124.017-2.249,0-3.436,0V53.843H50.229V34.509c-.753,0-1.463-.033-2.166.024-.16.013-.325.313-.44.508a3.232,3.232,0,1,1-3.988-4.612,3.172,3.172,0,0,1,3.991,1.428.794.794,0,0,0,.812.5c2.781-.023,5.564,0,8.345-.023a1.193,1.193,0,0,0,.769-.267c2.237-2.2,4.452-4.431,6.671-6.653a1.642,1.642,0,0,0,.141-.2,13.96,13.96,0,0,1-5.529-11.16,13.641,13.641,0,0,1,3.559-9.4,14.042,14.042,0,1,1,3.848,21.783Zm5.5-24.116c-4.272-.122-9.01,3.8-10.333,8.515a11.9,11.9,0,0,0,5.562,13.5,11.6,11.6,0,0,0,12.817-.843c-2.472-2.781-4.933-5.572-7.423-8.337a2.317,2.317,0,0,1-.635-1.686c.026-3.475.011-6.95.011-10.425Zm2.18,10.6H84.571A11.625,11.625,0,0,0,73.918,2.33Zm7.523,9.2c1.846-1.933,3.251-5.168,3.064-6.944H75.274Zm-35.555,11.3a1.072,1.072,0,1,0-1.069,1.075h.014a1.084,1.084,0,0,0,1.055-1.07Z" transform="translate(-22.185 0)" fill="#fff"/>
        <path id="Trazado_196374" data-name="Trazado 196374" d="M24.258,20.555c1.64-1.406,3.248-2.765,4.823-4.162a.919.919,0,0,0,.122-.743,3.218,3.218,0,1,1,5.879.933,3.119,3.119,0,0,1-3.546,1.4,1.239,1.239,0,0,0-1.359.311c-1.645,1.456-3.334,2.862-4.987,4.309a2.107,2.107,0,0,0-.531.808,3.185,3.185,0,0,1-2.783,2.22,3.043,3.043,0,0,1-3.124-1.669.743.743,0,0,0-.766-.469q-1.816.036-3.632,0a.689.689,0,0,0-.717.435A3.114,3.114,0,0,1,9.877,25.5a.736.736,0,0,0-.867.235c-.78.805-1.567,1.6-2.381,2.375a.893.893,0,0,0-.272,1.043A2.977,2.977,0,0,1,5.284,32.46a3.01,3.01,0,0,1-3.463.38,3.078,3.078,0,0,1-1.781-3,3.184,3.184,0,0,1,4.045-2.965.894.894,0,0,0,1.04-.281c.79-.826,1.626-1.609,2.4-2.445a.915.915,0,0,0,.177-.732,3.246,3.246,0,0,1,5.98-2.461.913.913,0,0,0,.651.382c1.233.036,2.466.029,3.7,0a.807.807,0,0,0,.587-.267c1.467-2.3,3.646-2.52,5.634-.513m9.16-5.684a1.072,1.072,0,1,0-1.056,1.088h.016a1.079,1.079,0,0,0,1.04-1.089Zm-23.683,7.5a1.072,1.072,0,1,0,1.122-1.02h-.015a1.084,1.084,0,0,0-1.106,1.018Zm11.854-1.02a1.072,1.072,0,1,0,1.059,1.085v-.016a1.08,1.08,0,0,0-1.059-1.064ZM3.264,28.892a1.072,1.072,0,1,0,1.078,1.066v-.017a1.08,1.08,0,0,0-1.078-1.051Z" transform="translate(-0.018 -6.228)" fill="#fff"/>
        <rect id="Rectángulo_45996" data-name="Rectángulo 45996" width="12.838" height="2.071" transform="translate(11.921 44.244)" fill="#fff"/>
        <rect id="Rectángulo_45997" data-name="Rectángulo 45997" width="10.681" height="2.07" transform="translate(5.434 49.617)" fill="#fff"/>
        <rect id="Rectángulo_45998" data-name="Rectángulo 45998" width="6.386" height="2.068" transform="translate(18.371 49.619)" fill="#fff"/>
        <rect id="Rectángulo_45999" data-name="Rectángulo 45999" width="4.226" height="2.08" transform="translate(5.451 44.243)" fill="#fff"/>
        <rect id="Rectángulo_46000" data-name="Rectángulo 46000" width="4.216" height="2.096" transform="translate(5.458 54.991)" fill="#fff"/>
      </g>
    </g>
  </g>
</svg>
