<svg xmlns="http://www.w3.org/2000/svg" xmlns:xlink="http://www.w3.org/1999/xlink" width="804.165" height="191.001" viewBox="0 0 804.165 191.001">
  <defs>
    <clipPath id="clip-path">
      <rect id="Rectángulo_46061" data-name="Rectángulo 46061" width="51" height="48.612" fill="#12263f"/>
    </clipPath>
    <clipPath id="clip-path-2">
      <rect id="Rectángulo_46062" data-name="Rectángulo 46062" width="51" height="58.61" fill="#12263f"/>
    </clipPath>
    <clipPath id="clip-path-3">
      <rect id="Rectángulo_46060" data-name="Rectángulo 46060" width="51" height="51.023" fill="#12263f"/>
    </clipPath>
    <clipPath id="clip-path-4">
      <rect id="Rectángulo_46059" data-name="Rectángulo 46059" width="51" height="52.558" fill="#12263f"/>
    </clipPath>
  </defs>
  <g id="Grupo_154415" data-name="Grupo 154415" transform="translate(7471 12141)">
    <path id="Trazado_196515" data-name="Trazado 196515" d="M7883,11891a14,14,0,0,1-14-14v-163a14,14,0,0,1,14-14h160a14,14,0,0,1,14,14v59.407h9.827V11764l27.335,32-27.335,32v-10.4H8057V11877a14,14,0,0,1-14,14Z" transform="translate(-14760.997 -23841)" fill="#aadafa"/>
    <path id="Trazado_196516" data-name="Trazado 196516" d="M7883,11891a14,14,0,0,1-14-14v-163a14,14,0,0,1,14-14h160a14,14,0,0,1,14,14v59.407h14.826V11764l27.338,32-27.338,32v-10.4H8057V11877a14,14,0,0,1-14,14Z" transform="translate(-14954.161 -23841)" fill="#9dc8ea"/>
    <path id="Trazado_196517" data-name="Trazado 196517" d="M18.539,12.658V17H15.454V4.2h5.106a5.948,5.948,0,0,1,2.6.541,4.074,4.074,0,0,1,1.749,1.538,4.2,4.2,0,0,1,.62,2.263,3.7,3.7,0,0,1-1.34,2.993,5.561,5.561,0,0,1-3.678,1.121Zm0-2.382h2.021a1.906,1.906,0,0,0,1.367-.448,1.665,1.665,0,0,0,.47-1.266,2.059,2.059,0,0,0-.483-1.433A1.712,1.712,0,0,0,20.6,6.585H18.539Zm14.247-.105-.976-.07a1.752,1.752,0,0,0-1.793.879V17H27.056V7.49h2.777l.1,1.222a2.294,2.294,0,0,1,2.083-1.4,2.888,2.888,0,0,1,.826.105Zm.378,1.986a5.613,5.613,0,0,1,.554-2.536,3.96,3.96,0,0,1,1.591-1.709,4.791,4.791,0,0,1,2.435-.6,4.373,4.373,0,0,1,3.366,1.323,5.076,5.076,0,0,1,1.23,3.6v.105A4.925,4.925,0,0,1,41.1,15.871a4.384,4.384,0,0,1-3.344,1.305A4.434,4.434,0,0,1,34.5,15.958a4.761,4.761,0,0,1-1.327-3.3Zm2.962.185a3.538,3.538,0,0,0,.413,1.934,1.376,1.376,0,0,0,1.222.615q1.582,0,1.617-2.435v-.3q0-2.558-1.635-2.558-1.485,0-1.608,2.206Zm11.54,2.549a1.317,1.317,0,0,0,.967-.338,1.241,1.241,0,0,0,.334-.945h2.777a3.288,3.288,0,0,1-1.121,2.566,4.168,4.168,0,0,1-2.887,1,4.22,4.22,0,0,1-3.27-1.3,5.125,5.125,0,0,1-1.2-3.6v-.123A5.792,5.792,0,0,1,43.8,9.6a3.872,3.872,0,0,1,1.534-1.7,4.573,4.573,0,0,1,2.373-.593,4.116,4.116,0,0,1,2.944,1.028,3.647,3.647,0,0,1,1.09,2.786H48.967A1.626,1.626,0,0,0,48.606,10a1.244,1.244,0,0,0-.967-.4q-1.151,0-1.345,1.468a10.357,10.357,0,0,0-.062,1.283,4.068,4.068,0,0,0,.343,1.986A1.187,1.187,0,0,0,47.666,14.891ZM57.6,17.176a4.889,4.889,0,0,1-3.542-1.305,4.507,4.507,0,0,1-1.354-3.4v-.246a5.84,5.84,0,0,1,.541-2.575A3.955,3.955,0,0,1,54.82,7.925a4.763,4.763,0,0,1,2.461-.611,4.117,4.117,0,0,1,3.164,1.244,4.887,4.887,0,0,1,1.16,3.467v1.151H55.717a2.135,2.135,0,0,0,.694,1.257,2.066,2.066,0,0,0,1.389.457,2.662,2.662,0,0,0,2.2-.984l1.354,1.6a3.784,3.784,0,0,1-1.569,1.217A5.3,5.3,0,0,1,57.6,17.176ZM57.264,9.6q-1.3,0-1.547,1.723h2.988v-.229a1.467,1.467,0,0,0-.36-1.1A1.434,1.434,0,0,0,57.264,9.6Zm10.512,4.729a.684.684,0,0,0-.4-.606,6.016,6.016,0,0,0-1.5-.475,6.853,6.853,0,0,1-1.828-.646,3.062,3.062,0,0,1-1.1-.971,2.319,2.319,0,0,1-.378-1.31,2.628,2.628,0,0,1,1.081-2.158,4.453,4.453,0,0,1,2.83-.848,4.934,4.934,0,0,1,3.023.853,2.666,2.666,0,0,1,1.143,2.241H67.679q0-1.143-1.2-1.143a1.194,1.194,0,0,0-.782.259.8.8,0,0,0-.316.646.737.737,0,0,0,.387.642,3.654,3.654,0,0,0,1.235.4,10.671,10.671,0,0,1,1.49.378,2.706,2.706,0,0,1,2.145,2.646,2.491,2.491,0,0,1-1.156,2.118,5.068,5.068,0,0,1-2.993.817,5.172,5.172,0,0,1-2.18-.439,3.645,3.645,0,0,1-1.494-1.2,2.707,2.707,0,0,1-.536-1.591h2.769a1.145,1.145,0,0,0,.439.962,1.808,1.808,0,0,0,1.081.3,1.422,1.422,0,0,0,.91-.246A.787.787,0,0,0,67.775,14.328Zm3.867-2.171A5.613,5.613,0,0,1,72.2,9.622a3.96,3.96,0,0,1,1.591-1.709,4.791,4.791,0,0,1,2.435-.6,4.373,4.373,0,0,1,3.366,1.323,5.076,5.076,0,0,1,1.23,3.6v.105a4.925,4.925,0,0,1-1.235,3.529,4.384,4.384,0,0,1-3.344,1.305,4.434,4.434,0,0,1-3.261-1.217,4.761,4.761,0,0,1-1.327-3.3Zm2.962.185a3.538,3.538,0,0,0,.413,1.934,1.376,1.376,0,0,0,1.222.615q1.582,0,1.617-2.435v-.3q0-2.558-1.635-2.558-1.485,0-1.608,2.206Zm12.5,1.986a.684.684,0,0,0-.4-.606,6.016,6.016,0,0,0-1.5-.475,6.853,6.853,0,0,1-1.828-.646,3.062,3.062,0,0,1-1.1-.971,2.319,2.319,0,0,1-.378-1.31A2.628,2.628,0,0,1,82.98,8.163a4.453,4.453,0,0,1,2.83-.848,4.934,4.934,0,0,1,3.023.853,2.666,2.666,0,0,1,1.143,2.241H87.006q0-1.143-1.2-1.143a1.194,1.194,0,0,0-.782.259.8.8,0,0,0-.316.646.737.737,0,0,0,.387.642,3.654,3.654,0,0,0,1.235.4,10.671,10.671,0,0,1,1.49.378,2.706,2.706,0,0,1,2.145,2.646A2.491,2.491,0,0,1,88.8,16.358a5.068,5.068,0,0,1-2.993.817,5.172,5.172,0,0,1-2.18-.439,3.645,3.645,0,0,1-1.494-1.2A2.707,2.707,0,0,1,81.6,13.95h2.769a1.145,1.145,0,0,0,.439.962,1.808,1.808,0,0,0,1.081.3,1.422,1.422,0,0,0,.91-.246A.787.787,0,0,0,87.1,14.328ZM10.374,36.175a5.809,5.809,0,0,1,.976-3.56,3.211,3.211,0,0,1,2.725-1.3,2.731,2.731,0,0,1,2.145,1V27.5h2.971V41H16.526l-.149-1.02a2.8,2.8,0,0,1-2.32,1.2,3.205,3.205,0,0,1-2.689-1.3A5.993,5.993,0,0,1,10.374,36.175Zm2.962.185q0,2.531,1.477,2.531a1.458,1.458,0,0,0,1.406-.826V34.443A1.419,1.419,0,0,0,14.83,33.6q-1.371,0-1.485,2.215Zm12.138,4.816a4.889,4.889,0,0,1-3.542-1.305,4.507,4.507,0,0,1-1.354-3.4v-.246a5.84,5.84,0,0,1,.541-2.575A3.955,3.955,0,0,1,22.7,31.925a4.763,4.763,0,0,1,2.461-.611,4.117,4.117,0,0,1,3.164,1.244,4.887,4.887,0,0,1,1.16,3.467v1.151H23.593a2.135,2.135,0,0,0,.694,1.257,2.066,2.066,0,0,0,1.389.457,2.662,2.662,0,0,0,2.2-.984l1.354,1.6a3.784,3.784,0,0,1-1.569,1.217A5.3,5.3,0,0,1,25.474,41.176ZM25.14,33.6q-1.3,0-1.547,1.723h2.988v-.229a1.467,1.467,0,0,0-.36-1.1A1.434,1.434,0,0,0,25.14,33.6Zm9.668,2.575a6.421,6.421,0,0,1,.475-2.549,3.821,3.821,0,0,1,1.362-1.709,3.591,3.591,0,0,1,2.065-.6,2.855,2.855,0,0,1,2.32,1l.105-.826h2.689V40.64a4.009,4.009,0,0,1-.584,2.184,3.75,3.75,0,0,1-1.692,1.424,6.219,6.219,0,0,1-2.566.5,5.365,5.365,0,0,1-2.026-.4,3.657,3.657,0,0,1-1.5-1.028L36.7,41.58a2.716,2.716,0,0,0,2.18.976,1.764,1.764,0,0,0,1.969-2.021v-.3a2.781,2.781,0,0,1-2.153.94,3.437,3.437,0,0,1-2.812-1.332,5.517,5.517,0,0,1-1.072-3.564Zm2.971.185a3.383,3.383,0,0,0,.439,1.85,1.387,1.387,0,0,0,1.23.681,1.573,1.573,0,0,0,1.4-.642v-4a1.534,1.534,0,0,0-1.38-.65,1.4,1.4,0,0,0-1.239.708A3.858,3.858,0,0,0,37.778,36.359Zm12.331,4.816a4.889,4.889,0,0,1-3.542-1.305,4.507,4.507,0,0,1-1.354-3.4v-.246a5.84,5.84,0,0,1,.541-2.575,3.955,3.955,0,0,1,1.578-1.727,4.763,4.763,0,0,1,2.461-.611,4.117,4.117,0,0,1,3.164,1.244,4.887,4.887,0,0,1,1.16,3.467v1.151H48.229a2.135,2.135,0,0,0,.694,1.257,2.066,2.066,0,0,0,1.389.457,2.662,2.662,0,0,0,2.2-.984l1.354,1.6a3.784,3.784,0,0,1-1.569,1.217A5.3,5.3,0,0,1,50.109,41.176ZM49.775,33.6q-1.3,0-1.547,1.723h2.988v-.229a1.467,1.467,0,0,0-.36-1.1A1.434,1.434,0,0,0,49.775,33.6Zm10.512,4.729a.684.684,0,0,0-.4-.606,6.016,6.016,0,0,0-1.5-.475,6.853,6.853,0,0,1-1.828-.646,3.062,3.062,0,0,1-1.1-.971,2.319,2.319,0,0,1-.378-1.31,2.628,2.628,0,0,1,1.081-2.158A4.453,4.453,0,0,1,59,31.314a4.934,4.934,0,0,1,3.023.853,2.666,2.666,0,0,1,1.143,2.241H60.19q0-1.143-1.2-1.143a1.194,1.194,0,0,0-.782.259.8.8,0,0,0-.316.646.737.737,0,0,0,.387.642,3.654,3.654,0,0,0,1.235.4,10.671,10.671,0,0,1,1.49.378,2.706,2.706,0,0,1,2.145,2.646,2.491,2.491,0,0,1-1.156,2.118A5.068,5.068,0,0,1,59,41.176a5.172,5.172,0,0,1-2.18-.439,3.645,3.645,0,0,1-1.494-1.2,2.707,2.707,0,0,1-.536-1.591h2.769a1.145,1.145,0,0,0,.439.962,1.808,1.808,0,0,0,1.081.3,1.422,1.422,0,0,0,.91-.246A.787.787,0,0,0,60.287,38.328Zm7.69-9.2V31.49h1.564v2.057H67.978V37.9a1.111,1.111,0,0,0,.193.747,1.037,1.037,0,0,0,.765.211,4.345,4.345,0,0,0,.738-.053v2.118a5.466,5.466,0,0,1-1.67.255,3.1,3.1,0,0,1-2.259-.721,2.954,2.954,0,0,1-.729-2.188v-4.72H63.8V31.49h1.213V29.126ZM73.831,41H70.86V31.49h2.971ZM70.685,29.029a1.334,1.334,0,0,1,.457-1.043,1.934,1.934,0,0,1,2.373,0,1.42,1.42,0,0,1,0,2.087,1.934,1.934,0,0,1-2.373,0A1.334,1.334,0,0,1,70.685,29.029Zm4.6,7.128a5.613,5.613,0,0,1,.554-2.536,3.96,3.96,0,0,1,1.591-1.709,4.791,4.791,0,0,1,2.435-.6,4.373,4.373,0,0,1,3.366,1.323,5.076,5.076,0,0,1,1.23,3.6v.105a4.925,4.925,0,0,1-1.235,3.529,4.384,4.384,0,0,1-3.344,1.305,4.434,4.434,0,0,1-3.261-1.217,4.761,4.761,0,0,1-1.327-3.3Zm2.962.185a3.538,3.538,0,0,0,.413,1.934,1.376,1.376,0,0,0,1.222.615q1.582,0,1.617-2.435v-.3q0-2.558-1.635-2.558-1.485,0-1.608,2.206ZM80.265,27.5h3.129L80.95,30.26l-2.417,0Zm8.218,3.99.1,1.116a3.225,3.225,0,0,1,2.716-1.292,2.713,2.713,0,0,1,2.219.888,4.226,4.226,0,0,1,.76,2.672V41H91.3V35a1.6,1.6,0,0,0-.29-1.059,1.342,1.342,0,0,0-1.055-.338,1.413,1.413,0,0,0-1.292.686V41H85.705V31.49Z" transform="translate(-6839.996 -12027)" fill="#12263f"/>
    <path id="Trazado_196518" data-name="Trazado 196518" d="M7883,11891a14,14,0,0,1-14-14v-163a14,14,0,0,1,14-14h160a14,14,0,0,1,14,14v59.407h12.826V11764l27.335,32-27.335,32v-10.4H8057V11877a14,14,0,0,1-14,14Z" transform="translate(-15146.997 -23841)" fill="#3cafff"/>
    <path id="Trazado_196519" data-name="Trazado 196519" d="M18.539,12.658V17H15.454V4.2h5.106a5.948,5.948,0,0,1,2.6.541,4.074,4.074,0,0,1,1.749,1.538,4.2,4.2,0,0,1,.62,2.263,3.7,3.7,0,0,1-1.34,2.993,5.561,5.561,0,0,1-3.678,1.121Zm0-2.382h2.021a1.906,1.906,0,0,0,1.367-.448,1.665,1.665,0,0,0,.47-1.266,2.059,2.059,0,0,0-.483-1.433A1.712,1.712,0,0,0,20.6,6.585H18.539Zm14.247-.105-.976-.07a1.752,1.752,0,0,0-1.793.879V17H27.056V7.49h2.777l.1,1.222a2.294,2.294,0,0,1,2.083-1.4,2.888,2.888,0,0,1,.826.105Zm.378,1.986a5.613,5.613,0,0,1,.554-2.536,3.96,3.96,0,0,1,1.591-1.709,4.791,4.791,0,0,1,2.435-.6,4.373,4.373,0,0,1,3.366,1.323,5.076,5.076,0,0,1,1.23,3.6v.105A4.925,4.925,0,0,1,41.1,15.871a4.384,4.384,0,0,1-3.344,1.305A4.434,4.434,0,0,1,34.5,15.958a4.761,4.761,0,0,1-1.327-3.3Zm2.962.185a3.538,3.538,0,0,0,.413,1.934,1.376,1.376,0,0,0,1.222.615q1.582,0,1.617-2.435v-.3q0-2.558-1.635-2.558-1.485,0-1.608,2.206Zm11.54,2.549a1.317,1.317,0,0,0,.967-.338,1.241,1.241,0,0,0,.334-.945h2.777a3.288,3.288,0,0,1-1.121,2.566,4.168,4.168,0,0,1-2.887,1,4.22,4.22,0,0,1-3.27-1.3,5.125,5.125,0,0,1-1.2-3.6v-.123A5.792,5.792,0,0,1,43.8,9.6a3.872,3.872,0,0,1,1.534-1.7,4.573,4.573,0,0,1,2.373-.593,4.116,4.116,0,0,1,2.944,1.028,3.647,3.647,0,0,1,1.09,2.786H48.967A1.626,1.626,0,0,0,48.606,10a1.244,1.244,0,0,0-.967-.4q-1.151,0-1.345,1.468a10.357,10.357,0,0,0-.062,1.283,4.068,4.068,0,0,0,.343,1.986A1.187,1.187,0,0,0,47.666,14.891ZM57.6,17.176a4.889,4.889,0,0,1-3.542-1.305,4.507,4.507,0,0,1-1.354-3.4v-.246a5.84,5.84,0,0,1,.541-2.575A3.955,3.955,0,0,1,54.82,7.925a4.763,4.763,0,0,1,2.461-.611,4.117,4.117,0,0,1,3.164,1.244,4.887,4.887,0,0,1,1.16,3.467v1.151H55.717a2.135,2.135,0,0,0,.694,1.257,2.066,2.066,0,0,0,1.389.457,2.662,2.662,0,0,0,2.2-.984l1.354,1.6a3.784,3.784,0,0,1-1.569,1.217A5.3,5.3,0,0,1,57.6,17.176ZM57.264,9.6q-1.3,0-1.547,1.723h2.988v-.229a1.467,1.467,0,0,0-.36-1.1A1.434,1.434,0,0,0,57.264,9.6Zm10.512,4.729a.684.684,0,0,0-.4-.606,6.016,6.016,0,0,0-1.5-.475,6.853,6.853,0,0,1-1.828-.646,3.062,3.062,0,0,1-1.1-.971,2.319,2.319,0,0,1-.378-1.31,2.628,2.628,0,0,1,1.081-2.158,4.453,4.453,0,0,1,2.83-.848,4.934,4.934,0,0,1,3.023.853,2.666,2.666,0,0,1,1.143,2.241H67.679q0-1.143-1.2-1.143a1.194,1.194,0,0,0-.782.259.8.8,0,0,0-.316.646.737.737,0,0,0,.387.642,3.654,3.654,0,0,0,1.235.4,10.671,10.671,0,0,1,1.49.378,2.706,2.706,0,0,1,2.145,2.646,2.491,2.491,0,0,1-1.156,2.118,5.068,5.068,0,0,1-2.993.817,5.172,5.172,0,0,1-2.18-.439,3.645,3.645,0,0,1-1.494-1.2,2.707,2.707,0,0,1-.536-1.591h2.769a1.145,1.145,0,0,0,.439.962,1.808,1.808,0,0,0,1.081.3,1.422,1.422,0,0,0,.91-.246A.787.787,0,0,0,67.775,14.328Zm3.867-2.171A5.613,5.613,0,0,1,72.2,9.622a3.96,3.96,0,0,1,1.591-1.709,4.791,4.791,0,0,1,2.435-.6,4.373,4.373,0,0,1,3.366,1.323,5.076,5.076,0,0,1,1.23,3.6v.105a4.925,4.925,0,0,1-1.235,3.529,4.384,4.384,0,0,1-3.344,1.305,4.434,4.434,0,0,1-3.261-1.217,4.761,4.761,0,0,1-1.327-3.3Zm2.962.185a3.538,3.538,0,0,0,.413,1.934,1.376,1.376,0,0,0,1.222.615q1.582,0,1.617-2.435v-.3q0-2.558-1.635-2.558-1.485,0-1.608,2.206Zm12.5,1.986a.684.684,0,0,0-.4-.606,6.016,6.016,0,0,0-1.5-.475,6.853,6.853,0,0,1-1.828-.646,3.062,3.062,0,0,1-1.1-.971,2.319,2.319,0,0,1-.378-1.31A2.628,2.628,0,0,1,82.98,8.163a4.453,4.453,0,0,1,2.83-.848,4.934,4.934,0,0,1,3.023.853,2.666,2.666,0,0,1,1.143,2.241H87.006q0-1.143-1.2-1.143a1.194,1.194,0,0,0-.782.259.8.8,0,0,0-.316.646.737.737,0,0,0,.387.642,3.654,3.654,0,0,0,1.235.4,10.671,10.671,0,0,1,1.49.378,2.706,2.706,0,0,1,2.145,2.646A2.491,2.491,0,0,1,88.8,16.358a5.068,5.068,0,0,1-2.993.817,5.172,5.172,0,0,1-2.18-.439,3.645,3.645,0,0,1-1.494-1.2A2.707,2.707,0,0,1,81.6,13.95h2.769a1.145,1.145,0,0,0,.439.962,1.808,1.808,0,0,0,1.081.3,1.422,1.422,0,0,0,.91-.246A.787.787,0,0,0,87.1,14.328ZM10.071,36.157a5.613,5.613,0,0,1,.554-2.536,3.96,3.96,0,0,1,1.591-1.709,4.791,4.791,0,0,1,2.435-.6,4.373,4.373,0,0,1,3.366,1.323,5.076,5.076,0,0,1,1.23,3.6v.105a4.925,4.925,0,0,1-1.235,3.529,4.384,4.384,0,0,1-3.344,1.305,4.434,4.434,0,0,1-3.261-1.217,4.761,4.761,0,0,1-1.327-3.3Zm2.962.185a3.538,3.538,0,0,0,.413,1.934,1.376,1.376,0,0,0,1.222.615q1.582,0,1.617-2.435v-.3q0-2.558-1.635-2.558-1.485,0-1.608,2.206Zm16.348-.026a5.735,5.735,0,0,1-1,3.538,3.2,3.2,0,0,1-2.694,1.323,2.742,2.742,0,0,1-2.153-.958v4.438H20.574V31.49h2.769l.088.879a2.742,2.742,0,0,1,2.241-1.055,3.224,3.224,0,0,1,2.733,1.3,5.805,5.805,0,0,1,.976,3.564Zm-2.962-.185q0-2.531-1.477-2.531a1.394,1.394,0,0,0-1.406.756V38.1a1.439,1.439,0,0,0,1.424.791q1.415,0,1.459-2.443Zm8.868,5.045a4.889,4.889,0,0,1-3.542-1.305,4.507,4.507,0,0,1-1.354-3.4v-.246a5.84,5.84,0,0,1,.541-2.575,3.955,3.955,0,0,1,1.578-1.727,4.763,4.763,0,0,1,2.461-.611,4.117,4.117,0,0,1,3.164,1.244,4.887,4.887,0,0,1,1.16,3.467v1.151H33.406a2.135,2.135,0,0,0,.694,1.257,2.066,2.066,0,0,0,1.389.457,2.662,2.662,0,0,0,2.2-.984l1.354,1.6a3.784,3.784,0,0,1-1.569,1.217A5.3,5.3,0,0,1,35.287,41.176ZM34.953,33.6q-1.3,0-1.547,1.723h2.988v-.229a1.467,1.467,0,0,0-.36-1.1A1.434,1.434,0,0,0,34.953,33.6Zm11.285.571-.976-.07a1.752,1.752,0,0,0-1.793.879V41H40.507V31.49h2.777l.1,1.222a2.294,2.294,0,0,1,2.083-1.4,2.888,2.888,0,0,1,.826.105ZM52.4,41a3.344,3.344,0,0,1-.281-.853,2.754,2.754,0,0,1-2.285,1.028,3.374,3.374,0,0,1-2.285-.813,2.588,2.588,0,0,1-.94-2.043,2.66,2.66,0,0,1,1.143-2.338,5.821,5.821,0,0,1,3.322-.791h.914v-.5q0-1.316-1.134-1.316A.927.927,0,0,0,49.8,34.413H46.835a2.655,2.655,0,0,1,1.173-2.239A4.931,4.931,0,0,1,51,31.314a4.323,4.323,0,0,1,2.874.888,3.086,3.086,0,0,1,1.081,2.435v4.21a4.311,4.311,0,0,0,.4,2V41Zm-1.854-1.934a1.652,1.652,0,0,0,.918-.237,1.487,1.487,0,0,0,.523-.536V36.772h-.861q-1.547,0-1.547,1.389a.848.848,0,0,0,.272.655A.986.986,0,0,0,50.544,39.066Zm9.5-9.94V31.49H61.61v2.057H60.045V37.9a1.111,1.111,0,0,0,.193.747,1.037,1.037,0,0,0,.765.211,4.345,4.345,0,0,0,.738-.053v2.118a5.466,5.466,0,0,1-1.67.255,3.1,3.1,0,0,1-2.259-.721,2.954,2.954,0,0,1-.729-2.188v-4.72H55.871V31.49h1.213V29.126ZM65.9,41H62.928V31.49H65.9ZM62.752,29.029a1.334,1.334,0,0,1,.457-1.043,1.934,1.934,0,0,1,2.373,0,1.42,1.42,0,0,1,0,2.087,1.934,1.934,0,0,1-2.373,0A1.334,1.334,0,0,1,62.752,29.029Zm8.763,8.446,1.5-5.985h3.12L73.036,41H70.012l-3.1-9.51h3.129Zm5-1.318a5.613,5.613,0,0,1,.554-2.536,3.96,3.96,0,0,1,1.591-1.709,4.791,4.791,0,0,1,2.435-.6,4.373,4.373,0,0,1,3.366,1.323,5.076,5.076,0,0,1,1.23,3.6v.105a4.925,4.925,0,0,1-1.235,3.529,4.384,4.384,0,0,1-3.344,1.305,4.434,4.434,0,0,1-3.261-1.217,4.761,4.761,0,0,1-1.327-3.3Zm2.962.185a3.538,3.538,0,0,0,.413,1.934,1.376,1.376,0,0,0,1.222.615q1.582,0,1.617-2.435v-.3q0-2.558-1.635-2.558-1.485,0-1.608,2.206Zm12.5,1.986a.684.684,0,0,0-.4-.606,6.016,6.016,0,0,0-1.5-.475A6.853,6.853,0,0,1,88.25,36.6a3.062,3.062,0,0,1-1.1-.971,2.319,2.319,0,0,1-.378-1.31,2.628,2.628,0,0,1,1.081-2.158,4.453,4.453,0,0,1,2.83-.848,4.934,4.934,0,0,1,3.023.853,2.666,2.666,0,0,1,1.143,2.241H91.879q0-1.143-1.2-1.143a1.194,1.194,0,0,0-.782.259.8.8,0,0,0-.316.646.737.737,0,0,0,.387.642,3.654,3.654,0,0,0,1.235.4,10.671,10.671,0,0,1,1.49.378,2.706,2.706,0,0,1,2.145,2.646,2.491,2.491,0,0,1-1.156,2.118,5.068,5.068,0,0,1-2.993.817,5.172,5.172,0,0,1-2.18-.439,3.645,3.645,0,0,1-1.494-1.2,2.707,2.707,0,0,1-.536-1.591h2.769a1.145,1.145,0,0,0,.439.962,1.808,1.808,0,0,0,1.081.3,1.422,1.422,0,0,0,.91-.246A.787.787,0,0,0,91.976,38.328Z" transform="translate(-7235.998 -12027)" fill="#12263f"/>
    <path id="Trazado_196520" data-name="Trazado 196520" d="M18.539,12.658V17H15.454V4.2h5.106a5.948,5.948,0,0,1,2.6.541,4.074,4.074,0,0,1,1.749,1.538,4.2,4.2,0,0,1,.62,2.263,3.7,3.7,0,0,1-1.34,2.993,5.561,5.561,0,0,1-3.678,1.121Zm0-2.382h2.021a1.906,1.906,0,0,0,1.367-.448,1.665,1.665,0,0,0,.47-1.266,2.059,2.059,0,0,0-.483-1.433A1.712,1.712,0,0,0,20.6,6.585H18.539Zm14.247-.105-.976-.07a1.752,1.752,0,0,0-1.793.879V17H27.056V7.49h2.777l.1,1.222a2.294,2.294,0,0,1,2.083-1.4,2.888,2.888,0,0,1,.826.105Zm.378,1.986a5.613,5.613,0,0,1,.554-2.536,3.96,3.96,0,0,1,1.591-1.709,4.791,4.791,0,0,1,2.435-.6,4.373,4.373,0,0,1,3.366,1.323,5.076,5.076,0,0,1,1.23,3.6v.105A4.925,4.925,0,0,1,41.1,15.871a4.384,4.384,0,0,1-3.344,1.305A4.434,4.434,0,0,1,34.5,15.958a4.761,4.761,0,0,1-1.327-3.3Zm2.962.185a3.538,3.538,0,0,0,.413,1.934,1.376,1.376,0,0,0,1.222.615q1.582,0,1.617-2.435v-.3q0-2.558-1.635-2.558-1.485,0-1.608,2.206Zm11.54,2.549a1.317,1.317,0,0,0,.967-.338,1.241,1.241,0,0,0,.334-.945h2.777a3.288,3.288,0,0,1-1.121,2.566,4.168,4.168,0,0,1-2.887,1,4.22,4.22,0,0,1-3.27-1.3,5.125,5.125,0,0,1-1.2-3.6v-.123A5.792,5.792,0,0,1,43.8,9.6a3.872,3.872,0,0,1,1.534-1.7,4.573,4.573,0,0,1,2.373-.593,4.116,4.116,0,0,1,2.944,1.028,3.647,3.647,0,0,1,1.09,2.786H48.967A1.626,1.626,0,0,0,48.606,10a1.244,1.244,0,0,0-.967-.4q-1.151,0-1.345,1.468a10.357,10.357,0,0,0-.062,1.283,4.068,4.068,0,0,0,.343,1.986A1.187,1.187,0,0,0,47.666,14.891ZM57.6,17.176a4.889,4.889,0,0,1-3.542-1.305,4.507,4.507,0,0,1-1.354-3.4v-.246a5.84,5.84,0,0,1,.541-2.575A3.955,3.955,0,0,1,54.82,7.925a4.763,4.763,0,0,1,2.461-.611,4.117,4.117,0,0,1,3.164,1.244,4.887,4.887,0,0,1,1.16,3.467v1.151H55.717a2.135,2.135,0,0,0,.694,1.257,2.066,2.066,0,0,0,1.389.457,2.662,2.662,0,0,0,2.2-.984l1.354,1.6a3.784,3.784,0,0,1-1.569,1.217A5.3,5.3,0,0,1,57.6,17.176ZM57.264,9.6q-1.3,0-1.547,1.723h2.988v-.229a1.467,1.467,0,0,0-.36-1.1A1.434,1.434,0,0,0,57.264,9.6Zm10.512,4.729a.684.684,0,0,0-.4-.606,6.016,6.016,0,0,0-1.5-.475,6.853,6.853,0,0,1-1.828-.646,3.062,3.062,0,0,1-1.1-.971,2.319,2.319,0,0,1-.378-1.31,2.628,2.628,0,0,1,1.081-2.158,4.453,4.453,0,0,1,2.83-.848,4.934,4.934,0,0,1,3.023.853,2.666,2.666,0,0,1,1.143,2.241H67.679q0-1.143-1.2-1.143a1.194,1.194,0,0,0-.782.259.8.8,0,0,0-.316.646.737.737,0,0,0,.387.642,3.654,3.654,0,0,0,1.235.4,10.671,10.671,0,0,1,1.49.378,2.706,2.706,0,0,1,2.145,2.646,2.491,2.491,0,0,1-1.156,2.118,5.068,5.068,0,0,1-2.993.817,5.172,5.172,0,0,1-2.18-.439,3.645,3.645,0,0,1-1.494-1.2,2.707,2.707,0,0,1-.536-1.591h2.769a1.145,1.145,0,0,0,.439.962,1.808,1.808,0,0,0,1.081.3,1.422,1.422,0,0,0,.91-.246A.787.787,0,0,0,67.775,14.328Zm3.867-2.171A5.613,5.613,0,0,1,72.2,9.622a3.96,3.96,0,0,1,1.591-1.709,4.791,4.791,0,0,1,2.435-.6,4.373,4.373,0,0,1,3.366,1.323,5.076,5.076,0,0,1,1.23,3.6v.105a4.925,4.925,0,0,1-1.235,3.529,4.384,4.384,0,0,1-3.344,1.305,4.434,4.434,0,0,1-3.261-1.217,4.761,4.761,0,0,1-1.327-3.3Zm2.962.185a3.538,3.538,0,0,0,.413,1.934,1.376,1.376,0,0,0,1.222.615q1.582,0,1.617-2.435v-.3q0-2.558-1.635-2.558-1.485,0-1.608,2.206Zm12.5,1.986a.684.684,0,0,0-.4-.606,6.016,6.016,0,0,0-1.5-.475,6.853,6.853,0,0,1-1.828-.646,3.062,3.062,0,0,1-1.1-.971,2.319,2.319,0,0,1-.378-1.31A2.628,2.628,0,0,1,82.98,8.163a4.453,4.453,0,0,1,2.83-.848,4.934,4.934,0,0,1,3.023.853,2.666,2.666,0,0,1,1.143,2.241H87.006q0-1.143-1.2-1.143a1.194,1.194,0,0,0-.782.259.8.8,0,0,0-.316.646.737.737,0,0,0,.387.642,3.654,3.654,0,0,0,1.235.4,10.671,10.671,0,0,1,1.49.378,2.706,2.706,0,0,1,2.145,2.646A2.491,2.491,0,0,1,88.8,16.358a5.068,5.068,0,0,1-2.993.817,5.172,5.172,0,0,1-2.18-.439,3.645,3.645,0,0,1-1.494-1.2A2.707,2.707,0,0,1,81.6,13.95h2.769a1.145,1.145,0,0,0,.439.962,1.808,1.808,0,0,0,1.081.3,1.422,1.422,0,0,0,.91-.246A.787.787,0,0,0,87.1,14.328ZM16.271,36.175a5.809,5.809,0,0,1,.976-3.56,3.211,3.211,0,0,1,2.725-1.3,2.731,2.731,0,0,1,2.145,1V27.5h2.971V41H22.424l-.149-1.02a2.8,2.8,0,0,1-2.32,1.2,3.205,3.205,0,0,1-2.689-1.3A5.993,5.993,0,0,1,16.271,36.175Zm2.962.185q0,2.531,1.477,2.531a1.458,1.458,0,0,0,1.406-.826V34.443a1.419,1.419,0,0,0-1.389-.844q-1.371,0-1.485,2.215Zm12.138,4.816a4.889,4.889,0,0,1-3.542-1.305,4.507,4.507,0,0,1-1.354-3.4v-.246a5.84,5.84,0,0,1,.541-2.575,3.955,3.955,0,0,1,1.578-1.727,4.763,4.763,0,0,1,2.461-.611,4.117,4.117,0,0,1,3.164,1.244,4.887,4.887,0,0,1,1.16,3.467v1.151H29.49a2.135,2.135,0,0,0,.694,1.257,2.066,2.066,0,0,0,1.389.457,2.662,2.662,0,0,0,2.2-.984l1.354,1.6a3.784,3.784,0,0,1-1.569,1.217A5.3,5.3,0,0,1,31.371,41.176ZM31.037,33.6q-1.3,0-1.547,1.723h2.988v-.229a1.467,1.467,0,0,0-.36-1.1A1.434,1.434,0,0,0,31.037,33.6ZM46.409,41a3.344,3.344,0,0,1-.281-.853,2.754,2.754,0,0,1-2.285,1.028,3.374,3.374,0,0,1-2.285-.813,2.588,2.588,0,0,1-.94-2.043,2.66,2.66,0,0,1,1.143-2.338,5.821,5.821,0,0,1,3.322-.791H46v-.5q0-1.316-1.134-1.316a.927.927,0,0,0-1.055,1.042H40.846a2.655,2.655,0,0,1,1.173-2.239,4.931,4.931,0,0,1,2.993-.86,4.323,4.323,0,0,1,2.874.888,3.086,3.086,0,0,1,1.081,2.435v4.21a4.311,4.311,0,0,0,.4,2V41Zm-1.854-1.934a1.652,1.652,0,0,0,.918-.237A1.487,1.487,0,0,0,46,38.293V36.772h-.861q-1.547,0-1.547,1.389a.848.848,0,0,0,.272.655A.986.986,0,0,0,44.555,39.066Zm14.88-2.751a5.735,5.735,0,0,1-1,3.538,3.2,3.2,0,0,1-2.694,1.323,2.742,2.742,0,0,1-2.153-.958v4.438H50.628V31.49H53.4l.088.879a2.742,2.742,0,0,1,2.241-1.055,3.224,3.224,0,0,1,2.733,1.3,5.805,5.805,0,0,1,.976,3.564Zm-2.962-.185Q56.473,33.6,55,33.6a1.394,1.394,0,0,0-1.406.756V38.1a1.439,1.439,0,0,0,1.424.791q1.415,0,1.459-2.443Zm3.894.026a5.613,5.613,0,0,1,.554-2.536,3.96,3.96,0,0,1,1.591-1.709,4.791,4.791,0,0,1,2.435-.6,4.373,4.373,0,0,1,3.366,1.323,5.076,5.076,0,0,1,1.23,3.6v.105a4.925,4.925,0,0,1-1.235,3.529,4.384,4.384,0,0,1-3.344,1.305A4.434,4.434,0,0,1,61.7,39.958a4.761,4.761,0,0,1-1.327-3.3Zm2.962.185a3.538,3.538,0,0,0,.413,1.934,1.376,1.376,0,0,0,1.222.615q1.582,0,1.617-2.435v-.3q0-2.558-1.635-2.558-1.485,0-1.608,2.206Zm11.188.51L76.1,31.49h3.173L75.4,42.591l-.167.4a2.944,2.944,0,0,1-2.918,1.846,4.642,4.642,0,0,1-1.222-.175v-2.11h.387a2.026,2.026,0,0,0,.954-.18,1.094,1.094,0,0,0,.488-.647l.237-.633-3.3-9.605h3.164Zm5.019-.694a5.613,5.613,0,0,1,.554-2.536,3.96,3.96,0,0,1,1.591-1.709,4.791,4.791,0,0,1,2.435-.6,4.373,4.373,0,0,1,3.366,1.323,5.076,5.076,0,0,1,1.23,3.6v.105a4.925,4.925,0,0,1-1.235,3.529,4.384,4.384,0,0,1-3.344,1.305,4.434,4.434,0,0,1-3.261-1.217,4.761,4.761,0,0,1-1.327-3.3Zm2.962.185a3.538,3.538,0,0,0,.413,1.934,1.376,1.376,0,0,0,1.222.615q1.582,0,1.617-2.435v-.3q0-2.558-1.635-2.558-1.485,0-1.608,2.206Z" transform="translate(-7041.159 -12027)" fill="#12263f"/>
    <g id="Grupo_154411" data-name="Grupo 154411" transform="translate(-6812.996 -12095)">
      <g id="Grupo_154384" data-name="Grupo 154384" transform="translate(0 0)" clip-path="url(#clip-path)">
        <path id="Trazado_196460" data-name="Trazado 196460" d="M22.05,25.06c.785.128,1.5.207,2.2.367a11.354,11.354,0,0,1,5.437,2.939.665.665,0,0,0,.72.183c7.022-1.686,13.71,3.537,13.356,10.418A10.477,10.477,0,0,1,33.277,48.59c-10.749.039-21.5.014-32.248.013-.713,0-1.014-.279-1.014-.945,0-3.985-.039-7.97.013-11.954C.1,30.354,4.707,25.668,10.3,25.173c.2-.018.406-.047.735-.086a10.374,10.374,0,0,1-2.817-2.73A9.335,9.335,0,0,1,6.769,18.84a3.557,3.557,0,0,1-2.677-1.148,2.972,2.972,0,0,1-.767-1.783c-.115-1.518.756-2.644,2.59-3.331-.513-.74-1.041-1.461-1.526-2.208A6.63,6.63,0,0,1,7.434.649,7.181,7.181,0,0,1,10.373,0q3.586-.01,7.172,0a4.4,4.4,0,0,1,2.976,1.1,13.09,13.09,0,0,1,2.32-.983,5.861,5.861,0,0,1,6.675,4.122,8.468,8.468,0,0,1-.954,6.115c-.4.772-.922,1.484-1.389,2.223,1.909.805,2.772,2,2.534,3.512-.251,1.592-1.437,2.56-3.421,2.755A9.55,9.55,0,0,1,22.05,25.06m1.494,1.814c-.1.173-.193.326-.277.484-.838,1.59-1.667,3.184-2.519,4.766a1.641,1.641,0,0,1-.594.694c-.226.117-.572.024-.888.024.01.077.018.156.03.234.437,2.709.869,5.418,1.317,8.125a1.042,1.042,0,0,1-.323,1.023c-1.028.964-2.042,1.941-3.069,2.906a.87.87,0,0,1-1.385.006c-1.04-.976-2.087-1.946-3.089-2.956a1.168,1.168,0,0,1-.309-.869c.248-1.762.557-3.516.842-5.273.174-1.073.342-2.147.517-3.246-.84.234-1.084.134-1.453-.565q-1.305-2.471-2.607-4.943c-.074-.141-.159-.276-.227-.4a1.386,1.386,0,0,0-.153.009,9.524,9.524,0,0,0-7.684,8.942c-.033,3.625-.008,7.251-.008,10.876,0,.093.013.186.021.285H4.993v-11.7h1.64V47h20.6C19.978,42.315,21.1,32.5,28.29,29.241a9.916,9.916,0,0,0-4.745-2.368M42.118,38.4a8.877,8.877,0,0,0-9.11-8.608A8.873,8.873,0,0,0,23.956,38.4a8.876,8.876,0,0,0,9.083,8.634,8.877,8.877,0,0,0,9.08-8.638M26.458,10.7a7.981,7.981,0,0,0,1.579-5.457,3.963,3.963,0,0,0-2.844-3.418,3.274,3.274,0,0,0-3.873.992.85.85,0,0,1-1.345,0c-.188-.168-.365-.347-.549-.518a2.7,2.7,0,0,0-1.906-.732c-2.355,0-4.711-.035-7.064.012a5.277,5.277,0,0,0-5.044,3.2c-.97,2.138-.352,4.062,1.157,5.825.156-1.111.264-1.2,1.434-1.2,1.134,0,2.269,0,3.4,0A4.045,4.045,0,0,0,15.7,5.583a.829.829,0,1,1,1.656,0A4.039,4.039,0,0,0,21.6,9.407c1.289.006,2.579,0,3.868,0,.648,0,.934.277.967.891.005.09.011.18.025.394M8.352,14.132a35.844,35.844,0,0,0,.026,4.161A7.986,7.986,0,0,0,15.8,25.061a8.348,8.348,0,0,0,8.472-5.1c.748-1.9.428-3.861.513-5.814h-.832c0,.764.008,1.5,0,2.228a.8.8,0,0,1-.883.87q-2.424.017-4.849,0a.794.794,0,0,1-.867-.835c-.01-.236,0-.473,0-.7H15.7c0,.168,0,.312,0,.455-.006.842-.258,1.085-1.127,1.086q-2.193,0-4.385,0c-.814,0-1.088-.258-1.091-1.021,0-.7,0-1.393,0-2.094Zm16.4-1.588V10.976c-1.106,0-2.185.013-3.264,0A5.821,5.821,0,0,1,16.8,8.7c-.087-.109-.182-.213-.295-.344a5.6,5.6,0,0,1-3.2,2.343,9.112,9.112,0,0,1-1.926.263c-1.023.042-2.05.011-3.071.011v1.568h.448q2.967,0,5.934,0c.71,0,1,.279,1.01.95,0,.191,0,.382,0,.616h1.651c0-.222,0-.383,0-.544.006-.767.274-1.02,1.088-1.023.705,0,1.41,0,2.116,0h4.2M15.432,33.089c-.428,2.625-.851,5.2-1.263,7.779-.026.164-.035.4.064.5.743.739,1.515,1.452,2.313,2.208.7-.672,1.344-1.326,2.031-1.938a.865.865,0,0,0,.293-.909c-.214-1.205-.4-2.415-.6-3.624-.217-1.33-.436-2.659-.657-4.009-1.31.9-1.061.762-2.186-.009m-2.02-2.342,1.809-1.726c-.866-.658-1.778-1.323-2.651-2.029a1.344,1.344,0,0,0-1.281-.284l2.123,4.039m4.432-1.739,1.8,1.73,2.114-4.02-.091-.126a2.873,2.873,0,0,0-.933.247c-.991.7-1.942,1.451-2.889,2.169M10.77,15.645h3.238V14.137H10.77Zm8.233,0h3.261V14.137H19.022c-.008.1-.018.179-.019.257,0,.406,0,.811,0,1.251M6.6,14.128a1.594,1.594,0,0,0-1.627,1.705A1.53,1.53,0,0,0,6.6,17.185Zm19.857,3.1a1.607,1.607,0,0,0,1.624-1.565,1.586,1.586,0,0,0-1.624-1.531ZM14.794,26.681c.565.432,1.046.811,1.544,1.168a.392.392,0,0,0,.351.015c.51-.363,1-.749,1.572-1.184Zm1.652,5.049.848-.755-.748-.732-.878.7.778.783" transform="translate(0 0.001)" fill="#12263f"/>
        <path id="Trazado_196461" data-name="Trazado 196461" d="M93.566,28.68a9.92,9.92,0,0,1-19.813.02,9.92,9.92,0,0,1,19.813-.02m-9.941,7.849a8.078,8.078,0,0,0,8.289-7.783,8.267,8.267,0,0,0-16.51-.113,8.064,8.064,0,0,0,8.221,7.9" transform="translate(-42.566 -11.541)" fill="#12263f"/>
        <path id="Trazado_196462" data-name="Trazado 196462" d="M31.289,48.863h1.627c0,.269-.008.524,0,.78a1.651,1.651,0,0,0,3.3-.011c.009-.242,0-.485,0-.757h1.623A3.2,3.2,0,0,1,36.4,52.22a3.332,3.332,0,0,1-5.112-3.357" transform="translate(-18.041 -29.244)" fill="#12263f"/>
        <path id="Trazado_196463" data-name="Trazado 196463" d="M71.591,92.415l4.439-4.223,1.1,1.077c-.086.093-.178.2-.282.3q-2.2,2.095-4.408,4.186c-.623.591-.978.588-1.6,0q-.657-.622-1.309-1.247a.567.567,0,0,1-.065-.106l1.3-1.112.83,1.127" transform="translate(-40.088 -52.782)" fill="#12263f"/>
        <path id="Línea_1853" data-name="Línea 1853" d="M6.463,6.2-.645.512.489-.765,7.6,4.924Z" transform="translate(37.618 14.431)" fill="#12263f"/>
        <path id="Línea_1854" data-name="Línea 1854" d="M.518,5.974l-1.2-1.22L5.494-.73l1.2,1.22Z" transform="translate(38.13 14.562)" fill="#12263f"/>
      </g>
    </g>
    <g id="Grupo_154412" data-name="Grupo 154412" transform="translate(-7203.998 -12100)">
      <g id="Grupo_154386" data-name="Grupo 154386" clip-path="url(#clip-path-2)">
        <path id="Trazado_196464" data-name="Trazado 196464" d="M43.02,0a1.3,1.3,0,0,1,.705,1.321c-.034,1.028-.009,2.058-.009,3.074l2.609,1.078C47.058,4.745,47.8,4,48.55,3.262c.673-.663,1.143-.665,1.818,0Q52.228,5.1,54.075,6.95c.646.648.638,1.105-.015,1.762s-1.294,1.306-1.961,1.939a.5.5,0,0,0-.13.687,17.586,17.586,0,0,1,.743,1.794.506.506,0,0,0,.582.392c.941-.021,1.883-.014,2.825-.005.845.008,1.2.355,1.207,1.18q.01,2.691,0,5.382c0,.8-.348,1.152-1.158,1.17-.941.02-1.884.022-2.825,0a.577.577,0,0,0-.654.467c-.246.7-.553,1.376-.863,2.128.7.694,1.438,1.417,2.169,2.145.751.749.748,1.167-.014,1.926q-1.77,1.764-3.545,3.524c-.77.763-1.2.757-1.985-.022-.625-.62-1.257-1.234-1.869-1.868a.478.478,0,0,0-.645-.116c-.607.283-1.225.545-1.856.769a.471.471,0,0,0-.368.54c.014.954.012,1.908,0,2.863-.008.795-.354,1.164-1.16,1.171q-2.738.025-5.477,0c-.776-.008-1.113-.368-1.125-1.141q-.023-1.431,0-2.863a.51.51,0,0,0-.4-.581,18.654,18.654,0,0,1-1.8-.748.51.51,0,0,0-.7.124c-.635.664-1.3,1.3-1.952,1.948a1.077,1.077,0,0,1-1.783.021q-1.884-1.854-3.75-3.725a1.033,1.033,0,0,1,0-1.724c.647-.653,1.3-1.3,1.96-1.94a.532.532,0,0,0,.154-.736,14.11,14.11,0,0,1-.73-1.737.548.548,0,0,0-.631-.422c-.9.018-1.806.013-2.71,0-.949-.01-1.286-.339-1.29-1.278q-.013-2.605,0-5.211c.005-.908.352-1.242,1.26-1.248s1.845-.014,2.767.006a.508.508,0,0,0,.587-.39,18.352,18.352,0,0,1,.75-1.792.5.5,0,0,0-.132-.69c-.681-.646-1.344-1.31-2-1.979a1.024,1.024,0,0,1-.011-1.684q1.906-1.912,3.833-3.8a1.013,1.013,0,0,1,1.65,0c.782.76,1.543,1.54,2.286,2.284.82-.323,1.59-.609,2.34-.939a.619.619,0,0,0,.281-.466c.028-.877.037-1.756.005-2.633A1.474,1.474,0,0,1,36.563,0ZM27.51,7.895c.654.646,1.323,1.3,1.987,1.965.641.638.646.926.27,1.718-.439.927-.836,1.878-1.185,2.841-.3.832-.511,1.036-1.407,1.038-.954,0-1.908,0-2.87,0v3.868c1.021,0,2-.005,2.973,0,.8.005,1,.207,1.28.961.371,1,.78,1.982,1.229,2.947.345.74.342,1.052-.238,1.632-.689.689-1.385,1.372-2,1.982L30.3,29.584c.618-.614,1.281-1.276,1.947-1.935s.934-.653,1.782-.243a23.015,23.015,0,0,0,2.643,1.1c1.073.361,1.2.471,1.205,1.615,0,.891,0,1.783,0,2.684h3.889c0-1.012-.005-1.984,0-2.956.005-.749.233-.99.928-1.251q1.555-.586,3.072-1.269a1.119,1.119,0,0,1,1.548.225c.706.695,1.4,1.4,2.081,2.076l2.749-2.753c-.651-.646-1.344-1.329-2.032-2.017-.6-.6-.606-.873-.244-1.624A23.893,23.893,0,0,0,51,20.622c.415-1.214.46-1.293,1.783-1.293h2.552V15.458c-.985,0-1.925,0-2.865,0-.89,0-1.088-.2-1.39-1.053a26.454,26.454,0,0,0-1.138-2.738c-.452-.927-.463-1.128.268-1.853.66-.654,1.326-1.3,1.919-1.886L49.36,5.168c-.648.651-1.331,1.347-2.025,2.032-.565.558-.875.561-1.591.231-.971-.446-1.958-.866-2.963-1.23-.794-.288-1.011-.5-1.015-1.362,0-.948,0-1.9,0-2.866H37.876c0,1,.006,1.973,0,2.942-.007.794-.225,1.008-.963,1.278-1,.367-2,.774-2.966,1.221-.754.348-1.048.35-1.637-.233-.691-.684-1.376-1.376-2.03-2.032L27.51,7.895" transform="translate(-12.932)" fill="#12263f"/>
        <path id="Trazado_196465" data-name="Trazado 196465" d="M22.145,101.7l-1.405-1.379c.361-.351.717-.693,1.069-1.041,1.768-1.753,3.547-3.494,5.292-5.27a2.153,2.153,0,0,1,1.672-.7c6.264.019,12.528.005,18.792.023a1.481,1.481,0,0,0,1.152-.485c3.7-3.695,7.42-7.366,11.113-11.066A3.939,3.939,0,0,0,60.7,77.25a6.538,6.538,0,0,0-.392-.729L52.4,84.367,50.94,82.946a1.378,1.378,0,0,1,.12-.15q4.217-4.192,8.438-8.38a1.009,1.009,0,0,1,1.678.074,6.046,6.046,0,0,1-.137,8.821c-3.82,3.87-7.708,7.674-11.558,11.515a1.689,1.689,0,0,1-1.319.425q-8.1-.006-16.2,0c-.922,0-1.845.023-2.766-.01a1.238,1.238,0,0,0-1,.425c-2.01,2.024-4.036,4.032-6.051,6.039" transform="translate(-12.018 -43.092)" fill="#12263f"/>
        <path id="Trazado_196466" data-name="Trazado 196466" d="M22.055,96.929V95.007H32.316c1.908,0,2.926-.908,3.174-2.885h-.62q-10.806,0-21.61-.008a1.229,1.229,0,0,0-.954.394Q7.061,97.742,1.8,102.96a3.3,3.3,0,0,0-.363.547L0,102.04c.113-.122.233-.261.363-.391Q5.823,96.225,11.278,90.8a1.987,1.987,0,0,1,1.529-.619q11.67.023,23.339.01c1.2,0,1.516.324,1.419,1.512a7.023,7.023,0,0,1-1.025,3.183,3.979,3.979,0,0,1-3.413,2.029c-3.667.053-7.336.018-11.072.018" transform="translate(0 -52.511)" fill="#12263f"/>
        <path id="Trazado_196467" data-name="Trazado 196467" d="M55.938,39.322a5.791,5.791,0,1,1,0-11.582,5.791,5.791,0,1,1,0,11.582m-3.872-5.77a3.877,3.877,0,0,0,7.754-.022,3.877,3.877,0,0,0-7.754.022" transform="translate(-29.04 -16.153)" fill="#12263f"/>
      </g>
    </g>
    <g id="Grupo_154413" data-name="Grupo 154413" transform="translate(-7013.659 -12096)">
      <g id="Grupo_154382" data-name="Grupo 154382" clip-path="url(#clip-path-3)">
        <path id="Trazado_196441" data-name="Trazado 196441" d="M50.995,13.192a4.011,4.011,0,0,0-2.7-3.859.922.922,0,0,1-.725-.9,9.027,9.027,0,0,0-17.863.242c-.04.309-.142.388-.445.386q-5.4-.016-10.795,0c-.33,0-.378-.1-.391-.4a9.042,9.042,0,1,0-14.81,7.345c.218.184.319.271.057.531a5.562,5.562,0,0,0-1.687,4.108c0,1.491-.023,2.982,0,4.472A7.885,7.885,0,0,0,6.284,32.51a.433.433,0,0,1,.3.458c-.02.565-.021,1.131,0,1.7a.491.491,0,0,1-.289.481A9.519,9.519,0,0,0,1.64,43.6c-.01,2.3.009,4.592-.012,6.888,0,.412.073.537.516.536q8.79-.027,17.581-.008a8.07,8.07,0,0,0,3.48-.744c1.3-.607,2.615-1.18,3.911-1.793a20.76,20.76,0,0,0,3.123-1.527c.139-.1.3-.051.449-.051,1.011,0,2.022.009,3.033-.006a2.31,2.31,0,0,0,2.106-1.235.709.709,0,0,1,.75-.415q5.911.019,11.823.007a2.47,2.47,0,1,0,0-4.933c-1.456-.005-2.913,0-4.369,0-1.048,0-1.261-.227-1.267-1.257,0-.313.069-.4.392-.4,1.148.022,2.3.009,3.444.008a4.129,4.129,0,0,0,4.4-4.4q0-5.192,0-10.384c0-3.564.007-7.128,0-10.692M38.7,2.474a7.4,7.4,0,1,1-7.441,7.377A7.417,7.417,0,0,1,38.7,2.474M18.336,10.69q5.449.027,10.9,0c.318,0,.435.075.476.409a9.034,9.034,0,0,0,17.794.652c.013-.067.026-.135.04-.2.157-.768.267-.8.9-.272a2.37,2.37,0,0,1,.9,1.878c0,5.638,0,11.276.014,16.914,0,.415-.2.374-.464.374q-8.277,0-16.554,0-8.225,0-16.451.01c-.44,0-.521-.078-.444-.524a12.255,12.255,0,0,0-.179-3.013c-.085-1.161-.226-2.318-.358-3.475-.034-.295,0-.439.353-.41a11.031,11.031,0,0,0,1.233,0,2.465,2.465,0,0,0-.01-4.929c-.5-.012-.994-.013-1.491,0-.205.006-.311-.05-.352-.258-.033-.166-.111-.322-.16-.486-.088-.288-.444-.534-.343-.8.087-.232.435-.361.659-.547a8.83,8.83,0,0,0,3.022-4.885c.071-.3.15-.443.512-.441M11.1,32.9c.334,0,.427.084.424.42s-.078.429-.42.423a9.1,9.1,0,0,0-2.884.49c0-2.089-.007-4.125.007-6.161a.89.89,0,0,0-.313-.756,6.539,6.539,0,0,1-.794-.8c-.98-1.2-.582-2.515.591-3.425a.611.611,0,0,1,.342-.05c1.592,0,3.183.007,4.775-.009.32,0,.421.074.452.412.171,1.89.372,3.778.571,5.666a1.827,1.827,0,0,1-1.932,2.155c-.582,0-1.164.013-1.746-.005-.25-.008-.305.075-.314.316C9.81,32.9,9.8,32.91,11.1,32.9m-.72-11.51c.227-.454.416-.868.638-1.264a.747.747,0,0,1,.685-.378c1.573,0,3.145-.008,4.718,0a.817.817,0,1,1,.011,1.634c-2,.012-3.992,0-6.052,0M1.638,9.452A7.549,7.549,0,0,1,8.486,1.666a7.383,7.383,0,0,1,7.869,6.34,7.2,7.2,0,0,1-3.117,7.133.633.633,0,0,1-.816.08,2.447,2.447,0,0,0-1.217-.367,36.668,36.668,0,0,0-4.668.04,2.134,2.134,0,0,0-.794.183,1.055,1.055,0,0,1-1.32-.249A7.26,7.26,0,0,1,1.638,9.452M7.7,16.46c1.009,0,2.019-.01,3.027,0a2.37,2.37,0,0,1,2.243,1.642c-.434,0-.827,0-1.22,0A2.425,2.425,0,0,0,9.5,19.464c-.289.541-.566,1.09-.824,1.647a.436.436,0,0,1-.467.29Q5.9,21.385,3.6,21.4c-.241,0-.308-.062-.319-.31A4.174,4.174,0,0,1,7.7,16.46M6.575,30.816A6.452,6.452,0,0,1,3.6,27.223a12.879,12.879,0,0,1-.317-3.97c-.007-.253.157-.211.306-.211H5.521a3.861,3.861,0,0,0-.4,3.218,4.081,4.081,0,0,0,1.175,1.774.792.792,0,0,1,.288.664c-.022.678-.007,1.357-.007,2.119M24.913,47.682a20.54,20.54,0,0,1-4.03,1.607A5.08,5.08,0,0,1,15.217,45.9c-.42-1.245-.77-2.514-1.143-3.775-.082-.278-.161-.454-.513-.292-.368.169-.952.108-1.1.423-.128.265.159.734.27,1.11.291.982.572,1.968.883,2.945a6.787,6.787,0,0,0,2.052,3.052h-.569c-3.769,0-7.538-.005-11.307.008-.374,0-.52-.056-.513-.484.028-1.816.007-3.632.013-5.448a7.989,7.989,0,0,1,8.3-8.056,8.069,8.069,0,0,1,7.638,7.094c.109.883.23,1.766.386,2.641a.572.572,0,0,1-.422.763c-.624.237-.612.268-.337.874.4.888.4.887,1.283.487,1.212-.551,2.429-1.094,3.634-1.659.272-.127.4-.13.519.186.2.526.455,1.03.681,1.546.054.124.191.269-.051.365m-.235-4.53a.327.327,0,0,1-.239.337c-.965.435-1.931.869-2.891,1.315-.256.119-.334.087-.379-.213a34.241,34.241,0,0,0-.605-3.747,10.6,10.6,0,0,0-.882-2.173c1.631,0,3.186,0,4.74,0,.21,0,.255.077.254.269q-.009,2.108,0,4.216m4.432,2.577c-.765.41-1.571.744-2.357,1.117-.165.078-.2-.017-.256-.137-.255-.577-.517-1.151-.774-1.728-.047-.106-.115-.227.05-.3a25.253,25.253,0,0,1,2.488-1.067.651.651,0,0,1,.153-.01,1.165,1.165,0,0,1,1.125.812,1.074,1.074,0,0,1-.43,1.308M32.9,38.982c0,.444.126.968-.069,1.3-.1.179-.768.031-1.179.033a9.613,9.613,0,0,0-2.3.147,5.818,5.818,0,0,0-3.035,1.873c0-1.21.005-2.313,0-3.417,0-.213.083-.252.271-.251q3.029.008,6.059,0c.2,0,.283.066.255.263a.485.485,0,0,0,0,.051m.734,6.268c-.7.011-1.4,0-2.1,0-.191,0-.306,0-.292-.265a2.764,2.764,0,0,0-1.557-2.719c-.042-.023-.086-.041-.13-.062a6.036,6.036,0,0,1,3.49-.028,2.286,2.286,0,0,1,1.491,2.089.827.827,0,0,1-.9.98M43.6,41.957c1.593.017,3.185,0,4.778.007.564,0,.907.261.971.713.074.527-.329.927-.96.929-1.987.005-3.973,0-5.96,0-1.97,0-3.939-.007-5.908.008-.305,0-.444-.08-.522-.382a3.577,3.577,0,0,0-1.172-1.83.741.741,0,0,1-.282-.656c.014-.582.02-1.165,0-1.746-.011-.282.09-.335.348-.334q2.954.014,5.908,0c.274,0,.354.078.337.343a2.874,2.874,0,0,0,.219,1.507A2.41,2.41,0,0,0,43.6,41.957M49.364,32.6c-.045.613-.007,1.233-.012,1.85a2.466,2.466,0,0,1-2.59,2.577q-8.224.007-16.447,0-5.679,0-11.359,0a.93.93,0,0,1-.761-.3,9.4,9.4,0,0,0-4.628-2.706c-.165-.042-.482.006-.4-.319.089-.369-.237-.786.285-1.124a3.8,3.8,0,0,1,2.232-.5c5.38.015,10.759.008,16.138.008q8.506,0,17.012-.01c.414,0,.565.074.533.518" transform="translate(0 0)" fill="#12263f"/>
        <path id="Trazado_196442" data-name="Trazado 196442" d="M64.668,61.378c-1.251.016-2.5.007-3.753.007s-2.5.009-3.753-.007c-.291,0-.369.077-.367.367q.019,2.93,0,5.861c0,.291.077.368.367.367q3.753-.017,7.505,0c.291,0,.369-.077.367-.367q-.019-2.93,0-5.861c0-.291-.077-.371-.368-.367M63.39,65.985c.005.268-.068.349-.34.342-.719-.019-1.439-.007-2.159-.007-.7,0-1.405-.012-2.107.006-.268.007-.348-.068-.343-.34q.026-1.31,0-2.621c-.005-.268.069-.345.34-.342q2.133.02,4.266,0c.267,0,.348.068.343.34q-.026,1.31,0,2.621" transform="translate(-36.243 -39.167)" fill="#12263f"/>
        <path id="Trazado_196443" data-name="Trazado 196443" d="M84.541,58.486c2.708-.018,5.415-.009,8.123-.009h7.557c1.132,0,1.108,0,1.142-1.133.013-.434-.108-.524-.529-.523-5.193.016-10.385.01-15.577.01-1.187,0-1.168,0-1.192,1.185-.008.391.1.473.477.47" transform="translate(-53.643 -36.259)" fill="#12263f"/>
        <path id="Trazado_196444" data-name="Trazado 196444" d="M84.592,67.583c5.192-.016,10.385-.01,15.577-.01,1.185,0,1.165,0,1.19-1.188.009-.4-.108-.469-.48-.467-2.708.017-5.415.009-8.123.009H85.2c-1.129,0-1.1,0-1.139,1.136-.013.439.116.521.533.52" transform="translate(-53.64 -42.064)" fill="#12263f"/>
        <path id="Trazado_196445" data-name="Trazado 196445" d="M106.74,75.015c-2.193.015-4.387.008-6.58.008H94.351c-1.188,0-1.17,0-1.194,1.183-.008.388.094.473.476.472,4.1-.016,8.191-.009,12.286-.009,1.249,0,1.235,0,1.243-1.235,0-.338-.089-.421-.422-.419" transform="translate(-59.446 -47.869)" fill="#12263f"/>
        <path id="Trazado_196446" data-name="Trazado 196446" d="M64.586,43.185c-2.176.018-4.352.009-6.528.009-1.28,0-1.267,0-1.268,1.261,0,.321.082.4.4.393,1.234-.02,2.467-.008,3.7-.008h2.93c1.217,0,1.2,0,1.218-1.209.005-.364-.091-.448-.449-.445" transform="translate(-36.239 -27.557)" fill="#12263f"/>
        <path id="Trazado_196447" data-name="Trazado 196447" d="M64.631,52.283c-1.233.018-2.467.008-3.7.008H58c-1.214,0-1.2,0-1.215,1.212-.005.368.1.445.453.442,2.176-.018,4.352-.009,6.528-.009,1.279,0,1.264,0,1.266-1.264,0-.327-.092-.394-.4-.389" transform="translate(-36.236 -33.363)" fill="#12263f"/>
        <path id="Trazado_196448" data-name="Trazado 196448" d="M57.157,35.754c1.234-.016,2.467-.007,3.7-.007h2.93c1.249,0,1.236,0,1.243-1.234,0-.336-.086-.422-.421-.42-2.193.016-4.386.008-6.579.008-1.268,0-1.257,0-1.243,1.285,0,.29.079.37.369.367" transform="translate(-36.236 -21.756)" fill="#12263f"/>
        <path id="Trazado_196449" data-name="Trazado 196449" d="M84.893,75.037c-.8,0-.8,0-.8.8,0,.85,0,.85.847.85.8,0,.8,0,.8-.8,0-.85,0-.85-.847-.85" transform="translate(-53.663 -47.883)" fill="#12263f"/>
        <path id="Trazado_196450" data-name="Trazado 196450" d="M109.871,93.224c-.77,0-.77,0-.77.773,0,.872,0,.872.876.872.77,0,.77,0,.77-.773,0-.872,0-.872-.876-.872" transform="translate(-69.62 -59.489)" fill="#12263f"/>
        <path id="Trazado_196451" data-name="Trazado 196451" d="M119.034,93.224c-.84,0-.84,0-.84.857,0,.789,0,.789.806.789.84,0,.84,0,.84-.857,0-.789,0-.789-.805-.789" transform="translate(-75.423 -59.489)" fill="#12263f"/>
        <path id="Trazado_196452" data-name="Trazado 196452" d="M128.16,93.224c-.872,0-.872,0-.872.876,0,.77,0,.77.773.77.872,0,.872,0,.872-.876,0-.77,0-.77-.773-.77" transform="translate(-81.226 -59.489)" fill="#12263f"/>
        <path id="Trazado_196453" data-name="Trazado 196453" d="M102.193,35.28c-.036.323.077.4.393.393,1.645-.017,3.289-.008,4.934-.008,1.3,0,1.295,0,1.267-1.312-.006-.27-.077-.344-.344-.339-.976.015-1.953.006-2.93.006-.685,0-1.371-.008-2.056,0-.406.007-.938-.175-1.185.072s-.035.781-.08,1.184" transform="translate(-65.186 -21.674)" fill="#12263f"/>
        <path id="Trazado_196454" data-name="Trazado 196454" d="M102.592,26.661c.976-.016,1.953-.006,2.93-.006.685,0,1.371.008,2.056,0,.406-.007.938.175,1.184-.072s.035-.781.08-1.184c.036-.323-.078-.4-.393-.393-1.645.017-3.289.008-4.935.008-1.3,0-1.294,0-1.267,1.312.005.27.077.343.344.339" transform="translate(-65.243 -15.954)" fill="#12263f"/>
        <path id="Trazado_196455" data-name="Trazado 196455" d="M102.678,17.571c1.645-.018,3.289-.008,4.934-.008,1.268,0,1.257,0,1.243-1.285,0-.289-.078-.372-.368-.367-.959.018-1.919.007-2.878.007H103.5c-1.25,0-1.236,0-1.244,1.234,0,.335.086.423.421.42" transform="translate(-65.253 -10.153)" fill="#12263f"/>
        <path id="Trazado_196456" data-name="Trazado 196456" d="M94.037,35.761c.8,0,.8,0,.8-.8,0-.848,0-.848-.85-.848-.8,0-.8,0-.8.8,0,.848,0,.848.849.848" transform="translate(-59.466 -21.77)" fill="#12263f"/>
        <path id="Trazado_196457" data-name="Trazado 196457" d="M93.986,26.668c.848,0,.848,0,.848-.849,0-.8,0-.8-.8-.8-.847,0-.847,0-.847.85,0,.8,0,.8.8.8" transform="translate(-59.466 -15.968)" fill="#12263f"/>
        <path id="Trazado_196458" data-name="Trazado 196458" d="M94.021,17.575c.812,0,.812,0,.812-.782,0-.863,0-.863-.833-.863-.812,0-.812,0-.812.833,0,.812,0,.812.833.812" transform="translate(-59.466 -10.165)" fill="#12263f"/>
        <path id="Trazado_196459" data-name="Trazado 196459" d="M10.368,14.036c.425-.083.625.128.8.5.648,1.351,1.333,2.685,2.046,4.109l2.317-6.932c.344,1.033.648,1.912.925,2.8a.426.426,0,0,0,.5.359c.752-.026,1.506-.009,2.26-.009,1.3,0,1.29,0,1.259-1.319-.007-.284-.1-.337-.352-.331-.65.015-1.3-.012-1.952.012a.457.457,0,0,1-.538-.386c-.549-1.706-1.124-3.4-1.692-5.1-.121-.361-.246-.721-.415-1.215L12.912,14.35c-.313-.62-.591-1.147-.845-1.686a.4.4,0,0,0-.422-.277c-.8.014-1.61.009-2.415,0-.174,0-.265.013-.287.237-.143,1.411-.151,1.411,1.22,1.411a1.078,1.078,0,0,0,.205,0" transform="translate(-5.667 -4.16)" fill="#12263f"/>
      </g>
    </g>
    <path id="Trazado_196521" data-name="Trazado 196521" d="M7883,11891a14,14,0,0,1-14-14v-163a14,14,0,0,1,14-14h160a14,14,0,0,1,14,14v59.407h11.826v-9.4l27.339,32-27.339,32V11817.6H8057V11877a14,14,0,0,1-14,14Z" transform="translate(-15340 -23841)" fill="#2194e5"/>
    <path id="Trazado_196522" data-name="Trazado 196522" d="M18.539,12.658V17H15.454V4.2h5.106a5.948,5.948,0,0,1,2.6.541,4.074,4.074,0,0,1,1.749,1.538,4.2,4.2,0,0,1,.62,2.263,3.7,3.7,0,0,1-1.34,2.993,5.561,5.561,0,0,1-3.678,1.121Zm0-2.382h2.021a1.906,1.906,0,0,0,1.367-.448,1.665,1.665,0,0,0,.47-1.266,2.059,2.059,0,0,0-.483-1.433A1.712,1.712,0,0,0,20.6,6.585H18.539Zm14.247-.105-.976-.07a1.752,1.752,0,0,0-1.793.879V17H27.056V7.49h2.777l.1,1.222a2.294,2.294,0,0,1,2.083-1.4,2.888,2.888,0,0,1,.826.105Zm.378,1.986a5.613,5.613,0,0,1,.554-2.536,3.96,3.96,0,0,1,1.591-1.709,4.791,4.791,0,0,1,2.435-.6,4.373,4.373,0,0,1,3.366,1.323,5.076,5.076,0,0,1,1.23,3.6v.105A4.925,4.925,0,0,1,41.1,15.871a4.384,4.384,0,0,1-3.344,1.305A4.434,4.434,0,0,1,34.5,15.958a4.761,4.761,0,0,1-1.327-3.3Zm2.962.185a3.538,3.538,0,0,0,.413,1.934,1.376,1.376,0,0,0,1.222.615q1.582,0,1.617-2.435v-.3q0-2.558-1.635-2.558-1.485,0-1.608,2.206Zm11.54,2.549a1.317,1.317,0,0,0,.967-.338,1.241,1.241,0,0,0,.334-.945h2.777a3.288,3.288,0,0,1-1.121,2.566,4.168,4.168,0,0,1-2.887,1,4.22,4.22,0,0,1-3.27-1.3,5.125,5.125,0,0,1-1.2-3.6v-.123A5.792,5.792,0,0,1,43.8,9.6a3.872,3.872,0,0,1,1.534-1.7,4.573,4.573,0,0,1,2.373-.593,4.116,4.116,0,0,1,2.944,1.028,3.647,3.647,0,0,1,1.09,2.786H48.967A1.626,1.626,0,0,0,48.606,10a1.244,1.244,0,0,0-.967-.4q-1.151,0-1.345,1.468a10.357,10.357,0,0,0-.062,1.283,4.068,4.068,0,0,0,.343,1.986A1.187,1.187,0,0,0,47.666,14.891ZM57.6,17.176a4.889,4.889,0,0,1-3.542-1.305,4.507,4.507,0,0,1-1.354-3.4v-.246a5.84,5.84,0,0,1,.541-2.575A3.955,3.955,0,0,1,54.82,7.925a4.763,4.763,0,0,1,2.461-.611,4.117,4.117,0,0,1,3.164,1.244,4.887,4.887,0,0,1,1.16,3.467v1.151H55.717a2.135,2.135,0,0,0,.694,1.257,2.066,2.066,0,0,0,1.389.457,2.662,2.662,0,0,0,2.2-.984l1.354,1.6a3.784,3.784,0,0,1-1.569,1.217A5.3,5.3,0,0,1,57.6,17.176ZM57.264,9.6q-1.3,0-1.547,1.723h2.988v-.229a1.467,1.467,0,0,0-.36-1.1A1.434,1.434,0,0,0,57.264,9.6Zm10.512,4.729a.684.684,0,0,0-.4-.606,6.016,6.016,0,0,0-1.5-.475,6.853,6.853,0,0,1-1.828-.646,3.062,3.062,0,0,1-1.1-.971,2.319,2.319,0,0,1-.378-1.31,2.628,2.628,0,0,1,1.081-2.158,4.453,4.453,0,0,1,2.83-.848,4.934,4.934,0,0,1,3.023.853,2.666,2.666,0,0,1,1.143,2.241H67.679q0-1.143-1.2-1.143a1.194,1.194,0,0,0-.782.259.8.8,0,0,0-.316.646.737.737,0,0,0,.387.642,3.654,3.654,0,0,0,1.235.4,10.671,10.671,0,0,1,1.49.378,2.706,2.706,0,0,1,2.145,2.646,2.491,2.491,0,0,1-1.156,2.118,5.068,5.068,0,0,1-2.993.817,5.172,5.172,0,0,1-2.18-.439,3.645,3.645,0,0,1-1.494-1.2,2.707,2.707,0,0,1-.536-1.591h2.769a1.145,1.145,0,0,0,.439.962,1.808,1.808,0,0,0,1.081.3,1.422,1.422,0,0,0,.91-.246A.787.787,0,0,0,67.775,14.328Zm3.867-2.171A5.613,5.613,0,0,1,72.2,9.622a3.96,3.96,0,0,1,1.591-1.709,4.791,4.791,0,0,1,2.435-.6,4.373,4.373,0,0,1,3.366,1.323,5.076,5.076,0,0,1,1.23,3.6v.105a4.925,4.925,0,0,1-1.235,3.529,4.384,4.384,0,0,1-3.344,1.305,4.434,4.434,0,0,1-3.261-1.217,4.761,4.761,0,0,1-1.327-3.3Zm2.962.185a3.538,3.538,0,0,0,.413,1.934,1.376,1.376,0,0,0,1.222.615q1.582,0,1.617-2.435v-.3q0-2.558-1.635-2.558-1.485,0-1.608,2.206Zm12.5,1.986a.684.684,0,0,0-.4-.606,6.016,6.016,0,0,0-1.5-.475,6.853,6.853,0,0,1-1.828-.646,3.062,3.062,0,0,1-1.1-.971,2.319,2.319,0,0,1-.378-1.31A2.628,2.628,0,0,1,82.98,8.163a4.453,4.453,0,0,1,2.83-.848,4.934,4.934,0,0,1,3.023.853,2.666,2.666,0,0,1,1.143,2.241H87.006q0-1.143-1.2-1.143a1.194,1.194,0,0,0-.782.259.8.8,0,0,0-.316.646.737.737,0,0,0,.387.642,3.654,3.654,0,0,0,1.235.4,10.671,10.671,0,0,1,1.49.378,2.706,2.706,0,0,1,2.145,2.646A2.491,2.491,0,0,1,88.8,16.358a5.068,5.068,0,0,1-2.993.817,5.172,5.172,0,0,1-2.18-.439,3.645,3.645,0,0,1-1.494-1.2A2.707,2.707,0,0,1,81.6,13.95h2.769a1.145,1.145,0,0,0,.439.962,1.808,1.808,0,0,0,1.081.3,1.422,1.422,0,0,0,.91-.246A.787.787,0,0,0,87.1,14.328ZM7.3,41.176a4.889,4.889,0,0,1-3.542-1.305,4.507,4.507,0,0,1-1.354-3.4v-.246a5.84,5.84,0,0,1,.541-2.575,3.955,3.955,0,0,1,1.578-1.727,4.763,4.763,0,0,1,2.461-.611,4.117,4.117,0,0,1,3.164,1.244,4.887,4.887,0,0,1,1.16,3.467v1.151H5.417a2.135,2.135,0,0,0,.694,1.257,2.066,2.066,0,0,0,1.389.457,2.662,2.662,0,0,0,2.2-.984l1.354,1.6a3.784,3.784,0,0,1-1.569,1.217A5.3,5.3,0,0,1,7.3,41.176ZM6.964,33.6q-1.3,0-1.547,1.723H8.405v-.229a1.467,1.467,0,0,0-.36-1.1A1.434,1.434,0,0,0,6.964,33.6Zm10.512,4.729a.684.684,0,0,0-.4-.606,6.016,6.016,0,0,0-1.5-.475,6.853,6.853,0,0,1-1.828-.646,3.062,3.062,0,0,1-1.1-.971,2.319,2.319,0,0,1-.378-1.31,2.628,2.628,0,0,1,1.081-2.158,4.453,4.453,0,0,1,2.83-.848,4.934,4.934,0,0,1,3.023.853,2.666,2.666,0,0,1,1.143,2.241H17.379q0-1.143-1.2-1.143a1.194,1.194,0,0,0-.782.259.8.8,0,0,0-.316.646.737.737,0,0,0,.387.642,3.654,3.654,0,0,0,1.235.4,10.671,10.671,0,0,1,1.49.378,2.706,2.706,0,0,1,2.145,2.646,2.491,2.491,0,0,1-1.156,2.118,5.068,5.068,0,0,1-2.993.817A5.172,5.172,0,0,1,14,40.736a3.645,3.645,0,0,1-1.494-1.2,2.707,2.707,0,0,1-.536-1.591h2.769a1.145,1.145,0,0,0,.439.962,1.808,1.808,0,0,0,1.081.3,1.422,1.422,0,0,0,.91-.246A.787.787,0,0,0,17.476,38.328Zm7.69-9.2V31.49H26.73v2.057H25.166V37.9a1.111,1.111,0,0,0,.193.747,1.037,1.037,0,0,0,.765.211,4.345,4.345,0,0,0,.738-.053v2.118a5.466,5.466,0,0,1-1.67.255,3.1,3.1,0,0,1-2.259-.721,2.954,2.954,0,0,1-.729-2.188v-4.72H20.991V31.49H22.2V29.126Zm8.481,5.045-.976-.07a1.752,1.752,0,0,0-1.793.879V41H27.917V31.49h2.777l.1,1.222a2.294,2.294,0,0,1,2.083-1.4,2.888,2.888,0,0,1,.826.105ZM39.809,41a3.344,3.344,0,0,1-.281-.853,2.754,2.754,0,0,1-2.285,1.028,3.374,3.374,0,0,1-2.285-.813,2.588,2.588,0,0,1-.94-2.043,2.66,2.66,0,0,1,1.143-2.338,5.821,5.821,0,0,1,3.322-.791H39.4v-.5q0-1.316-1.134-1.316a.927.927,0,0,0-1.055,1.042H34.245a2.655,2.655,0,0,1,1.173-2.239,4.931,4.931,0,0,1,2.993-.86,4.323,4.323,0,0,1,2.874.888,3.086,3.086,0,0,1,1.081,2.435v4.21a4.311,4.311,0,0,0,.4,2V41Zm-1.854-1.934a1.652,1.652,0,0,0,.918-.237,1.487,1.487,0,0,0,.523-.536V36.772h-.861q-1.547,0-1.547,1.389a.848.848,0,0,0,.272.655A.986.986,0,0,0,37.954,39.066Zm9.5-9.94V31.49H49.02v2.057H47.455V37.9a1.111,1.111,0,0,0,.193.747,1.037,1.037,0,0,0,.765.211,4.345,4.345,0,0,0,.738-.053v2.118a5.466,5.466,0,0,1-1.67.255,3.1,3.1,0,0,1-2.259-.721,2.954,2.954,0,0,1-.729-2.188v-4.72H43.28V31.49h1.213V29.126Zm7.33,12.05a4.889,4.889,0,0,1-3.542-1.305,4.507,4.507,0,0,1-1.354-3.4v-.246a5.84,5.84,0,0,1,.541-2.575,3.955,3.955,0,0,1,1.578-1.727,4.763,4.763,0,0,1,2.461-.611,4.117,4.117,0,0,1,3.164,1.244,4.887,4.887,0,0,1,1.16,3.467v1.151H52.9a2.135,2.135,0,0,0,.694,1.257,2.066,2.066,0,0,0,1.389.457,2.662,2.662,0,0,0,2.2-.984l1.354,1.6a3.784,3.784,0,0,1-1.569,1.217A5.3,5.3,0,0,1,54.785,41.176ZM54.451,33.6q-1.3,0-1.547,1.723h2.988v-.229a1.467,1.467,0,0,0-.36-1.1A1.434,1.434,0,0,0,54.451,33.6Zm-.035-6.108h3.129L55.1,30.251l-2.417,0Zm5.221,8.684a6.421,6.421,0,0,1,.475-2.549,3.821,3.821,0,0,1,1.362-1.709,3.591,3.591,0,0,1,2.065-.6,2.855,2.855,0,0,1,2.32,1l.105-.826h2.689V40.64a4.009,4.009,0,0,1-.584,2.184,3.75,3.75,0,0,1-1.692,1.424,6.219,6.219,0,0,1-2.566.5,5.365,5.365,0,0,1-2.026-.4,3.657,3.657,0,0,1-1.5-1.028l1.239-1.74a2.716,2.716,0,0,0,2.18.976,1.764,1.764,0,0,0,1.969-2.021v-.3a2.781,2.781,0,0,1-2.153.94,3.437,3.437,0,0,1-2.812-1.332,5.517,5.517,0,0,1-1.072-3.564Zm2.971.185a3.383,3.383,0,0,0,.439,1.85,1.387,1.387,0,0,0,1.23.681,1.573,1.573,0,0,0,1.4-.642v-4a1.534,1.534,0,0,0-1.38-.65,1.4,1.4,0,0,0-1.239.708A3.858,3.858,0,0,0,62.607,36.359ZM73.462,41H70.491V31.49h2.971ZM70.315,29.029a1.334,1.334,0,0,1,.457-1.043,1.934,1.934,0,0,1,2.373,0,1.42,1.42,0,0,1,0,2.087,1.934,1.934,0,0,1-2.373,0A1.334,1.334,0,0,1,70.315,29.029Zm8.991,9.861a1.317,1.317,0,0,0,.967-.338,1.241,1.241,0,0,0,.334-.945h2.777a3.288,3.288,0,0,1-1.121,2.566,4.168,4.168,0,0,1-2.887,1,4.22,4.22,0,0,1-3.27-1.3,5.125,5.125,0,0,1-1.2-3.6v-.123a5.792,5.792,0,0,1,.532-2.544,3.872,3.872,0,0,1,1.534-1.7,4.573,4.573,0,0,1,2.373-.593,4.116,4.116,0,0,1,2.944,1.028,3.647,3.647,0,0,1,1.09,2.786H80.607A1.626,1.626,0,0,0,80.247,34a1.244,1.244,0,0,0-.967-.4q-1.151,0-1.345,1.468a10.357,10.357,0,0,0-.062,1.283,4.068,4.068,0,0,0,.343,1.986A1.187,1.187,0,0,0,79.307,38.891Zm4.957-2.733a5.613,5.613,0,0,1,.554-2.536,3.96,3.96,0,0,1,1.591-1.709,4.791,4.791,0,0,1,2.435-.6,4.373,4.373,0,0,1,3.366,1.323,5.076,5.076,0,0,1,1.23,3.6v.105A4.925,4.925,0,0,1,92.2,39.871a4.384,4.384,0,0,1-3.344,1.305A4.434,4.434,0,0,1,85.6,39.958a4.761,4.761,0,0,1-1.327-3.3Zm2.962.185a3.538,3.538,0,0,0,.413,1.934,1.376,1.376,0,0,0,1.222.615q1.582,0,1.617-2.435v-.3q0-2.558-1.635-2.558-1.485,0-1.608,2.206Zm12.5,1.986a.684.684,0,0,0-.4-.606,6.016,6.016,0,0,0-1.5-.475A6.853,6.853,0,0,1,96,36.6a3.062,3.062,0,0,1-1.1-.971,2.319,2.319,0,0,1-.378-1.31A2.628,2.628,0,0,1,95.6,32.163a4.453,4.453,0,0,1,2.83-.848,4.934,4.934,0,0,1,3.023.853,2.666,2.666,0,0,1,1.143,2.241H99.627q0-1.143-1.2-1.143a1.194,1.194,0,0,0-.782.259.8.8,0,0,0-.316.646.737.737,0,0,0,.387.642,3.654,3.654,0,0,0,1.235.4,10.671,10.671,0,0,1,1.49.378,2.706,2.706,0,0,1,2.145,2.646,2.491,2.491,0,0,1-1.156,2.118,5.068,5.068,0,0,1-2.993.817,5.172,5.172,0,0,1-2.18-.439,3.645,3.645,0,0,1-1.494-1.2,2.707,2.707,0,0,1-.536-1.591H96.99a1.145,1.145,0,0,0,.439.962,1.808,1.808,0,0,0,1.081.3,1.422,1.422,0,0,0,.91-.246A.787.787,0,0,0,99.724,38.328Z" transform="translate(-7428.998 -12027)" fill="#12263f"/>
    <g id="Grupo_154414" data-name="Grupo 154414" transform="translate(-7401.998 -12097)">
      <g id="Grupo_154380" data-name="Grupo 154380" clip-path="url(#clip-path-4)">
        <path id="Trazado_196432" data-name="Trazado 196432" d="M49.086,60.614V58.983h4.923V60.6h1.652V58.975h4.914c.01.143.028.294.028.445,0,1.767.011,3.534-.009,5.3a1.572,1.572,0,0,1-.23.777c-.9,1.436-1.842,2.85-2.745,4.287a1.1,1.1,0,0,0-.161.724q1.447,6.825,2.934,13.641c.014.067.034.132.051.2.351.057.692.086,1.02.172a3.332,3.332,0,0,1,2.417,3.08c.036,1.165.007,2.332.007,3.541H39.226V89.967c0-.742-.01-1.484,0-2.226a3.354,3.354,0,0,1,3.049-3.335c.118-.01.237-.017.4-.029q.481-2.216.961-4.428c.671-3.117,1.348-6.234,2-9.356a1.239,1.239,0,0,0-.146-.822c-.888-1.426-1.819-2.823-2.713-4.245a1.673,1.673,0,0,1-.25-.823c-.021-1.89-.011-3.78-.011-5.714h4.919v1.624ZM47.28,70.847,44.368,84.38H58.753L55.837,70.847ZM62.25,89.469c0-.51,0-.967,0-1.425a1.706,1.706,0,0,0-1.9-1.949q-5.42,0-10.84,0-3.442,0-6.884,0A1.621,1.621,0,0,0,40.9,87.512a18.554,18.554,0,0,0-.014,1.958ZM44.888,65.753c.681,1.056,1.324,2.03,1.941,3.021a.677.677,0,0,0,.663.362c2.449-.013,4.9-.059,7.347.019a1.782,1.782,0,0,0,1.909-1.066c.408-.8.959-1.523,1.484-2.336ZM50.734,62.3h-4.94V60.676H44.2V64H58.932V60.681H57.289v1.63H52.367V60.688H50.734Z" transform="translate(-26.076 -38.584)" fill="#12263f"/>
        <path id="Trazado_196433" data-name="Trazado 196433" d="M14.809,7.527a7.661,7.661,0,0,1-3.166,6.339,2.131,2.131,0,0,0-.97,1.957,8.49,8.49,0,0,1-.094,1.9A3.258,3.258,0,0,1,7.1,20.352a3.367,3.367,0,0,1-2.984-3.237c-.018-.494-.016-.99,0-1.484a1.9,1.9,0,0,0-.865-1.693A7.5,7.5,0,0,1,0,7.338,7.571,7.571,0,0,1,6.9.014a7.466,7.466,0,0,1,7.8,6.462c.051.384.081.771.11,1.05M9.041,15.253a4,4,0,0,1,1.824-2.915,5.664,5.664,0,0,0,2.158-5.852A5.538,5.538,0,0,0,8.969,1.94a5.365,5.365,0,0,0-5.84,1.732,5.988,5.988,0,0,0,.979,8.821A3.625,3.625,0,0,1,5.716,15.02a2.085,2.085,0,0,0,.051.213h.8c0-1.665.009-3.289-.014-4.913a.679.679,0,0,0-.319-.441,2.568,2.568,0,0,1,.737-4.751,2.459,2.459,0,0,1,2.716,1.6A2.512,2.512,0,0,1,8.6,9.824a.657.657,0,0,0-.391.688c.017,1.378.007,2.757.007,4.135v.605ZM5.765,17a1.669,1.669,0,0,0,1.641,1.669A1.646,1.646,0,0,0,9.012,17Zm1.62-8.514a.845.845,0,1,0-.81-.853.841.841,0,0,0,.81.853" transform="translate(0 0)" fill="#12263f"/>
        <path id="Trazado_196434" data-name="Trazado 196434" d="M112.73,14.177l-1.033.48c-.993-1.025-1.988-2.044-2.968-3.079a.491.491,0,0,1-.05-.4,8.529,8.529,0,0,1,.354-.83l-1.056-.418V5.364l1.007-.414c0-.059.014-.105,0-.127-.581-.774-.211-1.285.392-1.823A24.3,24.3,0,0,0,111.3,1.018c.292-.327.547-.4.907-.161a3.976,3.976,0,0,0,.527.253l.418-1.1c1.4,0,2.8-.006,4.2.011.107,0,.254.141.31.254a7.394,7.394,0,0,1,.29.771c.06.01.105.033.123.019.74-.579,1.239-.231,1.772.39.713.831,1.515,1.582,2.3,2.392l-.435,1.038c.03.041.039.065.05.067,1,.131,1.055.827,1,1.665a26.227,26.227,0,0,0,0,2.755c.02.456-.128.679-.543.769a3.323,3.323,0,0,0-.485.187.522.522,0,0,0,0,.162c.376.974.376.973-.356,1.729-.774.8-1.547,1.6-2.348,2.431l-1.005-.444c-.047.038-.093.056-.1.08-.12.918-.668,1.079-1.473,1.012a24.345,24.345,0,0,0-2.824-.008c-.388.013-.606-.087-.682-.5a3.652,3.652,0,0,0-.234-.613M110.522,4.171c.126.287.225.51.321.734a1.024,1.024,0,0,1-.519,1.338c-.68.159-.8.573-.723,1.18a1.745,1.745,0,0,1,0,.528.823.823,0,0,0,.715,1.073,1,1,0,0,1,.547,1.274.907.907,0,0,0,.287,1.4,1.32,1.32,0,0,1,.325.337.8.8,0,0,0,1.277.266.908.908,0,0,1,1.229.474c.159.782.623.893,1.258.807a1.358,1.358,0,0,1,.41,0,.8.8,0,0,0,1.05-.722c.095-.435.858-.843,1.179-.609.686.5,1.1.166,1.516-.368a1.474,1.474,0,0,1,.291-.3.777.777,0,0,0,.215-1.19c-.256-.433-.019-1.222.427-1.322.783-.175.878-.675.794-1.346a1.939,1.939,0,0,1,0-.529.7.7,0,0,0-.592-.9,1.034,1.034,0,0,1-.611-1.5l.291-.648a10.289,10.289,0,0,1-.973-.936c-.369-.455-.713-.6-1.241-.247a.933.933,0,0,1-1.242-.443c-.166-.843-.693-.9-1.346-.832a3.3,3.3,0,0,1-.718,0,.432.432,0,0,0-.54.4c-.088.471-.315.849-.8.888a5.082,5.082,0,0,1-.954-.15c-.175-.021-.415-.062-.524.033-.469.408-.9.863-1.346,1.3" transform="translate(-71.787 -0.004)" fill="#12263f"/>
        <path id="Trazado_196435" data-name="Trazado 196435" d="M116.2,68.8c0,1.165,0,2.309,0,3.453,0,.83.013,1.661,0,2.491a2.477,2.477,0,0,1-2.377,2.5c-1.884.029-3.768.008-5.652.006a.785.785,0,0,1-.164-.041V75.557h.542q2.466,0,4.932,0c.8,0,1.077-.283,1.078-1.114q0-2.518,0-5.036v-.6Z" transform="translate(-71.803 -45.014)" fill="#12263f"/>
        <path id="Trazado_196436" data-name="Trazado 196436" d="M19.606,83.491H21.25c0,.207,0,.395,0,.583.007.8.282,1.091,1.047,1.093q2.543,0,5.087,0h.4v1.7H22.429c-1.876,0-2.837-1.006-2.823-2.952,0-.122,0-.244,0-.421" transform="translate(-13.034 -54.624)" fill="#12263f"/>
        <rect id="Rectángulo_46055" data-name="Rectángulo 46055" width="1.572" height="1.65" transform="translate(42.792 17.007)" fill="#12263f"/>
        <rect id="Rectángulo_46056" data-name="Rectángulo 46056" width="1.581" height="1.635" transform="translate(42.791 20.399)" fill="#12263f"/>
        <rect id="Rectángulo_46057" data-name="Rectángulo 46057" width="1.581" height="1.633" transform="translate(6.612 22.097)" fill="#12263f"/>
        <rect id="Rectángulo_46058" data-name="Rectángulo 46058" width="1.599" height="1.612" transform="translate(6.582 25.494)" fill="#12263f"/>
        <path id="Trazado_196437" data-name="Trazado 196437" d="M64.513,107.244l1.6.369-.356,1.647-1.592-.365.348-1.651" transform="translate(-42.659 -70.164)" fill="#12263f"/>
        <path id="Trazado_196438" data-name="Trazado 196438" d="M68.248,98.039l-.364,1.641-1.59-.36.344-1.641,1.611.36" transform="translate(-44.074 -63.906)" fill="#12263f"/>
        <path id="Trazado_196439" data-name="Trazado 196439" d="M62.42,116.805l1.6.376c-.119.555-.234,1.089-.354,1.651l-1.587-.373c.116-.556.224-1.078.344-1.654" transform="translate(-41.27 -76.42)" fill="#12263f"/>
        <path id="Trazado_196440" data-name="Trazado 196440" d="M125.964,14.07a4.111,4.111,0,1,1-4.117-4.245,4.188,4.188,0,0,1,4.117,4.245m-4.1-2.549a2.545,2.545,0,1,0,2.451,2.583,2.514,2.514,0,0,0-2.451-2.583" transform="translate(-78.281 -6.428)" fill="#12263f"/>
      </g>
    </g>
  </g>
</svg>
