<svg xmlns="http://www.w3.org/2000/svg" xmlns:xlink="http://www.w3.org/1999/xlink" width="108" height="108" viewBox="0 0 108 108">
  <defs>
    <clipPath id="clip-path">
      <rect id="Rectángulo_45973" data-name="Rectángulo 45973" width="59.452" height="59.681" fill="#fff"/>
    </clipPath>
  </defs>
  <g id="Grupo_154403" data-name="Grupo 154403" transform="translate(-1061 -7381)">
    <circle id="Elipse_5718" data-name="Elipse 5718" cx="54" cy="54" r="54" transform="translate(1061 7381)" fill="#baa1e1"/>
    <g id="Grupo_153406" data-name="Grupo 153406" transform="translate(1085 7405)">
      <g id="Grupo_153405" data-name="Grupo 153405" transform="translate(0 0)" clip-path="url(#clip-path)">
        <path id="Trazado_196223" data-name="Trazado 196223" d="M25.7,30.766c.915.158,1.749.254,2.559.45A13.051,13.051,0,0,1,34.6,34.825a.749.749,0,0,0,.839.225,12.5,12.5,0,1,1,3.351,24.6c-12.53.047-25.061.017-37.592.016-.832,0-1.182-.343-1.183-1.16,0-4.892-.046-9.785.015-14.676A13.444,13.444,0,0,1,12.012,30.906c.238-.022.474-.058.857-.106a12.408,12.408,0,0,1-3.284-3.352A11.8,11.8,0,0,1,7.891,23.13,4.051,4.051,0,0,1,4.77,21.72a3.748,3.748,0,0,1-.894-2.189c-.134-1.864.882-3.246,3.019-4.09-.6-.908-1.213-1.794-1.779-2.711A8.335,8.335,0,0,1,8.666.8,8.017,8.017,0,0,1,12.092.005q4.181-.013,8.361,0a4.981,4.981,0,0,1,3.47,1.349,14.852,14.852,0,0,1,2.7-1.207,6.821,6.821,0,0,1,7.782,5.06A10.875,10.875,0,0,1,33.3,12.714c-.461.948-1.075,1.821-1.619,2.729,2.225.989,3.231,2.459,2.954,4.312-.293,1.955-1.675,3.143-3.988,3.382a11.758,11.758,0,0,1-4.94,7.629m1.742,2.227c-.116.213-.225.4-.322.594-.977,1.952-1.943,3.909-2.936,5.852a1.989,1.989,0,0,1-.693.852c-.263.143-.666.03-1.035.03.012.1.021.192.035.288.509,3.325,1.012,6.652,1.535,9.976a1.321,1.321,0,0,1-.377,1.256c-1.2,1.183-2.38,2.383-3.577,3.567a.983.983,0,0,1-1.614.008c-1.212-1.2-2.433-2.389-3.6-3.629a1.481,1.481,0,0,1-.36-1.067c.289-2.163.649-4.317.982-6.474.2-1.318.4-2.636.6-3.985-.979.287-1.263.164-1.694-.694Q12.87,36.534,11.353,33.5c-.087-.173-.185-.339-.265-.486a1.536,1.536,0,0,0-.178.011A11.53,11.53,0,0,0,1.951,44c-.039,4.451-.01,8.9-.009,13.353,0,.114.015.229.024.35H5.82V43.345H7.732V57.7H31.748a12.559,12.559,0,0,1,1.23-21.8,11.349,11.349,0,0,0-5.532-2.907M49.1,47.142a10.586,10.586,0,1,0-10.584,10.6A10.6,10.6,0,0,0,49.1,47.142M30.842,13.131a10.176,10.176,0,0,0,1.841-6.7,4.81,4.81,0,0,0-3.315-4.2,3.7,3.7,0,0,0-4.514,1.218c-.475.566-1.025.518-1.568.006-.219-.206-.425-.425-.64-.635a3.056,3.056,0,0,0-2.222-.9c-2.745,0-5.491-.043-8.235.014a6.142,6.142,0,0,0-5.88,3.932C5.178,8.5,5.9,10.859,7.657,13.024c.181-1.364.308-1.473,1.672-1.473,1.322,0,2.645,0,3.967,0a4.814,4.814,0,0,0,5-4.7c.042-.673.405-1.076.968-1.074s.921.405.962,1.08a4.809,4.809,0,0,0,4.947,4.688c1.5.008,3.006,0,4.509,0,.755,0,1.089.34,1.128,1.094.006.11.013.221.03.484M9.737,17.35a46.341,46.341,0,0,0,.03,5.109,9.517,9.517,0,0,0,8.654,8.309A9.691,9.691,0,0,0,28.3,24.5c.872-2.333.5-4.741.6-7.138h-.97c0,.938.01,1.837,0,2.736a.955.955,0,0,1-1.029,1.069q-2.826.021-5.653,0a.949.949,0,0,1-1.011-1.025c-.012-.29,0-.58,0-.861H18.3c0,.207,0,.383,0,.559-.007,1.033-.3,1.332-1.314,1.333q-2.556,0-5.112,0c-.949,0-1.269-.317-1.272-1.253,0-.855,0-1.71,0-2.571ZM28.856,15.4V13.475c-1.29,0-2.548.016-3.805,0a6.668,6.668,0,0,1-5.465-2.786c-.1-.134-.212-.262-.344-.423a6.567,6.567,0,0,1-3.731,2.876,10.119,10.119,0,0,1-2.245.322c-1.193.052-2.39.014-3.58.014V15.4h.522q3.458,0,6.917,0c.828,0,1.164.343,1.177,1.166,0,.235,0,.469,0,.757h1.925c0-.273,0-.471,0-.668.007-.942.32-1.253,1.269-1.256.822,0,1.644,0,2.466,0h4.894M17.989,40.624c-.5,3.222-.992,6.386-1.472,9.551a.854.854,0,0,0,.074.616c.866.907,1.766,1.783,2.7,2.711.814-.825,1.567-1.628,2.368-2.379A1.1,1.1,0,0,0,22,50.006c-.249-1.48-.465-2.966-.695-4.449-.253-1.633-.508-3.265-.766-4.922-1.527,1.1-1.236.936-2.548-.011m-2.354-2.875,2.109-2.119c-1.01-.808-2.072-1.624-3.091-2.491a1.509,1.509,0,0,0-1.494-.349l2.475,4.958M20.8,35.614l2.1,2.124L25.363,32.8l-.106-.154a3.217,3.217,0,0,0-1.087.3c-1.155.858-2.264,1.781-3.368,2.663M12.554,19.208h3.774V17.356H12.554Zm9.6,0h3.8V17.357H22.174c-.009.124-.021.22-.022.315,0,.5,0,1,0,1.535M7.695,17.345a1.918,1.918,0,0,0-1.9,2.094,1.811,1.811,0,0,0,1.9,1.66Zm23.147,3.81a1.923,1.923,0,0,0,1.893-1.921,1.9,1.9,0,0,0-1.893-1.879Zm-13.6,11.6c.659.53,1.22,1,1.8,1.434a.437.437,0,0,0,.409.019c.594-.446,1.167-.919,1.833-1.453Zm1.925,6.2.988-.927-.872-.9-1.023.865.907.961" transform="translate(0 0.001)" fill="#fff"/>
        <path id="Trazado_196224" data-name="Trazado 196224" d="M96.85,30.82A11.548,11.548,0,1,1,85.289,19.284,11.569,11.569,0,0,1,96.85,30.82M85.262,40.456a9.624,9.624,0,1,0-9.584-9.694,9.645,9.645,0,0,0,9.584,9.694" transform="translate(-37.397 -9.778)" fill="#fff"/>
        <path id="Trazado_196225" data-name="Trazado 196225" d="M31.294,48.863h1.9c0,.33-.009.644,0,.957a1.922,1.922,0,0,0,3.844-.014c.01-.3,0-.595,0-.93H38.93a4.012,4.012,0,0,1-1.676,4.108,3.613,3.613,0,0,1-4.035.148,4.011,4.011,0,0,1-1.924-4.27" transform="translate(-15.85 -24.777)" fill="#fff"/>
        <path id="Trazado_196226" data-name="Trazado 196226" d="M71.945,93.377l5.174-5.185,1.28,1.323c-.1.114-.207.25-.329.372q-2.568,2.572-5.139,5.139c-.727.725-1.14.722-1.871-.005q-.765-.763-1.526-1.531a.7.7,0,0,1-.075-.131l1.518-1.365.968,1.383" transform="translate(-35.22 -44.719)" fill="#fff"/>
        <path id="Línea_1853" data-name="Línea 1853" d="M7,7.571-1.289.587.495-1.529,8.78,5.455Z" transform="translate(44.159 18.033)" fill="#fff"/>
        <path id="Línea_1854" data-name="Línea 1854" d="M.524,7.293l-1.89-2.021,7.2-6.733L7.724.56Z" transform="translate(44.774 18.18)" fill="#fff"/>
      </g>
    </g>
  </g>
</svg>
