<svg xmlns="http://www.w3.org/2000/svg" xmlns:xlink="http://www.w3.org/1999/xlink" width="108" height="108" viewBox="0 0 108 108">
  <defs>
    <clipPath id="clip-path">
      <rect id="Rectángulo_45975" data-name="Rectángulo 45975" width="70.565" height="70.431" fill="#fff"/>
    </clipPath>
  </defs>
  <g id="Grupo_154401" data-name="Grupo 154401" transform="translate(5806 4319.122)">
    <circle id="Elipse_5721" data-name="Elipse 5721" cx="54" cy="54" r="54" transform="translate(-5806 -4319.122)" fill="#baa1e1"/>
    <g id="Grupo_153410" data-name="Grupo 153410" transform="translate(-5787.283 -4300.216)">
      <g id="Grupo_153409" data-name="Grupo 153409" clip-path="url(#clip-path)">
        <path id="Trazado_196232" data-name="Trazado 196232" d="M8.257,28.622h2.69a7.558,7.558,0,0,0-.151-1.141,3.522,3.522,0,1,1,6.833-1.06,10.671,10.671,0,0,1-.259,1.21c-.055.312-.069.631-.107,1.007H19.99c0-.559,0-1.086,0-1.612a1.225,1.225,0,0,1,1.022-1.321,4.644,4.644,0,0,1,3.424-.081c.271.132.887-.167,1.185-.441a.881.881,0,0,0-.014-1.319c-.3-.267-.918-.544-1.2-.409a4.567,4.567,0,0,1-3.352-.085,1.254,1.254,0,0,1-1.065-1.362c.01-.88,0-1.759,0-2.756-1.037,0-2.051,0-3.066,0-1.146,0-1.4-.207-1.7-1.289a4.292,4.292,0,0,1-.016-3.14c.13-.28-.16-.89-.432-1.189a.883.883,0,0,0-1.32.006c-.27.3-.557.92-.422,1.193.59,1.193.194,2.295-.1,3.423a1.2,1.2,0,0,1-1.268.995c-1.491,0-2.983.012-4.474,0a1.167,1.167,0,0,1-1.286-1.272c-.019-.805,0-1.612,0-2.6a8.481,8.481,0,0,0-1.172.163,3.463,3.463,0,0,1-3.809-1,3.293,3.293,0,0,1-.557-3.82A3.351,3.351,0,0,1,3.671,8.7a3.772,3.772,0,0,1,1.138.239c.932.318,1.1.209,1.1-.79,0-.563-.012-1.125,0-1.687A1.169,1.169,0,0,1,7.179,5.173c1.491-.019,2.983-.016,4.474,0a1.179,1.179,0,1,1-.039,2.342c-1.094.01-2.188,0-3.357,0,0,.766-.007,1.468,0,2.17A1.257,1.257,0,0,1,7.19,11.048c-1.111.286-2.193.655-3.344.061a.9.9,0,0,0-1.24.478,1.818,1.818,0,0,0,.019,1.283.9.9,0,0,0,1.256.436c1.2-.639,2.339-.18,3.484.115a1.139,1.139,0,0,1,.888,1.2c0,.73,0,1.46,0,2.238h2.718a7.431,7.431,0,0,0-.173-1.105A3.575,3.575,0,0,1,12.07,11.7a3.521,3.521,0,0,1,5.314,4.188,4.575,4.575,0,0,0-.12.988h2.672V7.513c-1.129,0-2.269.023-3.408-.007a1.117,1.117,0,0,1-1.076-1.656,1.615,1.615,0,0,1,1.1-.654c1.488-.075,2.982-.04,4.473-.024A1.179,1.179,0,0,1,22.336,6.5c.014,1.562,0,3.125,0,4.729,1.393-.593,2.721-1.194,4.076-1.723.907-.354,1.848-.629,2.785-.9a1.178,1.178,0,1,1,.612,2.26,31.923,31.923,0,0,0-6.907,2.8.931.931,0,0,0-.58.958c.032,2.2.014,4.4.014,6.763a10.434,10.434,0,0,0,1.2-.189,3.474,3.474,0,0,1,3.8,1.038,3.506,3.506,0,0,1-2.813,5.805,9.217,9.217,0,0,1-1.207-.266c-.305-.052-.62-.048-.976-.072,0,.779.017,1.414,0,2.048a1.157,1.157,0,0,1-1.246,1.237c-1.516.021-3.032.012-4.548.008a1.165,1.165,0,0,1-1.221-.955c-.3-1.151-.7-2.278-.1-3.495.131-.266-.175-.885-.451-1.18a.883.883,0,0,0-1.32.027c-.265.3-.538.921-.4,1.2.586,1.195.181,2.3-.107,3.424a1.2,1.2,0,0,1-1.281.978c-.856,0-1.712.02-2.567-.009a.571.571,0,0,0-.667.483A29.362,29.362,0,0,0,7.177,42.542c.156,1.77.519,3.522.817,5.278.144.848-.13,1.456-.814,1.626s-1.246-.237-1.458-1.077a32.265,32.265,0,0,1,.265-16.877A4.232,4.232,0,0,0,6,30.108c-.1-2.537-.078-5.08-.03-7.62a1.073,1.073,0,0,1,1.254-.876A1.166,1.166,0,0,1,8.25,22.842c.018,1.614.007,3.228.007,4.842v.938" transform="translate(0 -2.821)" fill="#fff"/>
        <path id="Trazado_196233" data-name="Trazado 196233" d="M43.61,70.143c.445.812,1.877,1.193,1.256,2.612-1,2.293-.989,2.3-3.509,2.477V79.9c1.442-.118,2.549-.066,3.256,1.648s0,2.5-1.024,3.326L46.9,88.188c.781-.414,1.182-1.926,2.613-1.23.717.349,1.656.535,2.083,1.1s.321,1.508.466,2.391c.289,0,.672-.022,1.053,0a1.161,1.161,0,0,1,1.145,1.188,1.145,1.145,0,0,1-1.12,1.136c-.8.036-1.614.035-2.419,0A1.136,1.136,0,0,1,49.579,91.6c-.026-.561,0-1.125-.021-1.686-.006-.145-.1-.376-.2-.4a.624.624,0,0,0-.5.113c-.385.337-.727.725-1.1,1.077a1.169,1.169,0,0,1-1.861.038q-2.433-2.39-4.827-4.821a1.153,1.153,0,0,1,0-1.808c.365-.394.772-.751,1.127-1.154a.623.623,0,0,0,.11-.5c-.028-.1-.258-.2-.4-.2-.537-.024-1.076,0-1.613-.014a1.171,1.171,0,0,1-1.27-1.288q-.022-3.411,0-6.822a1.167,1.167,0,0,1,1.283-1.275c.537-.015,1.076.013,1.613-.011.143-.006.373-.107.4-.208a.629.629,0,0,0-.117-.5c-.338-.385-.726-.726-1.079-1.1a1.172,1.172,0,0,1-.036-1.862q2.392-2.432,4.824-4.824a1.156,1.156,0,0,1,1.809,0c.395.365.753.769,1.15,1.132.106.1.34.185.432.133a.621.621,0,0,0,.267-.437c.031-.536,0-1.076.014-1.613a1.151,1.151,0,0,1,1.212-1.268q3.484-.027,6.968,0a1.141,1.141,0,0,1,1.2,1.205c.024.512-.014,1.028.017,1.539.011.19.123.52.216.53a.9.9,0,0,0,.606-.216c.354-.3.658-.654,1-.974a1.171,1.171,0,0,1,1.862-.026q2.431,2.393,4.819,4.828a1.152,1.152,0,0,1-.008,1.809c-.315.341-.671.645-.974,1a2.621,2.621,0,0,0-.3.6,2.808,2.808,0,0,0,.684.247c.461.041.929,0,1.392.019a1.156,1.156,0,0,1,1.25,1.234q.027,3.447,0,6.9a1.165,1.165,0,0,1-1.3,1.254c-.513.014-1.028-.015-1.54.014a.6.6,0,0,0-.457.235.591.591,0,0,0,.144.493c.358.4.767.755,1.13,1.15a1.136,1.136,0,0,1,.006,1.755q-2.412,2.463-4.875,4.876a1.153,1.153,0,0,1-1.808-.026c-.339-.317-.64-.676-.99-.979a2.443,2.443,0,0,0-.6-.285,2.149,2.149,0,0,0-.247.611c-.037.511.007,1.027-.019,1.539A1.159,1.159,0,0,1,57.8,92.791a1.147,1.147,0,0,1-1.171-1.16,19.294,19.294,0,0,1,.027-2.857,2.382,2.382,0,0,1,.76-1.119c.167-.175.518-.158.734-.3a2.1,2.1,0,0,1,3.253.631,1.436,1.436,0,0,0,.268.242l3.3-3.3c-.924-.86-1.821-1.626-1.049-3.37.73-1.649,1.726-1.826,3.2-1.626V75.184c-1.369.092-2.5.093-3.193-1.652a2.42,2.42,0,0,1,1.022-3.3L61.6,66.88c-.819.942-1.616,1.74-3.344,1-1.673-.72-1.775-1.762-1.613-3.2H51.89c.172,1.442.039,2.51-1.656,3.213s-2.491-.027-3.319-1.054l-3.3,3.311" transform="translate(-21.364 -34.11)" fill="#fff"/>
        <path id="Trazado_196234" data-name="Trazado 196234" d="M100.265,60.3c-.563-1.847.343-2.748,1.865-3.277a2.156,2.156,0,0,0,.6-.422,1.256,1.256,0,0,1,1.56-.113c.4.23.8.453,1.217.687.092-.134.168-.229.228-.334.306-.527.608-1.056.949-1.65-.431-.26-.842-.509-1.254-.755a1.312,1.312,0,0,1-.661-1.422,6.49,6.49,0,0,0,.013-1.746,1.4,1.4,0,0,1,.785-1.636c.361-.194.71-.409,1.117-.644l-1.149-2.011c-.445.246-.864.474-1.279.709a1.293,1.293,0,0,1-1.5-.1,8.575,8.575,0,0,0-1.57-.923,1.437,1.437,0,0,1-1.018-1.578c.028-.383,0-.769,0-1.188H97.82c0,.411-.019.817,0,1.221a1.418,1.418,0,0,1-.987,1.529,6.457,6.457,0,0,0-1.451.836,1.438,1.438,0,0,1-1.878.085c-.321-.216-.673-.386-1.055-.6l-1.152,2c.433.26.849.5,1.254.757A1.177,1.177,0,1,1,91.4,51.757c-.75-.408-1.489-.84-2.216-1.289a1.143,1.143,0,0,1-.469-1.69q1.1-1.987,2.265-3.938A1.154,1.154,0,0,1,92.73,44.4a6.829,6.829,0,0,1,.887.512,1.024,1.024,0,0,0,1.369.027.862.862,0,0,0,.491-.856,11.012,11.012,0,0,1,0-1.393,1.127,1.127,0,0,1,1.161-1.168q2.346-.041,4.693,0A1.141,1.141,0,0,1,102.5,42.68a4.9,4.9,0,0,1,0,1.1,1.057,1.057,0,0,0,.817,1.311,1.1,1.1,0,0,0,.711,0c.444-.2.843-.491,1.276-.716a1.114,1.114,0,0,1,1.648.4q1.21,2.007,2.342,4.061a1.132,1.132,0,0,1-.423,1.6c-.3.2-.632.371-.948.555-1.063.617-1.071,1.552-.018,2.17,1.9,1.117,1.936,1.248.828,3.166-.538.93-1.07,1.864-1.613,2.791-.561.958-1.076,1.089-2.055.537a5.058,5.058,0,0,1-.63-.372,1.158,1.158,0,0,0-1.5-.046c-.525.317-.417.71-.418,1.12-.01,2.165-.126,2.288-2.267,2.287-.416,0-.833.017-1.247-.007A1.167,1.167,0,1,1,98.98,60.3c.362-.024.727,0,1.285,0" transform="translate(-48.484 -22.733)" fill="#fff"/>
        <path id="Trazado_196235" data-name="Trazado 196235" d="M124.3,44.581a36.49,36.49,0,0,1-1.775,10.232c-.3.908-1.018,1.279-1.73.923-.566-.283-.706-.841-.512-1.657a55.51,55.51,0,0,0,1.265-5.7,29.687,29.687,0,0,0-6.252-22.745A29.7,29.7,0,0,0,99.55,15.1a3.785,3.785,0,0,1-.826-.288,1.15,1.15,0,0,1,.6-2.168,3.543,3.543,0,0,1,.857.177C113.272,17.008,121.2,25.8,123.746,39.343c.324,1.719.373,3.49.549,5.238" transform="translate(-53.731 -6.926)" fill="#fff"/>
        <path id="Trazado_196236" data-name="Trazado 196236" d="M19.96,114.132a4.431,4.431,0,0,1,2.111,3.177,38.81,38.81,0,0,1,.08,4.53,1.047,1.047,0,0,1-1.162.993q-4.651.019-9.3.006a1.073,1.073,0,0,1-1.2-1.037,35.067,35.067,0,0,1,.042-4.317,4.435,4.435,0,0,1,2.2-3.345,4.839,4.839,0,0,1-.975-4.081,4.581,4.581,0,0,1,1.7-2.659,4.665,4.665,0,0,1,5.994.2c1.84,1.627,2.035,3.948.521,6.535m-7.153,6.361h7.029c0-.907.035-1.712-.009-2.513a2.317,2.317,0,0,0-2.263-2.17c-.829-.031-1.661-.032-2.49,0a2.3,2.3,0,0,0-2.259,2.169c-.044.8-.009,1.606-.009,2.518m3.5-7.048a2.344,2.344,0,1,0-2.33-2.339,2.353,2.353,0,0,0,2.33,2.339" transform="translate(-5.718 -58.284)" fill="#fff"/>
        <path id="Trazado_196237" data-name="Trazado 196237" d="M134.141,116.644a5.054,5.054,0,0,1,2.246,4.824c-.043.829,0,1.662-.01,2.493s-.489,1.392-1.188,1.381-1.148-.554-1.155-1.412c-.008-1.051.007-2.1,0-3.153a2.329,2.329,0,0,0-2.425-2.46c-.782-.015-1.565-.023-2.346,0a2.278,2.278,0,0,0-2.247,2.1c-.056.824-.011,1.655-.011,2.592,1.179,0,2.323-.057,3.455.032a1.518,1.518,0,0,1,1.068.68,1.435,1.435,0,0,1-.168,1.185,1.284,1.284,0,0,1-.943.427c-1.49.046-2.982.039-4.472.019A1.193,1.193,0,0,1,124.647,124c-.013-1.149-.028-2.3.006-3.447a4.716,4.716,0,0,1,2.219-3.9c-1.537-2.847-1.293-5.137.7-6.745a4.723,4.723,0,0,1,6.01.11c1.9,1.66,2.113,4.016.563,6.628m-3.64-5.373a2.328,2.328,0,0,0-2.334,2.321,2.344,2.344,0,1,0,4.688-.016,2.336,2.336,0,0,0-2.353-2.305" transform="translate(-68.269 -59.641)" fill="#fff"/>
        <path id="Trazado_196238" data-name="Trazado 196238" d="M72.408,7.74c-1.551-2.7-1.3-5.1.662-6.683a4.683,4.683,0,0,1,6.058.111C81,2.8,81.213,5.227,79.664,7.7c.172.143.353.291.53.442a4.621,4.621,0,0,1,1.7,3.44A1.173,1.173,0,0,1,80.808,12.9a1.19,1.19,0,0,1-1.25-1.16A2.365,2.365,0,0,0,76.94,9.389c-.684,0-1.368-.014-2.051,0a2.342,2.342,0,0,0-2.372,2.373c-.018.732,0,1.465,0,2.319h2.178c.806,0,1.612-.013,2.418,0a1.173,1.173,0,1,1-.022,2.337c-1.88.014-3.761.006-5.642,0-.676,0-1.216-.327-1.238-.994a36.4,36.4,0,0,1,.074-4.531A4.331,4.331,0,0,1,72.408,7.74M78.373,4.69A2.342,2.342,0,1,0,76.05,7.032,2.35,2.35,0,0,0,78.373,4.69" transform="translate(-38.438 0)" fill="#fff"/>
        <path id="Trazado_196239" data-name="Trazado 196239" d="M57.182,87.482a7.043,7.043,0,1,1,6.954,7.059,7.057,7.057,0,0,1-6.954-7.059m2.353-.015a4.692,4.692,0,1,0,4.74-4.662,4.7,4.7,0,0,0-4.74,4.662" transform="translate(-31.322 -44.068)" fill="#fff"/>
        <path id="Trazado_196240" data-name="Trazado 196240" d="M60.151,146.429a32.757,32.757,0,0,1-17.808-5.395c-.775-.5-.98-1.169-.568-1.778s1.092-.69,1.867-.18a29.935,29.935,0,0,0,12.217,4.659,30.28,30.28,0,0,0,18.55-3.085c.239-.122.469-.264.715-.37a1.151,1.151,0,0,1,1.564.5,1.1,1.1,0,0,1-.506,1.559c-1.329.667-2.664,1.335-4.045,1.88a32.459,32.459,0,0,1-11.986,2.206" transform="translate(-22.769 -75.998)" fill="#fff"/>
        <path id="Trazado_196241" data-name="Trazado 196241" d="M110.939,60.644a3.518,3.518,0,1,1-3.465-3.536,3.535,3.535,0,0,1,3.465,3.536m-2.351-.027a1.169,1.169,0,1,0-1.144,1.175,1.176,1.176,0,0,0,1.144-1.175" transform="translate(-56.914 -31.281)" fill="#fff"/>
      </g>
    </g>
  </g>
</svg>
