<svg id="Grupo_154324" data-name="Grupo 154324" xmlns="http://www.w3.org/2000/svg" xmlns:xlink="http://www.w3.org/1999/xlink" width="404.108" height="420.402" viewBox="0 0 404.108 420.402">
  <defs>
    <clipPath id="clip-path">
      <rect id="Rect치ngulo_34382" data-name="Rect치ngulo 34382" width="380.443" height="278.607" fill="none"/>
    </clipPath>
  </defs>
  <g id="Grupo_79927" data-name="Grupo 79927">
    <g id="Grupo_79926" data-name="Grupo 79926" transform="translate(0 30.751)">
      <path id="Trazado_116587" data-name="Trazado 116587" d="M553.474,833.632a139.809,139.809,0,0,0,21.391,18.011c69.781,50.069,152.351,35.474,169.9,31.91,25.914-5.263,76-15.437,112.218-58.024,54.789-64.431,46.258-165.941,3.76-232.949-7.774-12.257-48.836-80.285-132.3-91.195-50.508-6.6-109.385,6.714-152.022,42.435C486.926,618.8,493.3,770.28,553.474,833.632Z" transform="translate(-508.648 -499.755)" fill="#4dd0e1" opacity="0.106"/>
      <g id="Grupo_79911" data-name="Grupo 79911" transform="translate(216.906 3.51)">
        <g id="Grupo_79903" data-name="Grupo 79903" transform="translate(43.053 38.508)">
          <g id="Grupo_79897" data-name="Grupo 79897" transform="translate(0 39.736)" opacity="0.3">
            <path id="Trazado_116588" data-name="Trazado 116588" d="M867.127,1076.3a1.67,1.67,0,0,0-2.021.952c-.731,1.74-1.4,3.537-1.98,5.342a1.67,1.67,0,0,0,1.076,2.1l.031.009a1.67,1.67,0,0,0,2.072-1.086c.554-1.715,1.186-3.422,1.88-5.074a1.671,1.671,0,0,0-1.059-2.247Zm-4.1,13.961a1.671,1.671,0,0,0-2.13,1.306c-.331,1.866-.585,3.764-.756,5.642a1.67,1.67,0,1,0,3.327.3c.162-1.785.4-3.589.719-5.362A1.67,1.67,0,0,0,863.022,1090.257Zm-.928,14.517a1.671,1.671,0,0,0-2.152,1.681c.092,1.888.268,3.8.522,5.672a1.67,1.67,0,1,0,3.31-.449c-.242-1.781-.408-3.592-.5-5.386A1.671,1.671,0,0,0,862.094,1104.774Zm2.341,14.363a1.671,1.671,0,0,0-2.089,2.052c.513,1.821,1.111,3.642,1.777,5.413a1.67,1.67,0,1,0,3.127-1.177c-.632-1.681-1.2-3.411-1.687-5.142A1.67,1.67,0,0,0,864.435,1119.137Zm5.486,13.48a1.671,1.671,0,0,0-1.95,2.4c.9,1.658,1.888,3.3,2.93,4.883a1.67,1.67,0,1,0,2.789-1.838c-.991-1.5-1.928-3.065-2.785-4.64A1.665,1.665,0,0,0,869.921,1132.618Zm8.33,11.93a1.67,1.67,0,0,0-1.739,2.7c1.248,1.42,2.573,2.8,3.938,4.113a1.67,1.67,0,0,0,2.313-2.411c-1.3-1.244-2.555-2.559-3.742-3.908A1.659,1.659,0,0,0,878.251,1144.548Zm57.442,21.505a1.663,1.663,0,0,0-.7-.056c-1.779.238-3.592.4-5.389.486a1.67,1.67,0,0,0,.157,3.337c1.892-.089,3.8-.261,5.675-.512a1.671,1.671,0,0,0,.261-3.256Zm-46.682-11.724a1.671,1.671,0,0,0-1.461,2.954c1.533,1.107,3.132,2.161,4.754,3.132a1.67,1.67,0,1,0,1.716-2.866c-1.541-.922-3.06-1.923-4.515-2.974A1.671,1.671,0,0,0,889.012,1154.329Zm32.134,12.018a1.7,1.7,0,0,0-.33-.065c-1.788-.166-3.593-.412-5.363-.729a1.67,1.67,0,1,0-.59,3.288c1.863.334,3.762.592,5.644.767a1.67,1.67,0,0,0,.639-3.262Zm-19.459-4.885a1.67,1.67,0,0,0-1.131,3.138c1.74.735,3.535,1.4,5.336,1.989l.034.011a1.67,1.67,0,0,0,1-3.187c-1.71-.556-3.415-1.193-5.068-1.891C901.8,1161.5,901.743,1161.479,901.687,1161.462Z" transform="translate(-859.94 -1076.225)" fill="#1565c0"/>
            <path id="Trazado_116589" data-name="Trazado 116589" d="M784,1690.846a1.661,1.661,0,0,0-1,.01c-.819.267-1.657.52-2.492.755a1.67,1.67,0,1,0,.9,3.216c.878-.246,1.759-.513,2.621-.793a1.67,1.67,0,0,0-.035-3.188Z" transform="translate(-696.808 -1603.62)" fill="#1565c0"/>
          </g>
          <g id="Grupo_79898" data-name="Grupo 79898" transform="translate(42.08)" opacity="0.3">
            <path id="Trazado_116590" data-name="Trazado 116590" d="M511.629,1455.3a1.671,1.671,0,0,0-1.984.87c-.376.774-.775,1.554-1.185,2.317a1.67,1.67,0,1,0,2.942,1.582c.432-.8.852-1.624,1.248-2.44a1.67,1.67,0,0,0-1.021-2.329Z" transform="translate(-428.082 -1361.742)" fill="#1565c0"/>
            <path id="Trazado_116591" data-name="Trazado 116591" d="M494.783,798.867q-1.1-.333-2.227-.632a1.671,1.671,0,0,0-.858,3.229c1.728.459,3.433.987,5.087,1.577a1.67,1.67,0,0,0,1.122-3.147C496.884,799.529,495.833,799.184,494.783,798.867ZM483.9,796.558a1.684,1.684,0,0,0-.278-.059c-1.849-.231-3.729-.385-5.587-.46a1.67,1.67,0,1,0-.134,3.337c1.764.071,3.55.218,5.307.437a1.67,1.67,0,0,0,.691-3.256Zm22.064,6.854a1.67,1.67,0,0,0-1.252,3.082c1.566.814,3.118,1.706,4.614,2.652a1.671,1.671,0,1,0,1.786-2.824c-1.575-1-3.21-1.936-4.859-2.793A1.686,1.686,0,0,0,505.962,803.413Zm-36.385-7.05a1.667,1.667,0,0,0-.645-.063c-1.853.181-3.721.444-5.551.78a1.67,1.67,0,0,0,.6,3.285c1.738-.319,3.511-.569,5.271-.741a1.671,1.671,0,0,0,.32-3.262Zm48.274,15.017a1.671,1.671,0,0,0-1.561,2.876c1.348,1.138,2.665,2.35,3.917,3.6a1.67,1.67,0,1,0,2.362-2.362c-1.318-1.318-2.705-2.594-4.124-3.792A1.668,1.668,0,0,0,517.851,811.379Zm9.853,10.383a1.67,1.67,0,0,0-1.815,2.608c1.069,1.409,2.092,2.88,3.039,4.372a1.67,1.67,0,1,0,2.82-1.791c-1-1.57-2.073-3.117-3.2-4.6A1.664,1.664,0,0,0,527.7,821.762Zm7.355,12.284a1.671,1.671,0,0,0-2,2.3c.738,1.61,1.416,3.268,2.015,4.929a1.67,1.67,0,0,0,3.142-1.134c-.631-1.748-1.344-3.493-2.12-5.187A1.667,1.667,0,0,0,535.058,834.046Zm4.5,13.594a1.67,1.67,0,0,0-2.115,1.946c.368,1.731.666,3.5.885,5.25a1.67,1.67,0,1,0,3.314-.415c-.231-1.846-.545-3.706-.932-5.528A1.67,1.67,0,0,0,539.558,847.64Zm1.407,14.256a1.672,1.672,0,0,0-2.154,1.578c-.023,1.765-.122,3.552-.294,5.314a1.67,1.67,0,0,0,3.325.324c.181-1.854.285-3.736.309-5.594A1.672,1.672,0,0,0,540.965,861.9ZM539.207,876.1c-.033-.01-.066-.018-.1-.027a1.67,1.67,0,0,0-2.01,1.241c-.3,1.267-.642,2.54-1.018,3.784q-.2.675-.422,1.343a1.67,1.67,0,0,0,1.071,2.106,1.652,1.652,0,0,0,2.106-1.07q.229-.7.444-1.413c.4-1.309.756-2.648,1.071-3.981A1.67,1.67,0,0,0,539.207,876.1Z" transform="translate(-450.856 -796.038)" fill="#1565c0"/>
            <path id="Trazado_116592" data-name="Trazado 116592" d="M1069.118,818.873a1.666,1.666,0,0,0-1.006.013c-.859.284-1.727.591-2.582.914a1.67,1.67,0,0,0,1.178,3.126c.812-.306,1.638-.6,2.453-.868a1.67,1.67,0,0,0-.043-3.185Z" transform="translate(-1064.448 -815.573)" fill="#1565c0"/>
          </g>
          <g id="Grupo_79902" data-name="Grupo 79902" transform="translate(16.323 16.958)">
            <g id="Grupo_79899" data-name="Grupo 79899">
              <path id="Trazado_116593" data-name="Trazado 116593" d="M606.1,921.152a.781.781,0,0,1,.906.024l7.589,5.718a41.4,41.4,0,0,1,13.141-2.672L632.492,916a.781.781,0,0,1,.825-.375l11.187,2.179a.781.781,0,0,1,.624.658l1.322,9.4a41.393,41.393,0,0,1,11.177,7.41l9.18-2.451a.78.78,0,0,1,.849.318l6.369,9.451a.781.781,0,0,1-.024.906l-5.718,7.588a41.392,41.392,0,0,1,2.672,13.141l8.219,4.755a.78.78,0,0,1,.375.825L677.37,981a.781.781,0,0,1-.658.624l-9.4,1.322a41.378,41.378,0,0,1-7.41,11.176l2.451,9.18a.781.781,0,0,1-.318.849l-9.451,6.369a.78.78,0,0,1-.906-.024l-7.588-5.718a41.387,41.387,0,0,1-13.141,2.673l-4.755,8.219a.781.781,0,0,1-.825.375l-11.187-2.179a.781.781,0,0,1-.624-.658l-1.322-9.4a41.382,41.382,0,0,1-11.177-7.41l-9.18,2.451a.78.78,0,0,1-.849-.318l-6.369-9.451a.78.78,0,0,1,.024-.906l5.718-7.589a41.4,41.4,0,0,1-2.673-13.14l-8.219-4.755a.781.781,0,0,1-.375-.825l2.179-11.187a.781.781,0,0,1,.658-.624l9.4-1.322a41.393,41.393,0,0,1,7.41-11.177l-2.451-9.18a.78.78,0,0,1,.318-.849Z" transform="translate(-579.12 -915.612)" fill="#039be5"/>
            </g>
            <g id="Grupo_79900" data-name="Grupo 79900" transform="translate(38.767 38.766)">
              <path id="Trazado_116594" data-name="Trazado 116594" d="M867.234,1189.45a11.462,11.462,0,1,0,1.57.6A11.473,11.473,0,0,0,867.234,1189.45Zm-5.828,19.385a8.918,8.918,0,0,1-1.216-.467,8.751,8.751,0,1,1,1.216.467Z" transform="translate(-852.474 -1188.965)" fill="#bdd0fb"/>
            </g>
            <g id="Grupo_79901" data-name="Grupo 79901" transform="translate(22.168 22.259)">
              <path id="Trazado_116595" data-name="Trazado 116595" d="M770.095,1073.788a28.622,28.622,0,0,0-2.81-.7h0q-.45-.088-.9-.161a28.374,28.374,0,0,0-4.5-.364h-.235c-.113,0-.226,0-.339,0a.668.668,0,1,0,.026,1.336,26.864,26.864,0,0,1,25.537,17.044,26.668,26.668,0,0,1,1.362,14.92,27.216,27.216,0,0,1-.664,2.681,26.834,26.834,0,1,1-45.644-25.739.66.66,0,0,0,.143-.253.668.668,0,0,0-1.136-.64,28.172,28.172,0,1,0,47.917,27.021,28.83,28.83,0,0,0,.7-2.814,28.174,28.174,0,0,0-19.453-32.339Z" transform="translate(-733.727 -1072.566)" fill="#bdd0fb"/>
            </g>
          </g>
        </g>
        <g id="Grupo_79910" data-name="Grupo 79910" transform="translate(0 0)">
          <g id="Grupo_79904" data-name="Grupo 79904" transform="translate(0 19.652)" opacity="0.3">
            <path id="Trazado_116596" data-name="Trazado 116596" d="M1644.307,663.119a1.031,1.031,0,0,0-1.161.424c-.479.733-.943,1.491-1.378,2.252a1.032,1.032,0,0,0,1.792,1.023c.414-.725.856-1.447,1.313-2.147a1.032,1.032,0,0,0-.3-1.428A1.049,1.049,0,0,0,1644.307,663.119Z" transform="translate(-1635.905 -663.076)" fill="#4dd0e1"/>
            <path id="Trazado_116597" data-name="Trazado 116597" d="M1425.173,712.573a1.031,1.031,0,0,0-1.249.591,44.771,44.771,0,0,0-1.531,4.272q-.138.456-.267.917a1.068,1.068,0,0,0,.716,1.272,1.032,1.032,0,0,0,1.271-.716q.123-.441.254-.877a42.971,42.971,0,0,1,1.46-4.075,1.032,1.032,0,0,0-.555-1.349C1425.24,712.6,1425.207,712.583,1425.173,712.573Zm-2.88,10.318a1.075,1.075,0,0,0-.145-.033,1.033,1.033,0,0,0-1.175.866,44.693,44.693,0,0,0-.488,5.469,1.032,1.032,0,0,0,2.062.057,42.744,42.744,0,0,1,.466-5.217A1.032,1.032,0,0,0,1422.294,722.891ZM1422,733.6a1.031,1.031,0,0,0-1.325,1.088,44.5,44.5,0,0,0,.871,5.425,1.032,1.032,0,0,0,2.013-.453,42.358,42.358,0,0,1-.831-5.173A1.033,1.033,0,0,0,1422,733.6Zm2.35,10.452a1.031,1.031,0,0,0-1.268,1.337,44.794,44.794,0,0,0,2.172,5.046,1.032,1.032,0,0,0,1.841-.932,42.521,42.521,0,0,1-2.071-4.811A1.03,1.03,0,0,0,1424.352,744.051Zm4.831,9.561a1.032,1.032,0,0,0-1.156,1.562,45.171,45.171,0,0,0,3.33,4.364,1.032,1.032,0,1,0,1.561-1.349,42.966,42.966,0,0,1-3.177-4.164A1.028,1.028,0,0,0,1429.183,753.611Zm7,8.1a1.032,1.032,0,0,0-.99,1.753,44.393,44.393,0,0,0,4.293,3.42,1.032,1.032,0,0,0,1.183-1.691,42.253,42.253,0,0,1-4.093-3.26A1.028,1.028,0,0,0,1436.187,761.709Zm8.769,6.138a1.032,1.032,0,0,0-.78,1.9,44.747,44.747,0,0,0,5,2.263,1.032,1.032,0,0,0,.733-1.93,42.4,42.4,0,0,1-4.773-2.157A1.044,1.044,0,0,0,1444.956,767.847Zm15.3,4.757a1,1,0,0,0-.178-.037,42.748,42.748,0,0,1-4.489-.777c-.225-.05-.446-.1-.665-.157a1.032,1.032,0,0,0-1.249.755,1.021,1.021,0,0,0,.755,1.249c.234.057.468.113.7.166a44.878,44.878,0,0,0,4.7.813,1.031,1.031,0,0,0,.42-2.011Z" transform="translate(-1420.485 -705.516)" fill="#4dd0e1"/>
          </g>
          <g id="Grupo_79905" data-name="Grupo 79905" transform="translate(28.193)" opacity="0.3">
            <path id="Trazado_116598" data-name="Trazado 116598" d="M1104.387,526.528a1.032,1.032,0,0,0-.609,1.971,42.692,42.692,0,0,1,4.808,1.847,1.032,1.032,0,1,0,.856-1.878,44.944,44.944,0,0,0-5.041-1.936Zm-5.119-1.286a1.113,1.113,0,0,0-.109-.027,45.2,45.2,0,0,0-5.359-.681,1.032,1.032,0,0,0-.137,2.059,43.191,43.191,0,0,1,5.114.649,1.032,1.032,0,0,0,.491-2Zm14.7,5.655a1.031,1.031,0,0,0-.838,1.867,42.791,42.791,0,0,1,4.221,2.957,1.032,1.032,0,0,0,1.284-1.616,44.8,44.8,0,0,0-4.425-3.1A1.034,1.034,0,0,0,1113.972,530.9Zm-25.221-6.346a1.041,1.041,0,0,0-.356-.043,44.3,44.3,0,0,0-5.368.634,1.032,1.032,0,1,0,.367,2.031,42.329,42.329,0,0,1,5.118-.6,1.032,1.032,0,0,0,.24-2.018Zm33.465,12.9a1.032,1.032,0,0,0-1.035,1.711,42.5,42.5,0,0,1,3.385,3.883,1.032,1.032,0,0,0,1.635-1.26,44.865,44.865,0,0,0-3.549-4.072A1.032,1.032,0,0,0,1122.217,537.453Zm6.431,8.342a1.032,1.032,0,0,0-1.186,1.514,43.067,43.067,0,0,1,2.36,4.582,1.031,1.031,0,0,0,1.888-.832,45.08,45.08,0,0,0-2.473-4.8A1.028,1.028,0,0,0,1128.648,545.8Zm4.248,9.644a1.019,1.019,0,0,0-.6,0,1.031,1.031,0,0,0-.689,1.286,42.182,42.182,0,0,1,1.191,5.014,1.032,1.032,0,0,0,2.033-.354,44.561,44.561,0,0,0-1.249-5.258A1.031,1.031,0,0,0,1132.9,555.439Z" transform="translate(-1074.567 -524.507)" fill="#039be5"/>
            <path id="Trazado_116599" data-name="Trazado 116599" d="M1479.279,537.842a1.027,1.027,0,0,0-.6,0c-.843.262-1.682.551-2.495.857a1.032,1.032,0,1,0,.728,1.931c.775-.292,1.575-.567,2.38-.818a1.032,1.032,0,0,0-.009-1.973Z" transform="translate(-1475.512 -535.913)" fill="#039be5"/>
          </g>
          <g id="Grupo_79909" data-name="Grupo 79909" transform="translate(10.873 11.228)">
            <g id="Grupo_79906" data-name="Grupo 79906">
              <path id="Trazado_116600" data-name="Trazado 116600" d="M1173.509,607.385a.522.522,0,0,1,.606.016l5.078,3.826a27.7,27.7,0,0,1,8.793-1.789l3.182-5.5a.522.522,0,0,1,.552-.251l7.486,1.458a.523.523,0,0,1,.417.44l.884,6.292a27.7,27.7,0,0,1,7.479,4.958l6.143-1.64a.523.523,0,0,1,.568.213l4.262,6.324a.522.522,0,0,1-.016.606l-3.826,5.078a27.7,27.7,0,0,1,1.788,8.793l5.5,3.182a.523.523,0,0,1,.251.552l-1.458,7.486a.522.522,0,0,1-.44.417l-6.292.885a27.684,27.684,0,0,1-4.958,7.479l1.64,6.143a.523.523,0,0,1-.213.568l-6.324,4.262a.522.522,0,0,1-.606-.016l-5.078-3.826a27.692,27.692,0,0,1-8.793,1.788l-3.182,5.5a.522.522,0,0,1-.552.251l-7.486-1.458a.523.523,0,0,1-.417-.44l-.885-6.292a27.687,27.687,0,0,1-7.479-4.958l-6.143,1.64a.522.522,0,0,1-.568-.213l-4.262-6.324a.523.523,0,0,1,.016-.606l3.826-5.078a27.688,27.688,0,0,1-1.788-8.793l-5.5-3.182a.522.522,0,0,1-.251-.552l1.458-7.486a.522.522,0,0,1,.44-.417l6.292-.885a27.694,27.694,0,0,1,4.958-7.479l-1.64-6.143a.523.523,0,0,1,.212-.568Z" transform="translate(-1155.454 -603.678)" fill="#1565c0"/>
            </g>
            <g id="Grupo_79907" data-name="Grupo 79907" transform="translate(25.803 25.799)">
              <path id="Trazado_116601" data-name="Trazado 116601" d="M1347.409,785.923a7.822,7.822,0,1,0,1.08.415A8.009,8.009,0,0,0,1347.409,785.923Zm-3.9,12.973a5.815,5.815,0,0,1-.787-.3,5.74,5.74,0,0,1,4.887-10.389h0a5.741,5.741,0,0,1-4.1,10.691Z" transform="translate(-1337.365 -785.592)" fill="#bdd0fb"/>
            </g>
            <g id="Grupo_79908" data-name="Grupo 79908" transform="translate(14.245 14.31)">
              <path id="Trazado_116602" data-name="Trazado 116602" d="M1279.888,705.421q-.937-.283-1.918-.475a19.556,19.556,0,0,0-3.943-.361l-.178,0a1.031,1.031,0,1,0,.041,2.062,17.433,17.433,0,0,1,3.685.32h0l.2.04a17.2,17.2,0,0,1,7.658,3.7,17.453,17.453,0,0,1,3.138,3.468l.022.032.066.1a17.257,17.257,0,0,1,2.645,13.029,17.585,17.585,0,0,1-.429,1.735,17.372,17.372,0,1,1-29.549-16.662,1.032,1.032,0,1,0-1.535-1.379,19.386,19.386,0,0,0-4.137,7.352,19.6,19.6,0,0,0-.475,1.916,19.435,19.435,0,0,0,37.67,9.374,19.947,19.947,0,0,0,.481-1.941A19.463,19.463,0,0,0,1279.888,705.421Z" transform="translate(-1254.814 -704.584)" fill="#bdd0fb"/>
            </g>
          </g>
        </g>
      </g>
      <g id="Grupo_79924" data-name="Grupo 79924" transform="translate(3.761 111.043)">
        <g id="Enmascarar_grupo_79923" data-name="Enmascarar grupo 79923" transform="translate(0 0)" clip-path="url(#clip-path)">
          <g id="Grupo_79922" data-name="Grupo 79922" transform="translate(4.607 1.682)">
            <g id="Grupo_79919" data-name="Grupo 79919" transform="translate(128.987)">
              <path id="Trazado_116611" data-name="Trazado 116611" d="M884.107,2186.463s-12.236,5.354-33.212-4.342-78.013-10.662-78.013-10.662,18.478-69.155-22.583-118.63c0,0-33.072,61.9-56.314,71.141l-10.41.478v-44.162s8.828-54.516,64.671-95.226l17.387-15.671s61.138-12.327,102.714,60.605S884.107,2186.463,884.107,2186.463Z" transform="translate(-667.472 -1873.018)" fill="#7f4fc7"/>
              <path id="Trazado_116612" data-name="Trazado 116612" d="M1872.292,2001.523c-.582-3.065-.8-10.233,6.593-18.971a19.3,19.3,0,0,1,22.583-5.73c11.245,6.3,15.995,26.858,15.995,26.858l-11.889-6.346c-1.8,5.231-19.359,10.87-19.359,10.87l-.1-.037c-.169,11.373.106,44.541,8.171,67.61,3.16,9.038,9.587,25.829-11.634,54.6l-11.692-.478S1844.764,2085.432,1872.292,2001.523Z" transform="translate(-1859.703 -1878.768)" fill="#f5d1bc"/>
              <g id="Grupo_79917" data-name="Grupo 79917" transform="translate(26.607)">
                <path id="Trazado_116613" data-name="Trazado 116613" d="M1531.486,1684.147l32.558,45.972a7.692,7.692,0,0,1-.675,9.713c-4.387,4.682-11.784,11.28-19.758,12.787a6.206,6.206,0,0,1-6.371-2.683l-17.315-26.579S1516.61,1681.606,1531.486,1684.147Z" transform="translate(-1486.074 -1628.808)" fill="#f5d1bc"/>
                <path id="Trazado_116614" data-name="Trazado 116614" d="M1651.9,1455.572c-.542.723-18.156,57.835-18.156,57.835l32.824,9.364,24.736-51.65S1660.987,1443.467,1651.9,1455.572Z" transform="translate(-1628.111 -1430.114)" fill="#f5d1bc"/>
                <path id="Trazado_116615" data-name="Trazado 116615" d="M1564.562,1344.1l-10.447,27.055a6.2,6.2,0,0,1-.935,1.629c-1.754,2.2-6.854,7.385-12.5,1.837-4.279-4.2-8.312-8.067-12.155-10a6.121,6.121,0,0,0-8.566,3.786,183.862,183.862,0,0,0-5.5,23.7,6.15,6.15,0,0,0,4.816,6.931c6.682,1.4,18.341,3.438,28.557,3.2a6.1,6.1,0,0,0,5.3-3.419c3.78-7.642,13.275-26.612,16.849-31.665,3.285-4.645,10.7-4.619,14.483-4.263a6.119,6.119,0,0,0,4.773-1.629c3.015-2.831,7.056-8.537,1.3-15.626a6.2,6.2,0,0,1,.369-8.257c3.184-3.306,5.822-8.583.793-15.212-5.329-7.023-12.532-6.642-17.386-5.249a6.077,6.077,0,0,1-6.338-2.268,3.135,3.135,0,0,0-2.006-1.129,6.083,6.083,0,0,1-5.331-5.764c-.126-4.439-2.042-9.6-9.367-12.115-14.314-4.916-23.729,8.777-24.925,19.165s14.627,14.836,24.021,14.406c6.509-.3,11.311,5.672,13.645,9.365A6.161,6.161,0,0,1,1564.562,1344.1Z" transform="translate(-1514.393 -1294.611)" fill="#12263f"/>
                <path id="Trazado_116616" data-name="Trazado 116616" d="M1570.225,1764.972s2.859-18.01,10.406-18.677,14.686,5.727,6.914,15.656C1577.877,1774.3,1570.225,1764.972,1570.225,1764.972Z" transform="translate(-1518.701 -1682.196)" fill="#ebc4ae"/>
              </g>
              <path id="Trazado_116617" data-name="Trazado 116617" d="M602.222,1991.761s65.627,41.856,79.994,90.452-17.788,58.156-48.4,62.46l-2.3-37.107s21.447,0,7.766-20.283-50.447-33.805-50.447-33.805S495.673,1965.585,602.222,1991.761Z" transform="translate(-442.406 -1888.714)" fill="#7f4fc7"/>
              <path id="Trazado_116618" data-name="Trazado 116618" d="M884.213,2506.229c.376,0,9.24-.065,12.228-5.687,2.04-3.836.774-9.19-3.762-15.915-13.677-20.277-49.344-33.57-50.856-34.126a.845.845,0,0,0-.584,1.586c.366.135,36.669,13.664,50.039,33.484,4.157,6.163,5.393,10.932,3.673,14.173-2.508,4.727-10.656,4.793-10.738,4.793a.845.845,0,0,0,0,1.69Z" transform="translate(-695.11 -2286.531)" fill="#28716a"/>
              <g id="Grupo_79918" data-name="Grupo 79918" transform="translate(32.685 221.18)">
                <path id="Trazado_116619" data-name="Trazado 116619" d="M1051.471,2888.993s9.587-15.847-3.039-34.779l-84.754,14.032s-40.57-6.864-42.51-6.725-28.418,16.448-28.418,16.448.889,1.891,7.19,1.542,2.165.762,2.165.762l.228,3.183a8.766,8.766,0,0,0,7.9-2.738c3.518-3.743,13.3-5.555,13.3-5.555s20.788,15.361,41.209,7.929Z" transform="translate(-892.749 -2854.214)" fill="#f5d1bc"/>
              </g>
            </g>
            <g id="Grupo_79921" data-name="Grupo 79921" transform="translate(0 250.89)">
              <path id="Trazado_116622" data-name="Trazado 116622" d="M1206.551,3070.033a9.4,9.4,0,0,1,.569-4.4c.514-1.224,1.279-1.933,2.087-1.933h273.564c1.062,0,2.051,1.064,2.623,2.823a11.424,11.424,0,0,1,.2,5.865L1482.633,3085c-.679,2.888-2.15,4.737-3.768,4.737H1211.084c-1.506,0-2.8-2.1-3.086-5Z" transform="translate(-1206.502 -3063.705)" fill="#12263f"/>
            </g>
          </g>
        </g>
      </g>
      <g id="Grupo_79925" data-name="Grupo 79925" transform="translate(3.902 44.669)" opacity="0.432">
        <path id="Trazado_116623" data-name="Trazado 116623" d="M2156.088,836.356c35.814,17.1,59.343,52.681,31.532,51.02-52.212-3.118-16.972,25.962-44.432,25.107s-69.965-6.712-97.777-35.531-.778-35.708,10.5-34.592C2093.021,846.033,2043.905,782.8,2156.088,836.356Z" transform="translate(-2033.246 -814.728)" fill="#b7aadb"/>
        <path id="Trazado_116624" data-name="Trazado 116624" d="M2280.518,1558.057c-.075,4.055-3.059,10.712-9.76,10.588s-14.582-6.98-14.507-11.036,5.568-7.243,12.269-7.119S2280.593,1554,2280.518,1558.057Z" transform="translate(-2145.544 -1446.142)" fill="#b7aadb"/>
        <path id="Trazado_116625" data-name="Trazado 116625" d="M2195.381,1691.927a3.68,3.68,0,0,1-3.858,3.486c-2.094-.039-6.236-2.126-6.2-4.09s2.634-3.927,4.728-3.888S2195.417,1689.963,2195.381,1691.927Z" transform="translate(-2050.347 -1563.668)" fill="#b7aadb"/>
      </g>
    </g>
    <g id="Grupo_79307" data-name="Grupo 79307" transform="translate(0 316.087)">
      <path id="Trazado_115790" data-name="Trazado 115790" d="M1167.16,796.3a18.867,18.867,0,0,0-18.137,13.673H1185.3A18.867,18.867,0,0,0,1167.16,796.3Z" transform="translate(-1133.419 -795.244)" fill="#b7aadb"/>
      <path id="Trazado_115791" data-name="Trazado 115791" d="M1229.638,807.045a13.02,13.02,0,0,0-12.516,9.436h25.032A13.02,13.02,0,0,0,1229.638,807.045Z" transform="translate(-1217.122 -801.755)" fill="#b7aadb"/>
      <path id="Trazado_115792" data-name="Trazado 115792" d="M1060.558,808.352c2.436-8.43,12.09-14.726,23.629-14.726s21.193,6.3,23.629,14.726Z" transform="translate(-1021.064 -793.626)" fill="#b7aadb"/>
    </g>
    <circle id="Elipse_4777" data-name="Elipse 4777" cx="7.869" cy="7.869" r="7.869" transform="translate(186.193 43.322)" fill="#fff"/>
    <circle id="Elipse_4780" data-name="Elipse 4780" cx="7.869" cy="7.869" r="7.869" transform="translate(340.49 251.469)" fill="#fff"/>
    <circle id="Elipse_4781" data-name="Elipse 4781" cx="14.101" cy="14.101" r="14.101" transform="translate(212.44)" fill="#fff"/>
    <circle id="Elipse_4782" data-name="Elipse 4782" cx="14.101" cy="14.101" r="14.101" transform="translate(51.622 350.478)" fill="#fff"/>
    <g id="Grupo_79363" data-name="Grupo 79363" transform="translate(308.346 212.358)">
      <path id="Trazado_116028" data-name="Trazado 116028" d="M1385.633,997.149a20.827,20.827,0,0,0-20.02,15.093h40.041A20.827,20.827,0,0,0,1385.633,997.149Z" transform="translate(-1348.388 -995.987)" fill="#b7aadb"/>
      <path id="Trazado_116029" data-name="Trazado 116029" d="M1454.6,1009.014a14.373,14.373,0,0,0-13.816,10.416h27.632A14.374,14.374,0,0,0,1454.6,1009.014Z" transform="translate(-1440.784 -1003.174)" fill="#b7aadb"/>
      <path id="Trazado_116030" data-name="Trazado 116030" d="M1267.962,1010.456c2.689-9.305,13.345-16.255,26.083-16.255s23.394,6.95,26.083,16.255Z" transform="translate(-1224.366 -994.201)" fill="#b7aadb"/>
    </g>
  </g>
  <g id="Grupo_79928" data-name="Grupo 79928" transform="translate(9.574 72.639)">
    <path id="Trazado_113201" data-name="Trazado 113201" d="M121.873,0H0V34.873a325.636,325.636,0,0,1,58.78,9.222c31.6,8.019,63.093,0,63.093,0Z" transform="translate(0)" fill="#1565c0"/>
    <path id="Trazado_113202" data-name="Trazado 113202" d="M121.873,0H0V34.873a325.636,325.636,0,0,1,58.78,9.222c31.6,8.019,63.093,0,63.093,0Z" transform="translate(5.512 4.899)" fill="#039be5"/>
    <path id="Trazado_113203" data-name="Trazado 113203" d="M121.873,0H0V34.873a325.636,325.636,0,0,1,58.78,9.222c31.6,8.019,63.093,0,63.093,0Z" transform="translate(11.024 12.861)" fill="#1565c0"/>
  </g>
  <g id="Grupo_79929" data-name="Grupo 79929" transform="translate(21.276 131.891)">
    <path id="Trazado_113161" data-name="Trazado 113161" d="M-3482.873,1786.66v16.724s-.84,11.349-29.9,12.458c-28.993,1.107-30.473-13.15-30.473-13.15v-16.611S-3482.907,1786.713-3482.873,1786.66Z" transform="translate(3543.241 -1777.481)" fill="#1565c0"/>
    <ellipse id="Elipse_4705" data-name="Elipse 4705" cx="30.184" cy="8.966" rx="30.184" ry="8.966" transform="translate(0)" fill="#039be5"/>
  </g>
  <path id="Uni칩n_29" data-name="Uni칩n 29" d="M18.565,5.761H0V20.885H18.565V26.65L33.936,13.325,18.565,0Z" transform="translate(117.756 139.926)" fill="#039be5"/>
</svg>
