<svg xmlns="http://www.w3.org/2000/svg" xmlns:xlink="http://www.w3.org/1999/xlink" width="497.288" height="274.764" viewBox="0 0 497.288 274.764">
  <defs>
    <clipPath id="clip-path">
      <path id="Trazado_194907" data-name="Trazado 194907" d="M0,125.079A71.746,71.746,0,1,0,71.746,53.333,71.744,71.744,0,0,0,0,125.079" transform="translate(0 -53.333)" fill="#7f4fc7"/>
    </clipPath>
    <clipPath id="clip-path-2">
      <rect id="Rectángulo_45986" data-name="Rectángulo 45986" width="142.078" height="122.566" fill="#12263f"/>
    </clipPath>
  </defs>
  <g id="Grupo_154319" data-name="Grupo 154319" transform="translate(-915 -3939.659)">
    <g id="Grupo_154313" data-name="Grupo 154313" transform="translate(981.288 4048.442)">
      <g id="Grupo_152768" data-name="Grupo 152768" transform="translate(0 0)" clip-path="url(#clip-path)">
        <path id="Trazado_194826" data-name="Trazado 194826" d="M3.777,55.22A1.888,1.888,0,1,0,1.889,57.11,1.888,1.888,0,0,0,3.777,55.22" transform="translate(0 -53.333)" fill="#7f4fc7"/>
        <path id="Trazado_194827" data-name="Trazado 194827" d="M12.049,55.22a1.888,1.888,0,1,0-1.887,1.889,1.888,1.888,0,0,0,1.887-1.889" transform="translate(9.191 -53.333)" fill="#7f4fc7"/>
        <path id="Trazado_194828" data-name="Trazado 194828" d="M20.322,55.22a1.888,1.888,0,1,0-1.887,1.889,1.888,1.888,0,0,0,1.887-1.889" transform="translate(18.383 -53.333)" fill="#7f4fc7"/>
        <path id="Trazado_194829" data-name="Trazado 194829" d="M28.595,55.22a1.888,1.888,0,1,0-1.887,1.889,1.888,1.888,0,0,0,1.887-1.889" transform="translate(27.576 -53.333)" fill="#7f4fc7"/>
        <path id="Trazado_194830" data-name="Trazado 194830" d="M36.867,55.22a1.888,1.888,0,1,0-1.887,1.889,1.888,1.888,0,0,0,1.887-1.889" transform="translate(36.767 -53.333)" fill="#7f4fc7"/>
        <path id="Trazado_194831" data-name="Trazado 194831" d="M45.14,55.22a1.888,1.888,0,1,0-1.887,1.889A1.888,1.888,0,0,0,45.14,55.22" transform="translate(45.959 -53.333)" fill="#7f4fc7"/>
        <path id="Trazado_194832" data-name="Trazado 194832" d="M53.412,55.22a1.888,1.888,0,1,0-1.887,1.889,1.888,1.888,0,0,0,1.887-1.889" transform="translate(55.15 -53.333)" fill="#7f4fc7"/>
        <path id="Trazado_194833" data-name="Trazado 194833" d="M61.685,55.22A1.888,1.888,0,1,0,59.8,57.11a1.889,1.889,0,0,0,1.887-1.889" transform="translate(64.342 -53.333)" fill="#7f4fc7"/>
        <path id="Trazado_194834" data-name="Trazado 194834" d="M69.958,55.22A1.888,1.888,0,1,0,68.07,57.11a1.888,1.888,0,0,0,1.887-1.889" transform="translate(73.534 -53.333)" fill="#7f4fc7"/>
        <path id="Trazado_194835" data-name="Trazado 194835" d="M3.777,63.493a1.888,1.888,0,1,0-1.887,1.887,1.887,1.887,0,0,0,1.887-1.887" transform="translate(0 -44.141)" fill="#7f4fc7"/>
        <path id="Trazado_194836" data-name="Trazado 194836" d="M12.049,63.493a1.888,1.888,0,1,0-1.887,1.887,1.887,1.887,0,0,0,1.887-1.887" transform="translate(9.191 -44.141)" fill="#7f4fc7"/>
        <path id="Trazado_194837" data-name="Trazado 194837" d="M20.322,63.493a1.888,1.888,0,1,0-1.887,1.887,1.887,1.887,0,0,0,1.887-1.887" transform="translate(18.383 -44.141)" fill="#7f4fc7"/>
        <path id="Trazado_194838" data-name="Trazado 194838" d="M28.595,63.493a1.888,1.888,0,1,0-1.887,1.887,1.887,1.887,0,0,0,1.887-1.887" transform="translate(27.576 -44.141)" fill="#7f4fc7"/>
        <path id="Trazado_194839" data-name="Trazado 194839" d="M36.867,63.493a1.888,1.888,0,1,0-1.887,1.887,1.887,1.887,0,0,0,1.887-1.887" transform="translate(36.767 -44.141)" fill="#7f4fc7"/>
        <path id="Trazado_194840" data-name="Trazado 194840" d="M45.14,63.493a1.888,1.888,0,1,0-1.887,1.887,1.887,1.887,0,0,0,1.887-1.887" transform="translate(45.959 -44.141)" fill="#7f4fc7"/>
        <path id="Trazado_194841" data-name="Trazado 194841" d="M53.412,63.493a1.888,1.888,0,1,0-1.887,1.887,1.887,1.887,0,0,0,1.887-1.887" transform="translate(55.15 -44.141)" fill="#7f4fc7"/>
        <path id="Trazado_194842" data-name="Trazado 194842" d="M61.685,63.493A1.888,1.888,0,1,0,59.8,65.381a1.888,1.888,0,0,0,1.887-1.887" transform="translate(64.342 -44.141)" fill="#7f4fc7"/>
        <path id="Trazado_194843" data-name="Trazado 194843" d="M69.958,63.493a1.888,1.888,0,1,0-1.887,1.887,1.887,1.887,0,0,0,1.887-1.887" transform="translate(73.534 -44.141)" fill="#7f4fc7"/>
        <path id="Trazado_194844" data-name="Trazado 194844" d="M3.777,71.766a1.888,1.888,0,1,0-1.887,1.887,1.887,1.887,0,0,0,1.887-1.887" transform="translate(0 -34.949)" fill="#7f4fc7"/>
        <path id="Trazado_194845" data-name="Trazado 194845" d="M12.049,71.766a1.888,1.888,0,1,0-1.887,1.887,1.887,1.887,0,0,0,1.887-1.887" transform="translate(9.191 -34.949)" fill="#7f4fc7"/>
        <path id="Trazado_194846" data-name="Trazado 194846" d="M20.322,71.766a1.888,1.888,0,1,0-1.887,1.887,1.887,1.887,0,0,0,1.887-1.887" transform="translate(18.383 -34.949)" fill="#7f4fc7"/>
        <path id="Trazado_194847" data-name="Trazado 194847" d="M28.595,71.766a1.888,1.888,0,1,0-1.887,1.887,1.887,1.887,0,0,0,1.887-1.887" transform="translate(27.576 -34.949)" fill="#7f4fc7"/>
        <path id="Trazado_194848" data-name="Trazado 194848" d="M36.867,71.766a1.888,1.888,0,1,0-1.887,1.887,1.887,1.887,0,0,0,1.887-1.887" transform="translate(36.767 -34.949)" fill="#7f4fc7"/>
        <path id="Trazado_194849" data-name="Trazado 194849" d="M45.14,71.766a1.888,1.888,0,1,0-1.887,1.887,1.887,1.887,0,0,0,1.887-1.887" transform="translate(45.959 -34.949)" fill="#7f4fc7"/>
        <path id="Trazado_194850" data-name="Trazado 194850" d="M53.412,71.766a1.888,1.888,0,1,0-1.887,1.887,1.887,1.887,0,0,0,1.887-1.887" transform="translate(55.15 -34.949)" fill="#7f4fc7"/>
        <path id="Trazado_194851" data-name="Trazado 194851" d="M61.685,71.766A1.888,1.888,0,1,0,59.8,73.654a1.888,1.888,0,0,0,1.887-1.887" transform="translate(64.342 -34.949)" fill="#7f4fc7"/>
        <path id="Trazado_194852" data-name="Trazado 194852" d="M69.958,71.766a1.888,1.888,0,1,0-1.887,1.887,1.887,1.887,0,0,0,1.887-1.887" transform="translate(73.534 -34.949)" fill="#7f4fc7"/>
        <path id="Trazado_194853" data-name="Trazado 194853" d="M3.777,80.038a1.888,1.888,0,1,0-1.887,1.887,1.887,1.887,0,0,0,1.887-1.887" transform="translate(0 -25.757)" fill="#7f4fc7"/>
        <path id="Trazado_194854" data-name="Trazado 194854" d="M12.049,80.038a1.888,1.888,0,1,0-1.887,1.887,1.887,1.887,0,0,0,1.887-1.887" transform="translate(9.191 -25.757)" fill="#7f4fc7"/>
        <path id="Trazado_194855" data-name="Trazado 194855" d="M20.322,80.038a1.888,1.888,0,1,0-1.887,1.887,1.887,1.887,0,0,0,1.887-1.887" transform="translate(18.383 -25.757)" fill="#7f4fc7"/>
        <path id="Trazado_194856" data-name="Trazado 194856" d="M28.595,80.038a1.888,1.888,0,1,0-1.887,1.887,1.887,1.887,0,0,0,1.887-1.887" transform="translate(27.576 -25.757)" fill="#7f4fc7"/>
        <path id="Trazado_194857" data-name="Trazado 194857" d="M36.867,80.038a1.888,1.888,0,1,0-1.887,1.887,1.887,1.887,0,0,0,1.887-1.887" transform="translate(36.767 -25.757)" fill="#7f4fc7"/>
        <path id="Trazado_194858" data-name="Trazado 194858" d="M45.14,80.038a1.888,1.888,0,1,0-1.887,1.887,1.887,1.887,0,0,0,1.887-1.887" transform="translate(45.959 -25.757)" fill="#7f4fc7"/>
        <path id="Trazado_194859" data-name="Trazado 194859" d="M53.412,80.038a1.888,1.888,0,1,0-1.887,1.887,1.887,1.887,0,0,0,1.887-1.887" transform="translate(55.15 -25.757)" fill="#7f4fc7"/>
        <path id="Trazado_194860" data-name="Trazado 194860" d="M61.685,80.038A1.888,1.888,0,1,0,59.8,81.926a1.888,1.888,0,0,0,1.887-1.887" transform="translate(64.342 -25.757)" fill="#7f4fc7"/>
        <path id="Trazado_194861" data-name="Trazado 194861" d="M69.958,80.038a1.888,1.888,0,1,0-1.887,1.887,1.887,1.887,0,0,0,1.887-1.887" transform="translate(73.534 -25.757)" fill="#7f4fc7"/>
        <path id="Trazado_194862" data-name="Trazado 194862" d="M3.777,88.311A1.888,1.888,0,1,0,1.889,90.2a1.887,1.887,0,0,0,1.887-1.889" transform="translate(0 -16.565)" fill="#7f4fc7"/>
        <path id="Trazado_194863" data-name="Trazado 194863" d="M12.049,88.311A1.888,1.888,0,1,0,10.161,90.2a1.887,1.887,0,0,0,1.887-1.889" transform="translate(9.191 -16.565)" fill="#7f4fc7"/>
        <path id="Trazado_194864" data-name="Trazado 194864" d="M20.322,88.311A1.888,1.888,0,1,0,18.434,90.2a1.887,1.887,0,0,0,1.887-1.889" transform="translate(18.383 -16.565)" fill="#7f4fc7"/>
        <path id="Trazado_194865" data-name="Trazado 194865" d="M28.595,88.311A1.888,1.888,0,1,0,26.707,90.2a1.887,1.887,0,0,0,1.887-1.889" transform="translate(27.576 -16.565)" fill="#7f4fc7"/>
        <path id="Trazado_194866" data-name="Trazado 194866" d="M36.867,88.311A1.888,1.888,0,1,0,34.979,90.2a1.887,1.887,0,0,0,1.887-1.889" transform="translate(36.767 -16.565)" fill="#7f4fc7"/>
        <path id="Trazado_194867" data-name="Trazado 194867" d="M45.14,88.311A1.888,1.888,0,1,0,43.252,90.2a1.887,1.887,0,0,0,1.887-1.889" transform="translate(45.959 -16.565)" fill="#7f4fc7"/>
        <path id="Trazado_194868" data-name="Trazado 194868" d="M53.412,88.311A1.888,1.888,0,1,0,51.524,90.2a1.887,1.887,0,0,0,1.887-1.889" transform="translate(55.15 -16.565)" fill="#7f4fc7"/>
        <path id="Trazado_194869" data-name="Trazado 194869" d="M61.685,88.311A1.888,1.888,0,1,0,59.8,90.2a1.888,1.888,0,0,0,1.887-1.889" transform="translate(64.342 -16.565)" fill="#7f4fc7"/>
        <path id="Trazado_194870" data-name="Trazado 194870" d="M69.958,88.311A1.888,1.888,0,1,0,68.07,90.2a1.887,1.887,0,0,0,1.887-1.889" transform="translate(73.534 -16.565)" fill="#7f4fc7"/>
        <path id="Trazado_194871" data-name="Trazado 194871" d="M3.777,96.584a1.888,1.888,0,1,0-1.887,1.887,1.887,1.887,0,0,0,1.887-1.887" transform="translate(0 -7.373)" fill="#7f4fc7"/>
        <path id="Trazado_194872" data-name="Trazado 194872" d="M12.049,96.584a1.888,1.888,0,1,0-1.887,1.887,1.887,1.887,0,0,0,1.887-1.887" transform="translate(9.191 -7.373)" fill="#7f4fc7"/>
        <path id="Trazado_194873" data-name="Trazado 194873" d="M20.322,96.584a1.888,1.888,0,1,0-1.887,1.887,1.887,1.887,0,0,0,1.887-1.887" transform="translate(18.383 -7.373)" fill="#7f4fc7"/>
        <path id="Trazado_194874" data-name="Trazado 194874" d="M28.595,96.584a1.888,1.888,0,1,0-1.887,1.887,1.887,1.887,0,0,0,1.887-1.887" transform="translate(27.576 -7.373)" fill="#7f4fc7"/>
        <path id="Trazado_194875" data-name="Trazado 194875" d="M36.867,96.584a1.888,1.888,0,1,0-1.887,1.887,1.887,1.887,0,0,0,1.887-1.887" transform="translate(36.767 -7.373)" fill="#7f4fc7"/>
        <path id="Trazado_194876" data-name="Trazado 194876" d="M45.14,96.584a1.888,1.888,0,1,0-1.887,1.887,1.887,1.887,0,0,0,1.887-1.887" transform="translate(45.959 -7.373)" fill="#7f4fc7"/>
        <path id="Trazado_194877" data-name="Trazado 194877" d="M53.412,96.584a1.888,1.888,0,1,0-1.887,1.887,1.887,1.887,0,0,0,1.887-1.887" transform="translate(55.15 -7.373)" fill="#7f4fc7"/>
        <path id="Trazado_194878" data-name="Trazado 194878" d="M61.685,96.584A1.888,1.888,0,1,0,59.8,98.472a1.888,1.888,0,0,0,1.887-1.887" transform="translate(64.342 -7.373)" fill="#7f4fc7"/>
        <path id="Trazado_194879" data-name="Trazado 194879" d="M69.958,96.584a1.888,1.888,0,1,0-1.887,1.887,1.887,1.887,0,0,0,1.887-1.887" transform="translate(73.534 -7.373)" fill="#7f4fc7"/>
        <path id="Trazado_194880" data-name="Trazado 194880" d="M3.777,104.856a1.888,1.888,0,1,0-1.887,1.887,1.887,1.887,0,0,0,1.887-1.887" transform="translate(0 1.818)" fill="#7f4fc7"/>
        <path id="Trazado_194881" data-name="Trazado 194881" d="M12.049,104.856a1.888,1.888,0,1,0-1.887,1.887,1.887,1.887,0,0,0,1.887-1.887" transform="translate(9.191 1.818)" fill="#7f4fc7"/>
        <path id="Trazado_194882" data-name="Trazado 194882" d="M20.322,104.856a1.888,1.888,0,1,0-1.887,1.887,1.887,1.887,0,0,0,1.887-1.887" transform="translate(18.383 1.818)" fill="#7f4fc7"/>
        <path id="Trazado_194883" data-name="Trazado 194883" d="M28.595,104.856a1.888,1.888,0,1,0-1.887,1.887,1.887,1.887,0,0,0,1.887-1.887" transform="translate(27.576 1.818)" fill="#7f4fc7"/>
        <path id="Trazado_194884" data-name="Trazado 194884" d="M36.867,104.856a1.888,1.888,0,1,0-1.887,1.887,1.887,1.887,0,0,0,1.887-1.887" transform="translate(36.767 1.818)" fill="#7f4fc7"/>
        <path id="Trazado_194885" data-name="Trazado 194885" d="M45.14,104.856a1.888,1.888,0,1,0-1.887,1.887,1.887,1.887,0,0,0,1.887-1.887" transform="translate(45.959 1.818)" fill="#7f4fc7"/>
        <path id="Trazado_194886" data-name="Trazado 194886" d="M53.412,104.856a1.888,1.888,0,1,0-1.887,1.887,1.887,1.887,0,0,0,1.887-1.887" transform="translate(55.15 1.818)" fill="#7f4fc7"/>
        <path id="Trazado_194887" data-name="Trazado 194887" d="M61.685,104.856a1.888,1.888,0,1,0-1.887,1.887,1.888,1.888,0,0,0,1.887-1.887" transform="translate(64.342 1.818)" fill="#7f4fc7"/>
        <path id="Trazado_194888" data-name="Trazado 194888" d="M69.958,104.856a1.888,1.888,0,1,0-1.887,1.887,1.887,1.887,0,0,0,1.887-1.887" transform="translate(73.534 1.818)" fill="#7f4fc7"/>
        <path id="Trazado_194889" data-name="Trazado 194889" d="M3.777,113.129a1.888,1.888,0,1,0-1.887,1.887,1.887,1.887,0,0,0,1.887-1.887" transform="translate(0 11.01)" fill="#7f4fc7"/>
        <path id="Trazado_194890" data-name="Trazado 194890" d="M12.049,113.129a1.888,1.888,0,1,0-1.887,1.887,1.887,1.887,0,0,0,1.887-1.887" transform="translate(9.191 11.01)" fill="#7f4fc7"/>
        <path id="Trazado_194891" data-name="Trazado 194891" d="M20.322,113.129a1.888,1.888,0,1,0-1.887,1.887,1.887,1.887,0,0,0,1.887-1.887" transform="translate(18.383 11.01)" fill="#7f4fc7"/>
        <path id="Trazado_194892" data-name="Trazado 194892" d="M28.595,113.129a1.888,1.888,0,1,0-1.887,1.887,1.887,1.887,0,0,0,1.887-1.887" transform="translate(27.576 11.01)" fill="#7f4fc7"/>
        <path id="Trazado_194893" data-name="Trazado 194893" d="M36.867,113.129a1.888,1.888,0,1,0-1.887,1.887,1.887,1.887,0,0,0,1.887-1.887" transform="translate(36.767 11.01)" fill="#7f4fc7"/>
        <path id="Trazado_194894" data-name="Trazado 194894" d="M45.14,113.129a1.888,1.888,0,1,0-1.887,1.887,1.887,1.887,0,0,0,1.887-1.887" transform="translate(45.959 11.01)" fill="#7f4fc7"/>
        <path id="Trazado_194895" data-name="Trazado 194895" d="M53.412,113.129a1.888,1.888,0,1,0-1.887,1.887,1.887,1.887,0,0,0,1.887-1.887" transform="translate(55.15 11.01)" fill="#7f4fc7"/>
        <path id="Trazado_194896" data-name="Trazado 194896" d="M61.685,113.129a1.888,1.888,0,1,0-1.887,1.887,1.888,1.888,0,0,0,1.887-1.887" transform="translate(64.342 11.01)" fill="#7f4fc7"/>
        <path id="Trazado_194897" data-name="Trazado 194897" d="M69.958,113.129a1.888,1.888,0,1,0-1.887,1.887,1.887,1.887,0,0,0,1.887-1.887" transform="translate(73.534 11.01)" fill="#7f4fc7"/>
        <path id="Trazado_194898" data-name="Trazado 194898" d="M3.777,121.4a1.888,1.888,0,1,0-1.887,1.887A1.887,1.887,0,0,0,3.777,121.4" transform="translate(0 20.201)" fill="#7f4fc7"/>
        <path id="Trazado_194899" data-name="Trazado 194899" d="M12.049,121.4a1.888,1.888,0,1,0-1.887,1.887,1.887,1.887,0,0,0,1.887-1.887" transform="translate(9.191 20.201)" fill="#7f4fc7"/>
        <path id="Trazado_194900" data-name="Trazado 194900" d="M20.322,121.4a1.888,1.888,0,1,0-1.887,1.887,1.887,1.887,0,0,0,1.887-1.887" transform="translate(18.383 20.201)" fill="#7f4fc7"/>
        <path id="Trazado_194901" data-name="Trazado 194901" d="M28.595,121.4a1.888,1.888,0,1,0-1.887,1.887,1.887,1.887,0,0,0,1.887-1.887" transform="translate(27.576 20.201)" fill="#7f4fc7"/>
        <path id="Trazado_194902" data-name="Trazado 194902" d="M36.867,121.4a1.888,1.888,0,1,0-1.887,1.887,1.887,1.887,0,0,0,1.887-1.887" transform="translate(36.767 20.201)" fill="#7f4fc7"/>
        <path id="Trazado_194903" data-name="Trazado 194903" d="M45.14,121.4a1.888,1.888,0,1,0-1.887,1.887A1.887,1.887,0,0,0,45.14,121.4" transform="translate(45.959 20.201)" fill="#7f4fc7"/>
        <path id="Trazado_194904" data-name="Trazado 194904" d="M53.412,121.4a1.888,1.888,0,1,0-1.887,1.887,1.887,1.887,0,0,0,1.887-1.887" transform="translate(55.15 20.201)" fill="#7f4fc7"/>
        <path id="Trazado_194905" data-name="Trazado 194905" d="M61.685,121.4a1.888,1.888,0,1,0-1.887,1.887,1.888,1.888,0,0,0,1.887-1.887" transform="translate(64.342 20.201)" fill="#7f4fc7"/>
        <path id="Trazado_194906" data-name="Trazado 194906" d="M69.958,121.4a1.888,1.888,0,1,0-1.887,1.887,1.887,1.887,0,0,0,1.887-1.887" transform="translate(73.534 20.201)" fill="#7f4fc7"/>
      </g>
    </g>
    <g id="Grupo_154314" data-name="Grupo 154314" transform="translate(1359.722 4013.701)">
      <g id="Grupo_152551" data-name="Grupo 152551" transform="translate(0 160.166) rotate(-90)">
        <rect id="Rectángulo_45220" data-name="Rectángulo 45220" width="130.767" height="36.351" transform="translate(131.68 36.351) rotate(180)" fill="#e8e8e8"/>
        <g id="Grupo_152556" data-name="Grupo 152556" transform="translate(0 20.136)">
          <rect id="Rectángulo_45221" data-name="Rectángulo 45221" width="6.177" height="6.177" transform="translate(139.954 26.253)" fill="#1894f6"/>
          <rect id="Rectángulo_45222" data-name="Rectángulo 45222" width="6.177" height="6.177" transform="translate(126.828 26.253)" fill="#1894f6"/>
          <rect id="Rectángulo_45223" data-name="Rectángulo 45223" width="6.177" height="6.177" transform="translate(111.964 26.253)" fill="#1894f6"/>
          <rect id="Rectángulo_45224" data-name="Rectángulo 45224" width="6.177" height="6.177" transform="translate(97.968 26.253)" fill="#1894f6"/>
          <rect id="Rectángulo_45225" data-name="Rectángulo 45225" width="6.177" height="6.177" transform="translate(83.973 26.253)" fill="#1894f6"/>
          <rect id="Rectángulo_45226" data-name="Rectángulo 45226" width="6.177" height="6.177" transform="translate(69.977 26.253)" fill="#1894f6"/>
          <rect id="Rectángulo_45227" data-name="Rectángulo 45227" width="6.177" height="6.177" transform="translate(55.982 26.253)" fill="#1894f6"/>
          <rect id="Rectángulo_45228" data-name="Rectángulo 45228" width="6.177" height="6.177" transform="translate(41.986 26.253)" fill="#1894f6"/>
          <rect id="Rectángulo_45229" data-name="Rectángulo 45229" width="6.177" height="6.177" transform="translate(27.991 26.253)" fill="#1894f6"/>
          <rect id="Rectángulo_45230" data-name="Rectángulo 45230" width="6.177" height="6.177" transform="translate(13.126 26.253)" fill="#1894f6"/>
          <rect id="Rectángulo_45231" data-name="Rectángulo 45231" width="6.177" height="6.177" transform="translate(0 26.253)" fill="#1894f6"/>
          <rect id="Rectángulo_45232" data-name="Rectángulo 45232" width="6.177" height="6.177" transform="translate(139.954 13.126)" fill="#1894f6"/>
          <rect id="Rectángulo_45233" data-name="Rectángulo 45233" width="6.177" height="6.177" transform="translate(126.828 13.126)" fill="#1894f6"/>
          <rect id="Rectángulo_45234" data-name="Rectángulo 45234" width="6.177" height="6.177" transform="translate(111.964 13.126)" fill="#1894f6"/>
          <rect id="Rectángulo_45235" data-name="Rectángulo 45235" width="6.177" height="6.177" transform="translate(97.968 13.126)" fill="#1894f6"/>
          <rect id="Rectángulo_45236" data-name="Rectángulo 45236" width="6.177" height="6.177" transform="translate(83.973 13.126)" fill="#1894f6"/>
          <rect id="Rectángulo_45237" data-name="Rectángulo 45237" width="6.177" height="6.177" transform="translate(69.977 13.126)" fill="#1894f6"/>
          <rect id="Rectángulo_45238" data-name="Rectángulo 45238" width="6.177" height="6.177" transform="translate(55.982 13.126)" fill="#1894f6"/>
          <rect id="Rectángulo_45239" data-name="Rectángulo 45239" width="6.177" height="6.177" transform="translate(41.986 13.126)" fill="#1894f6"/>
          <rect id="Rectángulo_45240" data-name="Rectángulo 45240" width="6.177" height="6.177" transform="translate(27.991 13.126)" fill="#1894f6"/>
          <rect id="Rectángulo_45241" data-name="Rectángulo 45241" width="6.177" height="6.177" transform="translate(13.126 13.126)" fill="#1894f6"/>
          <rect id="Rectángulo_45242" data-name="Rectángulo 45242" width="6.177" height="6.177" transform="translate(0 13.126)" fill="#1894f6"/>
          <rect id="Rectángulo_45243" data-name="Rectángulo 45243" width="6.177" height="6.177" transform="translate(139.954)" fill="#1894f6"/>
          <rect id="Rectángulo_45244" data-name="Rectángulo 45244" width="6.177" height="6.177" transform="translate(126.828)" fill="#1894f6"/>
          <rect id="Rectángulo_45245" data-name="Rectángulo 45245" width="6.177" height="6.177" transform="translate(111.964)" fill="#1894f6"/>
          <rect id="Rectángulo_45246" data-name="Rectángulo 45246" width="6.177" height="6.177" transform="translate(97.968)" fill="#1894f6"/>
          <rect id="Rectángulo_45247" data-name="Rectángulo 45247" width="6.177" height="6.177" transform="translate(83.973)" fill="#1894f6"/>
          <rect id="Rectángulo_45248" data-name="Rectángulo 45248" width="6.177" height="6.177" transform="translate(69.977)" fill="#1894f6"/>
          <rect id="Rectángulo_45249" data-name="Rectángulo 45249" width="6.177" height="6.177" transform="translate(55.982)" fill="#1894f6"/>
          <rect id="Rectángulo_45250" data-name="Rectángulo 45250" width="6.177" height="6.177" transform="translate(41.986)" fill="#1894f6"/>
          <rect id="Rectángulo_45251" data-name="Rectángulo 45251" width="6.177" height="6.177" transform="translate(27.991)" fill="#1894f6"/>
          <rect id="Rectángulo_45252" data-name="Rectángulo 45252" width="6.177" height="6.177" transform="translate(13.126)" fill="#1894f6"/>
          <rect id="Rectángulo_45253" data-name="Rectángulo 45253" width="6.177" height="6.177" fill="#1894f6"/>
        </g>
      </g>
    </g>
    <g id="Grupo_154307" data-name="Grupo 154307" transform="translate(3512 11700)">
      <path id="Trazado_196272" data-name="Trazado 196272" d="M310.795,390.679a120.222,120.222,0,0,1,18.243,27c11.291,22.927,12.633,60.133,12.4,72.386H277.606c-.235-5.229-.47-26.294-.705-31.523-4.809,2.539-23.243,28.686-25.908,31.49H175.07c15.064-20.359,41.338-50.232,59.836-65.191-1.338-7.3-2.675-12.634-4.013-19.931l79.9-14.229" transform="translate(-2603.338 -8008.798)" fill="#363e44"/>
      <path id="Trazado_196273" data-name="Trazado 196273" d="M74.973,249.553c-19.934,3.7-78.119,10.874-74.84,35.269,2.712,20.178,59.069,10.7,79.1,8.3q-2.131-21.785-4.263-43.569" transform="translate(-2492 -7919.047)" fill="#e2a18d"/>
      <path id="Trazado_196274" data-name="Trazado 196274" d="M216.656,253.532l-6.567,48.89L328.3,273.963l-21.891-32.836,22.62-1.459-.73-47.43L183.09,212.669l2.189,50.349Z" transform="translate(-2608.439 -7882.597)" fill="#7f4fc7"/>
      <path id="Trazado_196275" data-name="Trazado 196275" d="M523.1,212.81c6.692.238,52.241-1.652,58.079,10.024,6.131,12.262-27.28,64.513-38.674,78.99a18.486,18.486,0,0,1-6.02,8.574c-3.913,2.966-6.328,1.891-10.945,4.378-7.792,4.2-8.484,11.609-11.447,10.585-2.034-.7-1.818-5.039-.593-8.943,1.258-4.008,3.759-6.07,3.284-6.568-.522-.545-2.791,1.878-5.89,4.633-1.44,1.28-3.229,7.228-6.15,6.678-2.328-.439-2.016-7.089,1.271-11.877,2.325-3.387,6.178-4.417,5.844-5.089-.25-.5-2.531.166-4.324,1.33-2.959,1.92-4.855,7.986-7.533,7.426-2.624-.548-2.249-6.351.5-10.946,2.313-3.874,6.665-4.817,6.255-5.655-.288-.589-2.324-.572-6.385.73-3.389,1.086-9.28,5.383-10.946,2.007-1.4-2.84,4.678-7.5,11.076-10.758,4.239-2.159,8.782-3.849,11.363-4.93a33.13,33.13,0,0,0-5.838-2.918c-4.625-1.766-6.516-1.8-6.865-4.009-.36-2.279,3.489-3.191,7.978-3.059,5.355.157,9.118,2.4,11.474,3.237l14.047-25.539c-2.554.182-6.41.325-8.964.507-.12-12.157-.594-24.7-.59-38.807" transform="translate(-2803.123 -7895.681)" fill="#e2a18d"/>
      <path id="Trazado_196276" data-name="Trazado 196276" d="M608.067,284.775a.364.364,0,0,1-.322-.534l9.718-18.476a.364.364,0,1,1,.644.339l-9.718,18.476a.364.364,0,0,1-.323.194" transform="translate(-2878.477 -7929.234)" fill="#363e44"/>
      <path id="Trazado_196277" data-name="Trazado 196277" d="M281.439,324.618a.354.354,0,0,1-.064-.006.364.364,0,0,1-.294-.422l2.079-11.677a.364.364,0,0,1,.717.128l-2.08,11.677a.363.363,0,0,1-.358.3" transform="translate(-2670.753 -7958.897)" fill="#fff"/>
      <path id="Trazado_196278" data-name="Trazado 196278" d="M270.311,322.594a.348.348,0,0,1-.064-.006.363.363,0,0,1-.294-.422l2.079-11.678a.364.364,0,1,1,.717.128l-2.08,11.678a.364.364,0,0,1-.358.3" transform="translate(-2663.677 -7957.609)" fill="#fff"/>
      <path id="Trazado_196279" data-name="Trazado 196279" d="M253.16,345.728a6.3,6.3,0,0,1-6.2-7.474l6.509-34.428a2.937,2.937,0,0,1,3.433-2.341l6.612,1.25a2.938,2.938,0,0,1,2.341,3.432L259.35,340.6a6.314,6.314,0,0,1-6.19,5.133m3.2-43.567a2.212,2.212,0,0,0-2.167,1.8l-6.509,34.428a5.575,5.575,0,1,0,10.955,2.071l6.509-34.428a2.21,2.21,0,0,0-1.761-2.582l-6.612-1.25a2.257,2.257,0,0,0-.415-.039" transform="translate(-2648.989 -7952.041)" fill="#fff"/>
      <path id="Trazado_196280" data-name="Trazado 196280" d="M280.424,235.11l-7.338-1.387,7.544-39.9,7.338,1.388Zm-6.487-1.967,5.907,1.117,7.273-38.468-5.908-1.117Z" transform="translate(-2665.673 -7883.606)" fill="#fff"/>
      <path id="Trazado_196281" data-name="Trazado 196281" d="M32.155,300.117c16.684,3.5,56.384,9.813,60.235,10.583,7.2,1.44,22.624,4.081,22.675,9.118a5.183,5.183,0,0,1-2.843,4.31,5.242,5.242,0,0,1,1.045,5.7,5.483,5.483,0,0,1-3.959,2.967,4.4,4.4,0,0,1,1.686,4.133,4.606,4.606,0,0,1-5.064,3.431,5.147,5.147,0,0,1,.056,3.724,5.4,5.4,0,0,1-5.006,3.2c-6.4-1.274-16.692-1.629-28.98-2.806-28.86-2.763-41.614-5.206-55.314-9.065A22.993,22.993,0,0,1,.246,316.6c10.71-5.563,21.2-10.925,31.909-16.488" transform="translate(-2492.156 -7951.204)" fill="#e2a18d"/>
      <path id="Trazado_196282" data-name="Trazado 196282" d="M121.329,304.514a.393.393,0,0,1-.074-.007c-3.407-.7-10.951-2.184-18.246-3.618s-14.843-2.918-18.252-3.619a.364.364,0,1,1,.146-.713c3.407.7,10.951,2.183,18.246,3.617s14.843,2.918,18.252,3.619a.364.364,0,0,1-.073.72" transform="translate(-2545.718 -7948.936)" fill="#363e44"/>
      <path id="Trazado_196283" data-name="Trazado 196283" d="M285.865,349.173a.368.368,0,0,1-.095-.012.364.364,0,0,1-.257-.446l.839-3.119a.364.364,0,0,1,.7.189l-.84,3.119a.364.364,0,0,1-.351.269" transform="translate(-2673.568 -7979.955)" fill="#363e44"/>
      <path id="Trazado_196284" data-name="Trazado 196284" d="M280.043,370.924a.37.37,0,0,1-.095-.012.364.364,0,0,1-.257-.446l.839-3.119a.364.364,0,0,1,.7.189l-.84,3.119a.364.364,0,0,1-.351.269" transform="translate(-2669.865 -7993.788)" fill="#363e44"/>
      <path id="Trazado_196285" data-name="Trazado 196285" d="M274.358,393.137a.37.37,0,0,1-.095-.012.364.364,0,0,1-.257-.446l.839-3.119a.364.364,0,0,1,.7.189l-.84,3.12a.364.364,0,0,1-.351.269" transform="translate(-2666.25 -8007.915)" fill="#363e44"/>
      <path id="Trazado_196286" data-name="Trazado 196286" d="M268.788,413.177a.373.373,0,0,1-.095-.012.364.364,0,0,1-.257-.446l.839-3.119a.364.364,0,0,1,.7.189l-.84,3.119a.364.364,0,0,1-.351.269" transform="translate(-2662.707 -8020.66)" fill="#363e44"/>
      <path id="Trazado_196287" data-name="Trazado 196287" d="M376.925,16.8A16.8,16.8,0,1,1,360.128,0a16.8,16.8,0,0,1,16.8,16.8" transform="translate(-2710.347 -7760.341)" fill="#363e44"/>
      <path id="Trazado_196288" data-name="Trazado 196288" d="M393.058,80.006c13.722,1.167,19.09,6.36,21.344,10.4,4.378,7.844,1.854,13.241,6.02,23.533,3.414,8.435,9.773,13.754,14.229,16.783a41.511,41.511,0,0,1-33.2,11.493,111.217,111.217,0,0,0-8.391-62.207" transform="translate(-2741.971 -7811.222)" fill="#363e44"/>
      <path id="Trazado_196289" data-name="Trazado 196289" d="M357.878,89.568c.921-.089,9.758-.813,15.081,5.229,3.96,4.5,4.436,10.267,3.77,20.067-.784,11.541-2.865,18.33-6.187,20.608-5.249,3.6-20.978-4.45-26.892-14.527-4.269-7.273-3.783-16.642.73-23.837,4.5-7.176,12.911-7.483,13.5-7.54" transform="translate(-2708.676 -7817.257)" fill="#e2a18d"/>
      <path id="Trazado_196290" data-name="Trazado 196290" d="M369.879,212.32h0a8.48,8.48,0,0,1-8.48-8.48v-7.995a8.48,8.48,0,1,1,16.96,0v7.995a8.48,8.48,0,0,1-8.48,8.48" transform="translate(-2721.837 -7879.499)" fill="#e2a18d"/>
      <path id="Trazado_196291" data-name="Trazado 196291" d="M372.015,192.012a14.445,14.445,0,0,1-3.129-.384c-6.854-1.535-16.568-7.6-20.961-15.078a.364.364,0,1,1,.628-.368c4.292,7.312,13.79,13.234,20.492,14.736,2.675.6,4.746.468,5.987-.38a.364.364,0,1,1,.411.6,6.031,6.031,0,0,1-3.429.873" transform="translate(-2713.236 -7872.271)" fill="#363e44"/>
      <path id="Trazado_196292" data-name="Trazado 196292" d="M374.207,87.54c3.539,7.978-8.938,16.256-19.916,13.137-6.421-1.824-12.415-8.487-11.1-12.537,2.267-6.968,27.379-8.793,31.013-.6" transform="translate(-2710.142 -7812.565)" fill="#363e44"/>
      <path id="Trazado_196293" data-name="Trazado 196293" d="M446.949,129.853a15.289,15.289,0,0,1-3.483,5.726c-.533.532-3.8-4.761-3.046-5.026a15.323,15.323,0,0,1,6.529-.7" transform="translate(-2772.02 -7842.864)" fill="#fff"/>
      <path id="Trazado_196294" data-name="Trazado 196294" d="M419.949,140.2a14.376,14.376,0,0,0,8.755-1.775,10.77,10.77,0,0,0,1.813-1.468,6.01,6.01,0,0,0-3.045-5.024,10.832,10.832,0,0,0-2.225,1.075,14.375,14.375,0,0,0-5.3,7.192" transform="translate(-2759.072 -7844.249)" fill="#363e44"/>
      <path id="Trazado_196295" data-name="Trazado 196295" d="M283.48,82.3a38.172,38.172,0,1,1-38.173-38.173A38.173,38.173,0,0,1,283.48,82.3" transform="translate(-2623.73 -7788.405)" fill="#e2a18d"/>
      <path id="Trazado_196296" data-name="Trazado 196296" d="M244.672,120.2a38.536,38.536,0,1,1,38.537-38.537A38.38,38.38,0,0,1,244.672,120.2m0-76.345a37.851,37.851,0,0,0-37.808,37.808,37.808,37.808,0,0,0,37.808,37.808,37.808,37.808,0,1,0,0-75.617" transform="translate(-2623.094 -7787.77)" fill="#fff"/>
      <path id="Trazado_196297" data-name="Trazado 196297" d="M276.5,224.568a32.062,32.062,0,0,1-20.178-7.047.364.364,0,0,1,.454-.57,31.709,31.709,0,0,0,33.723,3.636.364.364,0,1,1,.322.653,32.079,32.079,0,0,1-14.32,3.328" transform="translate(-2654.927 -7898.264)" fill="#fff"/>
      <path id="Trazado_196298" data-name="Trazado 196298" d="M380.483,99.356a.364.364,0,0,1-.351-.268,31.644,31.644,0,0,0-8.947-14.806.364.364,0,1,1,.5-.532A32.367,32.367,0,0,1,380.834,98.9a.364.364,0,0,1-.351.46" transform="translate(-2727.986 -7813.54)" fill="#fff"/>
      <path id="Trazado_196299" data-name="Trazado 196299" d="M304.9,65.682a.365.365,0,0,1-.2-.057,31.731,31.731,0,0,0-30.358-1.979.364.364,0,1,1-.308-.66A32.459,32.459,0,0,1,305.1,65.011a.364.364,0,0,1-.2.671" transform="translate(-2666.146 -7798.477)" fill="#fff"/>
      <path id="Trazado_196300" data-name="Trazado 196300" d="M235.628,189.8a.363.363,0,0,1-.261-.11,32.626,32.626,0,0,1-7.327-11.76.364.364,0,0,1,.686-.244,31.9,31.9,0,0,0,7.162,11.5.363.363,0,0,1-.261.617" transform="translate(-2637.012 -7873.188)" fill="#fff"/>
      <path id="Trazado_196301" data-name="Trazado 196301" d="M354.264,140.666a59.507,59.507,0,0,1-25.309,6.171c-2.943,0,2.609-23.551,5.4-22.218a59.639,59.639,0,0,1,19.906,16.047" transform="translate(-2700.672 -7839.56)" fill="#fff"/>
      <path id="Trazado_196302" data-name="Trazado 196302" d="M269.392,117.534a42.221,42.221,0,0,0-9.093-3.171c-17.493-3.864-34.37,5.213-34.37,5.213s11.483,15.343,28.976,19.207a41.977,41.977,0,0,0,9.053.957,23.415,23.415,0,0,0,5.434-22.205" transform="translate(-2635.683 -7832.462)" fill="#363e44"/>
      <rect id="Rectángulo_45983" data-name="Rectángulo 45983" width="54.893" height="65.91" transform="translate(-2441.408 -7551.487)" fill="#c5e5fe"/>
      <rect id="Rectángulo_45984" data-name="Rectángulo 45984" width="54.893" height="100.801" transform="translate(-2365.294 -7586.378)" fill="#c5e5fe"/>
      <path id="Trazado_196303" data-name="Trazado 196303" d="M264.926,642.483a.364.364,0,0,1-.364-.364V583.991a.364.364,0,1,1,.728,0v58.128a.364.364,0,0,1-.364.364" transform="translate(-2660.252 -8131.506)" fill="#776e42"/>
      <rect id="Rectángulo_45985" data-name="Rectángulo 45985" width="54.893" height="142.618" transform="translate(-2289.18 -7628.196)" fill="#c5e5fe"/>
      <path id="Trazado_196304" data-name="Trazado 196304" d="M683.094,508.475a.364.364,0,0,1-.364-.364V373.274a.364.364,0,1,1,.728,0V508.111a.364.364,0,0,1-.364.364" transform="translate(-2926.191 -7997.498)" fill="#776e42"/>
      <path id="Trazado_196305" data-name="Trazado 196305" d="M473.226,581.185a.364.364,0,0,1-.364-.364V487.6a.364.364,0,0,1,.728,0v93.217a.364.364,0,0,1-.364.364" transform="translate(-2792.723 -8070.208)" fill="#776e42"/>
    </g>
    <g id="Grupo_154309" data-name="Grupo 154309" transform="translate(1207.84 4015.685)">
      <g id="Grupo_154308" data-name="Grupo 154308" transform="translate(5.001 41.949)" clip-path="url(#clip-path-2)">
        <path id="Trazado_196306" data-name="Trazado 196306" d="M102.675,194.194a.4.4,0,0,1-.066-.006l-50.52-8.383L.47,194.189a.4.4,0,0,1-.328-.091A.407.407,0,0,1,0,193.789V125.426a.405.405,0,0,1,.405-.405H9.481l2.8-4.371a.406.406,0,0,1,.341-.187h18.65a.405.405,0,0,1,.35.2l2.562,4.358h68.495a.405.405,0,0,1,.405.405v68.363a.406.406,0,0,1-.405.405M.811,125.831v67.481l51.214-8.317a.42.42,0,0,1,.131,0l50.114,8.315V125.831H33.949a.4.4,0,0,1-.349-.2l-2.562-4.358h-18.2l-2.8,4.371a.405.405,0,0,1-.341.187Z" transform="translate(0 -71.628)" fill="#12263f"/>
        <path id="Trazado_196307" data-name="Trazado 196307" d="M111.543,86.106H40.9a.405.405,0,0,1-.405-.405V21.378a.409.409,0,0,1,.119-.287L61.668.119A.405.405,0,0,1,61.954,0h49.589a.405.405,0,0,1,.405.405V85.7a.405.405,0,0,1-.405.405M41.3,85.3h69.834V.812H62.121L41.3,21.547Z" transform="translate(-24.078 -0.001)" fill="#12263f"/>
        <path id="Trazado_196308" data-name="Trazado 196308" d="M67.488,26.584H50.205a.405.405,0,0,1,0-.811H67.083V8.479a.405.405,0,1,1,.811,0v17.7a.405.405,0,0,1-.405.405" transform="translate(-29.612 -4.801)" fill="#12263f"/>
        <path id="Trazado_196309" data-name="Trazado 196309" d="M177.584,124.533H106.939a.405.405,0,0,1-.405-.405V59.806a.407.407,0,0,1,.119-.287l21.056-20.973a.4.4,0,0,1,.286-.118h49.589a.405.405,0,0,1,.405.405v85.294a.405.405,0,0,1-.405.405m-70.24-.811h69.834V39.239H128.162L107.345,59.974Z" transform="translate(-63.346 -22.85)" fill="#12263f"/>
        <path id="Trazado_196310" data-name="Trazado 196310" d="M133.39,66.79H116.012a.405.405,0,0,1,0-.811h16.972V49.9a.405.405,0,1,1,.811,0V66.385a.405.405,0,0,1-.405.405" transform="translate(-68.741 -29.428)" fill="#12263f"/>
        <path id="Trazado_196311" data-name="Trazado 196311" d="M103.106,194.384H.836L40.3,126.021h9.3l5.548-4.557H73.8l.048,4.557h68.727Z" transform="translate(-0.497 -72.223)" fill="#12263f"/>
      </g>
      <g id="Grupo_154312" data-name="Grupo 154312" transform="translate(-292.84 -15)">
        <path id="Trazado_196312" data-name="Trazado 196312" d="M142.075,115.567H.921A.92.92,0,0,1,0,114.646V22.013a.921.921,0,0,1,1.842,0v91.712H142.075a.921.921,0,1,1,0,1.842" transform="translate(0 -1.67)" fill="#d3bba3"/>
        <path id="Trazado_196313" data-name="Trazado 196313" d="M99.28,54.81a.921.921,0,0,1-.473-1.711l16.767-10.02a.921.921,0,0,1,.945,1.581L99.751,54.679a.914.914,0,0,1-.471.131" transform="translate(-7.787 -3.4)" fill="#d3bba3"/>
        <path id="Trazado_196314" data-name="Trazado 196314" d="M85.8,49.788a.92.92,0,0,1-.771-.415L62.311,14.789a.921.921,0,1,1,1.54-1.01L86.568,48.362a.921.921,0,0,1-.769,1.426" transform="translate(-4.921 -1.058)" fill="#d3bba3"/>
        <path id="Trazado_196315" data-name="Trazado 196315" d="M33.172,27.212a.921.921,0,0,1-.564-1.649L50.256,11.928a.92.92,0,0,1,1.125,1.457L33.733,27.02a.912.912,0,0,1-.562.192" transform="translate(-2.553 -0.929)" fill="#d3bba3"/>
        <path id="Trazado_196316" data-name="Trazado 196316" d="M33.686,31.864a7.277,7.277,0,1,1-7.277-7.277,7.277,7.277,0,0,1,7.277,7.277" transform="translate(-1.515 -1.946)" fill="#7f4fc7"/>
        <path id="Trazado_196317" data-name="Trazado 196317" d="M65.548,7.277A7.277,7.277,0,1,1,58.27,0a7.277,7.277,0,0,1,7.277,7.277" transform="translate(-4.037)" fill="#7f4fc7"/>
        <path id="Trazado_196318" data-name="Trazado 196318" d="M99.049,57.984a7.277,7.277,0,1,1-7.277-7.277,7.277,7.277,0,0,1,7.277,7.277" transform="translate(-6.689 -4.014)" fill="#7f4fc7"/>
        <path id="Trazado_196319" data-name="Trazado 196319" d="M131.165,39.552a7.277,7.277,0,1,1-7.277-7.277,7.277,7.277,0,0,1,7.277,7.277" transform="translate(-9.232 -2.555)" fill="#7f4fc7"/>
        <rect id="Rectángulo_45987" data-name="Rectángulo 45987" width="18.098" height="49.625" transform="translate(16.295 48.755)" fill="#12263f"/>
        <rect id="Rectángulo_45988" data-name="Rectángulo 45988" width="18.098" height="59.511" transform="translate(46.161 38.869)" fill="#12263f"/>
        <rect id="Rectángulo_45989" data-name="Rectángulo 45989" width="18.098" height="32.069" transform="translate(76.028 66.311)" fill="#12263f"/>
        <rect id="Rectángulo_45990" data-name="Rectángulo 45990" width="18.098" height="41.278" transform="translate(105.895 57.102)" fill="#12263f"/>
      </g>
    </g>
    <g id="Grupo_154317" data-name="Grupo 154317" transform="translate(-101.196 -78.035)">
      <g id="Grupo_154315" data-name="Grupo 154315" transform="translate(1077.726 4255.558)">
        <path id="Trazado_195058" data-name="Trazado 195058" d="M14.988,227.726H81.36a2.488,2.488,0,1,0,0-4.975H14.988a2.488,2.488,0,1,0,0,4.975" transform="translate(-12.5 -222.751)" fill="#3cafff"/>
        <path id="Trazado_195059" data-name="Trazado 195059" d="M84.949,227.726H101.7a2.488,2.488,0,1,0,0-4.975H84.949a2.488,2.488,0,1,0,0,4.975" transform="translate(-5.009 -222.751)" fill="#3cafff"/>
        <path id="Trazado_195064" data-name="Trazado 195064" d="M131.644,232.612H85.022a1.748,1.748,0,0,0,0,3.5h46.622a1.748,1.748,0,0,0,0-3.5" transform="translate(-4.922 -221.695)" fill="#3cafff"/>
        <path id="Trazado_195065" data-name="Trazado 195065" d="M79.13,232.612H67.361a1.748,1.748,0,0,0,0,3.5H79.13a1.748,1.748,0,1,0,0-3.5" transform="translate(-6.813 -221.695)" fill="#3cafff"/>
      </g>
      <g id="Grupo_154316" data-name="Grupo 154316" transform="translate(1023.933 4239.912)">
        <path id="Trazado_195062" data-name="Trazado 195062" d="M193.258,1.333H114.9c-1.622,0-2.936.783-2.936,1.747s1.314,1.748,2.936,1.748h78.353c1.622,0,2.938-.783,2.938-1.748s-1.315-1.747-2.938-1.747" transform="translate(-60.887 -1.333)" fill="#7f4fc7"/>
        <path id="Trazado_195063" data-name="Trazado 195063" d="M129.623,1.333H98.873c-2.522,0-4.564.783-4.564,1.747s2.042,1.748,4.564,1.748h30.75c2.522,0,4.564-.783,4.564-1.748s-2.042-1.747-4.564-1.747" transform="translate(-94.309 -1.333)" fill="#7f4fc7"/>
      </g>
    </g>
    <g id="Grupo_154318" data-name="Grupo 154318" transform="translate(195.066 -252.146)">
      <g id="Grupo_154315-2" data-name="Grupo 154315" transform="translate(1062.219 4251.047)">
        <path id="Trazado_195058-2" data-name="Trazado 195058" d="M14.271,226.292H61.51a1.771,1.771,0,1,0,0-3.541H14.271a1.771,1.771,0,1,0,0,3.541" transform="translate(-12.5 -222.751)" fill="#3cafff"/>
        <path id="Trazado_195059-2" data-name="Trazado 195059" d="M84.232,226.292H96.157a1.771,1.771,0,1,0,0-3.541H84.232a1.771,1.771,0,1,0,0,3.541" transform="translate(-27.336 -222.751)" fill="#3cafff"/>
        <path id="Trazado_195064-2" data-name="Trazado 195064" d="M117.7,232.612H84.518a1.244,1.244,0,0,0,0,2.488H117.7a1.244,1.244,0,0,0,0-2.488" transform="translate(-27.508 -224.842)" fill="#3cafff"/>
        <path id="Trazado_195065-2" data-name="Trazado 195065" d="M75.234,232.612H66.857a1.244,1.244,0,0,0,0,2.488h8.377a1.244,1.244,0,1,0,0-2.488" transform="translate(-23.763 -224.842)" fill="#3cafff"/>
      </g>
      <g id="Grupo_154316-2" data-name="Grupo 154316" transform="translate(1023.933 4239.912)">
        <path id="Trazado_195062-2" data-name="Trazado 195062" d="M169.825,1.333H114.059c-1.155,0-2.09.557-2.09,1.243s.935,1.244,2.09,1.244h55.766c1.155,0,2.091-.557,2.091-1.244s-.936-1.243-2.091-1.243" transform="translate(-75.613 -1.333)" fill="#7f4fc7"/>
        <path id="Trazado_195063-2" data-name="Trazado 195063" d="M119.443,1.333H97.558c-1.8,0-3.249.557-3.249,1.243s1.453,1.244,3.249,1.244h21.886c1.8,0,3.249-.557,3.249-1.244s-1.453-1.243-3.249-1.243" transform="translate(-94.309 -1.333)" fill="#7f4fc7"/>
      </g>
    </g>
  </g>
</svg>
