<svg xmlns="http://www.w3.org/2000/svg" xmlns:xlink="http://www.w3.org/1999/xlink" width="405.757" height="431.136" viewBox="0 0 405.757 431.136">
  <defs>
    <filter id="Rectángulo_45262" x="0" y="360.401" width="288.757" height="70.735" filterUnits="userSpaceOnUse">
      <feOffset dy="3" input="SourceAlpha"/>
      <feGaussianBlur stdDeviation="3" result="blur"/>
      <feFlood flood-opacity="0.161"/>
      <feComposite operator="in" in2="blur"/>
      <feComposite in="SourceGraphic"/>
    </filter>
  </defs>
  <g id="Grupo_154326" data-name="Grupo 154326" transform="translate(-176.51 -684.754)">
    <g id="Grupo_154325" data-name="Grupo 154325" transform="translate(138.266 684.754)">
      <g id="Grupo_153247" data-name="Grupo 153247" transform="translate(41.695 58.259)">
        <g id="Grupo_152570" data-name="Grupo 152570" transform="translate(0 0)">
          <g id="Grupo_152551" data-name="Grupo 152551" transform="translate(0 175.796) rotate(-90)">
            <rect id="Rectángulo_45220" data-name="Rectángulo 45220" width="126.96" height="37.806" transform="translate(175.796 54.67) rotate(180)" fill="#e8e8e8"/>
            <g id="Grupo_152556" data-name="Grupo 152556" transform="translate(0 0)">
              <rect id="Rectángulo_45221" data-name="Rectángulo 45221" width="6.424" height="6.424" transform="translate(136.515 0)" fill="#1894f6"/>
              <rect id="Rectángulo_45222" data-name="Rectángulo 45222" width="6.424" height="6.424" transform="translate(122.864 0)" fill="#1894f6"/>
              <rect id="Rectángulo_45223" data-name="Rectángulo 45223" width="6.424" height="6.424" transform="translate(109.212 0)" fill="#1894f6"/>
              <rect id="Rectángulo_45224" data-name="Rectángulo 45224" width="6.424" height="6.424" transform="translate(95.561 0)" fill="#1894f6"/>
              <rect id="Rectángulo_45225" data-name="Rectángulo 45225" width="6.424" height="6.424" transform="translate(81.909 0)" fill="#1894f6"/>
              <rect id="Rectángulo_45226" data-name="Rectángulo 45226" width="6.424" height="6.424" transform="translate(68.258 0)" fill="#1894f6"/>
              <rect id="Rectángulo_45227" data-name="Rectángulo 45227" width="6.424" height="6.424" transform="translate(54.606 0)" fill="#1894f6"/>
              <rect id="Rectángulo_45228" data-name="Rectángulo 45228" width="6.424" height="6.424" transform="translate(40.955 0)" fill="#1894f6"/>
              <rect id="Rectángulo_45229" data-name="Rectángulo 45229" width="6.424" height="6.424" transform="translate(27.303 0)" fill="#1894f6"/>
              <rect id="Rectángulo_45230" data-name="Rectángulo 45230" width="6.424" height="6.424" transform="translate(13.652 0)" fill="#1894f6"/>
              <rect id="Rectángulo_45231" data-name="Rectángulo 45231" width="6.424" height="6.424" transform="translate(0 0)" fill="#1894f6"/>
              <rect id="Rectángulo_45232" data-name="Rectángulo 45232" width="6.424" height="6.424" transform="translate(136.515 13.651)" fill="#1894f6"/>
              <rect id="Rectángulo_45233" data-name="Rectángulo 45233" width="6.424" height="6.424" transform="translate(122.864 13.651)" fill="#1894f6"/>
              <rect id="Rectángulo_45234" data-name="Rectángulo 45234" width="6.424" height="6.424" transform="translate(109.212 13.651)" fill="#1894f6"/>
              <rect id="Rectángulo_45235" data-name="Rectángulo 45235" width="6.424" height="6.424" transform="translate(95.561 13.651)" fill="#1894f6"/>
              <rect id="Rectángulo_45236" data-name="Rectángulo 45236" width="6.424" height="6.424" transform="translate(81.909 13.651)" fill="#1894f6"/>
              <rect id="Rectángulo_45237" data-name="Rectángulo 45237" width="6.424" height="6.424" transform="translate(68.258 13.651)" fill="#1894f6"/>
              <rect id="Rectángulo_45238" data-name="Rectángulo 45238" width="6.424" height="6.424" transform="translate(54.606 13.651)" fill="#1894f6"/>
              <rect id="Rectángulo_45239" data-name="Rectángulo 45239" width="6.424" height="6.424" transform="translate(40.955 13.651)" fill="#1894f6"/>
              <rect id="Rectángulo_45240" data-name="Rectángulo 45240" width="6.424" height="6.424" transform="translate(27.303 13.651)" fill="#1894f6"/>
              <rect id="Rectángulo_45241" data-name="Rectángulo 45241" width="6.424" height="6.424" transform="translate(13.652 13.651)" fill="#1894f6"/>
              <rect id="Rectángulo_45242" data-name="Rectángulo 45242" width="6.424" height="6.424" transform="translate(0 13.651)" fill="#1894f6"/>
              <rect id="Rectángulo_45243" data-name="Rectángulo 45243" width="6.424" height="6.424" transform="translate(136.515 27.303)" fill="#1894f6"/>
              <rect id="Rectángulo_45244" data-name="Rectángulo 45244" width="6.424" height="6.424" transform="translate(122.864 27.303)" fill="#1894f6"/>
              <rect id="Rectángulo_45245" data-name="Rectángulo 45245" width="6.424" height="6.424" transform="translate(109.212 27.303)" fill="#1894f6"/>
              <rect id="Rectángulo_45246" data-name="Rectángulo 45246" width="6.424" height="6.424" transform="translate(95.561 27.303)" fill="#1894f6"/>
              <rect id="Rectángulo_45247" data-name="Rectángulo 45247" width="6.424" height="6.424" transform="translate(81.909 27.303)" fill="#1894f6"/>
              <rect id="Rectángulo_45248" data-name="Rectángulo 45248" width="6.424" height="6.424" transform="translate(68.258 27.303)" fill="#1894f6"/>
              <rect id="Rectángulo_45249" data-name="Rectángulo 45249" width="6.424" height="6.424" transform="translate(54.606 27.303)" fill="#1894f6"/>
              <rect id="Rectángulo_45250" data-name="Rectángulo 45250" width="6.424" height="6.424" transform="translate(40.955 27.303)" fill="#1894f6"/>
              <rect id="Rectángulo_45251" data-name="Rectángulo 45251" width="6.424" height="6.424" transform="translate(27.303 27.303)" fill="#1894f6"/>
              <rect id="Rectángulo_45252" data-name="Rectángulo 45252" width="6.424" height="6.424" transform="translate(13.652 27.303)" fill="#1894f6"/>
              <rect id="Rectángulo_45253" data-name="Rectángulo 45253" width="6.424" height="6.424" transform="translate(0 27.303)" fill="#1894f6"/>
            </g>
          </g>
        </g>
        <g transform="matrix(1, 0, 0, 1, -3.45, -58.26)" filter="url(#Rectángulo_45262)">
          <rect id="Rectángulo_45262-2" data-name="Rectángulo 45262" width="52.735" height="270.757" rx="13" transform="translate(279.76 366.4) rotate(90)" fill="#008cff"/>
        </g>
      </g>
      <g id="Grupo_78715" data-name="Grupo 78715" transform="translate(44 0)">
        <path id="Trazado_113832" data-name="Trazado 113832" d="M297.369,284.489c0,1.931-23.293,3.5-52.031,3.5s-52.047-1.567-52.047-3.5,23.312-3.5,52.047-3.5S297.369,282.554,297.369,284.489Z" transform="translate(-193.29 114.329)" fill="#da97b8" opacity="0.3"/>
        <path id="Trazado_113845" data-name="Trazado 113845" d="M245.636,207.805c-.2.991-1.459,1.74-1.766,2.741a36.666,36.666,0,0,0-1.4,4.827c-.94-.639-.956-1.367-1.928-1.991-1.309-.842-1.339-.963-.98-2.473.181-.74.371-1.514.511-2.272.048-.245-1.013-1.507-.84-3.22s1.02,2.019,1.1,1.387c.259-1.974.782-5.9.915-6.151.176-.331.185,4.24.971,4.5.412-.78.363-5.6.768-5.166s.65,4.75.69,5.761c.081-.551.594-5.184,1.036-4.627s.171,4.837.037,5.492a28.746,28.746,0,0,1,1.377-3.568C246.213,203.3,245.744,207.263,245.636,207.805Z" transform="translate(-164.282 66.561)" fill="#c4846e"/>
        <path id="Trazado_113846" data-name="Trazado 113846" d="M223.746,231.386c-2.355,3.815-2.246,8.132,4.725,8.6s20.47-3.2,22.963-4.29c8.456-3.551,14.364-28.041,14.364-28.041l-5.281-2.043s-3.109,18.751-11.373,22.921S226.456,227,223.746,231.386Z" transform="translate(-182.608 25.727)" fill="#ff8b95"/>
        <path id="Trazado_113849" data-name="Trazado 113849" d="M454.442,169.986a37.347,37.347,0,0,0-2.074-13.572A13.958,13.958,0,0,1,436.776,136.9a37.623,37.623,0,0,0-12.739-5.033,13.955,13.955,0,0,1-24.6,3.561,37.592,37.592,0,0,0-10.788,8.448,13.959,13.959,0,0,1-9.411,23.139,37.628,37.628,0,0,0,1.863,13.6,13.96,13.96,0,0,1,15.5,19.909,37.462,37.462,0,0,0,12.762,5.173,13.958,13.958,0,0,1,25.1-3.634,37.453,37.453,0,0,0,10.771-8.582,13.961,13.961,0,0,1,9.206-23.488Zm-33.569,10.65a12.522,12.522,0,1,1,7.807-15.9A12.525,12.525,0,0,1,420.873,180.636Z" transform="translate(-71.443 21.396)" fill="#12263f"/>
        <path id="Trazado_113850" data-name="Trazado 113850" d="M335.3,236.585a10.064,10.064,0,0,1,3.977-9.948,27.573,27.573,0,0,0-2.744-3.877,27.235,27.235,0,0,0-3.722-3.616,10.064,10.064,0,0,1-17-5.948,27.231,27.231,0,0,0-9.715,1.8,10.058,10.058,0,0,1-13.657,11.6,27.186,27.186,0,0,0-3.355,9.3,10.065,10.065,0,0,1,3.12,17.74,27.235,27.235,0,0,0,2.965,4.254,26.841,26.841,0,0,0,3.378,3.333,10.07,10.07,0,0,1,17.1,6.227,27,27,0,0,0,9.776-1.731,10.067,10.067,0,0,1,13.94-11.837,27.071,27.071,0,0,0,3.291-9.369A10.055,10.055,0,0,1,335.3,236.585Zm-11.322,10.32a10.443,10.443,0,1,1-1.528-14.686A10.444,10.444,0,0,1,323.977,246.906Z" transform="translate(-131.211 75.338)" fill="#4dd0e1"/>
        <path id="Trazado_113851" data-name="Trazado 113851" d="M361.878,205.79c-.191.191,3.065,4.4,3.614,5.221a28.767,28.767,0,0,1,1.966,3.829c.677-.837,1.437-1.6,2.146-2.435.953-1.116.945-1.237.2-2.5-.263-.447-.539-.911-.8-1.379-.211-.383,1.444-3.875.3-3.875s-1.1,2.176-1.377,1.485c-.694-1.731-1.923-4.659-2.375-4.687-.634-.038.913,3.536.276,3.988-.585-.592-1.675-3.611-2.435-3.247s1.038,3.26,1.279,4.185c-.225-.479-2.041-3.25-2.23-2.867s1.2,3.385,1.5,3.943c-.133-.185-.436-.386-.6-.6C363.488,207.033,362.068,205.6,361.878,205.79Z" transform="translate(-82.937 67.543)" fill="#f5b29c"/>
        <path id="Trazado_113852" data-name="Trazado 113852" d="M407.476,221.483c3.167,2.924,4.259,7.018-1.889,9.429s-19.59,6.249-29.938-3.353-12.515-16.519-12.515-16.519l4.187-3.416s7.147,11.71,18.215,15S403.833,218.124,407.476,221.483Z" transform="translate(-86.254 51.407)" fill="#2a2b7c"/>
        <g id="Grupo_78679" data-name="Grupo 78679" transform="translate(174.454 160.66)">
          <path id="Trazado_113853" data-name="Trazado 113853" d="M437.059,209.691a15.88,15.88,0,0,1,8.749-14.181,74.037,74.037,0,0,0-2.738-10.232,15.863,15.863,0,0,1-14.192-24.543,74.836,74.836,0,0,0-7.5-7.494,15.862,15.862,0,0,1-24.539-14.191,74.3,74.3,0,0,0-10.234-2.738,15.863,15.863,0,0,1-28.356,0,74.271,74.271,0,0,0-10.232,2.738,15.866,15.866,0,0,1-24.544,14.192,75.509,75.509,0,0,0-7.493,7.493,15.864,15.864,0,0,1-14.191,24.544,74.437,74.437,0,0,0-2.739,10.231,15.863,15.863,0,0,1,0,28.358,74.668,74.668,0,0,0,2.738,10.231,15.865,15.865,0,0,1,14.192,24.546,75.15,75.15,0,0,0,7.493,7.493,15.867,15.867,0,0,1,24.548,14.192,74.176,74.176,0,0,0,10.229,2.739,15.863,15.863,0,0,1,28.356,0,73.782,73.782,0,0,0,10.234-2.743,15.864,15.864,0,0,1,24.542-14.189,74.844,74.844,0,0,0,7.494-7.5A15.863,15.863,0,0,1,443.072,234.1a74.5,74.5,0,0,0,2.738-10.231A15.882,15.882,0,0,1,437.059,209.691Zm-64.626,38.633a38.633,38.633,0,1,1,38.632-38.633A38.677,38.677,0,0,1,372.433,248.325Z" transform="translate(-299.053 -136.313)" fill="#12263f"/>
          <path id="Trazado_113854" data-name="Trazado 113854" d="M357.207,159.268a35.2,35.2,0,1,0,35.2,35.2A35.236,35.236,0,0,0,357.207,159.268Zm0,60.112a24.914,24.914,0,1,1,24.913-24.913A24.915,24.915,0,0,1,357.207,219.38Z" transform="translate(-283.827 -121.089)" fill="#4ac0cb"/>
        </g>
        <path id="Trazado_113855" data-name="Trazado 113855" d="M347.658,245.746a13.439,13.439,0,0,1,10.679-9.208,62.367,62.367,0,0,0,.407-8.954,13.425,13.425,0,0,1-5.18-23.427,64.034,64.034,0,0,0-4.13-7.962,13.422,13.422,0,0,1-16.175-17.719,63.274,63.274,0,0,0-7.556-4.826,13.424,13.424,0,0,1-22.879-7.244,62.947,62.947,0,0,0-8.954-.4,13.426,13.426,0,0,1-23.427,5.178,64.018,64.018,0,0,0-7.96,4.13,13.426,13.426,0,0,1-17.722,16.177,62.833,62.833,0,0,0-4.822,7.555,13.426,13.426,0,0,1-7.246,22.879,63.494,63.494,0,0,0-.407,8.952,13.426,13.426,0,0,1,5.182,23.433,63.357,63.357,0,0,0,4.132,7.956,13.428,13.428,0,0,1,16.175,17.724,63.192,63.192,0,0,0,7.556,4.824,13.424,13.424,0,0,1,22.878,7.244,63.251,63.251,0,0,0,8.956.405,13.424,13.424,0,0,1,23.425-5.182,63.245,63.245,0,0,0,7.96-4.13,13.427,13.427,0,0,1,17.726-16.175,63.468,63.468,0,0,0,4.822-7.555A13.436,13.436,0,0,1,347.658,245.746Zm-61.5,13.045a31,31,0,1,1,38.915-20.2A31,31,0,0,1,286.158,258.791Z" transform="translate(-177.586 37.292)" fill="#12263f"/>
        <path id="Trazado_113871" data-name="Trazado 113871" d="M446.731,283.619c0,2.155-19.5,3.906-43.564,3.906s-43.56-1.751-43.56-3.906,19.506-3.91,43.56-3.91S446.731,281.46,446.731,283.619Z" transform="translate(-90.179 131.61)" fill="#a8bcff" opacity="0.3"/>
        <g id="Grupo_78683" data-name="Grupo 78683" transform="translate(278.587 245.846)">
          <path id="Trazado_113872" data-name="Trazado 113872" d="M395.09,264.406l3.04,59.51s-11.767,2.9-13.9,3.317,6.01-4.772,6.982-7.293,2.425-3.437,1.162-9.564S381.2,242.834,381.2,242.834h12.46Z" transform="translate(-344.74 -155.265)" fill="#f5a88b"/>
          <path id="Trazado_113873" data-name="Trazado 113873" d="M388.27,280.494c4.369,1.407,6.98.509,8.33-.416l.125,2.4s-11.767,2.9-13.9,3.317C381.155,286.112,385.7,283.057,388.27,280.494Z" transform="translate(-343.335 -113.827)" fill="#2e3054"/>
          <path id="Trazado_113874" data-name="Trazado 113874" d="M393.194,267.217l-9.217,58.8s-12.082.146-14.256.059,6.845-3.283,8.311-5.52,3.072-2.8,3.093-9.078-.089-67.876-.089-67.876l15.711-2Z" transform="translate(-357.888 -156.644)" fill="#f5a88b"/>
          <path id="Trazado_113875" data-name="Trazado 113875" d="M376.126,279.723c3.976,2.372,6.707,2.089,8.22,1.5l-.37,2.37s-12.082.146-14.256.059C368.029,283.583,373.093,281.639,376.126,279.723Z" transform="translate(-357.888 -114.222)" fill="#2e3054"/>
          <path id="Trazado_113876" data-name="Trazado 113876" d="M393.338,236.254c-1,3.991,1.179,6.955,2.037,10.768a40.5,40.5,0,0,1,.564,11.233,93.348,93.348,0,0,1-4.958,23.11c-2.465,7.47-7.614,44.186-7.614,44.186s-6.568-1.272-8.812-.644c.5-8.319-1.521-41.424-1.646-49.955-.108-7.331,1.039-14.921,1.578-22.284.513-7.09,1.631-13.69,6.826-18.521Z" transform="translate(-353.974 -164.933)" fill="#2e3054"/>
          <path id="Trazado_113877" data-name="Trazado 113877" d="M395.691,234.678c-.167,4.126,3.275,5.235,4.895,8.761,1.515,3.3,1.646,8.556,2.144,12.126a93.853,93.853,0,0,1-.106,23.691c-.875,7.861-.2,38.346.021,45.586-2.385.6-5.079-.448-7.136.678-1.221-8.237-6.615-35.384-8.489-43.685-1.6-7.134-6.7-20.951-7.686-28.258-.949-7.043-2.734-11.613,1.348-17.514Z" transform="translate(-348.168 -164.34)" fill="#3d4166"/>
          <path id="Trazado_113878" data-name="Trazado 113878" d="M397.7,231.1c.027.11.057.215.087.323a26.3,26.3,0,0,1-9.539.492,19.426,19.426,0,0,1-9.156-3.691l.144-.315C386.44,233.427,395.507,231.646,397.7,231.1Z" transform="translate(-347.091 -171.871)" fill="#fff"/>
          <path id="Trazado_113879" data-name="Trazado 113879" d="M381.9,229.794l-9.771,30.369s2.9,9.243,16.9,8.45,22.182-1.32,22.182-1.32-2.641-21.39,2.377-31.161,4.225-15.581,2.113-18.485S388.5,220.551,381.9,229.794Z" transform="translate(-354.838 -184.127)" fill="#2a2b7c"/>
          <path id="Trazado_113880" data-name="Trazado 113880" d="M381.91,219.41c-.4,2.058,3.659,6.7,5.307,7.646,2.962,1.7,7.223.97,10.267-.118,1.65-.589,5.258-.427,5.922-2.2,1.071-2.873-3.575-3.771-5-4.684-2.119-1.358-2.858-5.417-2.516-7.679a66.708,66.708,0,0,0-6.593-1.115,8.04,8.04,0,0,1-4.259,6.236C384.286,217.908,382.083,218.539,381.91,219.41Z" transform="translate(-343.982 -190.396)" fill="#f5a88b"/>
          <path id="Trazado_113881" data-name="Trazado 113881" d="M387.7,214.042l2.641-.792.792,3.433,7.922-1.849,1.782,2.812-21.588,33.1,7.658-34.33Z" transform="translate(-346.91 -188.181)" fill="#fff"/>
          <path id="Trazado_113882" data-name="Trazado 113882" d="M405.056,218.163a4.324,4.324,0,0,0,1.039-1.47c.186-.494,6.8,2.694,7.352,3.173.239.209.456.408.651.6,2.053,2.051,1.574,3.325.963,6.2-1.555,7.325-6.179,13.538-8.36,20.647-1.213,3.955-3.16,7.762-2.915,12.01.224,3.864,2.077,6.522-2.438,8.387-4.925,2.041-19.656-1.189-24.08-3.917-3.091-1.906-2.427-3.606-2.645-7.208-.553-9.367,1.268-17.383,4.973-26.019,1.865-4.341,3.659-9.777,6.338-13.664,1.289-1.876,1-2.161,3.317-2.782a26.976,26.976,0,0,1,3.965.2c0,.114-5.277,25.434-5.277,25.434s12.948-18.526,14.643-19.5A28.172,28.172,0,0,0,405.056,218.163Z" transform="translate(-352.167 -187.227)" fill="#2a2b7c"/>
          <path id="Trazado_113883" data-name="Trazado 113883" d="M384.777,214.81a7.447,7.447,0,0,0,1.293-3.551,66.71,66.71,0,0,1,6.594,1.115c-.034.216-.047.454-.059.7C390.473,215.353,387.688,215.725,384.777,214.81Z" transform="translate(-340.761 -190.396)" fill="#b9b3c0" style="mix-blend-mode: multiply;isolation: isolate"/>
          <path id="Trazado_113884" data-name="Trazado 113884" d="M386.667,221.571c-6.342-3.672-3.091-11.668,1.078-15.667,2.159-2.068,5.522-4.248,8.647-3.494,3.046.744,7.96,3.515,7.521,7.141-.226,1.844-2.028,3.253-2.89,4.865-1.268,2.37-2.29,4.732-4.32,6.581C393.662,223.762,390.077,223.546,386.667,221.571Z" transform="translate(-342.621 -200.412)" fill="#f5a88b"/>
          <path id="Trazado_113885" data-name="Trazado 113885" d="M395.066,218.7c1.5.67,2.6-.511,2.607-1.988.023-2.719-1.673-1.439-3.025-1.927h0l.507-3.317s-5.763-1.037-3.866-3.287c-1.933-.213-6.986-.566-6.877-3.463.2-5.379,9.329-2.9,11.867-1.758,2.493,1.122,5.385,3.452,6.315,6.086,1.637,4.639-3.486,14.727-9.251,13.386Z" transform="translate(-341.169 -201.384)" fill="#0b1238"/>
          <path id="Trazado_113886" data-name="Trazado 113886" d="M365.079,210.814c-.3.3,4.817,6.913,5.683,8.205,1.276,1.9,3.526,3.515,4.5,5.575,1.06-1.314.843-2.079,1.956-3.384,1.5-1.756,1.483-1.944.323-3.938-.414-.7-.847-1.43-1.253-2.165-.334-.6,2.269-6.091.471-6.091s-1.732,3.416-2.165,2.332c-1.088-2.721-3.019-7.322-3.731-7.365-.993-.061,1.434,5.556.435,6.268-.919-.932-2.632-5.672-3.828-5.1s1.631,5.123,2.011,6.574c-.355-.752-3.207-5.106-3.507-4.506s1.885,5.32,2.353,6.2c-.209-.287-.682-.6-.934-.936C367.61,212.766,365.381,210.514,365.079,210.814Z" transform="translate(-362.691 -198.491)" fill="#f5a88b"/>
          <path id="Trazado_113887" data-name="Trazado 113887" d="M417.754,225.243c3.452,3.19,4.643,7.654-2.06,10.282s-21.365,6.817-32.653-3.653-14.875-16.381-14.875-16.381l5.795-5.362s7.793,12.773,19.865,16.36S413.783,221.579,417.754,225.243Z" transform="translate(-359.241 -191.653)" fill="#5c61c3"/>
          <path id="Trazado_113888" data-name="Trazado 113888" d="M363.942,248.557h0Z" transform="translate(-363.942 -148.898)" fill="#2e3054"/>
        </g>
        <g id="Grupo_78684" data-name="Grupo 78684" transform="translate(0 227.186)">
          <path id="Trazado_113911" data-name="Trazado 113911" d="M233.478,239.5s-4.738,36.23-8.328,44.439-6.426,8.809-12.428,16.127S206,321.456,206,321.456l.135.075-.664,4.274-1.121,5.444,11.089.276s1.26-.607-3.465-2.522a20.286,20.286,0,0,0-3.48-1.229s2.293-5.25,2.675-6.121c3.074-7,14.308-21.4,21.366-29.217,6.772-7.5,18.265-32.293,18.265-32.293C258.966,241.461,233.478,239.5,233.478,239.5Z" transform="translate(-204.349 -160.572)" fill="#c4846e"/>
          <path id="Trazado_113912" data-name="Trazado 113912" d="M261.769,333.272c-4.727-1.913-3.813-1.717-3.813-1.717l.2-4.407,2.915-40.3-20.681-40.372c-1.677-9.7-21.542-17.669-22.134-.978s12.442,21.538,15.282,24.718S250.451,287.9,250.451,287.9s1.655,1.1-.238,6.618c-1.417,7.726,3.473,33.6,3.473,33.6.307.088.241,4.124.241,4.124l-.812,3.65,12.1.62S266.494,335.194,261.769,333.272Z" transform="translate(-187.594 -165.012)" fill="#c4846e"/>
          <path id="Trazado_113913" data-name="Trazado 113913" d="M227.633,224.91c-.508-.079-6.792,3.694-6.792,3.694s8.461-5.808,9.041-12.72,3.37-4.171,6.256-1.659c1.723,1.485.611,6.128.953,8.434.263,1.763,1.419,4.1.9,5.883-1.046,3.63-3.244-.949-4.945-2.152C231.184,225.08,229.509,225.195,227.633,224.91Z" transform="translate(-184.448 -194.341)" fill="#c4846e"/>
          <path id="Trazado_113914" data-name="Trazado 113914" d="M242.713,217.54c-3.813-3.557-10.687-.92-13.627,2.211-4.4,4.683-4.581,14.044-5.342,20.322-.66,5.424,1.223,11.206-1.6,16.1-1.49,2.6-3.7,10.621-5.457,13.075-2.35,3.284,6.413,3.791,10,4.711,6.382,1.64,19.2.724,19.2.724s-2.141-9.851-2.419-12.775c-.461-4.842,2.019-9.4,4.976-15.774,1.6-3.434,3.7-4.707,2.712-8.4a62.1,62.1,0,0,0-4.2-10.281c-1.174-2.472-2.147-7.66-3.888-9.568C242.952,217.776,242.828,217.65,242.713,217.54Z" transform="translate(-189.939 -189.123)" fill="#ff98a6"/>
          <path id="Trazado_113915" data-name="Trazado 113915" d="M227.15,225.413c-2.858-3.91-4.767-11.16-2.953-15.761,1.845-4.712,5.25-5.356,9.491-2.591,4.16,2.721,10.617,15.275,3.4,17.283-1.836.508-3.886-.1-5.594.883Z" transform="translate(-181.254 -201.69)" fill="#c4846e"/>
          <path id="Trazado_113916" data-name="Trazado 113916" d="M227.409,205.254c5.219-2.253,12.856-2.586,13.79,3.056.781,4.727-5.605,6.558-9.006,5.956l.044,2.024s-2.915-.541-2.255,1.951c.4,1.479,1.851,1.79,3.14,1.309-1.333.494-1.849,2.569-3.849,2.9-2.555.43-3.935-.817-5.2-2.842-2.123-3.409-3.427-7.783-1.024-11.241A10.408,10.408,0,0,1,227.409,205.254Z" transform="translate(-183.345 -203.731)" fill="#0b1238"/>
          <path id="Trazado_113917" data-name="Trazado 113917" d="M230.331,208.867l3.367,4.178-3.167,1.565Z" transform="translate(-172.996 -197.532)" fill="#c4846e"/>
          <path id="Trazado_113918" data-name="Trazado 113918" d="M204.349,282.292l11.089.276s1.247-.6-3.407-2.5a8.331,8.331,0,0,1-7.289.32Z" transform="translate(-204.349 -111.615)" fill="#2d3152"/>
          <path id="Trazado_113919" data-name="Trazado 113919" d="M242.695,280.07l-.417-.166a8.5,8.5,0,0,1-7.818.9l-.419,1.88,12.1.62S247.419,281.992,242.695,280.07Z" transform="translate(-168.52 -111.809)" fill="#2d3152"/>
          <path id="Trazado_113920" data-name="Trazado 113920" d="M240.012,204.086s-12.457-.843-12.069,11.484c0,0-9.308.318-12.3,13.1s1.821,17.378,7.4,14.421,5.186-5.51,5.186-5.51,4.672,2.324,10.7-1.582-2.224-12.534-2.224-12.534l4.91-4.327s-10.628.722-4.9-5.543S240.012,204.086,240.012,204.086Z" transform="translate(-191.832 -203.317)" fill="#0b1238"/>
        </g>
        <path id="Trazado_113921" data-name="Trazado 113921" d="M251.959,218.324c-1.783,2.235-2.522,2.2-3.3,3.354a48.866,48.866,0,0,0-3.626,5.592c-.949-1.172-.691-2.1-1.682-3.268-1.339-1.571-1.331-1.739-.294-3.518.514-.872,1.053-1.781,1.521-2.69.157-.291-.706-2.3.172-4.411s.519,2.957.867,2.185c1.088-2.408,3.259-7.19,3.526-7.459.351-.353-1.4,5.455-.5,6.091.823-.832,2.611-6.969,2.959-6.265s-1,6.285-1.337,7.585c.313-.671,2.747-6.358,3.094-5.479s-1.642,6.208-2.063,6.987c.19-.254,3.12-4.354,3.12-4A12.633,12.633,0,0,1,251.959,218.324Z" transform="translate(-158.539 28.461)" fill="#c4846e"/>
        <path id="Trazado_113922" data-name="Trazado 113922" d="M225.281,226.777c-3.359,2.97-4.506,7.132,2.032,9.6,6.539,2.456,20.518,2.867,23.219,2.547,9.123-.951,21.873-22.676,21.873-22.676l-4.462-3.484s-8.313,15.18-17.431,16.776S229.147,223.363,225.281,226.777Z" transform="translate(-182.351 34.359)" fill="#fa7071"/>
        <g id="Grupo_78693" data-name="Grupo 78693" transform="translate(337.132 184.999)">
          <path id="Trazado_113927" data-name="Trazado 113927" d="M437.458,345.622c-10.746-3.166-18.339-12.829-17.655-24.294.361-6.108,3.089-5.342,6.792-9.033,3.931-3.917,1.784-5.392-1.549-9.734-6.1-7.941-11.826-16.878-9.347-27.471,2.341-10,14.2-9.846,11.585-20.307-3.368-13.463-2.036-26.844-.472-40.67.9-8.088,3.855-27.835,14.982-28.131,10.5-.288,10,19.292,10.2,25.916.2,6.178-1.112,10.459,3.635,13.935,6.064,4.462,13.1,5.938,14.366,14.85,1.487,10.5-10.139,14.93-10.72,24.25-.475,7.733,10.6,12.21,14.542,18.579,7.393,11.958-7.006,12.04-8.211,21.58a4.329,4.329,0,0,1-.76,1.572c4.031,3.048,9.6,4.665,11.9,9.579,2.676,5.709.713,11.55-3.221,15.951-7.936,8.836-22.827,16.614-34.735,13.783C438.338,345.865,437.892,345.751,437.458,345.622Z" transform="translate(-415.106 -185.978)" fill="#fff" opacity="0.3"/>
          <path id="Trazado_113928" data-name="Trazado 113928" d="M437.458,345.622c-10.746-3.166-18.339-12.829-17.655-24.294.361-6.108,3.089-5.342,6.792-9.033,3.931-3.917,1.784-5.392-1.549-9.734-6.1-7.941-11.826-16.878-9.347-27.471,2.341-10,14.2-9.846,11.585-20.307-3.368-13.463-2.036-26.844-.472-40.67.9-8.088,3.855-27.835,14.982-28.131,10.5-.288,10,19.292,10.2,25.916.2,6.178-1.112,10.459,3.635,13.935,6.064,4.462,13.1,5.938,14.366,14.85,1.487,10.5-10.139,14.93-10.72,24.25-.475,7.733,10.6,12.21,14.542,18.579,7.393,11.958-7.006,12.04-8.211,21.58a4.329,4.329,0,0,1-.76,1.572c4.031,3.048,9.6,4.665,11.9,9.579,2.676,5.709.713,11.55-3.221,15.951-7.936,8.836-22.827,16.614-34.735,13.783C438.338,345.865,437.892,345.751,437.458,345.622Z" transform="translate(-415.106 -185.978)" fill="#c19df1"/>
          <path id="Trazado_113929" data-name="Trazado 113929" d="M457.117,265.081c0,.868-8.8,1.578-19.65,1.578s-19.638-.71-19.638-1.578c0-.886,8.79-1.6,19.638-1.6S457.117,264.2,457.117,265.081Z" transform="translate(-409.841 -36.108)" fill="#b0bcd8"/>
          <g id="Grupo_78690" data-name="Grupo 78690" transform="translate(6.369 0.003)">
            <g id="Grupo_78688" data-name="Grupo 78688" transform="translate(20.056)">
              <rect id="Rectángulo_33912" data-name="Rectángulo 33912" width="0.53" height="223.147" transform="translate(0)" fill="#fff"/>
            </g>
            <g id="Grupo_78689" data-name="Grupo 78689" transform="translate(0 12.811)">
              <path id="Trazado_113930" data-name="Trazado 113930" d="M424.517,232.19l27.709-27.706c-.056-.2-.109-.4-.164-.6l-27.923,27.935Z" transform="translate(-404.008 -164.171)" fill="#fff"/>
              <path id="Trazado_113931" data-name="Trazado 113931" d="M424.518,227.242l24.79-24.8c-.112-.123-.232-.258-.361-.378l-24.807,24.8Z" transform="translate(-404.008 -167.685)" fill="#fff"/>
              <path id="Trazado_113932" data-name="Trazado 113932" d="M424.518,238.738l22.411-22.416a5.172,5.172,0,0,0-.39-.367l-22.4,22.4Z" transform="translate(-404.008 -140.826)" fill="#fff"/>
              <path id="Trazado_113933" data-name="Trazado 113933" d="M424.139,204.858l.378.381,10-10.007c0-.232-.009-.481-.009-.742Z" transform="translate(-404.008 -182.333)" fill="#fff"/>
              <path id="Trazado_113934" data-name="Trazado 113934" d="M424.139,241.851l.378.387,25.124-25.124c-.138-.111-.282-.232-.411-.343Z" transform="translate(-404.008 -139.248)" fill="#fff"/>
              <path id="Trazado_113935" data-name="Trazado 113935" d="M455.16,228.781,424.139,259.8l.378.381,31.019-31.019Z" transform="translate(-404.009 -116.023)" fill="#fff"/>
              <path id="Trazado_113936" data-name="Trazado 113936" d="M424.139,248.811l.378.372L454.905,218.8l-.376-.372Z" transform="translate(-404.009 -136.053)" fill="#fff"/>
              <path id="Trazado_113937" data-name="Trazado 113937" d="M435.614,229.189l-16.836-16.813c-.129.129-.25.258-.373.373l17.1,17.115Z" transform="translate(-415.096 -147.746)" fill="#fff"/>
              <path id="Trazado_113938" data-name="Trazado 113938" d="M437.6,233.137l-19.914-19.764c-.141.123-.279.232-.411.355l20.41,20.413Z" transform="translate(-417.277 -145.818)" fill="#fff"/>
              <path id="Trazado_113939" data-name="Trazado 113939" d="M433.663,242.353l-13.97-13.847c-.1.147-.211.29-.329.44l14.287,14.281Z" transform="translate(-413.241 -116.556)" fill="#fff"/>
              <path id="Trazado_113940" data-name="Trazado 113940" d="M424.139,253.458l.378.373,25.869-25.861c-.161-.106-.323-.191-.475-.282Z" transform="translate(-404.008 -118.137)" fill="#fff"/>
              <path id="Trazado_113941" data-name="Trazado 113941" d="M420.083,190.915,432.261,203.1l-.085-.924-11.914-11.832C420.206,190.531,420.142,190.719,420.083,190.915Z" transform="translate(-411.851 -190.346)" fill="#fff"/>
              <path id="Trazado_113942" data-name="Trazado 113942" d="M434.991,214.825l-16.206-15.88c-.021.229-.041.461-.059.692L434.883,215.8Z" transform="translate(-414.473 -173.718)" fill="#fff"/>
              <path id="Trazado_113943" data-name="Trazado 113943" d="M435.136,217.047l-16.493-16.314c-.015.241-.032.487-.041.722l16.523,16.52Z" transform="translate(-414.715 -170.261)" fill="#fff"/>
            </g>
          </g>
          <g id="Grupo_78691" data-name="Grupo 78691" transform="translate(26.293 160.402)">
            <rect id="Rectángulo_33913" data-name="Rectángulo 33913" width="0.868" height="62.748" transform="translate(0)" fill="#2a2b7c"/>
          </g>
          <path id="Trazado_113944" data-name="Trazado 113944" d="M443.136,288.113S427.751,233,417.9,257.068,443.136,288.113,443.136,288.113Z" transform="translate(-413.069 -60.275)" fill="#ffc5c0"/>
          <g id="Grupo_78692" data-name="Grupo 78692" transform="translate(29.292 170.28)">
            <path id="Trazado_113945" data-name="Trazado 113945" d="M425.432,303.828l-.094-1.658c-.1-1.757-2.326-43.448,8.7-55.11a8.769,8.769,0,0,1,7.683-2.975,6.309,6.309,0,0,1,5.319,3.573c5.92,12.41-19.638,53.047-20.718,54.769ZM440.62,245.09a7.779,7.779,0,0,0-5.8,2.7c-9.485,10.03-8.8,44.481-8.5,52.6,4.594-7.5,24.807-41.659,19.755-52.261a5.219,5.219,0,0,0-4.48-2.981A9.41,9.41,0,0,0,440.62,245.09Z" transform="translate(-425.091 -244.021)" fill="#2a2b7c"/>
          </g>
        </g>
        <g id="Grupo_78721" data-name="Grupo 78721" transform="translate(296.136 0)">
          <g id="Grupo_78720" data-name="Grupo 78720" transform="translate(0 0)">
            <path id="Trazado_113900" data-name="Trazado 113900" d="M394.144,111.882s.629,43.753,2.54,47.421,11.341,6.263,11.816,5.483-4.08-3.935-5.21-5.982-2.532-2.672-2.021-8.031,1.5-34.329,1.5-34.329l-8.579-5.277Z" transform="translate(-358.174 3.031)" fill="#f5b29c"/>
            <path id="Trazado_113901" data-name="Trazado 113901" d="M391.9,114.623s7.536,39.444,6.229,41.8-6.794,7.9-9.223,7.659,2.13-5.107,3.06-7.251,2.27-2.9,1.253-8.187-11.054-33.85-11.054-33.85l6.6-4.29Z" transform="translate(-369.906 2.377)" fill="#f5b29c"/>
            <path id="Trazado_113902" data-name="Trazado 113902" d="M391.06,67.087a8.031,8.031,0,0,0-2.249,5.642,7.309,7.309,0,0,0,.6,3.217c.406.932,1.334,1.881,1.546,2.811-1.336.093-2.466.113-3.575,1.2-3.518,3.46-3.684,11.62,1.277,13.771a3.649,3.649,0,0,0,2.718.186c-1.675-1.138-3.8,2.474-2.407,4.359,1.641,2.211,5.687,2.294,8.017,2.419,2.672.141,6.707.663,8.884-1.364,1.665-1.55,2.544-4.81,2.906-7.067.671,1.782,1.368,4.02,3.088,4.68,1.671.637,3.678-.473,4.614-2.084a5.232,5.232,0,0,0-.374-5.224c-.453-.689-3.13-4.371-3.876-4.04,3.343-1.481,3.351-5.638,2.664-9.5-2.051-11.554-16.206-17.309-23.7-9.155C391.149,66.986,391.1,67.038,391.06,67.087Z" transform="translate(-367.296 -44.036)" fill="#2e3054"/>
            <path id="Trazado_113903" data-name="Trazado 113903" d="M401.8,66.927c.819.82.16,6.241.418,7.591.691,3.581,4.305,4.141,5.436,7,.469,1.182-.166,3.033-.5,4.088-.742,2.36-2.255,5.766-4.887,6.423-1.405.348-3.5.335-5.046.542a9.879,9.879,0,0,1-5.841-.675c-3.648-1.813-4.537-5.689-3.2-9.353.946-2.6,2.49-2.423,4.325-4a8.912,8.912,0,0,0,2.7-7.015C395.013,67.924,399.805,64.929,401.8,66.927Z" transform="translate(-364.59 -40.931)" fill="#ecb49f"/>
            <path id="Trazado_113904" data-name="Trazado 113904" d="M398.669,70.96l-.131-3.139c-2-2-7.31-1.073-7.11,2.522,0,.024,0,.627,0,.653.667,1.116,2.3,3.747,3.375,3.595C397.089,74.264,397.929,73.041,398.669,70.96Z" transform="translate(-360.841 -40.44)" fill="#ecb49f" style="mix-blend-mode: multiply;isolation: isolate"/>
            <path id="Trazado_113905" data-name="Trazado 113905" d="M390.114,67.1s1.477,11.1,5.725,11.4,5.628-6.014,5.96-10.379c.374-4.883-.077-6.366-6.024-6.647C390.041,61.2,390.114,67.1,390.114,67.1Z" transform="translate(-362.122 -45.654)" fill="#ecb49f"/>
            <path id="Trazado_113906" data-name="Trazado 113906" d="M403.793,66.244c-.049.342-.139.719-.22,1.107,1.51-.032,1.473,2.4.982,3.264-.083.144-.637.6-.637.7,0,.309.6.275.521.77a1.4,1.4,0,0,1-1.754.992c-.536-.2-.422-.823-.5-1.308a4.062,4.062,0,0,0-1.463-2.6c-.628-.616-1.758-1.475-1.841-2.379-1.164,2.073-3.7,2.419-5.84,1.94-.3,1.249-.073,1.93-1.311,2.662-1.194.707-1.4.087-2.385-.574a2.841,2.841,0,0,1,1.111-2.548c-1.461-1.409-.23-3.623,1.158-5.105a7.288,7.288,0,0,1,6.152-2.381,6.051,6.051,0,0,1,3.428,1.4,3.029,3.029,0,0,1,1.37,2.369C403.781,64.7,403.918,65.369,403.793,66.244Z" transform="translate(-362.916 -46.344)" fill="#2e3054"/>
            <path id="Trazado_113907" data-name="Trazado 113907" d="M390.908,72.152l-.926.922s1.621,2.053,6.249,2.156a9.94,9.94,0,0,0,7.055-2.362l-1.273-.819S395.418,75.949,390.908,72.152Z" transform="translate(-362.251 -35.286)" fill="#fff"/>
            <path id="Trazado_113908" data-name="Trazado 113908" d="M399.089,81.891a6.02,6.02,0,0,1,.76-2.261c.956-1.987,2.16-3.87,3.041-5.883,1.114-2.556,1.94-5.212,3.114-7.738.481-1.035,1.107-2.049,1.532-3.122.786-1.968.3-3.945.406-6.02.016-.327.768.7.792.756a4.515,4.515,0,0,1,.208,2.043c1.027-.582,1-1.958,1.493-2.888a38.114,38.114,0,0,1,1.952-3.3c.143,1.431-.843,3.217-1.233,4.531a16.2,16.2,0,0,1,1.376-1.966,5.846,5.846,0,0,1,1.485-1.938c-.028,1.445-1.013,3.349-1.473,4.721a21.023,21.023,0,0,1,2.738-2.932c.218,1.592-1.475,2.532-1.742,3.945a7.153,7.153,0,0,0,2.243-1.178c-1.021,2.7-3.813,4.009-5.143,6.592-2.049,3.981-2.928,8.627-4.26,12.912-.523,1.677-1.095,3.377-1.748,5.008-.265.663-.81,2.716-1.669,2.781-.414.032-.875-.671-1.205-.92a12.04,12.04,0,0,1-1.738-1.1A2.762,2.762,0,0,1,399.089,81.891Z" transform="translate(-353.333 -53.477)" fill="#ecb49f"/>
            <path id="Trazado_113909" data-name="Trazado 113909" d="M394.531,80.675a6.355,6.355,0,0,1-.538-.778c-1.3-2.328-2.866-4.509-4.1-6.869-1.293-2.472-2.3-5.062-3.652-7.5-.552-1-1.249-1.966-1.75-3-.92-1.908-.576-3.913-.827-5.976-.038-.325-.715.756-.736.81a4.51,4.51,0,0,0-.063,2.051c-1.065-.507-1.136-1.881-1.692-2.773a36.966,36.966,0,0,0-2.178-3.157c-.041,1.439,1.067,3.149,1.548,4.434a15.879,15.879,0,0,0-1.51-1.865,5.865,5.865,0,0,0-1.617-1.829c.129,1.439,1.245,3.27,1.8,4.606a21.031,21.031,0,0,0-2.936-2.732c-.107,1.6,1.647,2.421,2.015,3.815a7.164,7.164,0,0,1-2.32-1.019c1.208,2.625,4.084,3.731,5.594,6.214,2.324,3.826,3.525,8.4,5.157,12.582a21.491,21.491,0,0,0,2.888,5.412,8.91,8.91,0,0,1,1.455,2.055c1.449-.944,2.463-2.833,4.155-3.415A5.448,5.448,0,0,0,394.531,80.675Z" transform="translate(-375.973 -53.477)" fill="#ecb49f"/>
            <path id="Trazado_113910" data-name="Trazado 113910" d="M412.188,96.243c.461-1.619,1.32-3.159,1.754-4.743a18.288,18.288,0,0,0,.582-3.411,24.567,24.567,0,0,1,3.32-9.607c.853-1.574,3.591-7.033,3.591-7.033s-1.6-1.1-2.019-1.386c-1.061-.717-1.847-1.716-2.825-2.5-1.441,5.01-3.522,10.392-8.813,12.548-5.883,2.4-9.351-.467-13.114-4.82-1.413-1.633-2.789-3.3-4.266-4.883-1.281-1.374-2.231-2.975-3.518-4.329-.511.493-4.753,2.571-4.559,3.177.96,2.668,3.163,5.764,4.658,8.322,1.372,2.35,3.87,4.955,4.282,7.591.231,1.479-.141,3.11.152,4.519a21.031,21.031,0,0,0,1.649,4,21.168,21.168,0,0,1,1.782,4.278,7.028,7.028,0,0,1-.012,3.488c-.237.976-.388,2.284-.6,3.266-.279,1.259-1.669,2.552-.091,2.771,3.181.447,6.439.669,9.644.891,2.368.164,4.79.746,7.168.374,1.014-.16,2.631.754,2.569-.295a37.323,37.323,0,0,0-.909-3.894A16.521,16.521,0,0,1,412.188,96.243Z" transform="translate(-369.761 -41.129)" fill="#7f4fc7"/>
            <path id="Trazado_113951" data-name="Trazado 113951" d="M392.084,68.333s3.3,1.322,4.785,0c0,0-.331,2.146-2.31,2.146A2.735,2.735,0,0,1,392.084,68.333Z" transform="translate(-360.192 -38.925)" fill="#fff"/>
            <path id="Trazado_113952" data-name="Trazado 113952" d="M394.29,86.583s-12.111,25.082-12.7,44.705a24.6,24.6,0,0,0,2.31,10.392l32.167,1.649s4.784-19.136,3.959-35.3-6.269-21.115-6.269-21.115S396.106,87.41,394.29,86.583Z" transform="translate(-370.481 -21.05)" fill="#3d4166"/>
          </g>
          <path id="Trazado_113953" data-name="Trazado 113953" d="M407.468,141.832c.414-.671-2.934-3.122-4.581-5.1-2.981,1.613-6.382-.96-7.69-2.134a7.07,7.07,0,0,0,.455,1.748C397.565,140.017,406.993,142.612,407.468,141.832Z" transform="translate(-357.143 25.985)" fill="#3d4166"/>
          <path id="Trazado_113954" data-name="Trazado 113954" d="M395.144,135.133a7.9,7.9,0,0,0,.075-2.9c-1.58,4.327-5.7,5.966-6.635,5.812-.659-.111-.267-1.174.071-1.879-1.354,2.34-4.951,6.406-2.734,6.627C388.35,143.037,393.839,137.483,395.144,135.133Z" transform="translate(-366.92 23.663)" fill="#3d4166"/>
        </g>
        <g id="Grupo_78719" data-name="Grupo 78719" transform="translate(110.983 8.657)">
          <path id="Trazado_113847" data-name="Trazado 113847" d="M313.374,125.407c.4-.341.177-1.017.422-1.273,1.433-1.451,3.556-2.653,4.918-4.187,2.192-2.466,4.632-5.076,7.043-7.309a26.367,26.367,0,0,0,4.569-5.563c.615-.972,1.516-3.645,2.545-4.017.473.568-1.187,4,.885,2.005,1.577-1.512,4.447-4.256,5.109-3.942s-2.2,2.531-1.924,3.11,3.755-2.462,4.1-1.991-3.1,2.809-2.809,3.3c.5.832,2.5-1.551,2.967-1.055s-1.8,1.758-2.365,2.783c.946.526,2.716-1.555,2.7-.4s-3.97,2.158-5.218,2.986c-2.287,1.514-4.776,3.016-6.142,5.393-2.233,3.9-6.67,6.927-9.694,10.244-2.214,2.43-7.384,4-9.728,6.15-1.216-.5-.006-1.2-.207-2.592C310.392,127.985,312.095,126.521,313.374,125.407Z" transform="translate(-241.146 -17.464)" fill="#ecb49f"/>
          <path id="Trazado_113848" data-name="Trazado 113848" d="M342.437,110.178l-3.384-4.863-17.936,13.254s-24.777.473-21.3,10.65c2.762,8.1,26.053-1.423,26.053-1.423Z" transform="translate(-252.184 -13.12)" fill="#3d4166"/>
          <path id="Trazado_113856" data-name="Trazado 113856" d="M280.082,140.609c-.355-.777,3.29-5.724,3.877-6.789.869-1.573,2.517-2.984,3.14-4.66.917.956.8,1.567,1.756,2.511,1.287,1.271,1.291,1.419.52,3.053a4.5,4.5,0,0,0-.325,2.028c-.061,1.179,1.12,3.319.276,4.342s-1.585-2.423-1.851-1.547c-.662,2.2-1.855,5.921-2.413,6-.769.114.747-4.433-.083-4.92-.656.788-1.683,4.967-2.641,5s.926-4.873,1.12-6.032c-.223.613-2.4,4.36-3.065,4.262s1.744-4.788,2.052-5.5c-.144.242-.493.518-.666.8C281.925,138.914,280.438,141.388,280.082,140.609Z" transform="translate(-272.183 11.432)" fill="#ecb49f"/>
          <g id="Grupo_78682" data-name="Grupo 78682" transform="translate(0 79.404)">
            <path id="Trazado_113857" data-name="Trazado 113857" d="M277.276,169.094l-1.1,5.787,11.929,2.624s.211-2.736-4.114-4.626.144-8.328.144-8.328Z" transform="translate(-276.178 -31.527)" fill="#5c61c3"/>
            <path id="Trazado_113858" data-name="Trazado 113858" d="M306.7,99.485s4.128-.759,6.158,5.835c2.194,3.105,3.377,2.342,3.664,3.243s-1.287,1.77-1.07,2.486,1.591,4.126-.03,5.005a51.962,51.962,0,0,1-5.212,2.166s-.928,4.141.169,5.693c.52.737-1.193,7.078.65,9.67,2.038,2.872-11.285-9.639-11.285-9.639s5.214-1.847,1.831-4.987S289.38,100.593,306.7,99.485Z" transform="translate(-255.442 -98.554)" fill="#ecb49f"/>
            <path id="Trazado_113859" data-name="Trazado 113859" d="M308.464,110.413c1.608-.615,5.527,7.214,6.664,4.733,9.913,16.909-3.694,25.081-4.484,29.059a24.781,24.781,0,0,0,1.75,13.95s-5.643-1.246-8.807-.292-14.423-7.165-12.312-11.117a70.654,70.654,0,0,0,3.863-9.939c1.51-5.145,2.176-9.684,3.414-14.768S304.73,111.846,308.464,110.413Z" transform="translate(-260.902 -87.31)" fill="#bfd4f8"/>
            <g id="Grupo_78680" data-name="Grupo 78680" transform="translate(56.196 5.047)">
              <path id="Trazado_113860" data-name="Trazado 113860" d="M306.346,107.273c-.658.221-1.589-.873-2.129-2.484-.493-1.474-.463-2.817.065-3.189a.5.5,0,0,1,.148-.073c.65-.219,1.583.871,2.121,2.484.5,1.476.467,2.813-.061,3.187A.547.547,0,0,1,306.346,107.273Zm-1.9-2.559c.524,1.561,1.384,2.482,1.827,2.334s.591-1.366.059-2.963-1.368-2.486-1.823-2.334a.253.253,0,0,0-.087.045C304.038,102.061,303.948,103.226,304.442,104.714Z" transform="translate(-303.865 -101.499)" fill="#0b1238"/>
            </g>
            <g id="Grupo_78681" data-name="Grupo 78681" transform="translate(48.823 8.341)">
              <path id="Trazado_113861" data-name="Trazado 113861" d="M308.454,103.353l-.06-.231-8.162,1.975.059.233Z" transform="translate(-300.232 -103.122)" fill="#0b1238"/>
            </g>
            <path id="Trazado_113862" data-name="Trazado 113862" d="M305.3,131.677s-10.023,7.583-11.663,17.417-1.24,12.176-6.294,23.5-10.621,30.348-10.621,30.348l4.75,1.254A173.583,173.583,0,0,0,301.2,173.769c7.37-14.876,19.625-38.228,19.625-38.228Z" transform="translate(-275.621 -65.378)" fill="#3d4166"/>
            <path id="Trazado_113863" data-name="Trazado 113863" d="M301.209,157.007l-2.229,8.476,5.961,4.727,8.634,1.689s-.783-2.3-4.419-3.97-3.631-4.624-3.631-4.624l-.138-2.99Z" transform="translate(-252.699 -39.295)" fill="#5c61c3"/>
            <path id="Trazado_113864" data-name="Trazado 113864" d="M306.361,132.838s27.22,13.981,28.684,20.51L314.1,187.309l-5.622-1.977s3.923-19.891,13.828-28.739l-31.119-10.421S286.76,133.114,306.361,132.838Z" transform="translate(-261.168 -64.182)" fill="#3d4166"/>
            <path id="Trazado_113865" data-name="Trazado 113865" d="M302.747,113.357l2.1,3.467.538-.047s.83-3.105-2.117-4.1Z" transform="translate(-248.82 -84.947)" fill="#fa7071"/>
            <path id="Trazado_113866" data-name="Trazado 113866" d="M309.213,114.754s4.37,4.924.938,12.351-6.753,9.872-5.1,13.043l-2.044,2.172-3.966-3.909s-.4-3.343,3.956-6.41,7.725-13.983,5.5-17.362Z" transform="translate(-252.645 -82.923)" fill="#fa7071"/>
            <path id="Trazado_113867" data-name="Trazado 113867" d="M300.53,110.013c-.7-1.009,3.422,2.838,7.268,2.825l.136,4.577-9.136-4.528Z" transform="translate(-252.885 -87.86)" fill="#bfd4f8"/>
            <path id="Trazado_113868" data-name="Trazado 113868" d="M312.381,102.632a3.026,3.026,0,0,1-2.43,2.19c-2.095.581-4.193,1.242-4.413,3.737-.039.489.29,3.814.658,3.846-1.376-.116-2.874-1.1-2.537.986a2.421,2.421,0,0,0,.678,1.433c1.007.93-3.57,4.208-4.735,2.425-2.147-3.29-4.869-8.622-2.935-12.308a12.024,12.024,0,0,1,7.843-5.728c2.17-.5,7.666-.27,7.885,2.953A2.052,2.052,0,0,1,312.381,102.632Z" transform="translate(-255.761 -99.013)" fill="#0b1238"/>
            <path id="Trazado_113869" data-name="Trazado 113869" d="M317.714,115.972s3.54,10.2-3.958,17.512,2.326,24.762-.363,26.914-24.945,2.513-25.664.179,4.236-14.007,6.191-23.721,9.507-26.622,16.633-26.309C315.374,110.757,317.55,115.4,317.714,115.972Z" transform="translate(-264.356 -87.141)" fill="#2e3054"/>
            <path id="Trazado_113870" data-name="Trazado 113870" d="M282.4,148.24l5.046,3.572,12.9-19.367s24.137-9.253,17.125-18.008c-5.586-6.964-25.065,10.64-25.065,10.64Z" transform="translate(-269.767 -84.809)" fill="#3d4166"/>
          </g>
          <path id="Trazado_113889" data-name="Trazado 113889" d="M337.792,133.836c-.179,2.937-4.983,4.163-6.475,6.444,1.549.613,6.964.341,8.47-.666,2.077-1.394.528-4.9,2.931-6.907Z" transform="translate(-219.401 15.086)" fill="#5c75c3"/>
          <path id="Trazado_113890" data-name="Trazado 113890" d="M351.655,134.313c.158,2.275-.652,4.506-.516,6.856,3.566.477,6.566,1.157,10.236.97-.853-2.145-2.74-2.547-4.7-3.834-3.164-2.062-1.654-3.5-2.791-6.454Z" transform="translate(-199.007 14.204)" fill="#5c75c3"/>
          <path id="Trazado_113891" data-name="Trazado 113891" d="M346.037,93.542l-12.414,81.629,7.262.067,15.83-63.518L368.3,176.539l5.675-.394s.436-37.071.217-48.585.434-27.513-4.579-34.343C369.614,93.217,353,97.38,346.037,93.542Z" transform="translate(-217.027 -25.578)" fill="#3d4166"/>
          <path id="Trazado_113892" data-name="Trazado 113892" d="M354.443,76.63c-.445-.055-.978-.1-1.61-.191a7.264,7.264,0,0,1-5.525-3.4c-.4-.562-2.259-5.044-2.793-5.064-2.007-.087-5.32-.375-6.574,1.336-1.3,1.766-.422,5.856-.913,7.954-.27,1.143-1.256,2.048-1.577,3.091-1.252,4.112,3.889,9.95,5.665,13.408,1.161,2.251,2.391,6.45,5.255,7.374,6.284,2.022,8.421-11.76,8.955-14.874.377-2.168,1.143-4.35,1.153-6.55C356.491,77.111,355.991,76.817,354.443,76.63Z" transform="translate(-215.345 -51.65)" fill="#ad704d"/>
          <path id="Trazado_113893" data-name="Trazado 113893" d="M336.13,77.622c.045-.252.1-.426.144-.611.41-2.068-.424-6.122.715-7.853.812-1.23,2.626-1.38,4.24-1.327.773.844,1.689,1.94,2.288,2.62a9.745,9.745,0,0,1-.432,1.2C341.85,74.539,339.051,77.829,336.13,77.622Z" transform="translate(-214.445 -51.727)" fill="#ecb49f" style="mix-blend-mode: multiply;isolation: isolate"/>
          <path id="Trazado_113894" data-name="Trazado 113894" d="M347.057,78.25a8.831,8.831,0,0,0,.852-1.384c1.6-3.286-1.459-9.716-3.6-12.418-2.4-3.022-5.371-3.635-8.379-2.523-7.27,2.685-3.329,16.587,2.231,20.082C341.03,83.812,345.033,80.988,347.057,78.25Z" transform="translate(-218.733 -58.331)" fill="#ad704d"/>
          <path id="Trazado_113895" data-name="Trazado 113895" d="M339.258,69.69a4.947,4.947,0,0,1-5.279,1.279S337.527,76.045,339.258,69.69Z" transform="translate(-216.66 -49.804)" fill="#fff"/>
          <path id="Trazado_113896" data-name="Trazado 113896" d="M350.088,76.259c.211-4.155,1.072-7.011.134-10.581-1.039-3.944-5.825-6.335-9.674-5.677a13.958,13.958,0,0,0-8.5,5.9,6.1,6.1,0,0,0-1.029,5.034c.749,2.572,1.605,2.829,3.085,2.76a9.932,9.932,0,0,0,2.328-.94c.083,4.23,4.794-.045,6.2-.41,3.014-.781,4.388,2.393,6.448,3.8Z" transform="translate(-219.907 -59.893)" fill="#2e3054"/>
          <path id="Trazado_113897" data-name="Trazado 113897" d="M360.5,93.988c1.839,2.227,9.073,8.785,8.849,9.176s-4.208-2.482-4.953-3.012c.451.735,3.55,4.2,3.136,4.526s-5.62-4.626-7.1-5.48c-.114.477,1.731,3.294,1.167,3.333-1.815.13-7.017-8.74-3.233-9.458C358.37,93.072,358.662,91.757,360.5,93.988Z" transform="translate(-192.931 -26.123)" fill="#ad704d"/>
          <path id="Trazado_113898" data-name="Trazado 113898" d="M330,97.257c-1.338,2.88-7.207,11.862-6.858,12.215s3.783-3.81,4.425-4.579c-.272.909-2.608,5.452-2.076,5.683s4.695-6.477,6.024-7.794c.252.471-.926,3.978-.317,3.867,1.967-.369,5.034-11.245.814-10.954C332.008,95.694,331.328,94.373,330,97.257Z" transform="translate(-227.838 -23.338)" fill="#ad704d"/>
          <path id="Trazado_113899" data-name="Trazado 113899" d="M351.846,121.74c-.942-4.877-5.216-20.533-5.8-24.777l-5.835,10.656c-1.752,3.183-8.251,16.311-9.134,17L326,122.081c.658-.763,5.429-15.071,5.835-15.984,2.03-4.567,3.808-10.508,5.835-16.491,1.965-5.783.41-11.756,8.348-15l2.986.962,4.735,1.522,6.189-5.164s7.477-1.632,12.513,3.158S380.126,85.96,384.606,93c3.363,5.281,6.519,19.491,8.612,22.057L388.062,118c-.851-1.3-2.6-9.771-17.283-31.257,0,0,9.607,28.087,9.909,30.628,0,0-5.367-.767-13.968,1.3S351.846,121.74,351.846,121.74Z" transform="translate(-224.876 -47.778)" fill="#bfd4f8"/>
          <path id="Trazado_113955" data-name="Trazado 113955" d="M340.7,74.5l-2.03,4.4,3.045,1.015,1.691,32.475,6.089,6.089,2.369-6.427-8.119-32.137,2.03-2.706-4.652-3.045Z" transform="translate(-211.833 -45.193)" fill="#5b8cee"/>
          <path id="Trazado_113956" data-name="Trazado 113956" d="M343.7,74.5l-2.03,4.4-5.921-4.735,5.582,3.552Z" transform="translate(-214.837 -45.193)" fill="#848fb2"/>
          <path id="Trazado_113957" data-name="Trazado 113957" d="M340.333,76.477l3.982,2.72,2.446-6.864L344.1,77.986Z" transform="translate(-210.117 -47.081)" fill="#848fb2"/>
          <path id="Trazado_113958" data-name="Trazado 113958" d="M337.1,72.349l-1.762,2.168,7.274,1.522Z" transform="translate(-215.266 -47.065)" fill="#bfd4f8"/>
          <path id="Trazado_113959" data-name="Trazado 113959" d="M340.5,76.37l2.959-5.328,4.821,1.269-7.95,4.735Z" transform="translate(-210.118 -48.411)" fill="#bfd4f8"/>
        </g>
        <path id="Trazado_113960" data-name="Trazado 113960" d="M248.744,242.8,267.5,285.827s-33.8,9.564-55.168,1.472c0,0,4.663-18.02,4.663-25.378s2.472-18.316,11.153-28.5l19.861,3.679Z" transform="translate(-194.714 59.28)" fill="#0b1238"/>
        <g id="Grupo_78718" data-name="Grupo 78718" transform="translate(190.653 288.536)">
          <g id="Grupo_78696" data-name="Grupo 78696" transform="translate(3.356 2.821)">
            <path id="Trazado_196320" data-name="Trazado 196320" d="M37.725,0A37.725,37.725,0,1,1,0,37.725,37.725,37.725,0,0,1,37.725,0Z" transform="translate(0 0)" fill="#c19df1"/>
            <path id="Trazado_113961" data-name="Trazado 113961" d="M430.223,184.926a28.941,28.941,0,1,0,28.946-28.946A28.946,28.946,0,0,0,430.223,184.926Z" transform="translate(-421.445 -147.199)" fill="#fff"/>
            <ellipse id="Elipse_4725" data-name="Elipse 4725" cx="20.56" cy="20.56" rx="20.56" ry="20.56" transform="translate(17.165 17.165)" fill="#c19df1"/>
            <path id="Trazado_113962" data-name="Trazado 113962" d="M433.728,171.266a11.778,11.778,0,1,0,11.78-11.78A11.781,11.781,0,0,0,433.728,171.266Z" transform="translate(-407.784 -133.539)" fill="#fff"/>
            <path id="Trazado_113963" data-name="Trazado 113963" d="M435.2,165.547a4.59,4.59,0,1,0,4.588-4.592A4.592,4.592,0,0,0,435.2,165.547Z" transform="translate(-402.059 -127.82)" fill="#c19df1"/>
          </g>
          <g id="Grupo_78697" data-name="Grupo 78697" transform="translate(0 0)">
            <path id="Trazado_113964" data-name="Trazado 113964" d="M435.684,166.04l9.524,3.945-3.949-9.52Z" transform="translate(-401.928 -126.905)" fill="#2a2b7c"/>
            <rect id="Rectángulo_33914" data-name="Rectángulo 33914" width="48.143" height="1.364" transform="matrix(-0.707, -0.707, 0.707, -0.707, 38.857, 39.808)" fill="#2a2b7c"/>
            <path id="Trazado_113965" data-name="Trazado 113965" d="M447.009,154.827l-5,.388,7.315,7.306,5-.382Z" transform="translate(-442.008 -148.87)" fill="#7ab6f6"/>
            <path id="Trazado_113966" data-name="Trazado 113966" d="M441.734,158.607l.382-5,7.306,7.305-.382,5Z" transform="translate(-435.767 -153.61)" fill="#7ab6f6"/>
          </g>
        </g>
        <g id="Grupo_78702" data-name="Grupo 78702" transform="translate(77.776 106.102)">
          <g id="Grupo_78698" data-name="Grupo 78698">
            <path id="Trazado_113967" data-name="Trazado 113967" d="M316.787,118.432a22.6,22.6,0,1,1-27.9-15.6A22.6,22.6,0,0,1,316.787,118.432Z" transform="translate(-272.431 -101.972)" fill="#b7cae4"/>
          </g>
          <g id="Grupo_78701" data-name="Grupo 78701" transform="translate(5.258 10.262)">
            <path id="Trazado_113968" data-name="Trazado 113968" d="M289.233,117.676l-1.972.561-.628-2.212a4.457,4.457,0,0,0,1.662-4.04,1.1,1.1,0,0,0,.187-.039,1.063,1.063,0,0,0,.794-1.277l-.413-1.464a1.066,1.066,0,0,0-1.344-.674.927.927,0,0,0-.141.049l-.166-.568a4.846,4.846,0,0,0-9.289,2.625l.162.575a.632.632,0,0,0-.159.032,1.068,1.068,0,0,0-.8,1.277l.42,1.464a1.062,1.062,0,0,0,1.341.674.936.936,0,0,0,.19-.074,4.464,4.464,0,0,0,3.517,2.575l.628,2.216-1.972.557a4.463,4.463,0,0,0-3.316,5.363l1.732,6.135L296.6,126.64l-1.732-6.135A4.479,4.479,0,0,0,289.233,117.676Z" transform="translate(-265.898 -104.88)" fill="#fff"/>
            <g id="Grupo_78700" data-name="Grupo 78700" transform="translate(0 7.046)">
              <g id="Grupo_78699" data-name="Grupo 78699" transform="translate(3.749 2.416)">
                <rect id="Rectángulo_33915" data-name="Rectángulo 33915" width="1.192" height="18.858" transform="translate(0 0.324) rotate(-15.764)" fill="#fff"/>
              </g>
              <path id="Trazado_113969" data-name="Trazado 113969" d="M273.921,113.555l3.266-6.677,6.278,3.98Z" transform="translate(-273.921 -106.877)" fill="#fff"/>
            </g>
          </g>
        </g>
        <g id="Grupo_78706" data-name="Grupo 78706" transform="translate(349.655 94.881)">
          <path id="Trazado_113970" data-name="Trazado 113970" d="M424.389,89,414.12,81.683l-4.37,14.305,22.881,6.988L437,88.67Z" transform="translate(-402.731 -70.356)" fill="#b0bcd8"/>
          <path id="Trazado_113971" data-name="Trazado 113971" d="M429.224,93.73,406.938,77.858l27.353-.714,22.287,15.874Z" transform="translate(-406.938 -77.144)" fill="#b0bcd8"/>
          <path id="Trazado_113972" data-name="Trazado 113972" d="M420.762,81.773c-.177.584-1.388.729-2.705.327s-2.233-1.2-2.056-1.779,1.387-.731,2.7-.329S420.941,81.192,420.762,81.773Z" transform="translate(-393.417 -73.224)" fill="#fff"/>
          <g id="Grupo_78705" data-name="Grupo 78705" transform="translate(25.311 7.272)">
            <g id="Grupo_78703" data-name="Grupo 78703" transform="translate(15.614 21.217)">
              <path id="Trazado_113973" data-name="Trazado 113973" d="M428.255,97.054l1.031-7.738-1.1-.338-.276-.083-1.1-.336-3.47,6.992Z" transform="translate(-423.337 -88.56)" fill="#8ca7f6"/>
            </g>
            <path id="Trazado_113974" data-name="Trazado 113974" d="M428.138,89.981a1.8,1.8,0,1,1-1.176-2.3A1.831,1.831,0,0,1,428.138,89.981Z" transform="translate(-405.815 -68.777)" fill="#8ca7f6"/>
            <g id="Grupo_78704" data-name="Grupo 78704">
              <path id="Trazado_113975" data-name="Trazado 113975" d="M435.734,105.7l4.452-16.293-23.106-8.46.324-.888,23.5,8.6a.46.46,0,0,1,.277.564l-4.567,16.715Z" transform="translate(-417.08 -80.058)" fill="#8ca7f6"/>
            </g>
          </g>
        </g>
        <ellipse id="Elipse_4726" data-name="Elipse 4726" cx="6.653" cy="6.653" rx="6.653" ry="6.653" transform="translate(282.476 118.558)" fill="#cbcfff" opacity="0.6"/>
        <g id="Grupo_78722" data-name="Grupo 78722" transform="translate(270.051 130.786)">
          <g id="Grupo_78714" data-name="Grupo 78714">
            <path id="Trazado_113982" data-name="Trazado 113982" d="M466,146.173A22.474,22.474,0,1,1,443.527,123.7,22.477,22.477,0,0,1,466,146.173Z" transform="translate(-421.051 -123.7)" fill="#bfd4f8"/>
            <g id="Grupo_78713" data-name="Grupo 78713" transform="translate(3.461 8.664)">
              <g id="Grupo_78712" data-name="Grupo 78712">
                <rect id="Rectángulo_33917" data-name="Rectángulo 33917" width="24.026" height="15.975" transform="matrix(0.707, -0.707, 0.707, 0.707, 6.805, 18.339)" fill="#ecb49f"/>
                <path id="Trazado_113983" data-name="Trazado 113983" d="M434.581,140.522a1.59,1.59,0,0,1,0,2.245h0a1.591,1.591,0,0,1-2.242,0l-4.4-4.4a1.586,1.586,0,0,1,0-2.242h0a1.586,1.586,0,0,1,2.242,0Z" transform="translate(-413.945 -112.698)" fill="#c4846e"/>
                <path id="Trazado_113984" data-name="Trazado 113984" d="M435.727,139.382a1.591,1.591,0,0,1,0,2.242h0a1.593,1.593,0,0,1-2.248,0l-4.395-4.4a1.581,1.581,0,0,1,0-2.242h0a1.582,1.582,0,0,1,2.242,0Z" transform="translate(-412.069 -114.576)" fill="#c4846e"/>
                <path id="Trazado_113985" data-name="Trazado 113985" d="M436.864,138.241a1.581,1.581,0,0,1,0,2.242h0a1.583,1.583,0,0,1-2.24,0l-4.4-4.4a1.586,1.586,0,0,1,0-2.242h0a1.586,1.586,0,0,1,2.242,0Z" transform="translate(-410.192 -116.452)" fill="#c4846e"/>
                <path id="Trazado_113986" data-name="Trazado 113986" d="M438.006,137.1a1.591,1.591,0,0,1,0,2.242h0a1.59,1.59,0,0,1-2.245,0l-4.395-4.4a1.586,1.586,0,0,1,0-2.242h0a1.583,1.583,0,0,1,2.24,0Z" transform="translate(-408.314 -118.328)" fill="#c4846e"/>
                <rect id="Rectángulo_33918" data-name="Rectángulo 33918" width="15.976" height="17.439" transform="translate(2.657 14.328) rotate(-44.993)" fill="#c4846e"/>
                <path id="Trazado_113987" data-name="Trazado 113987" d="M428.336,144.391,422.945,139a2,2,0,0,1,0-2.824l8.472-8.472a2,2,0,0,1,2.824,0l5.394,5.389Z" transform="translate(-422.36 -126.743)" fill="#5c61c3"/>
                <path id="Trazado_113988" data-name="Trazado 113988" d="M427.1,137.7a1.585,1.585,0,0,1-2.245,0h0a1.583,1.583,0,0,1,0-2.24l1.423-1.423a1.585,1.585,0,0,1,2.245,0h0a1.586,1.586,0,0,1,0,2.242Z" transform="translate(-419.024 -116.141)" fill="#ecb49f"/>
                <path id="Trazado_113989" data-name="Trazado 113989" d="M428.221,138.82a1.581,1.581,0,0,1-2.242,0h0a1.586,1.586,0,0,1,0-2.242l1.42-1.42a1.585,1.585,0,0,1,2.245,0h0a1.583,1.583,0,0,1,0,2.24Z" transform="translate(-417.173 -114.291)" fill="#ecb49f"/>
                <path id="Trazado_113990" data-name="Trazado 113990" d="M429.346,139.947a1.589,1.589,0,0,1-2.245,0h0a1.591,1.591,0,0,1,0-2.242l1.425-1.425a1.588,1.588,0,0,1,2.24,0h0a1.582,1.582,0,0,1,0,2.242Z" transform="translate(-415.324 -112.441)" fill="#ecb49f"/>
                <path id="Trazado_113991" data-name="Trazado 113991" d="M430.471,141.071a1.586,1.586,0,0,1-2.242,0h0a1.586,1.586,0,0,1,0-2.242l1.423-1.423a1.586,1.586,0,0,1,2.242,0h0a1.586,1.586,0,0,1,0,2.242Z" transform="translate(-413.473 -110.59)" fill="#ecb49f"/>
                <path id="Trazado_113992" data-name="Trazado 113992" d="M430.1,131.648l4.281-4.281a1.83,1.83,0,0,1,2.533.291l8.475,8.475a1.824,1.824,0,0,1,.288,2.531l-4.281,4.281Z" transform="translate(-409.63 -126.977)" fill="#7ab6f6"/>
                <path id="Trazado_113993" data-name="Trazado 113993" d="M431.854,129.951l-3.26,3.263-.024.026a2.429,2.429,0,0,0-.735,2.179l.772,4.548a2.437,2.437,0,0,0,4.8-.814l-.37-2.171a1.777,1.777,0,0,1,.426-1.832c.1-.1,1.83-1.756,1.83-1.756a2.434,2.434,0,0,0-3.443-3.443Z" transform="translate(-413.413 -123.257)" fill="#ecb49f"/>
                <path id="Trazado_113994" data-name="Trazado 113994" d="M428.34,133.012l.09,1.066a1.471,1.471,0,0,0,1.594,1.338l.4-.034a1.469,1.469,0,0,0,1.341-1.592l-.09-1.066Z" transform="translate(-412.527 -117.527)" fill="#fff"/>
              </g>
              <ellipse id="Elipse_4727" data-name="Elipse 4727" cx="1.402" cy="1.402" rx="1.402" ry="1.402" transform="translate(2.992 9.754)" fill="#5c61c3"/>
            </g>
          </g>
        </g>
        <g id="Grupo_78675" data-name="Grupo 78675" transform="translate(190 165.763)">
          <g id="Grupo_78671" data-name="Grupo 78671">
            <path id="Trazado_113835" data-name="Trazado 113835" d="M435.346,240.843l-37.481-16.051,19.432-45.37,28.112,12.042,5.4,13.265Z" transform="translate(-397.864 -179.421)" fill="#fff"/>
            <path id="Trazado_113836" data-name="Trazado 113836" d="M413.34,192.952l9.367,4.011L417.3,183.7Z" transform="translate(-369.759 -171.656)" fill="#7ab6f6"/>
          </g>
          <g id="Grupo_78672" data-name="Grupo 78672" transform="translate(29.467 19.1)">
            <rect id="Rectángulo_33906" data-name="Rectángulo 33906" width="1.51" height="16.4" transform="translate(1.483 1.388) rotate(-66.814)" fill="#7ab6f6"/>
            <path id="Trazado_113837" data-name="Trazado 113837" d="M423.4,195.281l-15.074-6.457.591-1.387,15.073,6.457Z" transform="translate(-408.328 -183.966)" fill="#7ab6f6"/>
          </g>
          <rect id="Rectángulo_33907" data-name="Rectángulo 33907" width="7.653" height="7.397" transform="translate(17.192 19.662) rotate(-66.827)" fill="#fa7071"/>
          <path id="Trazado_113838" data-name="Trazado 113838" d="M412.143,185.626l-4.706,1.881-1.125-2.805-1.5.6,1.125,2.807-.011,0,.6,1.5,6.218-2.488Z" transform="translate(-385.247 -169.832)" fill="#fff"/>
          <g id="Grupo_78673" data-name="Grupo 78673" transform="translate(24.603 30.449)">
            <rect id="Rectángulo_33908" data-name="Rectángulo 33908" width="1.511" height="16.4" transform="translate(1.49 1.389) rotate(-66.811)" fill="#7ab6f6"/>
            <path id="Trazado_113839" data-name="Trazado 113839" d="M421.677,199.312,406.6,192.857l.6-1.39,15.073,6.457Z" transform="translate(-406.601 -187.996)" fill="#7ab6f6"/>
          </g>
          <rect id="Rectángulo_33909" data-name="Rectángulo 33909" width="7.654" height="7.398" transform="translate(12.328 31.013) rotate(-66.828)" fill="#fa7071"/>
          <path id="Trazado_113840" data-name="Trazado 113840" d="M410.417,189.655l-4.705,1.882-1.122-2.805-1.5.6,1.122,2.805-.008,0,.6,1.5,6.218-2.488Z" transform="translate(-388.383 -162.511)" fill="#fff"/>
          <g id="Grupo_78674" data-name="Grupo 78674" transform="translate(19.744 41.801)">
            <path id="Trazado_113841" data-name="Trazado 113841" d="M420.48,202.11,405.4,195.652l.591-1.387,15.076,6.456Z" transform="translate(-403.917 -194.265)" fill="#7ab6f6"/>
            <rect id="Rectángulo_33910" data-name="Rectángulo 33910" width="1.509" height="16.399" transform="matrix(0.394, -0.919, 0.919, 0.394, 0, 4.858)" fill="#7ab6f6"/>
          </g>
          <rect id="Rectángulo_33911" data-name="Rectángulo 33911" width="7.651" height="7.396" transform="translate(7.468 42.36) rotate(-66.802)" fill="#bfd4f8"/>
          <path id="Trazado_113842" data-name="Trazado 113842" d="M413.34,192.952l9.367,4.011L417.3,183.7Z" transform="translate(-369.759 -171.656)" fill="#364e57"/>
        </g>
        <g id="Grupo_78670" data-name="Grupo 78670" transform="translate(67.332 158.432)">
          <rect id="Rectángulo_33902" data-name="Rectángulo 33902" width="40.626" height="53.156" transform="matrix(0.932, -0.362, 0.362, 0.932, 0, 14.695)" fill="#bfd4f8"/>
          <rect id="Rectángulo_33903" data-name="Rectángulo 33903" width="4.352" height="15.998" transform="translate(16.384 42.241) rotate(-21.166)" fill="#fa9a95"/>
          <rect id="Rectángulo_33904" data-name="Rectángulo 33904" width="4.358" height="26.476" transform="translate(19.854 29.663) rotate(-21.217)" fill="#fff"/>
          <path id="Trazado_113834" data-name="Trazado 113834" d="M280.2,179.789l-4.068,1.569-13.65-35.2,4.054-1.579Z" transform="translate(-239.444 -129.833)" fill="#7f4fc7"/>
          <rect id="Rectángulo_33905" data-name="Rectángulo 33905" width="4.355" height="28.532" transform="translate(33.63 22.121) rotate(-21.289)" fill="#2a2b7c"/>
        </g>
        <g id="Grupo_78678" data-name="Grupo 78678" transform="translate(30.507 187.798)">
          <g id="Grupo_78676" data-name="Grupo 78676" transform="translate(0 4.86)">
            <path id="Trazado_113843" data-name="Trazado 113843" d="M419.949,133.2a12.815,12.815,0,0,1-2.9-.332,13.043,13.043,0,1,1,5.8-25.435.981.981,0,0,1-.433,1.914,11.065,11.065,0,1,0,8.237,7.916.982.982,0,0,1,1.9-.512,13.067,13.067,0,0,1-12.6,16.448Z" transform="translate(-406.903 -107.109)" fill="#fa7071"/>
          </g>
          <g id="Grupo_78677" data-name="Grupo 78677" transform="translate(4.802 0)">
            <path id="Trazado_113844" data-name="Trazado 113844" d="M416.838,125.965a.964.964,0,0,1-.658-.253l-7.114-6.436a.98.98,0,1,1,1.313-1.454l6.383,5.773,16.142-18.02a.98.98,0,1,1,1.462,1.305l-16.8,18.761a1,1,0,0,1-.684.324Z" transform="translate(-408.742 -105.248)" fill="#fa7071"/>
          </g>
        </g>
      </g>
    </g>
  </g>
</svg>
