<svg xmlns="http://www.w3.org/2000/svg" xmlns:xlink="http://www.w3.org/1999/xlink" width="380.347" height="359.781" viewBox="0 0 380.347 359.781">
  <defs>
    <clipPath id="clip-path">
      <path id="Trazado_194907" data-name="Trazado 194907" d="M114.318,110.492A57.159,57.159,0,1,1,57.159,53.333a57.158,57.158,0,0,1,57.159,57.159" transform="translate(0 -53.333)" fill="#7f4fc7"/>
    </clipPath>
  </defs>
  <g id="Grupo_154328" data-name="Grupo 154328" transform="translate(-184.494 -2768.194)">
    <g id="Grupo_152570" data-name="Grupo 152570" transform="translate(184.494 2776.782)">
      <g id="Grupo_152551" data-name="Grupo 152551" transform="translate(0 137.439) rotate(-90)">
        <rect id="Rectángulo_45220" data-name="Rectángulo 45220" width="122.075" height="36.351" transform="translate(122.988 52.566) rotate(180)" fill="#e8e8e8"/>
        <g id="Grupo_152556" data-name="Grupo 152556" transform="translate(0 0)">
          <rect id="Rectángulo_45221" data-name="Rectángulo 45221" width="6.177" height="6.177" transform="translate(131.262 0)" fill="#1894f6"/>
          <rect id="Rectángulo_45222" data-name="Rectángulo 45222" width="6.177" height="6.177" transform="translate(118.136 0)" fill="#1894f6"/>
          <rect id="Rectángulo_45223" data-name="Rectángulo 45223" width="6.177" height="6.177" transform="translate(105.01 0)" fill="#1894f6"/>
          <rect id="Rectángulo_45224" data-name="Rectángulo 45224" width="6.177" height="6.177" transform="translate(91.884 0)" fill="#1894f6"/>
          <rect id="Rectángulo_45225" data-name="Rectángulo 45225" width="6.177" height="6.177" transform="translate(78.757 0)" fill="#1894f6"/>
          <rect id="Rectángulo_45226" data-name="Rectángulo 45226" width="6.177" height="6.177" transform="translate(65.631 0)" fill="#1894f6"/>
          <rect id="Rectángulo_45227" data-name="Rectángulo 45227" width="6.177" height="6.177" transform="translate(52.505 0)" fill="#1894f6"/>
          <rect id="Rectángulo_45228" data-name="Rectángulo 45228" width="6.177" height="6.177" transform="translate(39.379 0)" fill="#1894f6"/>
          <rect id="Rectángulo_45229" data-name="Rectángulo 45229" width="6.177" height="6.177" transform="translate(26.252 0)" fill="#1894f6"/>
          <rect id="Rectángulo_45230" data-name="Rectángulo 45230" width="6.177" height="6.177" transform="translate(13.126 0)" fill="#1894f6"/>
          <rect id="Rectángulo_45231" data-name="Rectángulo 45231" width="6.177" height="6.177" transform="translate(0 0)" fill="#1894f6"/>
          <rect id="Rectángulo_45232" data-name="Rectángulo 45232" width="6.177" height="6.177" transform="translate(131.262 13.126)" fill="#1894f6"/>
          <rect id="Rectángulo_45233" data-name="Rectángulo 45233" width="6.177" height="6.177" transform="translate(118.136 13.126)" fill="#1894f6"/>
          <rect id="Rectángulo_45234" data-name="Rectángulo 45234" width="6.177" height="6.177" transform="translate(105.01 13.126)" fill="#1894f6"/>
          <rect id="Rectángulo_45235" data-name="Rectángulo 45235" width="6.177" height="6.177" transform="translate(91.884 13.126)" fill="#1894f6"/>
          <rect id="Rectángulo_45236" data-name="Rectángulo 45236" width="6.177" height="6.177" transform="translate(78.757 13.126)" fill="#1894f6"/>
          <rect id="Rectángulo_45237" data-name="Rectángulo 45237" width="6.177" height="6.177" transform="translate(65.631 13.126)" fill="#1894f6"/>
          <rect id="Rectángulo_45238" data-name="Rectángulo 45238" width="6.177" height="6.177" transform="translate(52.505 13.126)" fill="#1894f6"/>
          <rect id="Rectángulo_45239" data-name="Rectángulo 45239" width="6.177" height="6.177" transform="translate(39.379 13.126)" fill="#1894f6"/>
          <rect id="Rectángulo_45240" data-name="Rectángulo 45240" width="6.177" height="6.177" transform="translate(26.252 13.126)" fill="#1894f6"/>
          <rect id="Rectángulo_45241" data-name="Rectángulo 45241" width="6.177" height="6.177" transform="translate(13.126 13.126)" fill="#1894f6"/>
          <rect id="Rectángulo_45242" data-name="Rectángulo 45242" width="6.177" height="6.177" transform="translate(0 13.126)" fill="#1894f6"/>
          <rect id="Rectángulo_45243" data-name="Rectángulo 45243" width="6.177" height="6.177" transform="translate(131.262 26.253)" fill="#1894f6"/>
          <rect id="Rectángulo_45244" data-name="Rectángulo 45244" width="6.177" height="6.177" transform="translate(118.136 26.253)" fill="#1894f6"/>
          <rect id="Rectángulo_45245" data-name="Rectángulo 45245" width="6.177" height="6.177" transform="translate(105.01 26.253)" fill="#1894f6"/>
          <rect id="Rectángulo_45246" data-name="Rectángulo 45246" width="6.177" height="6.177" transform="translate(91.884 26.253)" fill="#1894f6"/>
          <rect id="Rectángulo_45247" data-name="Rectángulo 45247" width="6.177" height="6.177" transform="translate(78.757 26.253)" fill="#1894f6"/>
          <rect id="Rectángulo_45248" data-name="Rectángulo 45248" width="6.177" height="6.177" transform="translate(65.631 26.253)" fill="#1894f6"/>
          <rect id="Rectángulo_45249" data-name="Rectángulo 45249" width="6.177" height="6.177" transform="translate(52.505 26.253)" fill="#1894f6"/>
          <rect id="Rectángulo_45250" data-name="Rectángulo 45250" width="6.177" height="6.177" transform="translate(39.379 26.253)" fill="#1894f6"/>
          <rect id="Rectángulo_45251" data-name="Rectángulo 45251" width="6.177" height="6.177" transform="translate(26.252 26.253)" fill="#1894f6"/>
          <rect id="Rectángulo_45252" data-name="Rectángulo 45252" width="6.177" height="6.177" transform="translate(13.126 26.253)" fill="#1894f6"/>
          <rect id="Rectángulo_45253" data-name="Rectángulo 45253" width="6.177" height="6.177" transform="translate(0 26.253)" fill="#1894f6"/>
        </g>
      </g>
    </g>
    <g id="Grupo_154327" data-name="Grupo 154327" transform="translate(1585.961 12193.488)">
      <g id="Grupo_152803" data-name="Grupo 152803" transform="translate(-1220.662 -9122.864)">
        <path id="Trazado_195058" data-name="Trazado 195058" d="M81.36,227.726H14.988a2.488,2.488,0,1,1,0-4.975H81.36a2.488,2.488,0,1,1,0,4.975" transform="translate(44.622 -222.751)" fill="#3cafff"/>
        <path id="Trazado_195059" data-name="Trazado 195059" d="M101.7,227.726H84.949a2.488,2.488,0,1,1,0-4.975H101.7a2.488,2.488,0,1,1,0,4.975" transform="translate(-53.174 -222.751)" fill="#3cafff"/>
        <path id="Trazado_195064" data-name="Trazado 195064" d="M85.022,232.612h46.622a1.748,1.748,0,0,1,0,3.5H85.022a1.748,1.748,0,0,1,0-3.5" transform="translate(-83.275 -221.695)" fill="#3cafff"/>
        <path id="Trazado_195065" data-name="Trazado 195065" d="M67.362,232.612H79.131a1.748,1.748,0,0,1,0,3.5H67.362a1.748,1.748,0,1,1,0-3.5" transform="translate(-11.21 -221.695)" fill="#3cafff"/>
      </g>
      <g id="Grupo_152805" data-name="Grupo 152805" transform="translate(-1156.427 -9138.51)">
        <path id="Trazado_195062" data-name="Trazado 195062" d="M114.907,1.333h78.353c1.622,0,2.936.783,2.936,1.747s-1.314,1.748-2.936,1.748H114.907c-1.622,0-2.938-.783-2.938-1.748s1.315-1.747,2.938-1.747" transform="translate(-111.969 -1.333)" fill="#12263f"/>
        <path id="Trazado_195063" data-name="Trazado 195063" d="M98.873,1.333h30.75c2.522,0,4.564.783,4.564,1.747s-2.042,1.748-4.564,1.748H98.873c-2.522,0-4.564-.783-4.564-1.748s2.042-1.747,4.564-1.747" transform="translate(1.12 -1.333)" fill="#12263f"/>
      </g>
    </g>
    <g id="Grupo_152769" data-name="Grupo 152769" transform="translate(387.837 2768.194)">
      <g id="Grupo_152768" data-name="Grupo 152768" transform="translate(0 0)" clip-path="url(#clip-path)">
        <path id="Trazado_194826" data-name="Trazado 194826" d="M0,54.837a1.5,1.5,0,1,1,1.5,1.505A1.5,1.5,0,0,1,0,54.837" transform="translate(111.309 -53.333)" fill="#7f4fc7"/>
        <path id="Trazado_194827" data-name="Trazado 194827" d="M8.272,54.837a1.5,1.5,0,1,1,1.5,1.505,1.5,1.5,0,0,1-1.5-1.505" transform="translate(89.124 -53.333)" fill="#7f4fc7"/>
        <path id="Trazado_194828" data-name="Trazado 194828" d="M16.545,54.837a1.5,1.5,0,1,1,1.5,1.505,1.5,1.5,0,0,1-1.5-1.505" transform="translate(66.937 -53.333)" fill="#7f4fc7"/>
        <path id="Trazado_194829" data-name="Trazado 194829" d="M24.818,54.837a1.5,1.5,0,1,1,1.5,1.505,1.5,1.5,0,0,1-1.5-1.505" transform="translate(44.75 -53.333)" fill="#7f4fc7"/>
        <path id="Trazado_194830" data-name="Trazado 194830" d="M33.09,54.837a1.5,1.5,0,1,1,1.5,1.505,1.5,1.5,0,0,1-1.5-1.505" transform="translate(22.565 -53.333)" fill="#7f4fc7"/>
        <path id="Trazado_194831" data-name="Trazado 194831" d="M41.363,54.837a1.5,1.5,0,1,1,1.5,1.505,1.5,1.5,0,0,1-1.5-1.505" transform="translate(0.378 -53.333)" fill="#7f4fc7"/>
        <path id="Trazado_194832" data-name="Trazado 194832" d="M49.635,54.837a1.5,1.5,0,1,1,1.5,1.505,1.5,1.5,0,0,1-1.5-1.505" transform="translate(-21.806 -53.333)" fill="#7f4fc7"/>
        <path id="Trazado_194833" data-name="Trazado 194833" d="M57.908,54.837a1.5,1.5,0,1,1,1.5,1.505,1.505,1.505,0,0,1-1.5-1.505" transform="translate(-43.994 -53.333)" fill="#7f4fc7"/>
        <path id="Trazado_194834" data-name="Trazado 194834" d="M66.181,54.837a1.5,1.5,0,1,1,1.5,1.505,1.5,1.5,0,0,1-1.5-1.505" transform="translate(-66.181 -53.333)" fill="#7f4fc7"/>
        <path id="Trazado_194835" data-name="Trazado 194835" d="M0,63.11a1.5,1.5,0,1,1,1.5,1.5A1.5,1.5,0,0,1,0,63.11" transform="translate(111.309 -47.692)" fill="#7f4fc7"/>
        <path id="Trazado_194836" data-name="Trazado 194836" d="M8.272,63.11a1.5,1.5,0,1,1,1.5,1.5,1.5,1.5,0,0,1-1.5-1.5" transform="translate(89.124 -47.692)" fill="#7f4fc7"/>
        <path id="Trazado_194837" data-name="Trazado 194837" d="M16.545,63.11a1.5,1.5,0,1,1,1.5,1.5,1.5,1.5,0,0,1-1.5-1.5" transform="translate(66.937 -47.692)" fill="#7f4fc7"/>
        <path id="Trazado_194838" data-name="Trazado 194838" d="M24.818,63.11a1.5,1.5,0,1,1,1.5,1.5,1.5,1.5,0,0,1-1.5-1.5" transform="translate(44.75 -47.692)" fill="#7f4fc7"/>
        <path id="Trazado_194839" data-name="Trazado 194839" d="M33.09,63.11a1.5,1.5,0,1,1,1.5,1.5,1.5,1.5,0,0,1-1.5-1.5" transform="translate(22.565 -47.692)" fill="#7f4fc7"/>
        <path id="Trazado_194840" data-name="Trazado 194840" d="M41.363,63.11a1.5,1.5,0,1,1,1.5,1.5,1.5,1.5,0,0,1-1.5-1.5" transform="translate(0.378 -47.692)" fill="#7f4fc7"/>
        <path id="Trazado_194841" data-name="Trazado 194841" d="M49.635,63.11a1.5,1.5,0,1,1,1.5,1.5,1.5,1.5,0,0,1-1.5-1.5" transform="translate(-21.806 -47.692)" fill="#7f4fc7"/>
        <path id="Trazado_194842" data-name="Trazado 194842" d="M57.908,63.11a1.5,1.5,0,1,1,1.5,1.5,1.5,1.5,0,0,1-1.5-1.5" transform="translate(-43.994 -47.692)" fill="#7f4fc7"/>
        <path id="Trazado_194843" data-name="Trazado 194843" d="M66.181,63.11a1.5,1.5,0,1,1,1.5,1.5,1.5,1.5,0,0,1-1.5-1.5" transform="translate(-66.181 -47.692)" fill="#7f4fc7"/>
        <path id="Trazado_194844" data-name="Trazado 194844" d="M0,71.383a1.5,1.5,0,1,1,1.5,1.5,1.5,1.5,0,0,1-1.5-1.5" transform="translate(111.309 -42.051)" fill="#7f4fc7"/>
        <path id="Trazado_194845" data-name="Trazado 194845" d="M8.272,71.383a1.5,1.5,0,1,1,1.5,1.5,1.5,1.5,0,0,1-1.5-1.5" transform="translate(89.124 -42.051)" fill="#7f4fc7"/>
        <path id="Trazado_194846" data-name="Trazado 194846" d="M16.545,71.383a1.5,1.5,0,1,1,1.5,1.5,1.5,1.5,0,0,1-1.5-1.5" transform="translate(66.937 -42.051)" fill="#7f4fc7"/>
        <path id="Trazado_194847" data-name="Trazado 194847" d="M24.818,71.383a1.5,1.5,0,1,1,1.5,1.5,1.5,1.5,0,0,1-1.5-1.5" transform="translate(44.75 -42.051)" fill="#7f4fc7"/>
        <path id="Trazado_194848" data-name="Trazado 194848" d="M33.09,71.383a1.5,1.5,0,1,1,1.5,1.5,1.5,1.5,0,0,1-1.5-1.5" transform="translate(22.565 -42.051)" fill="#7f4fc7"/>
        <path id="Trazado_194849" data-name="Trazado 194849" d="M41.363,71.383a1.5,1.5,0,1,1,1.5,1.5,1.5,1.5,0,0,1-1.5-1.5" transform="translate(0.378 -42.051)" fill="#7f4fc7"/>
        <path id="Trazado_194850" data-name="Trazado 194850" d="M49.635,71.383a1.5,1.5,0,1,1,1.5,1.5,1.5,1.5,0,0,1-1.5-1.5" transform="translate(-21.806 -42.051)" fill="#7f4fc7"/>
        <path id="Trazado_194851" data-name="Trazado 194851" d="M57.908,71.383a1.5,1.5,0,1,1,1.5,1.5,1.5,1.5,0,0,1-1.5-1.5" transform="translate(-43.994 -42.051)" fill="#7f4fc7"/>
        <path id="Trazado_194852" data-name="Trazado 194852" d="M66.181,71.383a1.5,1.5,0,1,1,1.5,1.5,1.5,1.5,0,0,1-1.5-1.5" transform="translate(-66.181 -42.051)" fill="#7f4fc7"/>
        <path id="Trazado_194853" data-name="Trazado 194853" d="M0,79.655a1.5,1.5,0,1,1,1.5,1.5,1.5,1.5,0,0,1-1.5-1.5" transform="translate(111.309 -36.41)" fill="#7f4fc7"/>
        <path id="Trazado_194854" data-name="Trazado 194854" d="M8.272,79.655a1.5,1.5,0,1,1,1.5,1.5,1.5,1.5,0,0,1-1.5-1.5" transform="translate(89.124 -36.41)" fill="#7f4fc7"/>
        <path id="Trazado_194855" data-name="Trazado 194855" d="M16.545,79.655a1.5,1.5,0,1,1,1.5,1.5,1.5,1.5,0,0,1-1.5-1.5" transform="translate(66.937 -36.41)" fill="#7f4fc7"/>
        <path id="Trazado_194856" data-name="Trazado 194856" d="M24.818,79.655a1.5,1.5,0,1,1,1.5,1.5,1.5,1.5,0,0,1-1.5-1.5" transform="translate(44.75 -36.41)" fill="#7f4fc7"/>
        <path id="Trazado_194857" data-name="Trazado 194857" d="M33.09,79.655a1.5,1.5,0,1,1,1.5,1.5,1.5,1.5,0,0,1-1.5-1.5" transform="translate(22.565 -36.41)" fill="#7f4fc7"/>
        <path id="Trazado_194858" data-name="Trazado 194858" d="M41.363,79.655a1.5,1.5,0,1,1,1.5,1.5,1.5,1.5,0,0,1-1.5-1.5" transform="translate(0.378 -36.41)" fill="#7f4fc7"/>
        <path id="Trazado_194859" data-name="Trazado 194859" d="M49.635,79.655a1.5,1.5,0,1,1,1.5,1.5,1.5,1.5,0,0,1-1.5-1.5" transform="translate(-21.806 -36.41)" fill="#7f4fc7"/>
        <path id="Trazado_194860" data-name="Trazado 194860" d="M57.908,79.655a1.5,1.5,0,1,1,1.5,1.5,1.5,1.5,0,0,1-1.5-1.5" transform="translate(-43.994 -36.41)" fill="#7f4fc7"/>
        <path id="Trazado_194861" data-name="Trazado 194861" d="M66.181,79.655a1.5,1.5,0,1,1,1.5,1.5,1.5,1.5,0,0,1-1.5-1.5" transform="translate(-66.181 -36.41)" fill="#7f4fc7"/>
        <path id="Trazado_194862" data-name="Trazado 194862" d="M0,87.928a1.5,1.5,0,1,1,1.5,1.505A1.5,1.5,0,0,1,0,87.928" transform="translate(111.309 -30.769)" fill="#7f4fc7"/>
        <path id="Trazado_194863" data-name="Trazado 194863" d="M8.272,87.928a1.5,1.5,0,1,1,1.5,1.505,1.5,1.5,0,0,1-1.5-1.505" transform="translate(89.124 -30.769)" fill="#7f4fc7"/>
        <path id="Trazado_194864" data-name="Trazado 194864" d="M16.545,87.928a1.5,1.5,0,1,1,1.5,1.505,1.5,1.5,0,0,1-1.5-1.505" transform="translate(66.937 -30.769)" fill="#7f4fc7"/>
        <path id="Trazado_194865" data-name="Trazado 194865" d="M24.818,87.928a1.5,1.5,0,1,1,1.5,1.505,1.5,1.5,0,0,1-1.5-1.505" transform="translate(44.75 -30.769)" fill="#7f4fc7"/>
        <path id="Trazado_194866" data-name="Trazado 194866" d="M33.09,87.928a1.5,1.5,0,1,1,1.5,1.505,1.5,1.5,0,0,1-1.5-1.505" transform="translate(22.565 -30.769)" fill="#7f4fc7"/>
        <path id="Trazado_194867" data-name="Trazado 194867" d="M41.363,87.928a1.5,1.5,0,1,1,1.5,1.505,1.5,1.5,0,0,1-1.5-1.505" transform="translate(0.378 -30.769)" fill="#7f4fc7"/>
        <path id="Trazado_194868" data-name="Trazado 194868" d="M49.635,87.928a1.5,1.5,0,1,1,1.5,1.505,1.5,1.5,0,0,1-1.5-1.505" transform="translate(-21.806 -30.769)" fill="#7f4fc7"/>
        <path id="Trazado_194869" data-name="Trazado 194869" d="M57.908,87.928a1.5,1.5,0,1,1,1.5,1.505,1.5,1.5,0,0,1-1.5-1.505" transform="translate(-43.994 -30.769)" fill="#7f4fc7"/>
        <path id="Trazado_194870" data-name="Trazado 194870" d="M66.181,87.928a1.5,1.5,0,1,1,1.5,1.505,1.5,1.5,0,0,1-1.5-1.505" transform="translate(-66.181 -30.769)" fill="#7f4fc7"/>
        <path id="Trazado_194871" data-name="Trazado 194871" d="M0,96.2a1.5,1.5,0,1,1,1.5,1.5A1.5,1.5,0,0,1,0,96.2" transform="translate(111.309 -25.128)" fill="#7f4fc7"/>
        <path id="Trazado_194872" data-name="Trazado 194872" d="M8.272,96.2a1.5,1.5,0,1,1,1.5,1.5,1.5,1.5,0,0,1-1.5-1.5" transform="translate(89.124 -25.128)" fill="#7f4fc7"/>
        <path id="Trazado_194873" data-name="Trazado 194873" d="M16.545,96.2a1.5,1.5,0,1,1,1.5,1.5,1.5,1.5,0,0,1-1.5-1.5" transform="translate(66.937 -25.128)" fill="#7f4fc7"/>
        <path id="Trazado_194874" data-name="Trazado 194874" d="M24.818,96.2a1.5,1.5,0,1,1,1.5,1.5,1.5,1.5,0,0,1-1.5-1.5" transform="translate(44.75 -25.128)" fill="#7f4fc7"/>
        <path id="Trazado_194875" data-name="Trazado 194875" d="M33.09,96.2a1.5,1.5,0,1,1,1.5,1.5,1.5,1.5,0,0,1-1.5-1.5" transform="translate(22.565 -25.128)" fill="#7f4fc7"/>
        <path id="Trazado_194876" data-name="Trazado 194876" d="M41.363,96.2a1.5,1.5,0,1,1,1.5,1.5,1.5,1.5,0,0,1-1.5-1.5" transform="translate(0.378 -25.128)" fill="#7f4fc7"/>
        <path id="Trazado_194877" data-name="Trazado 194877" d="M49.635,96.2a1.5,1.5,0,1,1,1.5,1.5,1.5,1.5,0,0,1-1.5-1.5" transform="translate(-21.806 -25.128)" fill="#7f4fc7"/>
        <path id="Trazado_194878" data-name="Trazado 194878" d="M57.908,96.2a1.5,1.5,0,1,1,1.5,1.5,1.5,1.5,0,0,1-1.5-1.5" transform="translate(-43.994 -25.128)" fill="#7f4fc7"/>
        <path id="Trazado_194879" data-name="Trazado 194879" d="M66.181,96.2a1.5,1.5,0,1,1,1.5,1.5,1.5,1.5,0,0,1-1.5-1.5" transform="translate(-66.181 -25.128)" fill="#7f4fc7"/>
        <path id="Trazado_194880" data-name="Trazado 194880" d="M0,104.473a1.5,1.5,0,1,1,1.5,1.5,1.5,1.5,0,0,1-1.5-1.5" transform="translate(111.309 -19.487)" fill="#7f4fc7"/>
        <path id="Trazado_194881" data-name="Trazado 194881" d="M8.272,104.473a1.5,1.5,0,1,1,1.5,1.5,1.5,1.5,0,0,1-1.5-1.5" transform="translate(89.124 -19.487)" fill="#7f4fc7"/>
        <path id="Trazado_194882" data-name="Trazado 194882" d="M16.545,104.473a1.5,1.5,0,1,1,1.5,1.5,1.5,1.5,0,0,1-1.5-1.5" transform="translate(66.937 -19.487)" fill="#7f4fc7"/>
        <path id="Trazado_194883" data-name="Trazado 194883" d="M24.818,104.473a1.5,1.5,0,1,1,1.5,1.5,1.5,1.5,0,0,1-1.5-1.5" transform="translate(44.75 -19.487)" fill="#7f4fc7"/>
        <path id="Trazado_194884" data-name="Trazado 194884" d="M33.09,104.473a1.5,1.5,0,1,1,1.5,1.5,1.5,1.5,0,0,1-1.5-1.5" transform="translate(22.565 -19.487)" fill="#7f4fc7"/>
        <path id="Trazado_194885" data-name="Trazado 194885" d="M41.363,104.473a1.5,1.5,0,1,1,1.5,1.5,1.5,1.5,0,0,1-1.5-1.5" transform="translate(0.378 -19.487)" fill="#7f4fc7"/>
        <path id="Trazado_194886" data-name="Trazado 194886" d="M49.635,104.473a1.5,1.5,0,1,1,1.5,1.5,1.5,1.5,0,0,1-1.5-1.5" transform="translate(-21.806 -19.487)" fill="#7f4fc7"/>
        <path id="Trazado_194887" data-name="Trazado 194887" d="M57.908,104.473a1.5,1.5,0,1,1,1.5,1.5,1.5,1.5,0,0,1-1.5-1.5" transform="translate(-43.994 -19.487)" fill="#7f4fc7"/>
        <path id="Trazado_194888" data-name="Trazado 194888" d="M66.181,104.473a1.5,1.5,0,1,1,1.5,1.5,1.5,1.5,0,0,1-1.5-1.5" transform="translate(-66.181 -19.487)" fill="#7f4fc7"/>
        <path id="Trazado_194889" data-name="Trazado 194889" d="M0,112.746a1.5,1.5,0,1,1,1.5,1.5,1.5,1.5,0,0,1-1.5-1.5" transform="translate(111.309 -13.846)" fill="#7f4fc7"/>
        <path id="Trazado_194890" data-name="Trazado 194890" d="M8.272,112.746a1.5,1.5,0,1,1,1.5,1.5,1.5,1.5,0,0,1-1.5-1.5" transform="translate(89.124 -13.846)" fill="#7f4fc7"/>
        <path id="Trazado_194891" data-name="Trazado 194891" d="M16.545,112.746a1.5,1.5,0,1,1,1.5,1.5,1.5,1.5,0,0,1-1.5-1.5" transform="translate(66.937 -13.846)" fill="#7f4fc7"/>
        <path id="Trazado_194892" data-name="Trazado 194892" d="M24.818,112.746a1.5,1.5,0,1,1,1.5,1.5,1.5,1.5,0,0,1-1.5-1.5" transform="translate(44.75 -13.846)" fill="#7f4fc7"/>
        <path id="Trazado_194893" data-name="Trazado 194893" d="M33.09,112.746a1.5,1.5,0,1,1,1.5,1.5,1.5,1.5,0,0,1-1.5-1.5" transform="translate(22.565 -13.846)" fill="#7f4fc7"/>
        <path id="Trazado_194894" data-name="Trazado 194894" d="M41.363,112.746a1.5,1.5,0,1,1,1.5,1.5,1.5,1.5,0,0,1-1.5-1.5" transform="translate(0.378 -13.846)" fill="#7f4fc7"/>
        <path id="Trazado_194895" data-name="Trazado 194895" d="M49.635,112.746a1.5,1.5,0,1,1,1.5,1.5,1.5,1.5,0,0,1-1.5-1.5" transform="translate(-21.806 -13.846)" fill="#7f4fc7"/>
        <path id="Trazado_194896" data-name="Trazado 194896" d="M57.908,112.746a1.5,1.5,0,1,1,1.5,1.5,1.5,1.5,0,0,1-1.5-1.5" transform="translate(-43.994 -13.846)" fill="#7f4fc7"/>
        <path id="Trazado_194897" data-name="Trazado 194897" d="M66.181,112.746a1.5,1.5,0,1,1,1.5,1.5,1.5,1.5,0,0,1-1.5-1.5" transform="translate(-66.181 -13.846)" fill="#7f4fc7"/>
        <path id="Trazado_194898" data-name="Trazado 194898" d="M0,121.018a1.5,1.5,0,1,1,1.5,1.5,1.5,1.5,0,0,1-1.5-1.5" transform="translate(111.309 -8.205)" fill="#7f4fc7"/>
        <path id="Trazado_194899" data-name="Trazado 194899" d="M8.272,121.018a1.5,1.5,0,1,1,1.5,1.5,1.5,1.5,0,0,1-1.5-1.5" transform="translate(89.124 -8.205)" fill="#7f4fc7"/>
        <path id="Trazado_194900" data-name="Trazado 194900" d="M16.545,121.018a1.5,1.5,0,1,1,1.5,1.5,1.5,1.5,0,0,1-1.5-1.5" transform="translate(66.937 -8.205)" fill="#7f4fc7"/>
        <path id="Trazado_194901" data-name="Trazado 194901" d="M24.818,121.018a1.5,1.5,0,1,1,1.5,1.5,1.5,1.5,0,0,1-1.5-1.5" transform="translate(44.75 -8.205)" fill="#7f4fc7"/>
        <path id="Trazado_194902" data-name="Trazado 194902" d="M33.09,121.018a1.5,1.5,0,1,1,1.5,1.5,1.5,1.5,0,0,1-1.5-1.5" transform="translate(22.565 -8.205)" fill="#7f4fc7"/>
        <path id="Trazado_194903" data-name="Trazado 194903" d="M41.363,121.018a1.5,1.5,0,1,1,1.5,1.5,1.5,1.5,0,0,1-1.5-1.5" transform="translate(0.378 -8.205)" fill="#7f4fc7"/>
        <path id="Trazado_194904" data-name="Trazado 194904" d="M49.635,121.018a1.5,1.5,0,1,1,1.5,1.5,1.5,1.5,0,0,1-1.5-1.5" transform="translate(-21.806 -8.205)" fill="#7f4fc7"/>
        <path id="Trazado_194905" data-name="Trazado 194905" d="M57.908,121.018a1.5,1.5,0,1,1,1.5,1.5,1.5,1.5,0,0,1-1.5-1.5" transform="translate(-43.994 -8.205)" fill="#7f4fc7"/>
        <path id="Trazado_194906" data-name="Trazado 194906" d="M66.181,121.018a1.5,1.5,0,1,1,1.5,1.5,1.5,1.5,0,0,1-1.5-1.5" transform="translate(-66.181 -8.205)" fill="#7f4fc7"/>
      </g>
    </g>
    <g id="Grupo_79855" data-name="Grupo 79855" transform="translate(-711.039 -3677)">
      <g id="Grupo_79854" data-name="Grupo 79854" transform="translate(916 6450)">
        <g id="Background_Complete" data-name="Background Complete" transform="translate(17.265 41.654)">
          <g id="Grupo_79839" data-name="Grupo 79839" transform="translate(0 0)">
            <g id="Grupo_79832" data-name="Grupo 79832" transform="translate(0 126.865)">
              <g id="Grupo_79828" data-name="Grupo 79828" transform="translate(25.774 19.855)">
                <rect id="Rectángulo_34330" data-name="Rectángulo 34330" width="8.559" height="40.643" fill="#f0f0f0"/>
                <rect id="Rectángulo_34331" data-name="Rectángulo 34331" width="5.803" height="27.554" transform="translate(1.378 3.125)" fill="#fafafa"/>
                <rect id="Rectángulo_34332" data-name="Rectángulo 34332" width="18.279" height="40.643" transform="translate(26.838 40.643) rotate(180)" fill="#e0e0e0"/>
              </g>
              <g id="Grupo_79829" data-name="Grupo 79829" transform="translate(36.122 19.855)">
                <rect id="Rectángulo_34333" data-name="Rectángulo 34333" width="8.559" height="40.643" fill="#f0f0f0"/>
                <rect id="Rectángulo_34334" data-name="Rectángulo 34334" width="5.803" height="27.554" transform="translate(1.378 3.125)" fill="#fafafa"/>
                <rect id="Rectángulo_34335" data-name="Rectángulo 34335" width="18.279" height="40.643" transform="translate(26.838 40.643) rotate(180)" fill="#e0e0e0"/>
              </g>
              <rect id="Rectángulo_34336" data-name="Rectángulo 34336" width="3.095" height="144.707" transform="translate(53.579 4.032)" fill="#ebebeb"/>
              <rect id="Rectángulo_34337" data-name="Rectángulo 34337" width="3.095" height="144.707" transform="translate(1.644 4.032)" fill="#ebebeb"/>
              <rect id="Rectángulo_34338" data-name="Rectángulo 34338" width="3.095" height="144.707" transform="translate(66.925 4.032)" fill="#ebebeb"/>
              <rect id="Rectángulo_34339" data-name="Rectángulo 34339" width="3.095" height="144.707" transform="translate(14.99 4.032)" fill="#ebebeb"/>
              <g id="Grupo_79830" data-name="Grupo 79830" transform="translate(11.46 80.352)">
                <rect id="Rectángulo_34340" data-name="Rectángulo 34340" width="8.559" height="40.643" transform="translate(0 0)" fill="#f0f0f0"/>
                <rect id="Rectángulo_34341" data-name="Rectángulo 34341" width="5.803" height="27.554" transform="translate(1.378 3.126)" fill="#fafafa"/>
                <rect id="Rectángulo_34342" data-name="Rectángulo 34342" width="18.279" height="40.643" transform="translate(26.838 40.643) rotate(180)" fill="#e0e0e0"/>
              </g>
              <g id="Grupo_79831" data-name="Grupo 79831" transform="translate(21.809 80.352)">
                <rect id="Rectángulo_34343" data-name="Rectángulo 34343" width="8.559" height="40.643" transform="translate(0 0)" fill="#f0f0f0"/>
                <rect id="Rectángulo_34344" data-name="Rectángulo 34344" width="5.803" height="27.554" transform="translate(1.378 3.126)" fill="#fafafa"/>
                <rect id="Rectángulo_34345" data-name="Rectángulo 34345" width="18.279" height="40.643" transform="translate(26.838 40.643) rotate(180)" fill="#e0e0e0"/>
              </g>
              <rect id="Rectángulo_34346" data-name="Rectángulo 34346" width="70.02" height="4.032" fill="#f0f0f0"/>
              <rect id="Rectángulo_34347" data-name="Rectángulo 34347" width="70.02" height="4.032" transform="translate(0 60.497)" fill="#f0f0f0"/>
              <rect id="Rectángulo_34348" data-name="Rectángulo 34348" width="70.02" height="4.032" transform="translate(0 120.994)" fill="#f0f0f0"/>
            </g>
            <g id="Grupo_79833" data-name="Grupo 79833" transform="translate(12.615 8.972)">
              <rect id="Rectángulo_34349" data-name="Rectángulo 34349" width="47.851" height="60.15" transform="translate(58.415 60.15) rotate(180)" fill="#f0f0f0"/>
              <rect id="Rectángulo_34350" data-name="Rectángulo 34350" width="56.581" height="60.15" transform="translate(56.581 60.15) rotate(180)" fill="#f5f5f5"/>
              <rect id="Rectángulo_34351" data-name="Rectángulo 34351" width="50.67" height="47.101" transform="translate(4.74 55.41) rotate(-90)" fill="#fff"/>
              <circle id="Elipse_4798" data-name="Elipse 4798" cx="10.634" cy="10.634" r="10.634" transform="translate(17.657 19.441)" fill="#f0f0f0"/>
            </g>
            <g id="Grupo_79834" data-name="Grupo 79834" transform="translate(107.275)">
              <rect id="Rectángulo_34352" data-name="Rectángulo 34352" width="181.141" height="105.398" transform="translate(207.381 105.398) rotate(180)" fill="#f0f0f0"/>
              <rect id="Rectángulo_34353" data-name="Rectángulo 34353" width="202.356" height="105.398" transform="translate(202.356 105.398) rotate(180)" fill="#f5f5f5"/>
              <rect id="Rectángulo_34354" data-name="Rectángulo 34354" width="88.786" height="178.807" transform="translate(11.775 97.092) rotate(-90)" fill="#fff"/>
              <rect id="Rectángulo_34355" data-name="Rectángulo 34355" width="28.316" height="178.807" transform="translate(11.775 36.622) rotate(-90)" fill="#fafafa"/>
              <rect id="Rectángulo_34356" data-name="Rectángulo 34356" width="37.448" height="178.807" transform="translate(11.775 97.092) rotate(-90)" fill="#f0f0f0"/>
            </g>
            <g id="Grupo_79835" data-name="Grupo 79835" transform="translate(133.974 195.053)">
              <rect id="Rectángulo_34357" data-name="Rectángulo 34357" width="5.34" height="80.549" transform="translate(174.306 0)" fill="#e6e6e6"/>
              <rect id="Rectángulo_34358" data-name="Rectángulo 34358" width="3.709" height="80.549" transform="translate(177.623 0)" fill="#f0f0f0"/>
              <rect id="Rectángulo_34359" data-name="Rectángulo 34359" width="140.955" height="9.08" transform="translate(182.48 9.08) rotate(180)" fill="#f0f0f0"/>
              <rect id="Rectángulo_34360" data-name="Rectángulo 34360" width="5.34" height="71.47" transform="translate(33.794 9.08)" fill="#e6e6e6"/>
              <rect id="Rectángulo_34361" data-name="Rectángulo 34361" width="3.709" height="71.47" transform="translate(37.111 9.08)" fill="#f0f0f0"/>
              <rect id="Rectángulo_34362" data-name="Rectángulo 34362" width="5.34" height="71.47" transform="translate(0 9.08)" fill="#e6e6e6"/>
              <rect id="Rectángulo_34363" data-name="Rectángulo 34363" width="3.709" height="71.47" transform="translate(3.317 9.08)" fill="#e6e6e6"/>
              <rect id="Rectángulo_34364" data-name="Rectángulo 34364" width="5.34" height="71.47" transform="translate(140.512 9.08)" fill="#e6e6e6"/>
              <rect id="Rectángulo_34365" data-name="Rectángulo 34365" width="3.709" height="71.47" transform="translate(143.829 9.08)" fill="#e6e6e6"/>
              <rect id="Rectángulo_34366" data-name="Rectángulo 34366" width="41.525" height="9.08" transform="translate(0 0)" fill="#e6e6e6"/>
            </g>
            <g id="Grupo_79838" data-name="Grupo 79838" transform="translate(227.75 101.784)">
              <g id="Grupo_79836" data-name="Grupo 79836">
                <path id="Trazado_116436" data-name="Trazado 116436" d="M392.828,254.621C388.28,259.7,371.992,265,367.174,249.03c-3.5-11.61,16.085-20.194,27.808-20.688,12.63-.533,20.092,3.915,20.092,3.915A279.684,279.684,0,0,0,392.828,254.621Z" transform="translate(-338.944 -192.454)" fill="#e6e6e6"/>
                <path id="Trazado_116437" data-name="Trazado 116437" d="M360.775,257.1c6.4.681,17.274-4.211,12.97-17.644s-13.11-14.683-18.934-15.8c-7.423-1.43-22.261,4.632-22.261,4.632S354.379,256.416,360.775,257.1Z" transform="translate(-332.551 -191.545)" fill="#e6e6e6"/>
                <path id="Trazado_116438" data-name="Trazado 116438" d="M385.066,228.561c-8.057,3.66-14.814,4.9-11-6.5s8.459-16.874,16.026-19.194c9.645-2.957,21.092,3.4,21.092,3.4S393.124,224.9,385.066,228.561Z" transform="translate(-340.105 -187.556)" fill="#e6e6e6"/>
                <path id="Trazado_116439" data-name="Trazado 116439" d="M368.8,227.913c6.155,1.821,11,1.436,6.411-9.549S367.56,206,362.3,203.9c-9.727-3.893-17.872,3.095-17.872,3.095S362.642,226.092,368.8,227.913Z" transform="translate(-334.771 -187.675)" fill="#e6e6e6"/>
                <path id="Trazado_116440" data-name="Trazado 116440" d="M387.971,206.327c-6.685,5.853-12.838,9.566-12.564.463s5-17.259,12.193-20.931c4.952-2.528,15.9-1.385,15.9-1.385S394.658,200.473,387.971,206.327Z" transform="translate(-340.558 -184.217)" fill="#e6e6e6"/>
                <path id="Trazado_116441" data-name="Trazado 116441" d="M366.825,205.824c4.371,3.485,8.168,5.323,6.79-2.07s-3.818-9.388-8-12a15.243,15.243,0,0,0-11.162-1.712S362.453,202.338,366.825,205.824Z" transform="translate(-336.643 -185.233)" fill="#e6e6e6"/>
              </g>
              <g id="Grupo_79837" data-name="Grupo 79837" transform="translate(16.368 61.986)">
                <path id="Trazado_116442" data-name="Trazado 116442" d="M396.6,260.449H352.681l5.781,18.609h32.359Z" transform="translate(-352.681 -260.449)" fill="#f0f0f0"/>
              </g>
            </g>
          </g>
        </g>
        <g id="Shadow" transform="translate(0 334.477)">
          <ellipse id="_Path_" data-name="&lt;Path&gt;" cx="175.492" cy="10.249" rx="175.492" ry="10.249" fill="#f5f5f5"/>
        </g>
        <g id="Character_2" data-name="Character 2" transform="translate(153.155 79.982)">
          <g id="Grupo_79844" data-name="Grupo 79844" transform="translate(0 0)">
            <g id="Grupo_79843" data-name="Grupo 79843">
              <path id="Trazado_116443" data-name="Trazado 116443" d="M282.563,183.921l-1.12,1.481c-.363.465-.736.917-1.108,1.368-.74.906-1.521,1.772-2.306,2.642a68.381,68.381,0,0,1-5.058,5c-.907.8-1.836,1.589-2.816,2.361s-2.025,1.5-3.125,2.219a25.05,25.05,0,0,1-8.15,3.618l-.313.072a5.011,5.011,0,0,1-.926.12,10.824,10.824,0,0,1-4.319-.761,13.752,13.752,0,0,1-2.752-1.464,23.642,23.642,0,0,1-3.658-3.138,45.955,45.955,0,0,1-5.028-6.4c-1.426-2.17-2.708-4.361-3.878-6.6a72.843,72.843,0,0,1-3.185-6.884,3.633,3.633,0,0,1,6.094-3.745l.079.09,4.669,5.272c1.565,1.74,3.13,3.448,4.721,5.044a46.591,46.591,0,0,0,4.726,4.278,10.507,10.507,0,0,0,2.054,1.289,1.02,1.02,0,0,0,.488.13c.028-.017-.207-.172-.773-.169l-1.239.193a18.511,18.511,0,0,0,3.424-2.241,54.968,54.968,0,0,0,4.084-3.74c1.35-1.386,2.718-2.828,4.04-4.336l1.981-2.27,1.88-2.214.228-.268a7.236,7.236,0,0,1,11.287,9.05Z" transform="translate(-226.199 -128.35)" fill="#12263f"/>
              <path id="Trazado_116444" data-name="Trazado 116444" d="M235.409,173.993c-3.491.543-6.816-5.121-6.816-5.121l-2.613-3.116a2.813,2.813,0,0,1,.021-3.642l2.256-2.627a2.815,2.815,0,0,1,4.014-.262l3,2.688a4.994,4.994,0,0,1,1.246,1.729l1.167,2.685a6.485,6.485,0,0,1-1.07,6.858l-.217.247A1.666,1.666,0,0,1,235.409,173.993Z" transform="translate(-225.321 -127.039)" fill="#ffc3bd"/>
              <path id="Trazado_116445" data-name="Trazado 116445" d="M326.736,311.609c-4.434-32.784-6.181-52.228-9.022-68.532l-27.883-.42s12.48,52.283,18.438,73.581c5.983,21.382,39.63,74.394,39.63,74.394l7.411-4.4S334.693,336.435,326.736,311.609Z" transform="translate(-231.442 -135.024)" fill="#12263f"/>
              <path id="Trazado_116446" data-name="Trazado 116446" d="M348.524,413.9s5.566-6.821,5.478-9.124l6.136-3.645,3.382,6.749-2.962,1.759-.9-.274-.643,1.188c-3.06,1.817-7.988,4.584-10.275,5.008A1.776,1.776,0,0,1,348.524,413.9Z" transform="translate(-237.001 -150.061)" fill="#263238"/>
              <path id="Trazado_116447" data-name="Trazado 116447" d="M314.694,170.116c-9.859-1.224-23.953-1.111-33.4.519a11.446,11.446,0,0,0-9.279,9.624c-1.989,14.264-.279,39.2.99,64.3,21.576,7.382,44.346-.1,44.346-.1.785-5.066-.982-21.656-2.168-30.515,1.779-9.146,5.557-19.618,8.052-31.765A9.951,9.951,0,0,0,314.694,170.116Z" transform="translate(-229.666 -128.063)" fill="#12263f"/>
              <path id="Trazado_116448" data-name="Trazado 116448" d="M290.887,169.6a10.139,10.139,0,0,0-2.395,5.479c-1.012,5.795.135,14.72,3.186,24.958,2.924-8.246,9.218-19.155,13.083-25.5,1.827-3,3.107-4.988,3.226-5.162a.025.025,0,0,0,.008-.016A35.577,35.577,0,0,0,290.887,169.6Z" transform="translate(-231.281 -127.981)" fill="#407bff"/>
              <g id="Grupo_79840" data-name="Grupo 79840" transform="translate(57.725 23.211)">
                <path id="Trazado_116449" data-name="Trazado 116449" d="M306.791,149.385l-11.228,9.21c1.453,3.864,1.913,7.887-4.428,9.435-1.588,2.1,1.21,4.5,3.832,5.593,4.233-.527,10.2-1.936,12.784-5.483C306.938,165.356,305.7,155.1,306.791,149.385Z" transform="translate(-289.247 -149.385)" fill="#ffc3bd"/>
                <path id="Trazado_116450" data-name="Trazado 116450" d="M292.458,173.414a8.509,8.509,0,0,0,2.328,3.514C296.5,176.928,299,175,299,175s-.968-2.714-2.329-3.267C293.2,172.58,292.458,173.414,292.458,173.414Z" transform="translate(-289.417 -151.505)" fill="#fff"/>
                <path id="Trazado_116451" data-name="Trazado 116451" d="M296.047,176.111a2.479,2.479,0,0,0-1.889-.482c-2.246,3.194-3.677,8.151-5.06,13.866a96,96,0,0,0,2.672,11.218,88.35,88.35,0,0,1,4.364-9.921A59.5,59.5,0,0,1,296.047,176.111Z" transform="translate(-289.098 -151.872)" fill="#fff"/>
                <path id="Trazado_116452" data-name="Trazado 116452" d="M302.623,153.631l-6.542,5.362a14.351,14.351,0,0,1,.787,2.768c2.536.181,6.063-2.387,6.224-4.7A9.6,9.6,0,0,0,302.623,153.631Z" transform="translate(-289.761 -149.788)" opacity="0.2"/>
              </g>
              <path id="Trazado_116453" data-name="Trazado 116453" d="M289.657,132.565c-3.644,2.093-1.744,4.185-1.744,4.185s-1.548,4.165.506,7.033C298.05,132.251,289.657,132.565,289.657,132.565Z" transform="translate(-231.207 -124.578)" fill="#263238"/>
              <path id="Trazado_116454" data-name="Trazado 116454" d="M308.079,141.258c-1.024,7.045-1.264,11.222-5.146,14.528-5.839,4.974-14.318.923-15.421-6.3-.994-6.505.847-16.931,8.019-19.111A9.808,9.808,0,0,1,308.079,141.258Z" transform="translate(-231.199 -124.328)" fill="#ffc3bd"/>
              <path id="Trazado_116455" data-name="Trazado 116455" d="M307.258,145.077c-4.536.465-3.678-6.985-2.132-8.446-4.418.074-3.565-2.871-3.023-3.956-7.364,1.55-12.568,1.867-15.89-1.783-2.456-2.7-5.078.323-5.852-2.519,1.782.968,5.077-3.876,7.286-1.861s4.4-5.017,7.751-2.015c4.5,4.03,16.394-6.938,15.309,5.155,6.2,5.219-2.132,8.526-1.589,14.069C307.412,146.24,307.258,145.077,307.258,145.077Z" transform="translate(-230.544 -123.741)" fill="#263238"/>
              <path id="Trazado_116456" data-name="Trazado 116456" d="M311.21,131.214a.452.452,0,0,1-.062-.9,6.425,6.425,0,0,0,3.639-2.515,3.033,3.033,0,0,0,.446-2.571.452.452,0,1,1,.871-.246,3.949,3.949,0,0,1-.559,3.312,7.252,7.252,0,0,1-4.271,2.918A.5.5,0,0,1,311.21,131.214Z" transform="translate(-233.428 -123.827)" fill="#263238"/>
              <path id="Trazado_116457" data-name="Trazado 116457" d="M312.232,148.064a6.12,6.12,0,0,1-3.419,3.239c-2.032.756-3.247-1.016-2.849-3.028.358-1.81,1.846-4.385,3.966-4.278A2.8,2.8,0,0,1,312.232,148.064Z" transform="translate(-232.966 -125.662)" fill="#ffc3bd"/>
              <path id="Trazado_116458" data-name="Trazado 116458" d="M298.443,142.618c-.048.577-.393,1.016-.77.981s-.644-.53-.6-1.107.393-1.016.77-.982S298.491,142.04,298.443,142.618Z" transform="translate(-232.129 -125.426)" fill="#263238"/>
              <path id="Trazado_116459" data-name="Trazado 116459" d="M290.823,142.432c-.048.577-.393,1.016-.77.981s-.644-.53-.6-1.107.393-1.016.77-.981S290.87,141.855,290.823,142.432Z" transform="translate(-231.406 -125.409)" fill="#263238"/>
              <path id="Trazado_116460" data-name="Trazado 116460" d="M292.929,143.4a20.5,20.5,0,0,1-3.167,4.679,3.356,3.356,0,0,0,2.714.771Z" transform="translate(-231.436 -125.606)" fill="#ed847e"/>
              <path id="Trazado_116461" data-name="Trazado 116461" d="M300.947,140.554a.33.33,0,0,0,.171-.021.338.338,0,0,0,.187-.442,3.406,3.406,0,0,0-2.3-2.1.336.336,0,0,0-.4.265.344.344,0,0,0,.266.4h0a2.725,2.725,0,0,1,1.806,1.684A.342.342,0,0,0,300.947,140.554Z" transform="translate(-232.274 -125.092)" fill="#263238"/>
              <path id="Trazado_116462" data-name="Trazado 116462" d="M288.144,139.979a.336.336,0,0,0,.318-.046,2.666,2.666,0,0,1,2.4-.476.338.338,0,0,0,.433-.2.342.342,0,0,0-.2-.436,3.344,3.344,0,0,0-3.04.568.343.343,0,0,0,.091.595Z" transform="translate(-231.261 -125.157)" fill="#263238"/>
              <g id="Grupo_79841" data-name="Grupo 79841" transform="translate(65.006 41.379)">
                <path id="Trazado_116463" data-name="Trazado 116463" d="M308.851,169.457a.025.025,0,0,1-.008.016c-.119.174-1.4,2.158-3.226,5.162a14.246,14.246,0,0,1-6.554,3.439c.364-1.209-.719-5.3-1.921-6.561A31.841,31.841,0,0,0,308.851,169.457Z" transform="translate(-297.142 -169.457)" fill="#407bff"/>
                <path id="Trazado_116464" data-name="Trazado 116464" d="M308.851,169.457a.025.025,0,0,1-.008.016c-.119.174-1.4,2.158-3.226,5.162a14.246,14.246,0,0,1-6.554,3.439c.364-1.209-.719-5.3-1.921-6.561A31.841,31.841,0,0,0,308.851,169.457Z" transform="translate(-297.142 -169.457)" fill="#fff" opacity="0.3"/>
              </g>
              <g id="Grupo_79842" data-name="Grupo 79842" transform="translate(57.211 41.616)">
                <path id="Trazado_116465" data-name="Trazado 116465" d="M296.3,171.537a10.461,10.461,0,0,0-5.637,6,3.887,3.887,0,0,1-2.134-2.34,10.139,10.139,0,0,1,2.395-5.479C291.581,170.557,293.368,171.379,296.3,171.537Z" transform="translate(-288.53 -169.719)" fill="#407bff"/>
                <path id="Trazado_116466" data-name="Trazado 116466" d="M296.3,171.537a10.461,10.461,0,0,0-5.637,6,3.887,3.887,0,0,1-2.134-2.34,10.139,10.139,0,0,1,2.395-5.479C291.581,170.557,293.368,171.379,296.3,171.537Z" transform="translate(-288.53 -169.719)" fill="#fff" opacity="0.3"/>
              </g>
              <path id="Trazado_116467" data-name="Trazado 116467" d="M325.518,174.585c1.809,2.059,3.363,4.041,4.938,6.149,1.546,2.1,3.06,4.239,4.473,6.493a71.525,71.525,0,0,1,4.033,7.109,42.44,42.44,0,0,1,1.767,4.034,25.761,25.761,0,0,1,1.346,5l.07.448a5.431,5.431,0,0,1-.26,2.67,26.288,26.288,0,0,1-4.38,7.525,32.918,32.918,0,0,1-2.616,2.917c-.9.905-1.813,1.772-2.757,2.578a58.18,58.18,0,0,1-5.848,4.4,53.534,53.534,0,0,1-6.318,3.6,3.629,3.629,0,0,1-4.234-5.731l.162-.175c1.4-1.519,2.952-3.151,4.35-4.754,1.417-1.614,2.788-3.234,4.027-4.88a42.514,42.514,0,0,0,3.3-4.9A16.364,16.364,0,0,0,329.4,202.6l-.19,3.118a16.685,16.685,0,0,0-.915-2.125c-.441-.849-.939-1.777-1.5-2.7s-1.169-1.873-1.81-2.816c-.625-.95-1.285-1.9-1.967-2.854-1.368-1.893-2.776-3.808-4.231-5.7l-4.345-5.607-.089-.114a7.241,7.241,0,0,1,11.164-9.216Z" transform="translate(-233.625 -128.332)" fill="#12263f"/>
              <path id="Trazado_116468" data-name="Trazado 116468" d="M318.33,231.24a1.664,1.664,0,0,0-.329-1.083l-1.98-2.723a1.7,1.7,0,0,0-1.684-.668l-2.8.528a19.236,19.236,0,0,0-7.558,3.209l-.748.53A2.814,2.814,0,0,0,302.6,235l2.061,2.782a2.814,2.814,0,0,0,3.548.828l3.617-1.858S318.089,234.767,318.33,231.24Z" transform="translate(-232.601 -133.513)" fill="#ffc3bd"/>
              <path id="Trazado_116469" data-name="Trazado 116469" d="M317.863,225.72a13.112,13.112,0,0,0-3.952.081c-.809,2.072,2.609,8.306,4.367,9.39,1.12-.259,3.678-2.453,3.678-2.453C320.454,230.737,318.893,227.249,317.863,225.72Z" transform="translate(-233.716 -133.405)" fill="#407bff"/>
              <path id="Trazado_116470" data-name="Trazado 116470" d="M240.8,173.575a13.141,13.141,0,0,0-.515-3.918c-2.148-.577-7.969,3.507-8.852,5.374.381,1.084,2.843,3.386,2.843,3.386C236.1,176.7,239.395,174.768,240.8,173.575Z" transform="translate(-225.901 -128.092)" fill="#407bff"/>
              <path id="Trazado_116471" data-name="Trazado 116471" d="M353.342,405.628l8.367-4.658-1.917-5.184-9.288,6.3Z" transform="translate(-237.199 -149.553)" fill="#407bff"/>
              <path id="Trazado_116472" data-name="Trazado 116472" d="M297.855,314.565c1.986-33.079,5.806-55.184,4.212-71.488l-27.851-.42s2.831,52.48,4.57,74.333c1.746,21.937,11.119,75.812,11.119,75.812h8.619S300.877,340.154,297.855,314.565Z" transform="translate(-229.961 -135.024)" fill="#12263f"/>
              <path id="Trazado_116473" data-name="Trazado 116473" d="M276,413.05s14-3.021,14.895-5.046h7.137l.233,7.53h-5.824l-.7-.693-1.088.693c-3.559,0-12.886-.138-15.152-.941A1.6,1.6,0,0,1,276,413.05Z" transform="translate(-230.081 -150.713)" fill="#263238"/>
              <path id="Trazado_116474" data-name="Trazado 116474" d="M290.9,408.265l9.6.268.441-5.436-11.133.671Z" transform="translate(-231.44 -150.247)" fill="#407bff"/>
              <path id="Trazado_116475" data-name="Trazado 116475" d="M295.568,151.515a6.213,6.213,0,0,1-1.1-.059.179.179,0,0,1-.148-.219.211.211,0,0,1,.231-.167,5.573,5.573,0,0,0,4.605-1.442.187.187,0,1,1,.273.254A5.866,5.866,0,0,1,295.568,151.515Z" transform="translate(-231.867 -126.19)" fill="#263238"/>
            </g>
          </g>
        </g>
        <g id="Product_iteration" data-name="Product iteration" transform="translate(42.44)">
          <g id="Grupo_79849" data-name="Grupo 79849">
            <rect id="Rectángulo_34367" data-name="Rectángulo 34367" width="7.494" height="0.905" transform="translate(222.168 222.756)" fill="#4dd0e1"/>
            <rect id="Rectángulo_34368" data-name="Rectángulo 34368" width="16.833" height="0.905" transform="translate(235.217 222.756)" fill="#4dd0e1"/>
            <path id="Trazado_116476" data-name="Trazado 116476" d="M374.708,270.25H269.691l-16.9,31.27a2.08,2.08,0,0,0,1.83,3.069H374.708l8.585-17.169Z" transform="translate(-117.189 -84.172)" fill="#4dd0e1"/>
            <g id="Grupo_79845" data-name="Grupo 79845" transform="translate(131.072 0.11)">
              <path id="Trazado_116477" data-name="Trazado 116477" d="M256.557,99.228a76.028,76.028,0,0,1,68.949,71.444,2.075,2.075,0,0,0,3,1.751l12.754-6.372a3.369,3.369,0,0,1,3.067,0l12.525,6.258a2.088,2.088,0,0,0,3.014-1.957A110.371,110.371,0,0,0,256.294,64.787l-8.482,16.964Z" transform="translate(-247.812 -64.787)" fill="#1565c0"/>
              <path id="Trazado_116478" data-name="Trazado 116478" d="M256.557,99.228a76.028,76.028,0,0,1,68.949,71.444,2.075,2.075,0,0,0,3,1.751l12.754-6.372a3.369,3.369,0,0,1,3.067,0l12.525,6.258a2.088,2.088,0,0,0,3.014-1.957A110.371,110.371,0,0,0,256.294,64.787l-8.482,16.964Z" transform="translate(-247.812 -64.787)" fill="#1565c0" opacity="0.6"/>
            </g>
            <g id="Grupo_79846" data-name="Grupo 79846" transform="translate(22.892)">
              <path id="Trazado_116479" data-name="Trazado 116479" d="M162.734,167.975a76.028,76.028,0,0,1,71.453-68.948,2.076,2.076,0,0,0,1.751-3l-6.381-12.753a3.468,3.468,0,0,1,0-3.079l6.256-12.511a2.088,2.088,0,0,0-1.957-3.015A110.4,110.4,0,0,0,128.292,168.227l16.964,8.481Z" transform="translate(-128.292 -64.665)" fill="#148cc6"/>
              <path id="Trazado_116480" data-name="Trazado 116480" d="M162.734,167.975a76.028,76.028,0,0,1,71.453-68.948,2.076,2.076,0,0,0,1.751-3l-6.381-12.753a3.468,3.468,0,0,1,0-3.079l6.256-12.511a2.088,2.088,0,0,0-1.957-3.015A110.4,110.4,0,0,0,128.292,168.227l16.964,8.481Z" transform="translate(-128.292 -64.665)" fill="#148cc6" opacity="0.4"/>
            </g>
            <g id="Grupo_79847" data-name="Grupo 79847" transform="translate(0 112.365)">
              <path id="Trazado_116481" data-name="Trazado 116481" d="M229.1,262.226h-.012a76.054,76.054,0,0,1-68.948-71.443,2.076,2.076,0,0,0-3-1.751L144.4,195.4a3.531,3.531,0,0,1-1.546.366,3.48,3.48,0,0,1-1.533-.366L128.8,189.144a2.088,2.088,0,0,0-3.015,1.957,109.841,109.841,0,0,0,30.276,71.422H103l8.688,17.387-8.379,16.757H229.356l8.482-16.964Z" transform="translate(-103 -188.809)" fill="#039be5"/>
              <path id="Trazado_116482" data-name="Trazado 116482" d="M229.1,262.226h-.012a76.054,76.054,0,0,1-68.948-71.443,2.076,2.076,0,0,0-3-1.751L144.4,195.4a3.531,3.531,0,0,1-1.546.366,3.48,3.48,0,0,1-1.533-.366L128.8,189.144a2.088,2.088,0,0,0-3.015,1.957,109.841,109.841,0,0,0,30.276,71.422H103l8.688,17.387-8.379,16.757H229.356l8.482-16.964Z" transform="translate(-103 -188.809)" fill="#039be5" opacity="0.2"/>
            </g>
            <g id="Grupo_79848" data-name="Grupo 79848" transform="translate(135.158 108.278)">
              <path id="Trazado_116483" data-name="Trazado 116483" d="M325.744,193.027v.012A76.045,76.045,0,0,1,254.3,261.987a2.076,2.076,0,0,0-1.751,3l6.372,12.754a3.432,3.432,0,0,1,0,3.067l-6.257,12.524a2.088,2.088,0,0,0,1.956,3.015A110.374,110.374,0,0,0,360.186,192.776l-16.964-8.482Z" transform="translate(-252.326 -184.294)" fill="#407bff"/>
              <path id="Trazado_116484" data-name="Trazado 116484" d="M325.744,193.027v.012A76.045,76.045,0,0,1,254.3,261.987a2.076,2.076,0,0,0-1.751,3l6.372,12.754a3.432,3.432,0,0,1,0,3.067l-6.257,12.524a2.088,2.088,0,0,0,1.956,3.015A110.374,110.374,0,0,0,360.186,192.776l-16.964-8.482Z" transform="translate(-252.326 -184.294)" fill="#4dd0e1" opacity="0.8"/>
            </g>
          </g>
        </g>
        <g id="Character_1" data-name="Character 1" transform="translate(49.745 90.864)">
          <g id="Grupo_79853" data-name="Grupo 79853" transform="translate(0 0)">
            <path id="Trazado_116485" data-name="Trazado 116485" d="M240.154,180.626,235.2,166.457l-7.527.7a35.948,35.948,0,0,0-6.355-7.107l1.546-7.408-13.521-6.517-4.83,5.823a35.943,35.943,0,0,0-9.522-.545l-4.139-6.322-14.169,4.953.7,7.525a35.985,35.985,0,0,0-7.107,6.357l-7.407-1.546-6.517,13.521,5.824,4.831a35.973,35.973,0,0,0-.546,9.521l-6.323,4.139,4.953,14.169,7.522-.7a35.941,35.941,0,0,0,6.36,7.111l-1.546,7.4,13.521,6.517,4.831-5.823a36.012,36.012,0,0,0,9.521.543l4.139,6.324,14.169-4.953-.7-7.523a35.956,35.956,0,0,0,7.111-6.358l7.4,1.545,6.517-13.521-5.822-4.829a35.946,35.946,0,0,0,.543-9.523Zm-36.965,22.479a16.529,16.529,0,1,1,10.146-21.05A16.531,16.531,0,0,1,203.189,203.105Z" transform="translate(-115.268 -136.647)" fill="#7f4fc7"/>
            <g id="Grupo_79852" data-name="Grupo 79852">
              <path id="Trazado_116486" data-name="Trazado 116486" d="M146.256,193.573c-.434.671-.957,1.542-1.438,2.332q-.728,1.227-1.422,2.487-1.394,2.513-2.668,5.108a104.23,104.23,0,0,0-4.527,10.612c-.574,1.426.017.577-.668-.325-.3-.366-.5-.355-.395-.3a2.182,2.182,0,0,0,.649.23,20.419,20.419,0,0,0,5.1.182c3.76-.23,7.729-.8,11.589-1.421l.064-.011a2.027,2.027,0,0,1,1.086,3.878,64.835,64.835,0,0,1-11.948,3.689c-1.055.2-2.131.366-3.26.475a17.42,17.42,0,0,1-3.656.012,9.591,9.591,0,0,1-2.263-.518,6.061,6.061,0,0,1-2.8-2.04,5.443,5.443,0,0,1-.92-2,6.114,6.114,0,0,1-.129-1.9,8.137,8.137,0,0,1,.272-1.437l.215-.756a81.993,81.993,0,0,1,4.278-11.811q1.279-2.869,2.794-5.633.76-1.379,1.575-2.742c.558-.928,1.09-1.767,1.783-2.76a4.072,4.072,0,0,1,6.764,4.535Z" transform="translate(-112.736 -140.643)" fill="#7f3e3b"/>
              <path id="Trazado_116487" data-name="Trazado 116487" d="M163.771,218.871l-1.886,1.57a2.858,2.858,0,0,1-2.553.567l-4.172-1.1a5.321,5.321,0,0,1-3.627-3.272l-.377-1c2.951-2.818,8.217-3.688,8.217-3.688l1.473-.415a2.375,2.375,0,0,1,2.985,1.584l.86,2.909A2.736,2.736,0,0,1,163.771,218.871Z" transform="translate(-114.874 -142.943)" fill="#7f3e3b"/>
              <path id="Trazado_116488" data-name="Trazado 116488" d="M153.83,161.066c1.3,4.806,2.9,13.612-.227,16.819,0,0-2.4,4.506,11.776,3.778,9.923-.51,3.162-3.777,3.162-3.777-5.454-1.28-5.613-5.256-4.957-8.991Z" transform="translate(-115.092 -138.164)" fill="#7f3e3b"/>
              <g id="Grupo_79850" data-name="Grupo 79850" transform="translate(0 90.682)">
                <path id="Trazado_116489" data-name="Trazado 116489" d="M129.443,382.79l-9.19-3.381a159.438,159.438,0,0,1-3.687,17.929l6.444,2.762S127.3,387.115,129.443,382.79Z" transform="translate(-111.592 -249.563)" fill="#7f3e3b"/>
                <path id="Trazado_116490" data-name="Trazado 116490" d="M124,412.378c-4.917-3.6-4.513-3.42-7.215-5.54-2.31-1.82-3.071-1.923-4.944-3.36-1.567-1.2-.505-2.757,1.138-4.241.63-.569,1.413-1.2,2.315-2.025a1.457,1.457,0,0,1,1.862-.1l5.753,4.211a1.681,1.681,0,0,1,.686,1.345,10.262,10.262,0,0,0,3.365,7.395C129.367,412.378,125.956,413.813,124,412.378Z" transform="translate(-111.07 -251.215)" fill="#263238"/>
                <path id="Trazado_116491" data-name="Trazado 116491" d="M169.489,235.951s-9.678,49.828-17.18,73.046c-7.879,24.385-19.387,51.521-24.611,67.412-1.617.209-6.247-1.722-8.508-3.648,0,0,3.453-41.662,15.248-63.177-1.2-62.78,10.753-73.634,10.753-73.634Z" transform="translate(-111.841 -235.951)" fill="#407bff"/>
                <path id="Trazado_116492" data-name="Trazado 116492" d="M169.489,235.951s-9.678,49.828-17.18,73.046c-7.879,24.385-19.387,51.521-24.611,67.412-1.617.209-6.247-1.722-8.508-3.648,0,0,3.453-41.662,15.248-63.177-1.2-62.78,10.753-73.634,10.753-73.634Z" transform="translate(-111.841 -235.951)" opacity="0.3"/>
                <path id="Trazado_116493" data-name="Trazado 116493" d="M154.758,256.6l10,19.007c-2.282,10-4.811,20.337-7.222,28.77C150.253,284.148,154.758,256.6,154.758,256.6Z" transform="translate(-115.085 -237.91)" opacity="0.2"/>
                <path id="Trazado_116494" data-name="Trazado 116494" d="M129.557,387.322a21.671,21.671,0,0,0-.652,3.315.633.633,0,0,1-.836.537c-3.529-.887-8.19-3.632-9.661-4.532a.819.819,0,0,1-.4-.783l.407-3.185a.648.648,0,0,1,.949-.471l9.695,4.2A.818.818,0,0,1,129.557,387.322Z" transform="translate(-111.728 -249.822)" fill="#263238"/>
              </g>
              <g id="Grupo_79851" data-name="Grupo 79851" transform="translate(36.501 90.682)">
                <path id="Trazado_116495" data-name="Trazado 116495" d="M182.727,387.865l-8.825.648c1.446,7.041,2.954,18.158,2.954,18.158h7.012S182.619,392.682,182.727,387.865Z" transform="translate(-153.533 -250.365)" fill="#7f3e3b"/>
                <path id="Trazado_116496" data-name="Trazado 116496" d="M191.348,415.458c-6.094,0-5.654-.094-9.078-.209-2.932-.105-3.634.262-5.99.209-1.969-.042-1.893-1.927-1.283-4.095.233-.831.564-1.8.9-3a1.6,1.6,0,0,1,1.533-1.178h7.13a1.544,1.544,0,0,1,1.3.681,9.371,9.371,0,0,0,6.788,3.98C195.917,412.285,193.777,415.458,191.348,415.458Z" transform="translate(-153.601 -252.198)" fill="#263238"/>
                <path id="Trazado_116497" data-name="Trazado 116497" d="M180.052,235.951s1.1,43.419,2.094,70.46-1.13,74.833-1.13,74.833c-.2,1.312-7.089.789-8.258,0,0,0-13.169-38.737-8.137-72.246-17.626-43.463-12.543-71.981-12.543-71.981Z" transform="translate(-151.398 -235.951)" fill="#407bff"/>
                <path id="Trazado_116498" data-name="Trazado 116498" d="M180.052,235.951s1.1,43.419,2.094,70.46-1.13,74.833-1.13,74.833c-.2,1.312-7.089.789-8.258,0,0,0-13.169-38.737-8.137-72.246-17.626-43.463-12.543-71.981-12.543-71.981Z" transform="translate(-151.398 -235.951)" opacity="0.3"/>
                <path id="Trazado_116499" data-name="Trazado 116499" d="M184.025,392.406c.026.892.08,2.483.164,3.658a.748.748,0,0,1-.652.785,49.2,49.2,0,0,1-9.113-.1.668.668,0,0,1-.6-.544l-.618-3.2a.749.749,0,0,1,.7-.877l9.406-.375A.67.67,0,0,1,184.025,392.406Z" transform="translate(-153.466 -250.734)" fill="#263238"/>
              </g>
              <path id="Trazado_116500" data-name="Trazado 116500" d="M149.7,227.5a63.656,63.656,0,0,1-.933,7.58h30.711l.324-7.812S156.133,225.92,149.7,227.5Z" transform="translate(-114.647 -144.394)" fill="#7f3e3b"/>
              <path id="Trazado_116501" data-name="Trazado 116501" d="M181.978,191.112a131.4,131.4,0,0,1-.215,14.156c-.255,6.147.916,7.655-.028,17.732-3.363,1.971-25.516,1.894-36.408.487.662-8.717,1.474-14.6-4.432-34.21a7.255,7.255,0,0,1,6.561-9.381c1.3-.124,2.686-.228,4.1-.292a111.363,111.363,0,0,1,14.937,0c1.624.138,3.306.331,4.915.541C177.217,180.9,181.8,185.66,181.978,191.112Z" transform="translate(-113.869 -139.899)" fill="#12263f"/>
              <path id="Trazado_116502" data-name="Trazado 116502" d="M234.487,217.171l-1.23-2.123a2.857,2.857,0,0,0-2.2-1.412l-4.294-.406a5.325,5.325,0,0,0-4.533,1.822l-.7.808c1.8,3.662,6.443,6.293,6.443,6.293l1.24.9a2.375,2.375,0,0,0,3.348-.458l1.809-2.435A2.739,2.739,0,0,0,234.487,217.171Z" transform="translate(-121.551 -143.111)" fill="#7f3e3b"/>
              <path id="Trazado_116503" data-name="Trazado 116503" d="M188.6,194.523l.392.62c.175.26.341.534.54.8.375.543.8,1.083,1.24,1.612a42.049,42.049,0,0,0,2.853,3.1c1.03.986,2.1,1.946,3.234,2.857s2.315,1.77,3.527,2.609l-.707-.328a51.44,51.44,0,0,0,5.08,1.554c1.8.463,3.622.935,5.467,1.361l5.551,1.316c1.852.459,3.725.88,5.569,1.35l.018,0a2.033,2.033,0,0,1-.5,4c-1.96,0-3.887-.1-5.831-.183-1.938-.105-3.874-.261-5.815-.444s-3.885-.418-5.843-.727a45.633,45.633,0,0,1-6.063-1.272,2.548,2.548,0,0,1-.519-.22l-.188-.109c-.738-.421-1.483-.831-2.216-1.268-.722-.457-1.452-.9-2.151-1.4a41.526,41.526,0,0,1-4.091-3.183,36.327,36.327,0,0,1-3.691-3.776c-.569-.691-1.122-1.4-1.647-2.157-.265-.372-.522-.767-.773-1.174-.124-.213-.245-.409-.37-.641s-.224-.4-.416-.8a4.057,4.057,0,0,1,7.081-3.936Z" transform="translate(-117.691 -141.118)" fill="#7f3e3b"/>
              <path id="Trazado_116504" data-name="Trazado 116504" d="M175.824,180.722c5.971,1.583,11.094,6.7,18.121,16.812-.979,4.133-9.976,8.9-9.976,8.9S165.269,187.812,175.824,180.722Z" transform="translate(-116.908 -140.029)" fill="#12263f"/>
              <path id="Trazado_116505" data-name="Trazado 116505" d="M171.135,151.066c.224.625.734,1.038,1.14.923s.553-.714.329-1.339-.734-1.037-1.14-.922S170.911,150.441,171.135,151.066Z" transform="translate(-116.76 -137.086)" fill="#263238"/>
              <path id="Trazado_116506" data-name="Trazado 116506" d="M171.325,149.735l1.336-.854S172.316,150.269,171.325,149.735Z" transform="translate(-116.788 -137.008)" fill="#263238"/>
              <path id="Trazado_116507" data-name="Trazado 116507" d="M171.667,152.5a19.469,19.469,0,0,0,3.642,3.36,2.641,2.641,0,0,1-2.063,1.044Z" transform="translate(-116.82 -137.351)" fill="#630f0f"/>
              <path id="Trazado_116508" data-name="Trazado 116508" d="M169.713,145.346a.36.36,0,0,0,.227-.162.382.382,0,0,0-.151-.52,4.052,4.052,0,0,0-3.572-.406.353.353,0,0,0-.166.5.419.419,0,0,0,.529.191,3.238,3.238,0,0,1,2.826.351A.419.419,0,0,0,169.713,145.346Z" transform="translate(-116.283 -136.547)" fill="#263238"/>
              <path id="Trazado_116509" data-name="Trazado 116509" d="M147.372,153.639c2.984,7.311,4.091,10.46,9.175,13.218,7.648,4.15,16.021-.587,15.292-8.513-.656-7.135-5.426-17.891-13.775-18.8A10.115,10.115,0,0,0,147.372,153.639Z" transform="translate(-114.437 -136.115)" fill="#7f3e3b"/>
              <path id="Trazado_116510" data-name="Trazado 116510" d="M163.783,153.112c2.448,5.379,2.132,20.615-11.559,15.891s-12.736-12.158-9.039-18.092c-7.431-6.649,2.169-11.929,10.994-14.331S170.741,136.329,163.783,153.112Z" transform="translate(-113.865 -135.763)" fill="#263238"/>
              <path id="Trazado_116511" data-name="Trazado 116511" d="M150.182,153.921a5.848,5.848,0,1,1-6.892-4.57A5.849,5.849,0,0,1,150.182,153.921Z" transform="translate(-113.683 -137.041)" fill="#407bff"/>
              <path id="Trazado_116512" data-name="Trazado 116512" d="M143.771,162.718c2.679-5.43.5-12.189-3.7-16.548-7.971-8.268-18.962-2.836-15.93,5.338,3.618,9.751-15.462,19.765-4.341,25.545,10.881,5.654,28.939-4.322,23.875-14.141C143.707,162.847,143.74,162.782,143.771,162.718Z" transform="translate(-111.564 -136.36)" fill="#263238"/>
              <path id="Trazado_116513" data-name="Trazado 116513" d="M162.8,154.854a5.426,5.426,0,0,0,3.578,2.538c1.846.292,2.413-1.847,1.6-3.843-.729-1.8-2.568-4.112-4.277-3.485C162.016,150.682,161.7,153.137,162.8,154.854Z" transform="translate(-115.918 -137.11)" fill="#7f3e3b"/>
              <path id="Trazado_116514" data-name="Trazado 116514" d="M146.594,180.036c-5.355.827-7.5,2.456-11.878,13.218C136.7,197.268,146,201.108,146,201.108S152.158,187.168,146.594,180.036Z" transform="translate(-113.314 -139.964)" fill="#12263f"/>
              <path id="Trazado_116515" data-name="Trazado 116515" d="M179.594,238.184a147.846,147.846,0,0,1-33.029-.068.75.75,0,0,1-.573-1.049q.4-.949.8-1.9a.691.691,0,0,1,.71-.439,144.831,144.831,0,0,0,31.756,0,.712.712,0,0,1,.768.663l.2,1.97A.742.742,0,0,1,179.594,238.184Z" transform="translate(-114.378 -145.153)" fill="#263238"/>
            </g>
          </g>
        </g>
      </g>
    </g>
  </g>
</svg>
