<svg xmlns="http://www.w3.org/2000/svg" xmlns:xlink="http://www.w3.org/1999/xlink" width="108" height="108" viewBox="0 0 108 108">
  <defs>
    <clipPath id="clip-path">
      <rect id="Rectángulo_45992" data-name="Rectángulo 45992" width="61.333" height="61.821" fill="#fff"/>
    </clipPath>
  </defs>
  <g id="Grupo_154419" data-name="Grupo 154419" transform="translate(-1059.958 -2443)">
    <circle id="Elipse_5724" data-name="Elipse 5724" cx="54" cy="54" r="54" transform="translate(1059.958 2443)" fill="#2194e5"/>
    <g id="Grupo_154340" data-name="Grupo 154340" transform="translate(1083.292 2465.839)">
      <g id="Grupo_154339" data-name="Grupo 154339" clip-path="url(#clip-path)">
        <path id="Trazado_196321" data-name="Trazado 196321" d="M1.2,0c.852.823,1.713,1.636,2.553,2.47,1.756,1.743,3.5,3.5,5.25,5.247a.915.915,0,0,1,.207,1.288c-.358.519-.963.513-1.5-.019Q5.3,6.583,2.892,4.168,1.7,2.973.505,1.775C-.2,1.071-.17.625.6,0Z" transform="translate(0)" fill="#fff"/>
        <path id="Trazado_196322" data-name="Trazado 196322" d="M116.735,0c.769.623.8,1.076.1,1.778q-3.559,3.566-7.125,7.126c-.141.14-.3.361-.46.364a1.923,1.923,0,0,1-1.036-.189.731.731,0,0,1-.141-1.032,2.769,2.769,0,0,1,.435-.5Q111.978,4.07,115.458.6c.212-.211.448-.4.673-.6Z" transform="translate(-56.002)" fill="#fff"/>
        <path id="Trazado_196323" data-name="Trazado 196323" d="M98.72,0a1.19,1.19,0,0,1,.46,1.517c-.326,1.055-.591,2.129-.892,3.192-.2.7-.6.98-1.159.846-.546-.129-.772-.609-.59-1.3.293-1.107.568-2.22.917-3.309A3.913,3.913,0,0,1,98.117,0Z" transform="translate(-50.062)" fill="#fff"/>
        <path id="Trazado_196324" data-name="Trazado 196324" d="M26.35,0a3.9,3.9,0,0,1,.66.948c.353,1.109.636,2.241.929,3.368.166.64-.08,1.118-.606,1.241-.55.128-.954-.139-1.138-.789-.313-1.1-.587-2.214-.921-3.308A1.16,1.16,0,0,1,25.746,0Z" transform="translate(-13.071)" fill="#fff"/>
        <path id="Trazado_196325" data-name="Trazado 196325" d="M14.062,46.9c.1-.552.164-1.112.3-1.653A3.9,3.9,0,0,0,13.3,41.261a5.594,5.594,0,0,1,.014-8.268,3.864,3.864,0,0,0,1.056-3.927A5.58,5.58,0,0,1,18.49,21.9,3.925,3.925,0,0,0,21.4,18.978a5.581,5.581,0,0,1,7.123-4.1A3.887,3.887,0,0,0,32.5,13.81a5.6,5.6,0,0,1,8.268.016A3.854,3.854,0,0,0,44.7,14.883,5.578,5.578,0,0,1,51.857,19a3.9,3.9,0,0,0,2.982,2.919,5.57,5.57,0,0,1,4.091,6.933,4.131,4.131,0,0,0,1.183,4.333A5.54,5.54,0,0,1,60.1,41.1a4.132,4.132,0,0,0-1.164,4.338,5.572,5.572,0,0,1-4.057,6.905,3.948,3.948,0,0,0-3.039,3.007,5.579,5.579,0,0,1-7.05,4.064A3.933,3.933,0,0,0,40.707,60.5a5.574,5.574,0,0,1-8.135.026,3.969,3.969,0,0,0-4.131-1.107,5.574,5.574,0,0,1-7.017-4.034,4.014,4.014,0,0,0-3.068-3.057A5.665,5.665,0,0,1,14.062,46.9M57.355,27.361a3.777,3.777,0,0,0-2.84-3.639,5.863,5.863,0,0,1-4.479-4.481,3.7,3.7,0,0,0-4.646-2.659,5.84,5.84,0,0,1-6.068-1.629,3.724,3.724,0,0,0-5.407.011A5.783,5.783,0,0,1,27.9,16.588a3.715,3.715,0,0,0-4.694,2.672,5.885,5.885,0,0,1-4.436,4.454,3.724,3.724,0,0,0-2.691,4.735,5.726,5.726,0,0,1-1.573,5.914,3.76,3.76,0,0,0-.005,5.541A5.719,5.719,0,0,1,16.1,45.756a3.777,3.777,0,0,0,2.834,4.865,5.609,5.609,0,0,1,4.208,4.21,3.775,3.775,0,0,0,4.868,2.827,5.7,5.7,0,0,1,5.807,1.561A3.787,3.787,0,0,0,39.45,59.2a5.617,5.617,0,0,1,5.75-1.549,3.8,3.8,0,0,0,4.916-2.845,5.564,5.564,0,0,1,4.163-4.177,3.819,3.819,0,0,0,2.859-4.961,5.646,5.646,0,0,1,1.531-5.7,4.525,4.525,0,0,0,.983-1.422,3.634,3.634,0,0,0-.888-4.157,5.736,5.736,0,0,1-1.6-5.964c.094-.346.127-.709.188-1.064" transform="translate(-5.959 -6.224)" fill="#fff"/>
        <path id="Trazado_196326" data-name="Trazado 196326" d="M1.109,118.393c-.841-.009-1.273-.7-.981-1.29a1.325,1.325,0,0,1,.251-.334q3.707-3.716,7.429-7.418a1.2,1.2,0,0,1,.739-.329.878.878,0,0,1,.752,1.3,2.152,2.152,0,0,1-.384.46q-3.56,3.565-7.129,7.12a4.443,4.443,0,0,1-.675.489" transform="translate(-0.019 -56.572)" fill="#fff"/>
        <path id="Trazado_196327" data-name="Trazado 196327" d="M117.4,117.4a.927.927,0,0,1-1.348.933,2.431,2.431,0,0,1-.454-.393c-2.376-2.374-4.759-4.742-7.114-7.137a1.529,1.529,0,0,1-.421-.98.89.89,0,0,1,.577-.651,1.343,1.343,0,0,1,1.005.291c1.51,1.447,2.976,2.939,4.455,4.418.953.953,1.912,1.9,2.85,2.867a3.919,3.919,0,0,1,.448.651" transform="translate(-56.077 -56.647)" fill="#fff"/>
        <path id="Trazado_196328" data-name="Trazado 196328" d="M26.317,122.466c-.82.012-1.281-.513-1.135-1.092.324-1.285.676-2.564,1.047-3.836a.9.9,0,1,1,1.725.5c-.325,1.244-.643,2.491-1.035,3.714-.1.323-.467.562-.6.715" transform="translate(-13.053 -60.652)" fill="#fff"/>
        <path id="Trazado_196329" data-name="Trazado 196329" d="M99.275,121.526a.924.924,0,0,1-.761.936.79.79,0,0,1-.969-.534c-.4-1.325-.764-2.663-1.1-4.006a.843.843,0,0,1,.673-.993.855.855,0,0,1,1.082.626c.285.962.535,1.935.8,2.9.1.368.195.737.282,1.067" transform="translate(-50.032 -60.662)" fill="#fff"/>
        <path id="Trazado_196330" data-name="Trazado 196330" d="M116.908,27.826c-.564-.034-.9-.231-1.007-.678a.786.786,0,0,1,.488-1.038Q118.4,25.5,120.452,25a.794.794,0,0,1,.954.643.765.765,0,0,1-.444,1.007c-1.374.442-2.771.809-4.054,1.175" transform="translate(-60.122 -12.961)" fill="#fff"/>
        <path id="Trazado_196331" data-name="Trazado 196331" d="M1.041,24.988c.39.1.874.231,1.358.361.853.229,1.711.44,2.555.7a.879.879,0,0,1,.611,1.144.89.89,0,0,1-1.1.594C3.2,27.457,1.942,27.106.69,26.743A.833.833,0,0,1,.045,25.73c.083-.469.407-.721,1-.742" transform="translate(-0.014 -12.966)" fill="#fff"/>
        <path id="Trazado_196332" data-name="Trazado 196332" d="M1.1,100.46c-.655-.024-.97-.278-1.064-.745a.788.788,0,0,1,.531-.97q1.986-.6,4-1.1a.8.8,0,0,1,.978.607.778.778,0,0,1-.441,1.059c-1.375.436-2.772.8-4.008,1.154" transform="translate(-0.008 -50.652)" fill="#fff"/>
        <path id="Trazado_196333" data-name="Trazado 196333" d="M121.449,99.361c-.02.751-.484,1.2-1.025,1.067-1.346-.319-2.682-.684-4.008-1.08a.8.8,0,0,1-.51-1.079.807.807,0,0,1,1.024-.617c1.3.326,2.6.671,3.883,1.082.3.1.5.485.636.626" transform="translate(-60.119 -50.656)" fill="#fff"/>
        <path id="Trazado_196334" data-name="Trazado 196334" d="M62.175,43.014A19.808,19.808,0,1,1,39.444,23.441c.219-.032.437-.082.656-.092a.884.884,0,0,1,.99.764.9.9,0,0,1-.787,1.034c-.964.2-1.944.334-2.888.6a17.946,17.946,0,1,0,8.219-.424c-.335-.065-.675-.108-1.014-.156-.693-.1-1.08-.491-1.009-1.027.074-.56.537-.862,1.219-.773A19.78,19.78,0,0,1,62.175,43.014" transform="translate(-11.704 -12.115)" fill="#fff"/>
        <path id="Trazado_196335" data-name="Trazado 196335" d="M46.417,52.867a4.839,4.839,0,0,1,.43-.6q4.218-4.232,8.447-8.453a2.841,2.841,0,0,1,4.479,0c.681.684,1.375,1.356,2.042,2.055a2.76,2.76,0,0,1-.029,4.045c-2.393,2.415-4.806,4.81-7.207,7.217a.959.959,0,0,1-1.233.3A.876.876,0,0,1,53.157,56c.492-.531,1.019-1.029,1.531-1.541q2.817-2.817,5.633-5.634c.727-.729.729-1.16.009-1.887q-.935-.943-1.879-1.876c-.695-.682-1.159-.682-1.845,0q-4.633,4.629-9.262,9.26c-.844.843-1.16.845-1.991.015q-1.644-1.642-3.287-3.285c-.706-.7-1.148-.7-1.843-.013-.728.723-1.457,1.446-2.176,2.177a1.017,1.017,0,0,0,0,1.67q3.13,3.144,6.275,6.272a2.493,2.493,0,0,0,3.665-.009c.693-.672,1.363-1.368,2.053-2.044a.913.913,0,1,1,1.286,1.262c-.733.747-1.46,1.5-2.224,2.214a4.247,4.247,0,0,1-5.9-.007c-2.241-2.167-4.436-4.383-6.622-6.606a2.716,2.716,0,0,1-.02-3.819q1.283-1.36,2.642-2.649a2.759,2.759,0,0,1,3.913.047c.534.518,1.055,1.05,1.579,1.578s1.045,1.058,1.719,1.742" transform="translate(-18.571 -22.166)" fill="#fff"/>
      </g>
    </g>
  </g>
</svg>
