<svg xmlns="http://www.w3.org/2000/svg" xmlns:xlink="http://www.w3.org/1999/xlink" width="108" height="108" viewBox="0 0 108 108">
  <defs>
    <clipPath id="clip-path">
      <rect id="Rectángulo_46012" data-name="Rectángulo 46012" width="59.488" height="64.026" fill="#fff"/>
    </clipPath>
  </defs>
  <g id="Grupo_154420" data-name="Grupo 154420" transform="translate(-745.958 -2443)">
    <circle id="Elipse_5723" data-name="Elipse 5723" cx="54" cy="54" r="54" transform="translate(745.958 2443)" fill="#2194e5"/>
    <g id="Grupo_154352" data-name="Grupo 154352" transform="translate(769.958 2465)">
      <g id="Grupo_154351" data-name="Grupo 154351" transform="translate(0 0)" clip-path="url(#clip-path)">
        <path id="Trazado_196379" data-name="Trazado 196379" d="M.732,74.658a1.485,1.485,0,0,1-.61-1.34C.092,68.151.042,62.984,0,57.817c-.01-1.206.234-1.445,1.465-1.446H2.524V49.626c0-.167-.007-.335.009-.5a.966.966,0,0,1,.955-.958.929.929,0,0,1,.9,1c.014,2.125.007,4.25.009,6.376v.783H15.069a16.381,16.381,0,0,1,2.824-16.03h-.736q-4.626,0-9.252,0c-1.062,0-1.319-.261-1.319-1.33q0-7.439,0-14.878c0-1.059.266-1.321,1.331-1.321q5.938,0,11.877,0c1,0,1.3.3,1.3,1.308q0,6.282,0,12.565v.714c6.525-3.766,13-3.926,18.988.758S47.441,49.1,45.374,56.322h5.148v-.759q0-9.221,0-18.441a3.049,3.049,0,0,1,.054-.743.918.918,0,0,1,1.809.153c.018.207.01.416.01.625q0,9.189,0,18.379v.835c.459,0,.867,0,1.275,0,.979.008,1.253.279,1.254,1.274,0,3.5.01,7-.009,10.5a1.373,1.373,0,0,0,.457,1.09c1.21,1.176,2.395,2.378,3.586,3.575.725.728.7,1.186-.083,1.847h-.625c-.235-.2-.483-.392-.7-.611q-3.715-3.7-7.421-7.416c-.144-.143-.295-.28-.414-.392l-4.027,4.032c.833.83,1.7,1.69,2.565,2.557.729.733.692,1.2-.13,1.829H10.736c-.449-.293-.784-.662-.583-1.237s.682-.675,1.221-.639c.145.009.291,0,.438,0H45.425c-.031-.109-.03-.156-.053-.18q-.658-.668-1.32-1.331c-.9-.9-.91-1.107-.094-2.067.021-.025.012-.077.007-.039L42.158,67.31c-1.072.865-1.21.856-2.218-.151-.589-.589-1.2-1.156-1.759-1.775a.712.712,0,0,0-1.008-.165,16.064,16.064,0,0,1-20.922-6.472.866.866,0,0,0-.873-.51c-4.271.015-8.541.009-12.812.011-.217,0-.435.026-.593.035v14.5c1.5,0,2.91.007,4.319,0,.529,0,1.01.047,1.231.626s-.14.929-.538,1.254Zm29.447-9.725a14.207,14.207,0,1,0-14.193-14.25,14.16,14.16,0,0,0,14.193,14.25M8.5,38.36h10.68V24.673H8.5ZM44.382,58.28c.966.948,1.805,1.756,2.625,2.583a.94.94,0,0,1,.054,1.479l-.278.327,1.827,1.86c.06-.045.129-.088.189-.142.74-.663,1.08-.655,1.789.051.516.513,1.03,1.03,1.545,1.544.268.266.538.53.876.863V58.28Zm-3.373,7.274,3.982-3.946L43.5,60.067l-3.961,3.961,1.468,1.526m6.087.427-1.673-1.736L43.71,65.963l1.683,1.783,1.7-1.765" transform="translate(0 -10.633)" fill="#fff"/>
        <path id="Trazado_196380" data-name="Trazado 196380" d="M29.682,9.974H7.555c-.945,0-.946,0-.946.973V33.262c0,.166,0,.333,0,.5-.008.856-.321,1.27-.949,1.259s-.925-.425-.926-1.294q0-11.563,0-23.126a2.466,2.466,0,0,1,1.01-2.167.833.833,0,0,0,.251-.569c.037-.561.01-1.124.026-1.687a2.285,2.285,0,0,1,.889-1.718,1.152,1.152,0,0,0,.353-.7c.054-.557,0-1.124.031-1.686A2.16,2.16,0,0,1,9.394.005c.187-.009.375,0,.562,0H49.4c1.91,0,2.692.781,2.693,2.69a5.424,5.424,0,0,1,0,.625A1.432,1.432,0,0,0,52.65,4.7a3.082,3.082,0,0,1,.673,1.413,3.048,3.048,0,0,1,.02,1.057,1.741,1.741,0,0,0,.605,1.621A2.383,2.383,0,0,1,54.58,10.4c.054,3.666.03,7.333.026,11,0,.709-.329,1.1-.9,1.12-.6.017-.972-.393-.974-1.119-.007-3.125,0-6.25,0-9.376,0-.521-.009-1.042,0-1.562.007-.346-.148-.5-.488-.484-.187.007-.375,0-.562,0h-22M7.965,8.051H51.472V6.946c0-1.035,0-1.036-1.011-1.036H9.715c-2.019,0-2.019,0-1.806,2.031a.581.581,0,0,0,.056.11M50.214,4V2.852c0-.974,0-.975-.941-.975h-39.2c-.146,0-.32-.05-.431.012-.183.1-.445.266-.461.426A16.57,16.57,0,0,0,9.156,4Z" transform="translate(-2.21 0)" fill="#fff"/>
        <path id="Trazado_196381" data-name="Trazado 196381" d="M56.551,24.636q-5.528,0-11.055,0a2.769,2.769,0,0,1-.622-.027.929.929,0,0,1,.039-1.832,3.126,3.126,0,0,1,.562-.015H67.584a3.577,3.577,0,0,1,.561.013.929.929,0,0,1,.021,1.842,3.231,3.231,0,0,1-.623.02H56.551" transform="translate(-20.607 -10.629)" fill="#fff"/>
        <path id="Trazado_196382" data-name="Trazado 196382" d="M56.477,32.206q-5.439,0-10.878,0a5.163,5.163,0,0,1-.686-.023.859.859,0,0,1-.792-.832.845.845,0,0,1,.644-.948,2.416,2.416,0,0,1,.678-.069q11.1,0,22.194,0c.246,0,.575-.036.721.1.262.244.586.62.561.913s-.407.608-.7.811c-.174.119-.485.047-.735.047q-5.5,0-11,0" transform="translate(-20.606 -14.167)" fill="#fff"/>
        <path id="Trazado_196383" data-name="Trazado 196383" d="M52.781,39.814q-3.654,0-7.307,0a2.7,2.7,0,0,1-.679-.061.847.847,0,0,1-.676-.925.856.856,0,0,1,.762-.857,3.723,3.723,0,0,1,.622-.03q7.245,0,14.49,0a3.613,3.613,0,0,1,.622.03.915.915,0,0,1,.091,1.783,2.672,2.672,0,0,1-.679.06q-3.623.006-7.245,0" transform="translate(-20.607 -17.721)" fill="#fff"/>
        <path id="Trazado_196384" data-name="Trazado 196384" d="M46.085,76.722A12.057,12.057,0,1,1,58.143,64.69,12.067,12.067,0,0,1,46.085,76.722m.029-1.876A10.181,10.181,0,1,0,35.9,64.695a10.172,10.172,0,0,0,10.21,10.151" transform="translate(-15.895 -24.573)" fill="#fff"/>
        <path id="Trazado_196385" data-name="Trazado 196385" d="M51.755,74.256H46.971c-.441,0-.554-.111-.548-.56.007-.559-.008-1.121.045-1.677a2.194,2.194,0,0,1,1.326-1.853c.4-.192.844-.309,1.247-.5a2.8,2.8,0,0,0,.784-.528c.213-.216.162-.336-.074-.533a2.889,2.889,0,0,1-1.14-2.109,12.558,12.558,0,0,1,.074-2.683,3.169,3.169,0,0,1,6.232.346,14.7,14.7,0,0,1-.007,2.436,2.875,2.875,0,0,1-1.19,2.054c-.146.114-.187.234-.088.358a2.007,2.007,0,0,0,.512.5,6.112,6.112,0,0,0,.868.354c.189.074.381.142.567.223A2.4,2.4,0,0,1,57.108,72.4c.013.457.005.916,0,1.374,0,.355-.133.484-.5.484h-4.86" transform="translate(-21.684 -28.666)" fill="#fff"/>
      </g>
    </g>
  </g>
</svg>
