<svg xmlns="http://www.w3.org/2000/svg" xmlns:xlink="http://www.w3.org/1999/xlink" width="1016.033" height="442" viewBox="0 0 1016.033 442">
  <defs>
    <clipPath id="clip-path">
      <ellipse id="Elipse_4979" data-name="Elipse 4979" cx="37.309" cy="37.309" rx="37.309" ry="37.309" fill="none" stroke="#707070" stroke-width="1"/>
    </clipPath>
  </defs>
  <g id="Grupo_154414" data-name="Grupo 154414" transform="translate(-1269 9368)">
    <g id="Grupo_154413" data-name="Grupo 154413" transform="translate(977.042 -10833.6)">
      <path id="Trazado_174289" data-name="Trazado 174289" d="M170.895,383.022a86.817,86.817,0,1,0,86.817,86.817A86.817,86.817,0,0,0,170.895,383.022Zm0,156.28a69.463,69.463,0,1,1,69.463-69.463A69.463,69.463,0,0,1,170.895,539.3Z" transform="translate(694.036 1341.199)" fill="#ede7f7" opacity="0.396"/>
      <path id="Trazado_196468" data-name="Trazado 196468" d="M170.895,383.022a86.817,86.817,0,1,0,86.817,86.817A86.817,86.817,0,0,0,170.895,383.022Zm0,156.28a69.463,69.463,0,1,1,69.463-69.463A69.463,69.463,0,0,1,170.895,539.3Z" transform="translate(307.036 1112.691)" fill="#ede7f7" opacity="0.693"/>
      <g id="Grupo_124668" data-name="Grupo 124668" transform="translate(1228.341 1722.848)">
        <line id="Línea_1655" data-name="Línea 1655" x1="10.948" y2="10.948" fill="none" stroke="#d8d9da" stroke-miterlimit="10" stroke-width="0.78"/>
        <line id="Línea_1656" data-name="Línea 1656" x1="10.948" y2="10.948" transform="translate(5.334)" fill="none" stroke="#d8d9da" stroke-miterlimit="10" stroke-width="0.78"/>
        <line id="Línea_1657" data-name="Línea 1657" x1="10.948" y2="10.948" transform="translate(10.667)" fill="none" stroke="#d8d9da" stroke-miterlimit="10" stroke-width="0.78"/>
        <line id="Línea_1658" data-name="Línea 1658" x1="10.948" y2="10.948" transform="translate(16.001)" fill="none" stroke="#d8d9da" stroke-miterlimit="10" stroke-width="0.78"/>
        <line id="Línea_1659" data-name="Línea 1659" x1="10.948" y2="10.948" transform="translate(21.335)" fill="none" stroke="#d8d9da" stroke-miterlimit="10" stroke-width="0.78"/>
        <line id="Línea_1660" data-name="Línea 1660" x1="10.948" y2="10.948" transform="translate(26.668)" fill="none" stroke="#d8d9da" stroke-miterlimit="10" stroke-width="0.78"/>
        <line id="Línea_1661" data-name="Línea 1661" x1="10.948" y2="10.948" transform="translate(32.002)" fill="none" stroke="#d8d9da" stroke-miterlimit="10" stroke-width="0.78"/>
        <line id="Línea_1662" data-name="Línea 1662" x1="10.948" y2="10.948" transform="translate(37.336)" fill="none" stroke="#d8d9da" stroke-miterlimit="10" stroke-width="0.78"/>
        <line id="Línea_1663" data-name="Línea 1663" x1="10.948" y2="10.948" transform="translate(42.669)" fill="none" stroke="#d8d9da" stroke-miterlimit="10" stroke-width="0.78"/>
        <line id="Línea_1664" data-name="Línea 1664" x1="10.948" y2="10.948" transform="translate(48.003)" fill="none" stroke="#d8d9da" stroke-miterlimit="10" stroke-width="0.78"/>
        <line id="Línea_1665" data-name="Línea 1665" x1="10.948" y2="10.948" transform="translate(53.336)" fill="none" stroke="#d8d9da" stroke-miterlimit="10" stroke-width="0.78"/>
        <line id="Línea_1666" data-name="Línea 1666" x1="10.948" y2="10.948" transform="translate(58.67)" fill="none" stroke="#d8d9da" stroke-miterlimit="10" stroke-width="0.78"/>
        <line id="Línea_1667" data-name="Línea 1667" x1="10.948" y2="10.948" transform="translate(64.004)" fill="none" stroke="#d8d9da" stroke-miterlimit="10" stroke-width="0.78"/>
      </g>
      <g id="Grupo_124677" data-name="Grupo 124677" transform="translate(291.958 1497.862)">
        <g id="Grupo_124673" data-name="Grupo 124673">
          <line id="Línea_1668" data-name="Línea 1668" y2="8.834" transform="translate(4.417)" fill="none" stroke="#8f9294" stroke-miterlimit="10" stroke-width="0.388"/>
          <line id="Línea_1669" data-name="Línea 1669" x2="8.834" transform="translate(0 4.417)" fill="none" stroke="#8f9294" stroke-miterlimit="10" stroke-width="0.388"/>
        </g>
        <g id="Grupo_124674" data-name="Grupo 124674" transform="translate(24.072)">
          <line id="Línea_1670" data-name="Línea 1670" y2="8.834" transform="translate(4.417)" fill="none" stroke="#8f9294" stroke-miterlimit="10" stroke-width="0.388"/>
          <line id="Línea_1671" data-name="Línea 1671" x2="8.834" transform="translate(0 4.417)" fill="none" stroke="#8f9294" stroke-miterlimit="10" stroke-width="0.388"/>
        </g>
        <g id="Grupo_124675" data-name="Grupo 124675" transform="translate(48.144)">
          <line id="Línea_1672" data-name="Línea 1672" y2="8.834" transform="translate(4.417)" fill="none" stroke="#8f9294" stroke-miterlimit="10" stroke-width="0.388"/>
          <line id="Línea_1673" data-name="Línea 1673" x2="8.834" transform="translate(0 4.417)" fill="none" stroke="#8f9294" stroke-miterlimit="10" stroke-width="0.388"/>
        </g>
        <g id="Grupo_124676" data-name="Grupo 124676" transform="translate(72.215)">
          <line id="Línea_1674" data-name="Línea 1674" y2="8.834" transform="translate(4.417)" fill="none" stroke="#8f9294" stroke-miterlimit="10" stroke-width="0.388"/>
          <line id="Línea_1675" data-name="Línea 1675" x2="8.834" transform="translate(0 4.417)" fill="none" stroke="#8f9294" stroke-miterlimit="10" stroke-width="0.388"/>
        </g>
      </g>
      <g id="Grupo_124682" data-name="Grupo 124682" transform="translate(291.958 1516.192)">
        <g id="Grupo_124678" data-name="Grupo 124678">
          <line id="Línea_1676" data-name="Línea 1676" y2="8.834" transform="translate(4.417)" fill="none" stroke="#8f9294" stroke-miterlimit="10" stroke-width="0.388"/>
          <line id="Línea_1677" data-name="Línea 1677" x2="8.834" transform="translate(0 4.417)" fill="none" stroke="#8f9294" stroke-miterlimit="10" stroke-width="0.388"/>
        </g>
        <g id="Grupo_124679" data-name="Grupo 124679" transform="translate(24.072)">
          <line id="Línea_1678" data-name="Línea 1678" y2="8.834" transform="translate(4.417)" fill="none" stroke="#8f9294" stroke-miterlimit="10" stroke-width="0.388"/>
          <line id="Línea_1679" data-name="Línea 1679" x2="8.834" transform="translate(0 4.417)" fill="none" stroke="#8f9294" stroke-miterlimit="10" stroke-width="0.388"/>
        </g>
        <g id="Grupo_124680" data-name="Grupo 124680" transform="translate(48.144)">
          <line id="Línea_1680" data-name="Línea 1680" y2="8.834" transform="translate(4.417)" fill="none" stroke="#8f9294" stroke-miterlimit="10" stroke-width="0.388"/>
          <line id="Línea_1681" data-name="Línea 1681" x2="8.834" transform="translate(0 4.417)" fill="none" stroke="#8f9294" stroke-miterlimit="10" stroke-width="0.388"/>
        </g>
        <g id="Grupo_124681" data-name="Grupo 124681" transform="translate(72.215)">
          <line id="Línea_1682" data-name="Línea 1682" y2="8.834" transform="translate(4.417)" fill="none" stroke="#8f9294" stroke-miterlimit="10" stroke-width="0.388"/>
          <line id="Línea_1683" data-name="Línea 1683" x2="8.834" transform="translate(0 4.417)" fill="none" stroke="#8f9294" stroke-miterlimit="10" stroke-width="0.388"/>
        </g>
      </g>
      <g id="Grupo_124687" data-name="Grupo 124687" transform="translate(291.958 1534.522)">
        <g id="Grupo_124683" data-name="Grupo 124683">
          <line id="Línea_1684" data-name="Línea 1684" y2="8.834" transform="translate(4.417)" fill="none" stroke="#8f9294" stroke-miterlimit="10" stroke-width="0.388"/>
          <line id="Línea_1685" data-name="Línea 1685" x2="8.834" transform="translate(0 4.417)" fill="none" stroke="#8f9294" stroke-miterlimit="10" stroke-width="0.388"/>
        </g>
        <g id="Grupo_124684" data-name="Grupo 124684" transform="translate(24.072)">
          <line id="Línea_1686" data-name="Línea 1686" y2="8.834" transform="translate(4.417)" fill="none" stroke="#8f9294" stroke-miterlimit="10" stroke-width="0.388"/>
          <line id="Línea_1687" data-name="Línea 1687" x2="8.834" transform="translate(0 4.417)" fill="none" stroke="#8f9294" stroke-miterlimit="10" stroke-width="0.388"/>
        </g>
        <g id="Grupo_124685" data-name="Grupo 124685" transform="translate(48.144)">
          <line id="Línea_1688" data-name="Línea 1688" y2="8.834" transform="translate(4.417)" fill="none" stroke="#8f9294" stroke-miterlimit="10" stroke-width="0.388"/>
          <line id="Línea_1689" data-name="Línea 1689" x2="8.834" transform="translate(0 4.417)" fill="none" stroke="#8f9294" stroke-miterlimit="10" stroke-width="0.388"/>
        </g>
        <g id="Grupo_124686" data-name="Grupo 124686" transform="translate(72.215)">
          <line id="Línea_1690" data-name="Línea 1690" y2="8.834" transform="translate(4.417)" fill="none" stroke="#8f9294" stroke-miterlimit="10" stroke-width="0.388"/>
          <line id="Línea_1691" data-name="Línea 1691" x2="8.834" transform="translate(0 4.417)" fill="none" stroke="#8f9294" stroke-miterlimit="10" stroke-width="0.388"/>
        </g>
      </g>
      <g id="Grupo_124692" data-name="Grupo 124692" transform="translate(291.958 1552.852)">
        <g id="Grupo_124688" data-name="Grupo 124688">
          <line id="Línea_1692" data-name="Línea 1692" y2="8.834" transform="translate(4.417)" fill="none" stroke="#8f9294" stroke-miterlimit="10" stroke-width="0.388"/>
          <line id="Línea_1693" data-name="Línea 1693" x2="8.834" transform="translate(0 4.417)" fill="none" stroke="#8f9294" stroke-miterlimit="10" stroke-width="0.388"/>
        </g>
        <g id="Grupo_124689" data-name="Grupo 124689" transform="translate(24.072)">
          <line id="Línea_1694" data-name="Línea 1694" y2="8.834" transform="translate(4.417)" fill="none" stroke="#8f9294" stroke-miterlimit="10" stroke-width="0.388"/>
          <line id="Línea_1695" data-name="Línea 1695" x2="8.834" transform="translate(0 4.417)" fill="none" stroke="#8f9294" stroke-miterlimit="10" stroke-width="0.388"/>
        </g>
        <g id="Grupo_124690" data-name="Grupo 124690" transform="translate(48.144)">
          <line id="Línea_1696" data-name="Línea 1696" y2="8.834" transform="translate(4.417)" fill="none" stroke="#8f9294" stroke-miterlimit="10" stroke-width="0.388"/>
          <line id="Línea_1697" data-name="Línea 1697" x2="8.834" transform="translate(0 4.417)" fill="none" stroke="#8f9294" stroke-miterlimit="10" stroke-width="0.388"/>
        </g>
        <g id="Grupo_124691" data-name="Grupo 124691" transform="translate(72.215)">
          <line id="Línea_1698" data-name="Línea 1698" y2="8.834" transform="translate(4.417)" fill="none" stroke="#8f9294" stroke-miterlimit="10" stroke-width="0.388"/>
          <line id="Línea_1699" data-name="Línea 1699" x2="8.834" transform="translate(0 4.417)" fill="none" stroke="#8f9294" stroke-miterlimit="10" stroke-width="0.388"/>
        </g>
      </g>
      <rect id="Rectángulo_35685" data-name="Rectángulo 35685" width="97.944" height="8.212" transform="translate(951.747 1493.756)" fill="#ede7f7"/>
      <path id="Trazado_174309" data-name="Trazado 174309" d="M745.488,275.471a20.844,20.844,0,1,0,20.845,20.844A20.844,20.844,0,0,0,745.488,275.471Zm0,30.591a9.747,9.747,0,1,1,9.747-9.747A9.747,9.747,0,0,1,745.488,306.062Z" transform="translate(350.126 1282.792)" fill="#ede7f7"/>
      <path id="Trazado_196469" data-name="Trazado 196469" d="M745.488,275.471a20.844,20.844,0,1,0,20.845,20.844A20.844,20.844,0,0,0,745.488,275.471Zm0,30.591a9.747,9.747,0,1,1,9.747-9.747A9.747,9.747,0,0,1,745.488,306.062Z" transform="translate(-413.006 1484.785)" fill="#ede7f7"/>
      <g id="Grupo_124745" data-name="Grupo 124745" transform="translate(862.905 1516.192)" clip-path="url(#clip-path)">
        <path id="Trazado_174310" data-name="Trazado 174310" d="M495.531,136.445c-10.319,10.954-21.4,21.148-31.721,32.144" transform="translate(-467.822 -138.195)" fill="none" stroke="#606060" stroke-miterlimit="10" stroke-width="0.655"/>
        <path id="Trazado_174311" data-name="Trazado 174311" d="M500.239,136.393c-11.494,12.318-24.347,24.285-36.467,36.45" transform="translate(-467.81 -138.178)" fill="none" stroke="#606060" stroke-miterlimit="10" stroke-width="0.655"/>
        <path id="Trazado_174312" data-name="Trazado 174312" d="M504.564,136.4c-13.644,13.64-27.384,27.38-40.92,40.927" transform="translate(-467.768 -138.182)" fill="none" stroke="#606060" stroke-miterlimit="10" stroke-width="0.655"/>
        <path id="Trazado_174313" data-name="Trazado 174313" d="M508.907,136.55q-22.3,22.307-45.212,45.2" transform="translate(-467.785 -138.229)" fill="none" stroke="#606060" stroke-miterlimit="10" stroke-width="0.655"/>
        <path id="Trazado_174314" data-name="Trazado 174314" d="M514.235,136.489c-16.627,16.243-33.469,32.642-50.466,49.526" transform="translate(-467.809 -138.209)" fill="none" stroke="#606060" stroke-miterlimit="10" stroke-width="0.655"/>
        <path id="Trazado_174315" data-name="Trazado 174315" d="M517.673,136.579c-17.443,17.955-34.729,34.8-52.458,52.969-.443.444-1.329.444-1.564,1.052" transform="translate(-467.77 -138.238)" fill="none" stroke="#606060" stroke-miterlimit="10" stroke-width="0.655"/>
        <path id="Trazado_174316" data-name="Trazado 174316" d="M522.56,136.461c-10.737,11.386-22.261,21.58-33.785,33.1-8.421,8.865-16.843,16.4-24.912,25.247" transform="translate(-467.839 -138.2)" fill="none" stroke="#606060" stroke-miterlimit="10" stroke-width="0.655"/>
        <path id="Trazado_174317" data-name="Trazado 174317" d="M525.521,137.765c-20.377,20.7-41.652,40.642-61.751,61.9" transform="translate(-467.809 -138.621)" fill="none" stroke="#606060" stroke-miterlimit="10" stroke-width="0.655"/>
        <path id="Trazado_174318" data-name="Trazado 174318" d="M525.514,144.249c-20.334,20.3-41.166,41.127-61.634,61.712" transform="translate(-467.844 -140.715)" fill="none" stroke="#606060" stroke-miterlimit="10" stroke-width="0.655"/>
        <path id="Trazado_174319" data-name="Trazado 174319" d="M527.753,147.767c-21.238,21.459-42.956,42.29-63.855,63.788" transform="translate(-467.85 -141.85)" fill="none" stroke="#606060" stroke-miterlimit="10" stroke-width="0.655"/>
        <path id="Trazado_174320" data-name="Trazado 174320" d="M532.077,147.736c-22.993,22.81-45.155,46.3-68.461,68.4" transform="translate(-467.759 -141.84)" fill="none" stroke="#606060" stroke-miterlimit="10" stroke-width="0.655"/>
        <path id="Trazado_174321" data-name="Trazado 174321" d="M537.326,147.97,467.2,218.091" transform="translate(-468.918 -141.916)" fill="none" stroke="#606060" stroke-miterlimit="10" stroke-width="0.655"/>
        <path id="Trazado_174322" data-name="Trazado 174322" d="M543.7,147.974c-23.411,23.092-46.459,46.583-70.086,70.158" transform="translate(-470.987 -141.917)" fill="none" stroke="#606060" stroke-miterlimit="10" stroke-width="0.655"/>
        <path id="Trazado_174323" data-name="Trazado 174323" d="M548.1,150.913c-22.627,22.431-44.788,45.479-68.042,68.185" transform="translate(-473.067 -142.866)" fill="none" stroke="#606060" stroke-miterlimit="10" stroke-width="0.655"/>
        <path id="Trazado_174324" data-name="Trazado 174324" d="M550.322,157.09c-21.431,21.351-41.819,43.513-63.793,64" transform="translate(-475.157 -144.86)" fill="none" stroke="#606060" stroke-miterlimit="10" stroke-width="0.655"/>
        <path id="Trazado_174325" data-name="Trazado 174325" d="M552.258,164.17c-19.939,19.66-39.441,39.6-59.229,59.185" transform="translate(-477.255 -147.146)" fill="none" stroke="#606060" stroke-miterlimit="10" stroke-width="0.655"/>
        <path id="Trazado_174326" data-name="Trazado 174326" d="M554.493,170.164c-18.294,18.26-36.467,36.875-54.94,55.088" transform="translate(-479.362 -149.081)" fill="none" stroke="#606060" stroke-miterlimit="10" stroke-width="0.655"/>
        <path id="Trazado_174327" data-name="Trazado 174327" d="M556.507,176.763q-25.375,25.341-50.565,50.674" transform="translate(-481.424 -151.212)" fill="none" stroke="#606060" stroke-miterlimit="10" stroke-width="0.655"/>
        <path id="Trazado_174328" data-name="Trazado 174328" d="M558.679,183.234c-15.194,15.615-30.708,31.128-46.171,46.226" transform="translate(-483.544 -153.301)" fill="none" stroke="#606060" stroke-miterlimit="10" stroke-width="0.655"/>
        <path id="Trazado_174329" data-name="Trazado 174329" d="M560.7,189.833c-13.81,13.806-27.993,27.989-41.766,41.788" transform="translate(-485.618 -155.431)" fill="none" stroke="#606060" stroke-miterlimit="10" stroke-width="0.655"/>
        <path id="Trazado_174330" data-name="Trazado 174330" d="M562.659,196.537q-18.546,18.553-37.29,37.269" transform="translate(-487.696 -157.596)" fill="none" stroke="#606060" stroke-miterlimit="10" stroke-width="0.655"/>
        <path id="Trazado_174331" data-name="Trazado 174331" d="M564.877,202.6q-12.9,12.85-25.741,25.768-3.665,3.7-7.319,7.409" transform="translate(-489.778 -159.554)" fill="none" stroke="#606060" stroke-miterlimit="10" stroke-width="0.655"/>
        <path id="Trazado_174332" data-name="Trazado 174332" d="M566.93,209.851c-9.365,9.559-19.116,19.309-28.655,28.274" transform="translate(-491.863 -161.894)" fill="none" stroke="#606060" stroke-miterlimit="10" stroke-width="0.655"/>
      </g>
      <ellipse id="Elipse_4980" data-name="Elipse 4980" cx="4.324" cy="4.324" rx="4.324" ry="4.324" transform="translate(1207.728 1504.91)" fill="#ede7f7"/>
      <g id="Grupo_124668-2" data-name="Grupo 124668" transform="translate(1248.748 1474.6)">
        <line id="Línea_1655-2" data-name="Línea 1655" x1="8.613" y2="8.613" fill="none" stroke="#d8d9da" stroke-miterlimit="10" stroke-width="0.78"/>
        <line id="Línea_1656-2" data-name="Línea 1656" x1="8.613" y2="8.613" transform="translate(4.196)" fill="none" stroke="#d8d9da" stroke-miterlimit="10" stroke-width="0.78"/>
        <line id="Línea_1657-2" data-name="Línea 1657" x1="8.613" y2="8.613" transform="translate(8.392)" fill="none" stroke="#d8d9da" stroke-miterlimit="10" stroke-width="0.78"/>
        <line id="Línea_1658-2" data-name="Línea 1658" x1="8.613" y2="8.613" transform="translate(12.589)" fill="none" stroke="#d8d9da" stroke-miterlimit="10" stroke-width="0.78"/>
        <line id="Línea_1659-2" data-name="Línea 1659" x1="8.613" y2="8.613" transform="translate(16.785)" fill="none" stroke="#d8d9da" stroke-miterlimit="10" stroke-width="0.78"/>
        <line id="Línea_1660-2" data-name="Línea 1660" x1="8.613" y2="8.613" transform="translate(20.981)" fill="none" stroke="#d8d9da" stroke-miterlimit="10" stroke-width="0.78"/>
        <line id="Línea_1661-2" data-name="Línea 1661" x1="8.613" y2="8.613" transform="translate(25.177)" fill="none" stroke="#d8d9da" stroke-miterlimit="10" stroke-width="0.78"/>
        <line id="Línea_1662-2" data-name="Línea 1662" x1="8.613" y2="8.613" transform="translate(29.373)" fill="none" stroke="#d8d9da" stroke-miterlimit="10" stroke-width="0.78"/>
        <line id="Línea_1663-2" data-name="Línea 1663" x1="8.613" y2="8.613" transform="translate(33.57)" fill="none" stroke="#d8d9da" stroke-miterlimit="10" stroke-width="0.78"/>
        <line id="Línea_1664-2" data-name="Línea 1664" x1="8.613" y2="8.613" transform="translate(37.766)" fill="none" stroke="#d8d9da" stroke-miterlimit="10" stroke-width="0.78"/>
        <line id="Línea_1665-2" data-name="Línea 1665" x1="8.613" y2="8.613" transform="translate(41.962)" fill="none" stroke="#d8d9da" stroke-miterlimit="10" stroke-width="0.78"/>
        <line id="Línea_1666-2" data-name="Línea 1666" x1="8.613" y2="8.613" transform="translate(46.158)" fill="none" stroke="#d8d9da" stroke-miterlimit="10" stroke-width="0.78"/>
        <line id="Línea_1667-2" data-name="Línea 1667" x1="8.613" y2="8.613" transform="translate(50.354)" fill="none" stroke="#d8d9da" stroke-miterlimit="10" stroke-width="0.78"/>
      </g>
    </g>
    <g id="Grupo_154412" data-name="Grupo 154412" transform="translate(-127 201)">
      <path id="Trazado_196515" data-name="Trazado 196515" d="M25.5,0h159a25.5,25.5,0,0,1,0,51H25.5a25.5,25.5,0,0,1,0-51Z" transform="translate(1801 -9378)" fill="#7f4fc7"/>
      <path id="Trazado_196516" data-name="Trazado 196516" d="M5.576,4.781,8.75,14.674l3.164-9.893h4.512V19H12.988V15.68l.332-6.8L9.883,19H7.617L4.17,8.873,4.5,15.68V19H1.074V4.781Zm21.846,8.184H22.031v3.4H28.4V19H18.6V4.781h9.814V7.428H22.031v3h5.391Zm8.037-8.184h3.418v9.756a4.665,4.665,0,0,1-.63,2.422,4.3,4.3,0,0,1-1.758,1.65,5.372,5.372,0,0,1-2.515.586,5.179,5.179,0,0,1-3.613-1.172,4.259,4.259,0,0,1-1.289-3.32H32.51a2.348,2.348,0,0,0,.337,1.416,1.334,1.334,0,0,0,1.128.439,1.276,1.276,0,0,0,1.1-.532,2.5,2.5,0,0,0,.386-1.489Zm17.617,7.4a8.385,8.385,0,0,1-.771,3.682,5.7,5.7,0,0,1-2.192,2.466,6.1,6.1,0,0,1-3.237.864,6.191,6.191,0,0,1-3.223-.835,5.692,5.692,0,0,1-2.192-2.388,8.144,8.144,0,0,1-.825-3.564v-.8A8.422,8.422,0,0,1,41.4,7.921a5.688,5.688,0,0,1,2.2-2.466,6.5,6.5,0,0,1,6.479-.01,5.79,5.79,0,0,1,2.2,2.446,8.18,8.18,0,0,1,.8,3.638Zm-3.486-.6a5.979,5.979,0,0,0-.708-3.218,2.271,2.271,0,0,0-2.026-1.1q-2.578,0-2.725,3.867l-.01,1.045a6.149,6.149,0,0,0,.693,3.213,2.268,2.268,0,0,0,2.061,1.123,2.24,2.24,0,0,0,2-1.1,5.982,5.982,0,0,0,.713-3.174Zm10.537,2.383H58.271V19H54.844V4.781h5.6A6.246,6.246,0,0,1,64.395,5.9a3.8,3.8,0,0,1,1.426,3.17,4.616,4.616,0,0,1-.6,2.458,4.263,4.263,0,0,1-1.88,1.58l2.969,5.741V19H62.637Zm-1.855-2.637h2.168a1.946,1.946,0,0,0,1.47-.514A1.987,1.987,0,0,0,62.4,9.386a2.01,2.01,0,0,0-.5-1.444,1.928,1.928,0,0,0-1.465-.524H58.271Zm17.7,5.01h-4.7L70.449,19H66.787L72,4.781h3.223L80.479,19H76.8ZM72.09,13.7h3.057L73.613,8.766ZM98,14.186a5.193,5.193,0,0,1-.8,2.622,4.833,4.833,0,0,1-2.056,1.763,7,7,0,0,1-3.022.625,5.584,5.584,0,0,1-4.414-1.826,7.54,7.54,0,0,1-1.611-5.156v-.7a8.607,8.607,0,0,1,.728-3.657,5.513,5.513,0,0,1,2.095-2.422,5.844,5.844,0,0,1,3.164-.854,6.129,6.129,0,0,1,4.16,1.362,5.383,5.383,0,0,1,1.787,3.755H94.609a2.547,2.547,0,0,0-.654-1.865,2.691,2.691,0,0,0-1.875-.566,2.048,2.048,0,0,0-1.875.957,6.151,6.151,0,0,0-.625,3.057v1.006a6.806,6.806,0,0,0,.571,3.252,2.091,2.091,0,0,0,1.968.977,2.632,2.632,0,0,0,1.807-.557,2.363,2.363,0,0,0,.664-1.768Zm13.662-2a8.385,8.385,0,0,1-.771,3.682,5.7,5.7,0,0,1-2.192,2.466,6.1,6.1,0,0,1-3.237.864,6.191,6.191,0,0,1-3.223-.835,5.692,5.692,0,0,1-2.192-2.388,8.144,8.144,0,0,1-.825-3.564v-.8a8.422,8.422,0,0,1,.767-3.687,5.688,5.688,0,0,1,2.2-2.466,6.5,6.5,0,0,1,6.479-.01,5.79,5.79,0,0,1,2.2,2.446,8.18,8.18,0,0,1,.8,3.638Zm-3.486-.6a5.979,5.979,0,0,0-.708-3.218,2.271,2.271,0,0,0-2.026-1.1q-2.578,0-2.725,3.867l-.01,1.045A6.149,6.149,0,0,0,103.4,15.4a2.268,2.268,0,0,0,2.061,1.123,2.24,2.24,0,0,0,2-1.1,5.982,5.982,0,0,0,.713-3.174ZM125.3,19h-3.408l-5.039-8.848V19h-3.428V4.781h3.428l5.029,8.848V4.781H125.3ZM138.35,7.428h-4.268V19h-3.428V7.428h-4.189V4.781H138.35ZM143.447,19h-3.418V4.781h3.418Zm14.258,0H154.3l-5.039-8.848V19H145.83V4.781h3.428l5.029,8.848V4.781h3.418Zm13.32-14.219v9.307a5.349,5.349,0,0,1-.674,2.739,4.365,4.365,0,0,1-1.934,1.763,6.812,6.812,0,0,1-2.979.605,5.885,5.885,0,0,1-4.092-1.348,4.806,4.806,0,0,1-1.523-3.691V4.781h3.447v9.443q.059,2.334,2.168,2.334a2.1,2.1,0,0,0,1.611-.586,2.739,2.739,0,0,0,.547-1.9V4.781Zm10,11.563h-4.7L175.508,19h-3.662l5.215-14.219h3.223L185.537,19h-3.682ZM177.148,13.7h3.057l-1.533-4.932Z" transform="translate(1812 -9364)" fill="#fff"/>
      <g id="Trazado_196517" data-name="Trazado 196517" transform="translate(1732 -9526)" fill="none">
        <path d="M174,0A174,174,0,1,1,0,174,174,174,0,0,1,174,0Z" stroke="none"/>
        <path d="M 174 3 C 162.3959045410156 3 150.8000030517578 4.168853759765625 139.5343627929688 6.474151611328125 C 128.5565490722656 8.720550537109375 117.7584533691406 12.07244873046875 107.4400024414062 16.43682861328125 C 97.30818176269531 20.72216796875 87.53582763671875 26.0264892578125 78.39437866210938 32.20233154296875 C 69.33895874023438 38.32003784179688 60.82357788085938 45.34591674804688 53.084716796875 53.084716796875 C 45.34591674804688 60.82357788085938 38.32003784179688 69.33895874023438 32.20233154296875 78.39437866210938 C 26.0264892578125 87.53582763671875 20.72216796875 97.30818176269531 16.43682861328125 107.4400024414062 C 12.07244873046875 117.7584533691406 8.720550537109375 128.5565490722656 6.474151611328125 139.5343627929688 C 4.168853759765625 150.8000030517578 3 162.3959045410156 3 174 C 3 185.6040954589844 4.168853759765625 197.1999969482422 6.474151611328125 208.4656372070312 C 8.720550537109375 219.4434509277344 12.07244873046875 230.2415466308594 16.43682861328125 240.5599975585938 C 20.72216796875 250.6918182373047 26.0264892578125 260.4641723632812 32.20233154296875 269.6056518554688 C 38.32003784179688 278.6610412597656 45.34591674804688 287.1764221191406 53.084716796875 294.915283203125 C 60.82357788085938 302.6540832519531 69.33895874023438 309.6799621582031 78.39437866210938 315.7976684570312 C 87.53582763671875 321.9735107421875 97.30818176269531 327.27783203125 107.4400024414062 331.5631713867188 C 117.7584533691406 335.9275512695312 128.5565490722656 339.2794494628906 139.5343627929688 341.52587890625 C 150.8000030517578 343.8311462402344 162.3959045410156 345 174 345 C 185.6040954589844 345 197.1999969482422 343.8311462402344 208.4656372070312 341.52587890625 C 219.4434509277344 339.2794494628906 230.2415466308594 335.9275512695312 240.5599975585938 331.5631713867188 C 250.6918182373047 327.27783203125 260.4641723632812 321.9735107421875 269.6056518554688 315.7976684570312 C 278.6610412597656 309.6799621582031 287.1764221191406 302.6540832519531 294.915283203125 294.915283203125 C 302.6540832519531 287.1764221191406 309.6799621582031 278.6610412597656 315.7976684570312 269.6056518554688 C 321.9735107421875 260.4641723632812 327.27783203125 250.6918182373047 331.5631713867188 240.5599975585938 C 335.9275512695312 230.2415466308594 339.2794494628906 219.4434509277344 341.52587890625 208.4656372070312 C 343.8311462402344 197.1999969482422 345 185.6040954589844 345 174 C 345 162.3959045410156 343.8311462402344 150.8000030517578 341.52587890625 139.5343627929688 C 339.2794494628906 128.5565490722656 335.9275512695312 117.7584533691406 331.5631713867188 107.4400024414062 C 327.27783203125 97.30818176269531 321.9735107421875 87.53582763671875 315.7976684570312 78.39437866210938 C 309.6799621582031 69.33895874023438 302.6540832519531 60.82357788085938 294.915283203125 53.084716796875 C 287.1764221191406 45.34591674804688 278.6610412597656 38.32003784179688 269.6056518554688 32.20233154296875 C 260.4641723632812 26.0264892578125 250.6918182373047 20.72216796875 240.5599975585938 16.43682861328125 C 230.2415466308594 12.07244873046875 219.4434509277344 8.720550537109375 208.4656372070312 6.474151611328125 C 197.1999969482422 4.168853759765625 185.6040954589844 3 174 3 M 174 0 C 270.0975341796875 0 348 77.9024658203125 348 174 C 348 270.0975341796875 270.0975341796875 348 174 348 C 77.9024658203125 348 0 270.0975341796875 0 174 C 0 77.9024658203125 77.9024658203125 0 174 0 Z" stroke="none" fill="#12263f"/>
      </g>
      <path id="Trazado_196518" data-name="Trazado 196518" d="M11,0H165a11,11,0,0,1,11,11V91a11,11,0,0,1-11,11H11A11,11,0,0,1,0,91V11A11,11,0,0,1,11,0Z" transform="translate(1818 -9229)" fill="#e0d5f1"/>
      <path id="Trazado_196519" data-name="Trazado 196519" d="M8.969,31.879l5.947-21.738h8.039L12.907,40H5.032L-4.935,10.141H3.042Z" transform="translate(1897 -9179)" fill="#7f4fc7"/>
      <path id="Trazado_196520" data-name="Trazado 196520" d="M19.209,12.667a4.673,4.673,0,0,1-.721,2.36,4.35,4.35,0,0,1-1.85,1.586,6.3,6.3,0,0,1-2.72.563,5.025,5.025,0,0,1-3.973-1.644A6.786,6.786,0,0,1,8.5,10.892v-.633A7.746,7.746,0,0,1,9.15,6.967a4.961,4.961,0,0,1,1.885-2.18,5.26,5.26,0,0,1,2.848-.769,5.516,5.516,0,0,1,3.744,1.226,4.844,4.844,0,0,1,1.608,3.379H16.159a2.292,2.292,0,0,0-.589-1.679,2.422,2.422,0,0,0-1.687-.51A1.843,1.843,0,0,0,12.2,7.3a5.536,5.536,0,0,0-.562,2.751v.905a6.126,6.126,0,0,0,.514,2.927,1.882,1.882,0,0,0,1.771.879,2.369,2.369,0,0,0,1.626-.5,2.126,2.126,0,0,0,.6-1.591Zm.949-.51a5.613,5.613,0,0,1,.554-2.536A3.96,3.96,0,0,1,22.3,7.912a4.791,4.791,0,0,1,2.435-.6A4.373,4.373,0,0,1,28.1,8.637a5.076,5.076,0,0,1,1.23,3.6v.105A4.925,4.925,0,0,1,28.1,15.871a4.384,4.384,0,0,1-3.344,1.305,4.434,4.434,0,0,1-3.261-1.217,4.761,4.761,0,0,1-1.327-3.3Zm2.962.185a3.538,3.538,0,0,0,.413,1.934,1.376,1.376,0,0,0,1.222.615q1.582,0,1.617-2.435v-.3q0-2.558-1.635-2.558-1.485,0-1.608,2.206ZM33.438,7.49l.1,1.116a3.27,3.27,0,0,1,2.716-1.292,2.407,2.407,0,0,1,2.435,1.433A3.165,3.165,0,0,1,41.48,7.314q2.892,0,2.971,3.5V17H41.48V11a1.813,1.813,0,0,0-.246-1.063,1.048,1.048,0,0,0-.9-.334,1.4,1.4,0,0,0-1.31.782l.009.123V17H36.066V11.015a1.906,1.906,0,0,0-.237-1.081,1.045,1.045,0,0,0-.905-.334,1.42,1.42,0,0,0-1.3.782V17H30.661V7.49Zm21.533,4.825a5.735,5.735,0,0,1-1,3.538,3.2,3.2,0,0,1-2.694,1.323,2.742,2.742,0,0,1-2.153-.958v4.438H46.165V7.49h2.769l.088.879a2.742,2.742,0,0,1,2.241-1.055A3.224,3.224,0,0,1,54,8.611a5.805,5.805,0,0,1,.976,3.564Zm-2.962-.185q0-2.531-1.477-2.531a1.394,1.394,0,0,0-1.406.756V14.1a1.439,1.439,0,0,0,1.424.791q1.415,0,1.459-2.443Zm10.02-1.96-.976-.07a1.752,1.752,0,0,0-1.793.879V17H56.3V7.49h2.777l.1,1.222a2.294,2.294,0,0,1,2.083-1.4,2.888,2.888,0,0,1,.826.105Zm.378,1.986a5.613,5.613,0,0,1,.554-2.536,3.96,3.96,0,0,1,1.591-1.709,4.791,4.791,0,0,1,2.435-.6,4.373,4.373,0,0,1,3.366,1.323,5.076,5.076,0,0,1,1.23,3.6v.105a4.925,4.925,0,0,1-1.235,3.529A4.384,4.384,0,0,1,67,17.176a4.434,4.434,0,0,1-3.261-1.217,4.761,4.761,0,0,1-1.327-3.3Zm2.962.185a3.538,3.538,0,0,0,.413,1.934A1.376,1.376,0,0,0,67,14.891q1.582,0,1.617-2.435v-.3q0-2.558-1.635-2.558-1.485,0-1.608,2.206Zm16.348-.018a5.8,5.8,0,0,1-.967,3.595,3.238,3.238,0,0,1-2.725,1.257,2.81,2.81,0,0,1-2.338-1.151L75.564,17H72.91V3.5h2.962V8.255a2.711,2.711,0,0,1,2.136-.94A3.239,3.239,0,0,1,80.75,8.589a5.826,5.826,0,0,1,.967,3.586Zm-2.971-.189a3.866,3.866,0,0,0-.365-1.952A1.229,1.229,0,0,0,77.261,9.6a1.418,1.418,0,0,0-1.389.763v3.773a1.426,1.426,0,0,0,1.406.755,1.258,1.258,0,0,0,1.327-1.018A7.309,7.309,0,0,0,78.746,12.135ZM88.379,17a3.344,3.344,0,0,1-.281-.853,2.754,2.754,0,0,1-2.285,1.028,3.374,3.374,0,0,1-2.285-.813,2.588,2.588,0,0,1-.94-2.043,2.66,2.66,0,0,1,1.143-2.338,5.821,5.821,0,0,1,3.322-.791h.914v-.5q0-1.316-1.134-1.316a.927.927,0,0,0-1.055,1.042H82.815a2.655,2.655,0,0,1,1.173-2.239,4.931,4.931,0,0,1,2.993-.86,4.323,4.323,0,0,1,2.874.888,3.086,3.086,0,0,1,1.081,2.435v4.21a4.311,4.311,0,0,0,.4,2V17Zm-1.854-1.934a1.652,1.652,0,0,0,.918-.237,1.487,1.487,0,0,0,.523-.536V12.772H87.1q-1.547,0-1.547,1.389a.848.848,0,0,0,.272.655A.986.986,0,0,0,86.524,15.066ZM96.6,14.891a1.317,1.317,0,0,0,.967-.338,1.241,1.241,0,0,0,.334-.945h2.777a3.288,3.288,0,0,1-1.121,2.566,4.168,4.168,0,0,1-2.887,1,4.22,4.22,0,0,1-3.27-1.3,5.125,5.125,0,0,1-1.2-3.6v-.123A5.792,5.792,0,0,1,92.734,9.6a3.872,3.872,0,0,1,1.534-1.7,4.573,4.573,0,0,1,2.373-.593,4.116,4.116,0,0,1,2.944,1.028,3.647,3.647,0,0,1,1.09,2.786H97.9A1.626,1.626,0,0,0,97.537,10a1.244,1.244,0,0,0-.967-.4q-1.151,0-1.345,1.468a10.357,10.357,0,0,0-.062,1.283,4.068,4.068,0,0,0,.343,1.986A1.187,1.187,0,0,0,96.6,14.891ZM105.052,17h-2.971V7.49h2.971ZM101.905,5.029a1.334,1.334,0,0,1,.457-1.043,1.934,1.934,0,0,1,2.373,0,1.334,1.334,0,0,1,.457,1.043,1.334,1.334,0,0,1-.457,1.043,1.934,1.934,0,0,1-2.373,0A1.334,1.334,0,0,1,101.905,5.029Zm4.6,7.128a5.613,5.613,0,0,1,.554-2.536,3.96,3.96,0,0,1,1.591-1.709,4.791,4.791,0,0,1,2.435-.6,4.373,4.373,0,0,1,3.366,1.323,5.076,5.076,0,0,1,1.23,3.6v.105a4.925,4.925,0,0,1-1.235,3.529,4.384,4.384,0,0,1-3.344,1.305,4.434,4.434,0,0,1-3.261-1.217,4.761,4.761,0,0,1-1.327-3.3Zm2.962.185a3.538,3.538,0,0,0,.413,1.934,1.376,1.376,0,0,0,1.222.615q1.582,0,1.617-2.435v-.3q0-2.558-1.635-2.558-1.485,0-1.608,2.206ZM111.485,3.5h3.129l-2.443,2.76-2.417,0ZM119.7,7.49l.1,1.116a3.225,3.225,0,0,1,2.716-1.292,2.713,2.713,0,0,1,2.219.888,4.226,4.226,0,0,1,.76,2.672V17h-2.971V11a1.6,1.6,0,0,0-.29-1.059A1.342,1.342,0,0,0,121.18,9.6a1.413,1.413,0,0,0-1.292.686V17h-2.962V7.49Zm15.715,5.361L137,7.49h3.173l-3.876,11.1-.167.4a2.944,2.944,0,0,1-2.918,1.846,4.642,4.642,0,0,1-1.222-.175v-2.11h.387a2.026,2.026,0,0,0,.954-.18,1.094,1.094,0,0,0,.488-.647l.237-.633-3.3-9.605h3.164ZM10.249,38a3.344,3.344,0,0,1-.281-.853,2.754,2.754,0,0,1-2.285,1.028A3.374,3.374,0,0,1,5.4,37.363a2.588,2.588,0,0,1-.94-2.043A2.66,2.66,0,0,1,5.6,32.981a5.821,5.821,0,0,1,3.322-.791h.914v-.5q0-1.316-1.134-1.316a.927.927,0,0,0-1.055,1.042H4.685a2.655,2.655,0,0,1,1.173-2.239,4.931,4.931,0,0,1,2.993-.86,4.323,4.323,0,0,1,2.874.888,3.086,3.086,0,0,1,1.081,2.435v4.21a4.311,4.311,0,0,0,.4,2V38ZM8.394,36.066a1.652,1.652,0,0,0,.918-.237,1.487,1.487,0,0,0,.523-.536V33.772H8.974q-1.547,0-1.547,1.389a.848.848,0,0,0,.272.655A.986.986,0,0,0,8.394,36.066Zm10.072-.176a1.317,1.317,0,0,0,.967-.338,1.241,1.241,0,0,0,.334-.945h2.777a3.288,3.288,0,0,1-1.121,2.566,4.168,4.168,0,0,1-2.887,1,4.22,4.22,0,0,1-3.27-1.3,5.125,5.125,0,0,1-1.2-3.6v-.123A5.792,5.792,0,0,1,14.6,30.6a3.872,3.872,0,0,1,1.534-1.7,4.573,4.573,0,0,1,2.373-.593,4.116,4.116,0,0,1,2.944,1.028,3.647,3.647,0,0,1,1.09,2.786H19.767A1.626,1.626,0,0,0,19.407,31a1.244,1.244,0,0,0-.967-.4q-1.151,0-1.345,1.468a10.357,10.357,0,0,0-.062,1.283,4.068,4.068,0,0,0,.343,1.986A1.187,1.187,0,0,0,18.466,35.891Zm9.352,0a1.317,1.317,0,0,0,.967-.338,1.241,1.241,0,0,0,.334-.945H31.9a3.288,3.288,0,0,1-1.121,2.566,4.168,4.168,0,0,1-2.887,1,4.22,4.22,0,0,1-3.27-1.3,5.125,5.125,0,0,1-1.2-3.6v-.123a5.792,5.792,0,0,1,.532-2.544,3.872,3.872,0,0,1,1.534-1.7,4.573,4.573,0,0,1,2.373-.593,4.116,4.116,0,0,1,2.944,1.028,3.647,3.647,0,0,1,1.09,2.786H29.119A1.626,1.626,0,0,0,28.758,31a1.244,1.244,0,0,0-.967-.4q-1.151,0-1.345,1.468a10.357,10.357,0,0,0-.062,1.283,4.068,4.068,0,0,0,.343,1.986A1.187,1.187,0,0,0,27.818,35.891ZM36.273,38H33.3V28.49h2.971ZM33.126,26.029a1.334,1.334,0,0,1,.457-1.043,1.934,1.934,0,0,1,2.373,0,1.42,1.42,0,0,1,0,2.087,1.934,1.934,0,0,1-2.373,0A1.334,1.334,0,0,1,33.126,26.029Zm4.6,7.128a5.613,5.613,0,0,1,.554-2.536,3.96,3.96,0,0,1,1.591-1.709,4.791,4.791,0,0,1,2.435-.6,4.373,4.373,0,0,1,3.366,1.323,5.076,5.076,0,0,1,1.23,3.6v.105a4.925,4.925,0,0,1-1.235,3.529,4.384,4.384,0,0,1-3.344,1.305,4.434,4.434,0,0,1-3.261-1.217,4.761,4.761,0,0,1-1.327-3.3Zm2.962.185a3.538,3.538,0,0,0,.413,1.934,1.376,1.376,0,0,0,1.222.615q1.582,0,1.617-2.435v-.3q0-2.558-1.635-2.558-1.485,0-1.608,2.206ZM42.707,24.5h3.129l-2.443,2.76-2.417,0Zm8.218,3.99.1,1.116a3.225,3.225,0,0,1,2.716-1.292,2.713,2.713,0,0,1,2.219.888,4.226,4.226,0,0,1,.76,2.672V38H53.746V32a1.6,1.6,0,0,0-.29-1.059A1.342,1.342,0,0,0,52.4,30.6a1.413,1.413,0,0,0-1.292.686V38H48.147V28.49Zm15.935,7.4a1.317,1.317,0,0,0,.967-.338,1.241,1.241,0,0,0,.334-.945h2.777a3.288,3.288,0,0,1-1.121,2.566,4.168,4.168,0,0,1-2.887,1,4.22,4.22,0,0,1-3.27-1.3,5.125,5.125,0,0,1-1.2-3.6v-.123A5.792,5.792,0,0,1,63,30.6a3.872,3.872,0,0,1,1.534-1.7,4.573,4.573,0,0,1,2.373-.593,4.116,4.116,0,0,1,2.944,1.028,3.647,3.647,0,0,1,1.09,2.786H68.16A1.626,1.626,0,0,0,67.8,31a1.244,1.244,0,0,0-.967-.4q-1.151,0-1.345,1.468a10.357,10.357,0,0,0-.062,1.283,4.068,4.068,0,0,0,.343,1.986A1.187,1.187,0,0,0,66.859,35.891Zm4.957-2.733a5.613,5.613,0,0,1,.554-2.536,3.96,3.96,0,0,1,1.591-1.709,4.791,4.791,0,0,1,2.435-.6,4.373,4.373,0,0,1,3.366,1.323,5.076,5.076,0,0,1,1.23,3.6v.105a4.925,4.925,0,0,1-1.235,3.529,4.384,4.384,0,0,1-3.344,1.305,4.434,4.434,0,0,1-3.261-1.217,4.761,4.761,0,0,1-1.327-3.3Zm2.962.185a3.538,3.538,0,0,0,.413,1.934,1.376,1.376,0,0,0,1.222.615q1.582,0,1.617-2.435v-.3q0-2.558-1.635-2.558-1.485,0-1.608,2.206Zm13.271-2.171-.976-.07a1.752,1.752,0,0,0-1.793.879V38H82.319V28.49H85.1l.1,1.222a2.294,2.294,0,0,1,2.083-1.4,2.888,2.888,0,0,1,.826.105Zm6.82,0-.976-.07a1.752,1.752,0,0,0-1.793.879V38H89.139V28.49h2.777l.1,1.222a2.294,2.294,0,0,1,2.083-1.4,2.888,2.888,0,0,1,.826.105Zm5.5,7a4.889,4.889,0,0,1-3.542-1.305,4.507,4.507,0,0,1-1.354-3.4v-.246a5.84,5.84,0,0,1,.541-2.575,3.955,3.955,0,0,1,1.578-1.727,4.763,4.763,0,0,1,2.461-.611,4.117,4.117,0,0,1,3.164,1.244,4.887,4.887,0,0,1,1.16,3.467v1.151H98.491a2.135,2.135,0,0,0,.694,1.257,2.066,2.066,0,0,0,1.389.457,2.662,2.662,0,0,0,2.2-.984l1.354,1.6a3.784,3.784,0,0,1-1.569,1.217A5.3,5.3,0,0,1,100.372,38.176Zm-.334-7.576q-1.3,0-1.547,1.723h2.988v-.229a1.467,1.467,0,0,0-.36-1.1A1.434,1.434,0,0,0,100.038,30.6Zm9.554,5.291a1.317,1.317,0,0,0,.967-.338,1.241,1.241,0,0,0,.334-.945h2.777a3.288,3.288,0,0,1-1.121,2.566,4.168,4.168,0,0,1-2.887,1,4.22,4.22,0,0,1-3.27-1.3,5.125,5.125,0,0,1-1.2-3.6v-.123a5.792,5.792,0,0,1,.532-2.544,3.872,3.872,0,0,1,1.534-1.7,4.573,4.573,0,0,1,2.373-.593,4.116,4.116,0,0,1,2.944,1.028,3.647,3.647,0,0,1,1.09,2.786h-2.777a1.626,1.626,0,0,0-.36-1.134,1.244,1.244,0,0,0-.967-.4q-1.151,0-1.345,1.468a10.357,10.357,0,0,0-.062,1.283,4.068,4.068,0,0,0,.343,1.986A1.187,1.187,0,0,0,109.591,35.891Zm8.78-9.765V28.49h1.564v2.057h-1.564V34.9a1.111,1.111,0,0,0,.193.747,1.037,1.037,0,0,0,.765.211,4.345,4.345,0,0,0,.738-.053v2.118a5.466,5.466,0,0,1-1.67.255,3.1,3.1,0,0,1-2.259-.721,2.954,2.954,0,0,1-.729-2.188v-4.72H114.2V28.49h1.213V26.126ZM124.225,38h-2.971V28.49h2.971Zm-3.146-11.971a1.334,1.334,0,0,1,.457-1.043,1.934,1.934,0,0,1,2.373,0,1.42,1.42,0,0,1,0,2.087,1.934,1.934,0,0,1-2.373,0A1.334,1.334,0,0,1,121.079,26.029Zm8.763,8.446,1.5-5.985h3.12l-3.1,9.51h-3.023l-3.1-9.51h3.129ZM140.573,38a3.344,3.344,0,0,1-.281-.853,2.754,2.754,0,0,1-2.285,1.028,3.374,3.374,0,0,1-2.285-.813,2.588,2.588,0,0,1-.94-2.043,2.66,2.66,0,0,1,1.143-2.338,5.821,5.821,0,0,1,3.322-.791h.914v-.5q0-1.316-1.134-1.316a.927.927,0,0,0-1.055,1.042h-2.962a2.655,2.655,0,0,1,1.173-2.239,4.931,4.931,0,0,1,2.993-.86,4.323,4.323,0,0,1,2.874.888,3.086,3.086,0,0,1,1.081,2.435v4.21a4.311,4.311,0,0,0,.4,2V38Zm-1.854-1.934a1.652,1.652,0,0,0,.918-.237,1.487,1.487,0,0,0,.523-.536V33.772H139.3q-1.547,0-1.547,1.389a.848.848,0,0,0,.272.655A.986.986,0,0,0,138.718,36.066Z" transform="translate(1832 -9221)" fill="#12263f"/>
      <path id="Trazado_196521" data-name="Trazado 196521" d="M11,0H127a11,11,0,0,1,11,11V90a11,11,0,0,1-11,11H11A11,11,0,0,1,0,90V11A11,11,0,0,1,11,0Z" transform="translate(1837 -9569)" fill="#e0d5f1"/>
      <path id="Trazado_196522" data-name="Trazado 196522" d="M8.439,12.658V17H5.354V4.2h5.106a5.948,5.948,0,0,1,2.6.541,4.074,4.074,0,0,1,1.749,1.538,4.2,4.2,0,0,1,.62,2.263,3.7,3.7,0,0,1-1.34,2.993,5.561,5.561,0,0,1-3.678,1.121Zm0-2.382h2.021a1.906,1.906,0,0,0,1.367-.448,1.665,1.665,0,0,0,.47-1.266,2.059,2.059,0,0,0-.483-1.433A1.712,1.712,0,0,0,10.5,6.585H8.439ZM20.059,17H17.088V3.5h2.971Zm7.181,0a3.344,3.344,0,0,1-.281-.853,2.754,2.754,0,0,1-2.285,1.028,3.374,3.374,0,0,1-2.285-.813,2.588,2.588,0,0,1-.94-2.043,2.66,2.66,0,0,1,1.143-2.338,5.821,5.821,0,0,1,3.322-.791h.914v-.5q0-1.316-1.134-1.316a.927.927,0,0,0-1.055,1.042H21.676a2.655,2.655,0,0,1,1.173-2.239,4.931,4.931,0,0,1,2.993-.86,4.323,4.323,0,0,1,2.874.888A3.086,3.086,0,0,1,29.8,10.637v4.21a4.311,4.311,0,0,0,.4,2V17Zm-1.854-1.934a1.652,1.652,0,0,0,.918-.237,1.487,1.487,0,0,0,.523-.536V12.772h-.861q-1.547,0-1.547,1.389a.848.848,0,0,0,.272.655A.986.986,0,0,0,25.385,15.066ZM34.156,7.49l.1,1.116a3.225,3.225,0,0,1,2.716-1.292,2.713,2.713,0,0,1,2.219.888,4.226,4.226,0,0,1,.76,2.672V17H36.978V11a1.6,1.6,0,0,0-.29-1.059A1.342,1.342,0,0,0,35.633,9.6a1.413,1.413,0,0,0-1.292.686V17H31.379V7.49ZM44.712,17H41.741V7.49h2.971ZM41.565,5.029a1.334,1.334,0,0,1,.457-1.043,1.934,1.934,0,0,1,2.373,0,1.334,1.334,0,0,1,.457,1.043A1.334,1.334,0,0,1,44.4,6.073a1.934,1.934,0,0,1-2.373,0A1.334,1.334,0,0,1,41.565,5.029ZM47.226,17V9.547h-1.38V7.49h1.38V7.174a3.631,3.631,0,0,1,1.248-2.909,4.987,4.987,0,0,1,3.243-.949,11.509,11.509,0,0,1,3.094.51l-.4,2.338-.492-.132a7.832,7.832,0,0,0-2.021-.255q-1.7,0-1.7,1.547V7.49H52.06V9.547H50.2V17Zm8.947,0H53.193V7.49h2.979ZM62,14.891a1.317,1.317,0,0,0,.967-.338,1.241,1.241,0,0,0,.334-.945h2.777a3.288,3.288,0,0,1-1.121,2.566,4.168,4.168,0,0,1-2.887,1,4.22,4.22,0,0,1-3.27-1.3,5.125,5.125,0,0,1-1.2-3.6v-.123A5.792,5.792,0,0,1,58.137,9.6a3.872,3.872,0,0,1,1.534-1.7,4.573,4.573,0,0,1,2.373-.593,4.116,4.116,0,0,1,2.944,1.028,3.647,3.647,0,0,1,1.09,2.786H63.3A1.626,1.626,0,0,0,62.94,10a1.244,1.244,0,0,0-.967-.4q-1.151,0-1.345,1.468a10.357,10.357,0,0,0-.062,1.283,4.068,4.068,0,0,0,.343,1.986A1.187,1.187,0,0,0,62,14.891ZM72.688,17a3.344,3.344,0,0,1-.281-.853,2.754,2.754,0,0,1-2.285,1.028,3.374,3.374,0,0,1-2.285-.813,2.588,2.588,0,0,1-.94-2.043,2.66,2.66,0,0,1,1.143-2.338,5.821,5.821,0,0,1,3.322-.791h.914v-.5q0-1.316-1.134-1.316a.927.927,0,0,0-1.055,1.042H67.124A2.655,2.655,0,0,1,68.3,8.175a4.931,4.931,0,0,1,2.993-.86,4.323,4.323,0,0,1,2.874.888,3.086,3.086,0,0,1,1.081,2.435v4.21a4.311,4.311,0,0,0,.4,2V17Zm-1.854-1.934a1.652,1.652,0,0,0,.918-.237,1.487,1.487,0,0,0,.523-.536V12.772h-.861q-1.547,0-1.547,1.389a.848.848,0,0,0,.272.655A.986.986,0,0,0,70.833,15.066Zm10.072-.176a1.317,1.317,0,0,0,.967-.338,1.241,1.241,0,0,0,.334-.945h2.777a3.288,3.288,0,0,1-1.121,2.566,4.168,4.168,0,0,1-2.887,1,4.22,4.22,0,0,1-3.27-1.3,5.125,5.125,0,0,1-1.2-3.6v-.123A5.792,5.792,0,0,1,77.042,9.6a3.872,3.872,0,0,1,1.534-1.7,4.573,4.573,0,0,1,2.373-.593,4.116,4.116,0,0,1,2.944,1.028,3.647,3.647,0,0,1,1.09,2.786H82.206A1.626,1.626,0,0,0,81.846,10a1.244,1.244,0,0,0-.967-.4q-1.151,0-1.345,1.468a10.357,10.357,0,0,0-.062,1.283,4.068,4.068,0,0,0,.343,1.986A1.187,1.187,0,0,0,80.905,14.891ZM89.36,17H86.39V7.49H89.36ZM86.214,5.029a1.334,1.334,0,0,1,.457-1.043,1.934,1.934,0,0,1,2.373,0A1.334,1.334,0,0,1,89.5,5.029a1.334,1.334,0,0,1-.457,1.043,1.934,1.934,0,0,1-2.373,0A1.334,1.334,0,0,1,86.214,5.029Zm4.6,7.128a5.613,5.613,0,0,1,.554-2.536,3.96,3.96,0,0,1,1.591-1.709,4.791,4.791,0,0,1,2.435-.6,4.373,4.373,0,0,1,3.366,1.323,5.076,5.076,0,0,1,1.23,3.6v.105a4.925,4.925,0,0,1-1.235,3.529,4.384,4.384,0,0,1-3.344,1.305,4.434,4.434,0,0,1-3.261-1.217,4.761,4.761,0,0,1-1.327-3.3Zm2.962.185a3.538,3.538,0,0,0,.413,1.934,1.376,1.376,0,0,0,1.222.615q1.582,0,1.617-2.435v-.3q0-2.558-1.635-2.558-1.485,0-1.608,2.206ZM95.794,3.5h3.129L96.479,6.26l-2.417,0Zm8.218,3.99.1,1.116a3.225,3.225,0,0,1,2.716-1.292,2.713,2.713,0,0,1,2.219.888,4.226,4.226,0,0,1,.76,2.672V17h-2.971V11a1.6,1.6,0,0,0-.29-1.059,1.342,1.342,0,0,0-1.055-.338,1.413,1.413,0,0,0-1.292.686V17h-2.962V7.49Z" transform="translate(1849 -9551)" fill="#12263f"/>
      <path id="Trazado_196523" data-name="Trazado 196523" d="M4.786,29.869V40h-7.2V10.141H9.5a13.878,13.878,0,0,1,6.06,1.261,9.505,9.505,0,0,1,4.081,3.589,9.8,9.8,0,0,1,1.446,5.281,8.64,8.64,0,0,1-3.127,6.983q-3.127,2.615-8.583,2.615Zm0-5.558H9.5a4.448,4.448,0,0,0,3.189-1.046,3.886,3.886,0,0,0,1.1-2.953,4.8,4.8,0,0,0-1.128-3.343A3.994,3.994,0,0,0,9.584,15.7h-4.8Z" transform="translate(1897 -9526)" fill="#7f4fc7"/>
      <path id="Trazado_196524" data-name="Trazado 196524" d="M11,0H165a11,11,0,0,1,11,11v95a11,11,0,0,1-11,11H11A11,11,0,0,1,0,106V11A11,11,0,0,1,11,0Z" transform="translate(2024 -9403)" fill="#e0d5f1"/>
      <path id="Trazado_196525" data-name="Trazado 196525" d="M21.458,40H14.3V27.531H3.7V40H-3.5V10.141H3.7V21.994H14.3V10.141h7.157Z" transform="translate(2103 -9344)" fill="#7f4fc7"/>
      <path id="Trazado_196526" data-name="Trazado 196526" d="M5.068,17H1.992V4.2H5.068ZM9.876,7.49l.1,1.116a3.27,3.27,0,0,1,2.716-1.292,2.407,2.407,0,0,1,2.435,1.433,3.165,3.165,0,0,1,2.795-1.433q2.892,0,2.971,3.5V17H17.918V11a1.813,1.813,0,0,0-.246-1.063,1.048,1.048,0,0,0-.9-.334,1.4,1.4,0,0,0-1.31.782l.009.123V17H12.5V11.015a1.906,1.906,0,0,0-.237-1.081,1.045,1.045,0,0,0-.905-.334,1.42,1.42,0,0,0-1.3.782V17H7.1V7.49Zm21.533,4.825a5.735,5.735,0,0,1-1,3.538,3.2,3.2,0,0,1-2.694,1.323,2.742,2.742,0,0,1-2.153-.958v4.438H22.6V7.49h2.769l.088.879A2.742,2.742,0,0,1,27.7,7.314a3.224,3.224,0,0,1,2.733,1.3,5.805,5.805,0,0,1,.976,3.564Zm-2.962-.185q0-2.531-1.477-2.531a1.394,1.394,0,0,0-1.406.756V14.1a1.439,1.439,0,0,0,1.424.791q1.415,0,1.459-2.443ZM35.839,17H32.868V3.5h2.971Zm6.425.176a4.889,4.889,0,0,1-3.542-1.305,4.507,4.507,0,0,1-1.354-3.4v-.246a5.84,5.84,0,0,1,.541-2.575,3.955,3.955,0,0,1,1.578-1.727,4.763,4.763,0,0,1,2.461-.611,4.117,4.117,0,0,1,3.164,1.244,4.887,4.887,0,0,1,1.16,3.467v1.151H40.383a2.135,2.135,0,0,0,.694,1.257,2.066,2.066,0,0,0,1.389.457,2.662,2.662,0,0,0,2.2-.984l1.354,1.6a3.784,3.784,0,0,1-1.569,1.217A5.3,5.3,0,0,1,42.264,17.176ZM41.93,9.6q-1.3,0-1.547,1.723h2.988v-.229a1.467,1.467,0,0,0-.36-1.1A1.434,1.434,0,0,0,41.93,9.6ZM50.262,7.49l.1,1.116a3.27,3.27,0,0,1,2.716-1.292,2.407,2.407,0,0,1,2.435,1.433A3.165,3.165,0,0,1,58.3,7.314q2.892,0,2.971,3.5V17H58.3V11a1.813,1.813,0,0,0-.246-1.063,1.048,1.048,0,0,0-.9-.334,1.4,1.4,0,0,0-1.31.782l.009.123V17H52.89V11.015a1.906,1.906,0,0,0-.237-1.081,1.045,1.045,0,0,0-.905-.334,1.42,1.42,0,0,0-1.3.782V17H47.484V7.49Zm17.306,9.686a4.889,4.889,0,0,1-3.542-1.305,4.507,4.507,0,0,1-1.354-3.4v-.246a5.84,5.84,0,0,1,.541-2.575A3.955,3.955,0,0,1,64.79,7.925a4.763,4.763,0,0,1,2.461-.611,4.117,4.117,0,0,1,3.164,1.244,4.887,4.887,0,0,1,1.16,3.467v1.151H65.687a2.135,2.135,0,0,0,.694,1.257,2.066,2.066,0,0,0,1.389.457,2.662,2.662,0,0,0,2.2-.984l1.354,1.6a3.784,3.784,0,0,1-1.569,1.217A5.3,5.3,0,0,1,67.567,17.176ZM67.233,9.6q-1.3,0-1.547,1.723h2.988v-.229a1.467,1.467,0,0,0-.36-1.1A1.434,1.434,0,0,0,67.233,9.6ZM75.486,7.49l.1,1.116A3.225,3.225,0,0,1,78.3,7.314a2.713,2.713,0,0,1,2.219.888,4.226,4.226,0,0,1,.76,2.672V17H78.308V11a1.6,1.6,0,0,0-.29-1.059A1.342,1.342,0,0,0,76.963,9.6a1.413,1.413,0,0,0-1.292.686V17H72.709V7.49ZM86.367,5.126V7.49h1.564V9.547H86.367V13.9a1.111,1.111,0,0,0,.193.747,1.037,1.037,0,0,0,.765.211,4.345,4.345,0,0,0,.738-.053v2.118a5.466,5.466,0,0,1-1.67.255,3.1,3.1,0,0,1-2.259-.721,2.954,2.954,0,0,1-.729-2.188V9.547H82.192V7.49h1.213V5.126ZM94.453,17a3.344,3.344,0,0,1-.281-.853,2.754,2.754,0,0,1-2.285,1.028,3.374,3.374,0,0,1-2.285-.813,2.588,2.588,0,0,1-.94-2.043A2.66,2.66,0,0,1,89.8,11.981a5.821,5.821,0,0,1,3.322-.791h.914v-.5q0-1.316-1.134-1.316a.927.927,0,0,0-1.055,1.042H88.89a2.655,2.655,0,0,1,1.173-2.239,4.931,4.931,0,0,1,2.993-.86A4.323,4.323,0,0,1,95.93,8.2a3.086,3.086,0,0,1,1.081,2.435v4.21a4.311,4.311,0,0,0,.4,2V17ZM92.6,15.066a1.652,1.652,0,0,0,.918-.237,1.487,1.487,0,0,0,.523-.536V12.772h-.861q-1.547,0-1.547,1.389a.848.848,0,0,0,.272.655A.986.986,0,0,0,92.6,15.066Zm10.072-.176a1.317,1.317,0,0,0,.967-.338,1.241,1.241,0,0,0,.334-.945h2.777a3.288,3.288,0,0,1-1.121,2.566,4.168,4.168,0,0,1-2.887,1,4.22,4.22,0,0,1-3.27-1.3,5.125,5.125,0,0,1-1.2-3.6v-.123A5.792,5.792,0,0,1,98.808,9.6a3.872,3.872,0,0,1,1.534-1.7,4.573,4.573,0,0,1,2.373-.593,4.116,4.116,0,0,1,2.944,1.028,3.647,3.647,0,0,1,1.09,2.786h-2.777a1.626,1.626,0,0,0-.36-1.134,1.244,1.244,0,0,0-.967-.4q-1.151,0-1.345,1.468a10.357,10.357,0,0,0-.062,1.283,4.068,4.068,0,0,0,.343,1.986A1.187,1.187,0,0,0,102.671,14.891ZM111.126,17h-2.971V7.49h2.971ZM107.979,5.029a1.334,1.334,0,0,1,.457-1.043,1.934,1.934,0,0,1,2.373,0,1.334,1.334,0,0,1,.457,1.043,1.334,1.334,0,0,1-.457,1.043,1.934,1.934,0,0,1-2.373,0A1.334,1.334,0,0,1,107.979,5.029Zm4.6,7.128a5.613,5.613,0,0,1,.554-2.536,3.96,3.96,0,0,1,1.591-1.709,4.791,4.791,0,0,1,2.435-.6,4.373,4.373,0,0,1,3.366,1.323,5.076,5.076,0,0,1,1.23,3.6v.105a4.925,4.925,0,0,1-1.235,3.529,4.384,4.384,0,0,1-3.344,1.305,4.434,4.434,0,0,1-3.261-1.217,4.761,4.761,0,0,1-1.327-3.3Zm2.962.185a3.538,3.538,0,0,0,.413,1.934,1.376,1.376,0,0,0,1.222.615q1.582,0,1.617-2.435v-.3q0-2.558-1.635-2.558-1.485,0-1.608,2.206ZM117.56,3.5h3.129l-2.443,2.76-2.417,0Zm8.218,3.99.1,1.116a3.225,3.225,0,0,1,2.716-1.292,2.713,2.713,0,0,1,2.219.888,4.226,4.226,0,0,1,.76,2.672V17H128.6V11a1.6,1.6,0,0,0-.29-1.059,1.342,1.342,0,0,0-1.055-.338,1.413,1.413,0,0,0-1.292.686V17H123V7.49Zm15.715,5.361,1.582-5.361h3.173l-3.876,11.1-.167.4a2.944,2.944,0,0,1-2.918,1.846,4.642,4.642,0,0,1-1.222-.175v-2.11h.387a2.026,2.026,0,0,0,.954-.18,1.094,1.094,0,0,0,.488-.647l.237-.633-3.3-9.605h3.164ZM11.3,38V30.547H9.924V28.49H11.3v-.756a3.286,3.286,0,0,1,.958-2.522,3.785,3.785,0,0,1,2.689-.9,5.89,5.89,0,0,1,1.389.185l.009,2.18a2.706,2.706,0,0,0-.729-.079q-1.345,0-1.345,1.16v.729h1.854v2.057H14.275V38Zm11.531-1.028a3.054,3.054,0,0,1-2.54,1.2,3,3,0,0,1-2.369-.91,3.826,3.826,0,0,1-.8-2.615V28.49h2.962v6.179a1.065,1.065,0,0,0,1.187,1.222,1.548,1.548,0,0,0,1.45-.729V28.49H25.7V38H22.923Zm7.207-8.481.1,1.116a3.225,3.225,0,0,1,2.716-1.292,2.713,2.713,0,0,1,2.219.888,4.226,4.226,0,0,1,.76,2.672V38H32.864V32a1.6,1.6,0,0,0-.29-1.059,1.342,1.342,0,0,0-1.055-.338,1.413,1.413,0,0,0-1.292.686V38H27.265V28.49Zm11.452,7.4a1.317,1.317,0,0,0,.967-.338,1.241,1.241,0,0,0,.334-.945h2.777a3.288,3.288,0,0,1-1.121,2.566,4.168,4.168,0,0,1-2.887,1,4.22,4.22,0,0,1-3.27-1.3,5.125,5.125,0,0,1-1.2-3.6v-.123a5.792,5.792,0,0,1,.532-2.544,3.872,3.872,0,0,1,1.534-1.7,4.573,4.573,0,0,1,2.373-.593,4.116,4.116,0,0,1,2.944,1.028,3.647,3.647,0,0,1,1.09,2.786H42.8A1.626,1.626,0,0,0,42.435,31a1.244,1.244,0,0,0-.967-.4q-1.151,0-1.345,1.468a10.357,10.357,0,0,0-.062,1.283,4.068,4.068,0,0,0,.343,1.986A1.187,1.187,0,0,0,41.495,35.891ZM49.95,38H46.979V28.49H49.95ZM46.8,26.029a1.334,1.334,0,0,1,.457-1.043,1.934,1.934,0,0,1,2.373,0,1.42,1.42,0,0,1,0,2.087,1.934,1.934,0,0,1-2.373,0A1.334,1.334,0,0,1,46.8,26.029Zm4.6,7.128a5.613,5.613,0,0,1,.554-2.536,3.96,3.96,0,0,1,1.591-1.709,4.791,4.791,0,0,1,2.435-.6,4.373,4.373,0,0,1,3.366,1.323,5.076,5.076,0,0,1,1.23,3.6v.105a4.925,4.925,0,0,1-1.235,3.529A4.384,4.384,0,0,1,56,38.176a4.434,4.434,0,0,1-3.261-1.217,4.761,4.761,0,0,1-1.327-3.3Zm2.962.185a3.538,3.538,0,0,0,.413,1.934A1.376,1.376,0,0,0,56,35.891q1.582,0,1.617-2.435v-.3q0-2.558-1.635-2.558-1.485,0-1.608,2.206ZM64.6,28.49l.1,1.116a3.225,3.225,0,0,1,2.716-1.292,2.713,2.713,0,0,1,2.219.888,4.226,4.226,0,0,1,.76,2.672V38H67.422V32a1.6,1.6,0,0,0-.29-1.059,1.342,1.342,0,0,0-1.055-.338,1.413,1.413,0,0,0-1.292.686V38H61.824V28.49ZM77.389,38a3.344,3.344,0,0,1-.281-.853,2.754,2.754,0,0,1-2.285,1.028,3.374,3.374,0,0,1-2.285-.813,2.588,2.588,0,0,1-.94-2.043,2.66,2.66,0,0,1,1.143-2.338,5.821,5.821,0,0,1,3.322-.791h.914v-.5q0-1.316-1.134-1.316a.927.927,0,0,0-1.055,1.042H71.826A2.655,2.655,0,0,1,73,29.175a4.931,4.931,0,0,1,2.993-.86,4.323,4.323,0,0,1,2.874.888,3.086,3.086,0,0,1,1.081,2.435v4.21a4.311,4.311,0,0,0,.4,2V38Zm-1.854-1.934a1.652,1.652,0,0,0,.918-.237,1.487,1.487,0,0,0,.523-.536V33.772h-.861q-1.547,0-1.547,1.389a.848.848,0,0,0,.272.655A.986.986,0,0,0,75.535,36.066Zm8.851-7.576.1,1.116A3.27,3.27,0,0,1,87.2,28.314a2.407,2.407,0,0,1,2.435,1.433,3.165,3.165,0,0,1,2.795-1.433q2.892,0,2.971,3.5V38H92.427V32a1.813,1.813,0,0,0-.246-1.063,1.048,1.048,0,0,0-.9-.334,1.4,1.4,0,0,0-1.31.782l.009.123V38H87.013V32.015a1.906,1.906,0,0,0-.237-1.081,1.045,1.045,0,0,0-.905-.334,1.42,1.42,0,0,0-1.3.782V38H81.608V28.49ZM100.214,38H97.244V28.49h2.971ZM97.068,26.029a1.334,1.334,0,0,1,.457-1.043,1.934,1.934,0,0,1,2.373,0,1.42,1.42,0,0,1,0,2.087,1.934,1.934,0,0,1-2.373,0A1.334,1.334,0,0,1,97.068,26.029Zm9.571,12.146a4.889,4.889,0,0,1-3.542-1.305,4.507,4.507,0,0,1-1.354-3.4v-.246a5.84,5.84,0,0,1,.541-2.575,3.955,3.955,0,0,1,1.578-1.727,4.763,4.763,0,0,1,2.461-.611,4.117,4.117,0,0,1,3.164,1.244,4.887,4.887,0,0,1,1.16,3.467v1.151h-5.889a2.135,2.135,0,0,0,.694,1.257,2.066,2.066,0,0,0,1.389.457,2.662,2.662,0,0,0,2.2-.984l1.354,1.6a3.784,3.784,0,0,1-1.569,1.217A5.3,5.3,0,0,1,106.639,38.176Zm-.334-7.576q-1.3,0-1.547,1.723h2.988v-.229a1.467,1.467,0,0,0-.36-1.1A1.434,1.434,0,0,0,106.305,30.6Zm8.253-2.109.1,1.116a3.225,3.225,0,0,1,2.716-1.292,2.713,2.713,0,0,1,2.219.888,4.226,4.226,0,0,1,.76,2.672V38h-2.971V32a1.6,1.6,0,0,0-.29-1.059,1.342,1.342,0,0,0-1.055-.338,1.413,1.413,0,0,0-1.292.686V38h-2.962V28.49Zm10.881-2.364V28.49H127v2.057h-1.564V34.9a1.111,1.111,0,0,0,.193.747,1.037,1.037,0,0,0,.765.211,4.345,4.345,0,0,0,.738-.053v2.118a5.466,5.466,0,0,1-1.67.255,3.1,3.1,0,0,1-2.259-.721,2.954,2.954,0,0,1-.729-2.188v-4.72h-1.213V28.49h1.213V26.126Zm2.092,7.031a5.613,5.613,0,0,1,.554-2.536,3.96,3.96,0,0,1,1.591-1.709,4.791,4.791,0,0,1,2.435-.6,4.373,4.373,0,0,1,3.366,1.323,5.076,5.076,0,0,1,1.23,3.6v.105a4.925,4.925,0,0,1-1.235,3.529,4.384,4.384,0,0,1-3.344,1.305,4.434,4.434,0,0,1-3.261-1.217,4.761,4.761,0,0,1-1.327-3.3Zm2.962.185a3.538,3.538,0,0,0,.413,1.934,1.376,1.376,0,0,0,1.222.615q1.582,0,1.617-2.435v-.3q0-2.558-1.635-2.558-1.485,0-1.608,2.206Z" transform="translate(2039 -9390)" fill="#12263f"/>
      <path id="Trazado_196527" data-name="Trazado 196527" d="M11,0H165a11,11,0,0,1,11,11V91a11,11,0,0,1-11,11H11A11,11,0,0,1,0,91V11A11,11,0,0,1,11,0Z" transform="translate(1607 -9403)" fill="#e0d5f1"/>
      <path id="Trazado_196528" data-name="Trazado 196528" d="M13.912,34.422H4.047L2.325,40h-7.69L5.585,10.141h6.768L23.386,40H15.655ZM5.77,28.864h6.419L8.969,18.508Z" transform="translate(1686 -9352)" fill="#7f4fc7"/>
      <path id="Trazado_196529" data-name="Trazado 196529" d="M8.475,12.474H6.805V17H3.72V4.2H8.756a5.621,5.621,0,0,1,3.56,1.01A3.421,3.421,0,0,1,13.6,8.066a4.155,4.155,0,0,1-.541,2.213A3.837,3.837,0,0,1,11.367,11.7l2.672,5.167V17h-3.3ZM6.805,10.1H8.756a1.751,1.751,0,0,0,1.323-.463,1.788,1.788,0,0,0,.444-1.291,1.809,1.809,0,0,0-.448-1.3,1.735,1.735,0,0,0-1.318-.471H6.805Zm13.122,7.075a4.889,4.889,0,0,1-3.542-1.305,4.507,4.507,0,0,1-1.354-3.4v-.246a5.84,5.84,0,0,1,.541-2.575A3.955,3.955,0,0,1,17.15,7.925a4.763,4.763,0,0,1,2.461-.611,4.117,4.117,0,0,1,3.164,1.244,4.887,4.887,0,0,1,1.16,3.467v1.151H18.046a2.135,2.135,0,0,0,.694,1.257,2.066,2.066,0,0,0,1.389.457,2.662,2.662,0,0,0,2.2-.984l1.354,1.6a3.784,3.784,0,0,1-1.569,1.217A5.3,5.3,0,0,1,19.927,17.176ZM19.593,9.6q-1.3,0-1.547,1.723h2.988v-.229a1.467,1.467,0,0,0-.36-1.1A1.434,1.434,0,0,0,19.593,9.6ZM28.8,13.476l1.5-5.985h3.12L30.325,17H27.3L24.2,7.49h3.129ZM37.435,17H34.464V7.49h2.971ZM34.289,5.029a1.334,1.334,0,0,1,.457-1.043,1.934,1.934,0,0,1,2.373,0,1.334,1.334,0,0,1,.457,1.043,1.334,1.334,0,0,1-.457,1.043,1.934,1.934,0,0,1-2.373,0A1.334,1.334,0,0,1,34.289,5.029Zm9.949,9.3a.684.684,0,0,0-.4-.606,6.016,6.016,0,0,0-1.5-.475,6.853,6.853,0,0,1-1.828-.646,3.062,3.062,0,0,1-1.1-.971,2.319,2.319,0,0,1-.378-1.31,2.628,2.628,0,0,1,1.081-2.158,4.453,4.453,0,0,1,2.83-.848,4.934,4.934,0,0,1,3.023.853,2.666,2.666,0,0,1,1.143,2.241H44.141q0-1.143-1.2-1.143a1.194,1.194,0,0,0-.782.259.8.8,0,0,0-.316.646.737.737,0,0,0,.387.642,3.654,3.654,0,0,0,1.235.4,10.671,10.671,0,0,1,1.49.378,2.706,2.706,0,0,1,2.145,2.646,2.491,2.491,0,0,1-1.156,2.118,5.068,5.068,0,0,1-2.993.817,5.172,5.172,0,0,1-2.18-.439,3.645,3.645,0,0,1-1.494-1.2,2.707,2.707,0,0,1-.536-1.591H41.5a1.145,1.145,0,0,0,.439.962,1.808,1.808,0,0,0,1.081.3,1.422,1.422,0,0,0,.91-.246A.787.787,0,0,0,44.238,14.328ZM51.6,17H48.632V7.49H51.6ZM48.457,5.029a1.334,1.334,0,0,1,.457-1.043,1.934,1.934,0,0,1,2.373,0,1.334,1.334,0,0,1,.457,1.043,1.334,1.334,0,0,1-.457,1.043,1.934,1.934,0,0,1-2.373,0A1.334,1.334,0,0,1,48.457,5.029Zm4.6,7.128a5.613,5.613,0,0,1,.554-2.536A3.96,3.96,0,0,1,55.2,7.912a4.791,4.791,0,0,1,2.435-.6A4.373,4.373,0,0,1,61,8.637a5.076,5.076,0,0,1,1.23,3.6v.105a4.925,4.925,0,0,1-1.235,3.529,4.384,4.384,0,0,1-3.344,1.305,4.434,4.434,0,0,1-3.261-1.217,4.761,4.761,0,0,1-1.327-3.3Zm2.962.185a3.538,3.538,0,0,0,.413,1.934,1.376,1.376,0,0,0,1.222.615q1.582,0,1.617-2.435v-.3q0-2.558-1.635-2.558-1.485,0-1.608,2.206ZM58.037,3.5h3.129L58.722,6.26l-2.417,0Zm8.218,3.99.1,1.116a3.225,3.225,0,0,1,2.716-1.292,2.713,2.713,0,0,1,2.219.888,4.226,4.226,0,0,1,.76,2.672V17H69.076V11a1.6,1.6,0,0,0-.29-1.059A1.342,1.342,0,0,0,67.731,9.6a1.413,1.413,0,0,0-1.292.686V17H63.477V7.49Zm11.54,4.685a5.809,5.809,0,0,1,.976-3.56,3.211,3.211,0,0,1,2.725-1.3,2.731,2.731,0,0,1,2.145,1V3.5H86.61V17H83.947L83.8,15.98a2.8,2.8,0,0,1-2.32,1.2,3.205,3.205,0,0,1-2.689-1.3A5.993,5.993,0,0,1,77.794,12.175Zm2.962.185q0,2.531,1.477,2.531a1.458,1.458,0,0,0,1.406-.826V10.443A1.419,1.419,0,0,0,82.25,9.6q-1.371,0-1.485,2.215Zm12.138,4.816a4.889,4.889,0,0,1-3.542-1.305A4.507,4.507,0,0,1,88,12.474v-.246a5.84,5.84,0,0,1,.541-2.575,3.955,3.955,0,0,1,1.578-1.727,4.763,4.763,0,0,1,2.461-.611,4.117,4.117,0,0,1,3.164,1.244,4.887,4.887,0,0,1,1.16,3.467v1.151H91.013a2.135,2.135,0,0,0,.694,1.257,2.066,2.066,0,0,0,1.389.457,2.662,2.662,0,0,0,2.2-.984l1.354,1.6a3.784,3.784,0,0,1-1.569,1.217A5.3,5.3,0,0,1,92.894,17.176ZM92.56,9.6q-1.3,0-1.547,1.723H94v-.229a1.467,1.467,0,0,0-.36-1.1A1.434,1.434,0,0,0,92.56,9.6ZM105.7,17h-2.971V3.5H105.7Zm7.181,0a3.344,3.344,0,0,1-.281-.853,2.754,2.754,0,0,1-2.285,1.028,3.374,3.374,0,0,1-2.285-.813,2.588,2.588,0,0,1-.94-2.043,2.66,2.66,0,0,1,1.143-2.338,5.821,5.821,0,0,1,3.322-.791h.914v-.5q0-1.316-1.134-1.316a.927.927,0,0,0-1.055,1.042h-2.962a2.655,2.655,0,0,1,1.173-2.239,4.931,4.931,0,0,1,2.993-.86,4.323,4.323,0,0,1,2.874.888,3.086,3.086,0,0,1,1.081,2.435v4.21a4.311,4.311,0,0,0,.4,2V17Zm-1.854-1.934a1.652,1.652,0,0,0,.918-.237,1.487,1.487,0,0,0,.523-.536V12.772h-.861q-1.547,0-1.547,1.389a.848.848,0,0,0,.272.655A.986.986,0,0,0,111.026,15.066ZM29.6,33.175a6.421,6.421,0,0,1,.475-2.549,3.821,3.821,0,0,1,1.362-1.709,3.591,3.591,0,0,1,2.065-.6,2.855,2.855,0,0,1,2.32,1l.105-.826h2.689V37.64a4.009,4.009,0,0,1-.584,2.184,3.75,3.75,0,0,1-1.692,1.424,6.219,6.219,0,0,1-2.566.5,5.365,5.365,0,0,1-2.026-.4,3.657,3.657,0,0,1-1.5-1.028l1.239-1.74a2.716,2.716,0,0,0,2.18.976,1.764,1.764,0,0,0,1.969-2.021v-.3a2.781,2.781,0,0,1-2.153.94,3.437,3.437,0,0,1-2.812-1.332A5.517,5.517,0,0,1,29.6,33.28Zm2.971.185a3.383,3.383,0,0,0,.439,1.85,1.387,1.387,0,0,0,1.23.681,1.573,1.573,0,0,0,1.4-.642v-4a1.534,1.534,0,0,0-1.38-.65,1.4,1.4,0,0,0-1.239.708A3.858,3.858,0,0,0,32.575,33.359Zm12.331,4.816a4.889,4.889,0,0,1-3.542-1.305,4.507,4.507,0,0,1-1.354-3.4v-.246a5.84,5.84,0,0,1,.541-2.575,3.955,3.955,0,0,1,1.578-1.727,4.763,4.763,0,0,1,2.461-.611,4.117,4.117,0,0,1,3.164,1.244,4.887,4.887,0,0,1,1.16,3.467v1.151H43.025a2.135,2.135,0,0,0,.694,1.257,2.066,2.066,0,0,0,1.389.457,2.662,2.662,0,0,0,2.2-.984l1.354,1.6a3.784,3.784,0,0,1-1.569,1.217A5.3,5.3,0,0,1,44.906,38.176ZM44.572,30.6q-1.3,0-1.547,1.723h2.988v-.229a1.467,1.467,0,0,0-.36-1.1A1.434,1.434,0,0,0,44.572,30.6Zm10.512,4.729a.684.684,0,0,0-.4-.606,6.016,6.016,0,0,0-1.5-.475,6.853,6.853,0,0,1-1.828-.646,3.062,3.062,0,0,1-1.1-.971,2.319,2.319,0,0,1-.378-1.31,2.628,2.628,0,0,1,1.081-2.158,4.453,4.453,0,0,1,2.83-.848,4.934,4.934,0,0,1,3.023.853,2.666,2.666,0,0,1,1.143,2.241H54.987q0-1.143-1.2-1.143a1.194,1.194,0,0,0-.782.259.8.8,0,0,0-.316.646.737.737,0,0,0,.387.642,3.654,3.654,0,0,0,1.235.4,10.671,10.671,0,0,1,1.49.378A2.706,2.706,0,0,1,57.94,35.24a2.491,2.491,0,0,1-1.156,2.118,5.068,5.068,0,0,1-2.993.817,5.172,5.172,0,0,1-2.18-.439,3.645,3.645,0,0,1-1.494-1.2,2.707,2.707,0,0,1-.536-1.591H52.35a1.145,1.145,0,0,0,.439.962,1.808,1.808,0,0,0,1.081.3,1.422,1.422,0,0,0,.91-.246A.787.787,0,0,0,55.083,35.328Zm7.69-9.2V28.49h1.564v2.057H62.774V34.9a1.111,1.111,0,0,0,.193.747,1.037,1.037,0,0,0,.765.211,4.345,4.345,0,0,0,.738-.053v2.118a5.466,5.466,0,0,1-1.67.255,3.1,3.1,0,0,1-2.259-.721,2.954,2.954,0,0,1-.729-2.188v-4.72H58.6V28.49h1.213V26.126ZM68.627,38H65.657V28.49h2.971ZM65.481,26.029a1.334,1.334,0,0,1,.457-1.043,1.934,1.934,0,0,1,2.373,0,1.42,1.42,0,0,1,0,2.087,1.934,1.934,0,0,1-2.373,0A1.334,1.334,0,0,1,65.481,26.029Zm4.6,7.128a5.613,5.613,0,0,1,.554-2.536,3.96,3.96,0,0,1,1.591-1.709,4.791,4.791,0,0,1,2.435-.6,4.373,4.373,0,0,1,3.366,1.323,5.076,5.076,0,0,1,1.23,3.6v.105a4.925,4.925,0,0,1-1.235,3.529,4.384,4.384,0,0,1-3.344,1.305,4.434,4.434,0,0,1-3.261-1.217,4.761,4.761,0,0,1-1.327-3.3Zm2.962.185a3.538,3.538,0,0,0,.413,1.934,1.376,1.376,0,0,0,1.222.615q1.582,0,1.617-2.435v-.3q0-2.558-1.635-2.558-1.485,0-1.608,2.206ZM75.061,24.5H78.19l-2.443,2.76-2.417,0Zm8.218,3.99.1,1.116a3.225,3.225,0,0,1,2.716-1.292,2.713,2.713,0,0,1,2.219.888,4.226,4.226,0,0,1,.76,2.672V38H86.1V32a1.6,1.6,0,0,0-.29-1.059,1.342,1.342,0,0,0-1.055-.338,1.413,1.413,0,0,0-1.292.686V38H80.5V28.49Z" transform="translate(1636 -9394)" fill="#12263f"/>
    </g>
  </g>
</svg>
