<svg xmlns="http://www.w3.org/2000/svg" xmlns:xlink="http://www.w3.org/1999/xlink" width="108" height="108" viewBox="0 0 108 108">
  <defs>
    <clipPath id="clip-path">
      <rect id="Rectángulo_46011" data-name="Rectángulo 46011" width="66.715" height="67.841" fill="#fff"/>
    </clipPath>
  </defs>
  <g id="Grupo_154421" data-name="Grupo 154421" transform="translate(-437.958 -2443)">
    <circle id="Elipse_5722" data-name="Elipse 5722" cx="54" cy="54" r="54" transform="translate(437.958 2443)" fill="#2194e5"/>
    <g id="Grupo_154350" data-name="Grupo 154350" transform="translate(458.958 2463)">
      <g id="Grupo_154349" data-name="Grupo 154349" clip-path="url(#clip-path)">
        <path id="Trazado_196375" data-name="Trazado 196375" d="M50.88,0H5.654A5.661,5.661,0,0,0,0,5.654V41.838a5.653,5.653,0,0,0,4.242,5.475l.566-2.189a3.393,3.393,0,0,1-2.549-3.286V5.654a3.393,3.393,0,0,1,3.39-3.4H50.88a3.393,3.393,0,0,1,3.393,3.393v1.13h2.259V5.654A5.661,5.661,0,0,0,50.88,0" transform="translate(0)" fill="#fff"/>
        <rect id="Rectángulo_46002" data-name="Rectángulo 46002" width="2.261" height="2.261" transform="translate(4.523 4.523)" fill="#fff"/>
        <rect id="Rectángulo_46003" data-name="Rectángulo 46003" width="2.261" height="2.261" transform="translate(9.046 4.523)" fill="#fff"/>
        <rect id="Rectángulo_46004" data-name="Rectángulo 46004" width="2.261" height="2.261" transform="translate(13.569 4.523)" fill="#fff"/>
        <path id="Trazado_196376" data-name="Trazado 196376" d="M79.923,84.185,69.2,73.46a15.619,15.619,0,0,0,1.343-3.176h1.8V68.026H71.031a15.24,15.24,0,0,0-.951-8.1V48.8H67.822V56a15.927,15.927,0,0,0-2.259-2.348V44.271H63.3v7.8a15.787,15.787,0,0,0-2.259-1.079V39.754H58.786V50.307a15.676,15.676,0,0,0-2.259-.317V42.013H54.269v7.973a15.741,15.741,0,0,0-2.259.317V46.536H49.752V50.99a15.765,15.765,0,0,0-2.259,1.079V45.405H45.235v8.245A15.9,15.9,0,0,0,42.976,56V47.668H40.717V59.919a15.235,15.235,0,0,0-.951,8.1H24.847V70.28H40.214A15.8,15.8,0,0,0,64.466,78.7l10.47,10.47a1.131,1.131,0,0,0,1.6,0h0l3.393-3.393a1.13,1.13,0,0,0,0-1.594M55.377,79.331A13.569,13.569,0,1,1,68.951,65.762,13.569,13.569,0,0,1,55.377,79.331Zm20.354,7.448-9.51-9.51a16.032,16.032,0,0,0,1.7-1.885l9.6,9.6Z" transform="translate(-13.539 -21.662)" fill="#fff"/>
        <path id="Trazado_196377" data-name="Trazado 196377" d="M78.393,72.056A11.308,11.308,0,1,0,89.7,83.364,11.308,11.308,0,0,0,78.393,72.056m0,20.355a9.047,9.047,0,0,1-7.822-4.518H86.216a9.048,9.048,0,0,1-7.823,4.518m-8.748-6.785a8.964,8.964,0,0,1,3.091-9.312v7.051h2.259v-8.38a8.994,8.994,0,0,1,2.259-.588v8.968h2.259V74.4a9,9,0,0,1,2.259.588v8.38h2.259V76.314a8.964,8.964,0,0,1,3.091,9.312Z" transform="translate(-36.555 -39.263)" fill="#fff"/>
        <path id="Trazado_196378" data-name="Trazado 196378" d="M65.787,19.878H20.561a5.661,5.661,0,0,0-5.654,5.654V61.716a5.661,5.661,0,0,0,5.654,5.654h14.7V65.111h-14.7a3.393,3.393,0,0,1-3.4-3.39V25.532a3.393,3.393,0,0,1,3.39-3.4H65.787A3.393,3.393,0,0,1,69.18,25.53V61.716a3.393,3.393,0,0,1-.847,2.243l1.7,1.5a5.645,5.645,0,0,0,1.414-3.74V25.532a5.661,5.661,0,0,0-5.655-5.654" transform="translate(-8.123 -10.832)" fill="#fff"/>
        <rect id="Rectángulo_46005" data-name="Rectángulo 46005" width="2.261" height="2.261" transform="translate(11.308 13.569)" fill="#fff"/>
        <rect id="Rectángulo_46006" data-name="Rectángulo 46006" width="2.261" height="2.261" transform="translate(15.831 13.569)" fill="#fff"/>
        <rect id="Rectángulo_46007" data-name="Rectángulo 46007" width="2.261" height="2.261" transform="translate(20.354 13.569)" fill="#fff"/>
        <rect id="Rectángulo_46008" data-name="Rectángulo 46008" width="2.261" height="6.785" transform="translate(13.569 37.316)" fill="#fff"/>
        <rect id="Rectángulo_46009" data-name="Rectángulo 46009" width="2.261" height="13.569" transform="translate(18.092 30.53)" fill="#fff"/>
        <rect id="Rectángulo_46010" data-name="Rectángulo 46010" width="2.261" height="10.177" transform="translate(22.615 33.923)" fill="#fff"/>
      </g>
    </g>
  </g>
</svg>
