<svg xmlns="http://www.w3.org/2000/svg" xmlns:xlink="http://www.w3.org/1999/xlink" width="108" height="108" viewBox="0 0 108 108">
  <defs>
    <clipPath id="clip-path">
      <rect id="Rectángulo_45995" data-name="Rectángulo 45995" width="57.094" height="66.072" fill="#fff"/>
    </clipPath>
  </defs>
  <g id="Grupo_154418" data-name="Grupo 154418" transform="translate(-4192 9257)">
    <circle id="Elipse_5727" data-name="Elipse 5727" cx="54" cy="54" r="54" transform="translate(4192 -9257)" fill="#2194e5"/>
    <g id="Grupo_154346" data-name="Grupo 154346" transform="translate(4217 -9236)">
      <g id="Grupo_154345" data-name="Grupo 154345" clip-path="url(#clip-path)">
        <path id="Trazado_196357" data-name="Trazado 196357" d="M.028,17.6a.884.884,0,0,0,.874.864.886.886,0,0,0,1-.722,2.76,2.76,0,0,0,.048-.7c0-4.837.01-9.675-.009-14.512,0-.473.1-.6.59-.6q16.285.025,32.569,0c.464,0,.611.084.606.585-.031,2.579-.019,5.16-.012,7.739a2.034,2.034,0,0,0,2.274,2.263c2.6,0,5.2.016,7.8-.012.5-.005.6.135.592.607-.034,1.353-.006,2.709-.016,4.063a1,1,0,0,0,.54,1.013c.7.345,1.385-.159,1.393-1.04.013-1.569-.028-3.139.016-4.708a2.754,2.754,0,0,0-.909-2.168q-4.722-4.672-9.4-9.39A3.161,3.161,0,0,0,36.683,0H1.323A2.15,2.15,0,0,0,0,2.247c.038,4.922.017,9.846.017,14.769a5.275,5.275,0,0,0,.011.58M37.621,3.477l7.1,7.1H39.742c-.581,0-1.161-.009-1.742,0-.261.006-.386-.057-.385-.354.01-2.269.006-4.538.006-6.754" transform="translate(0)" fill="#fff"/>
        <path id="Trazado_196358" data-name="Trazado 196358" d="M77.467,26.705q-.516-.263-1.038-.512a2.586,2.586,0,0,0-3.72,1.264Q63.227,46.7,53.755,65.938a2.1,2.1,0,0,0-.222,1.12c.045.579.056,1.16.081,1.74H53.6c.036.622.091,1.245.1,1.868a1.387,1.387,0,0,0,.752,1.384,1.443,1.443,0,0,0,1.566-.212q1.443-1.029,2.905-2.03a2.619,2.619,0,0,0,.9-1.066c1.142-2.353,2.306-4.695,3.462-7.04.54-1.1,1.091-2.188,1.618-3.29a.987.987,0,0,0-.481-1.444c-.516-.188-.968.037-1.283.67-.914,1.844-1.827,3.689-2.722,5.541-.163.338-.3.443-.661.227a10.429,10.429,0,0,0-1.556-.766c-.448-.175-.506-.341-.283-.786,1.848-3.7,3.665-7.418,5.491-11.13q3.564-7.242,7.118-14.488c.2-.418.368-.529.794-.265a10.573,10.573,0,0,0,1.5.734c.4.166.479.334.267.75-.991,1.948-1.945,3.916-2.91,5.877q-2.515,5.106-5.027,10.212c-.338.689-.208,1.212.346,1.489s1.04.041,1.391-.641c.04-.076.077-.153.115-.23l5.909-12q2.9-5.884,5.791-11.771a2.588,2.588,0,0,0-1.235-3.683M55.579,69.78v-2.41l2.028,1L55.579,69.78M59.036,65.2a2.041,2.041,0,0,1,.282.212c-.231.443-.42.848-.653,1.225-.08.131-.234-.018-.337-.067-.614-.294-1.212-.624-1.838-.891-.344-.148-.3-.3-.172-.578.48-1.008.471-1.012,1.458-.526.42.207.842.411,1.258.624M74.206,35.118c-.068.124-.2.033-.287-.009-.674-.328-1.339-.673-2.017-.991-.212-.1-.208-.185-.132-.388.441-1.172.45-1.182,1.577-.626.385.189.764.388,1.15.573.134.064.262.12.307.258-.211.421-.393.808-.6,1.183m2.879-5.908a3.194,3.194,0,0,1-.139.375c-.343.711-.709,1.412-1.036,2.13-.152.332-.3.383-.624.2-.558-.312-1.138-.586-1.723-.845-.293-.13-.387-.243-.214-.562.4-.732.754-1.484,1.116-2.234a.71.71,0,0,1,1.1-.363c.361.183.727.359,1.089.543a.7.7,0,0,1,.431.755" transform="translate(-21.946 -10.598)" fill="#fff"/>
        <path id="Trazado_196359" data-name="Trazado 196359" d="M48.226,59.648a.883.883,0,0,0-.9-.686.869.869,0,0,0-.9.609,2.461,2.461,0,0,0-.066.763c0,5.807-.014,11.613.013,17.419,0,.614-.129.769-.758.768q-21.452-.031-42.9,0c-.6,0-.772-.109-.771-.749q.034-20.612.015-41.224a3.218,3.218,0,0,0-.051-.767.888.888,0,0,0-1-.73.9.9,0,0,0-.874.874c-.016.171-.009.343-.009.516q0,20.9,0,41.805c0,1.592.616,2.2,2.233,2.2H46.066c1.589,0,2.225-.634,2.225-2.221q0-8.935,0-17.871a2.688,2.688,0,0,0-.063-.7" transform="translate(-0.011 -14.368)" fill="#fff"/>
        <path id="Trazado_196360" data-name="Trazado 196360" d="M7.881,63.1a1.849,1.849,0,0,0,1.9,1.926q2.546.043,5.093,0A1.887,1.887,0,0,0,16.8,63.044q.019-2.482,0-4.964a1.813,1.813,0,0,0-1.79-1.962c-1.781-.056-3.567-.054-5.348,0a1.778,1.778,0,0,0-1.782,1.892c-.021.838,0,1.676,0,2.515,0,.86-.017,1.719,0,2.579M9.8,58.42c0-.306.094-.409.4-.407q2.156.019,4.312,0c.287,0,.361.106.359.377-.01,1.437-.017,2.875,0,4.312.006.378-.163.41-.463.4-.707-.015-1.416-.005-2.124-.005-.686,0-1.374-.017-2.059.008C9.888,63.12,9.8,63,9.8,62.667q.021-2.123,0-4.247" transform="translate(-3.227 -22.991)" fill="#fff"/>
        <path id="Trazado_196361" data-name="Trazado 196361" d="M7.88,43.344a1.806,1.806,0,0,0,1.828,1.923q2.641.071,5.285-.006a1.826,1.826,0,0,0,1.808-1.95q.019-2.482,0-4.964a1.875,1.875,0,0,0-1.906-2q-2.578-.049-5.157,0a1.825,1.825,0,0,0-1.857,1.9c-.022.859,0,1.719-.005,2.579,0,.838-.017,1.676,0,2.514M9.8,38.661c0-.31.1-.4.4-.4,1.417.015,2.835.018,4.252,0,.357-.005.424.126.42.445q-.021,2.126,0,4.252c0,.306-.084.415-.4.407-.708-.02-1.417-.006-2.126-.006-.687,0-1.375-.013-2.061.006-.335.009-.5-.048-.5-.449.024-1.417.017-2.835,0-4.252" transform="translate(-3.227 -14.893)" fill="#fff"/>
        <path id="Trazado_196362" data-name="Trazado 196362" d="M7.886,82.913a1.835,1.835,0,0,0,1.9,1.857q2.547.024,5.093,0a1.867,1.867,0,0,0,1.925-1.91q.03-2.547,0-5.094a1.841,1.841,0,0,0-1.912-1.91q-2.546-.027-5.093,0a1.817,1.817,0,0,0-1.914,1.9c-.021.838,0,1.677,0,2.515h0c0,.881-.022,1.763.005,2.644M9.8,78.21c0-.329.076-.452.425-.439.707.027,1.417.008,2.126.008s1.418.014,2.126-.006c.3-.009.4.077.4.393-.017,1.439-.014,2.878,0,4.317,0,.276-.068.371-.357.368q-2.159-.021-4.317,0c-.3,0-.408-.067-.4-.388q.025-2.126,0-4.252" transform="translate(-3.227 -31.096)" fill="#fff"/>
        <path id="Trazado_196363" data-name="Trazado 196363" d="M16.794,18.479a1.834,1.834,0,0,0-1.846-1.851q-2.61-.042-5.222,0a1.8,1.8,0,0,0-1.84,1.842q-.041,2.61,0,5.222a1.81,1.81,0,0,0,1.9,1.85c.838.015,1.676,0,2.515,0H14.81c.043,0,.086,0,.129,0A1.849,1.849,0,0,0,16.793,23.7q.042-2.611,0-5.222m-2.313,5.136c-.707-.021-1.416-.006-2.125-.006-.73,0-1.46-.011-2.189.005-.276.006-.371-.074-.369-.36q.019-2.157,0-4.313c0-.312.09-.4.4-.394,1.438.015,2.876.012,4.313,0,.273,0,.371.066.368.356q-.021,2.157,0,4.313c0,.307-.084.408-.4.4" transform="translate(-3.225 -6.809)" fill="#fff"/>
        <path id="Trazado_196364" data-name="Trazado 196364" d="M48.03,47.022a.87.87,0,0,0-.642-.989,2.343,2.343,0,0,0-.7-.071q-9.956-.005-19.912,0a2.715,2.715,0,0,0-.576.031.949.949,0,0,0-.742,1.166,1.022,1.022,0,0,0,1.135.737c3.394-.011,6.788-.005,10.182-.005h9.859a3.568,3.568,0,0,0,.579-.013.888.888,0,0,0,.815-.854" transform="translate(-10.424 -18.843)" fill="#fff"/>
        <path id="Trazado_196365" data-name="Trazado 196365" d="M26.923,38.642a4.774,4.774,0,0,0-.644.021.881.881,0,0,0-.828.91.868.868,0,0,0,.714.939,3.035,3.035,0,0,0,.7.063q9.87,0,19.742,0a2.715,2.715,0,0,0,.826-.092.944.944,0,0,0-.129-1.8,3.659,3.659,0,0,0-.707-.035q-4.9,0-9.806,0H26.923" transform="translate(-10.435 -15.843)" fill="#fff"/>
        <path id="Trazado_196366" data-name="Trazado 196366" d="M46.12,67.617a.925.925,0,0,0,1.012-1.055c-.055-.6-.463-.872-1.345-.872q-9.483,0-18.965,0a2.394,2.394,0,0,0-.762.089.867.867,0,0,0-.614.95.879.879,0,0,0,.743.854,3.613,3.613,0,0,0,.707.038q4.676,0,9.353,0h6.58c1.1,0,2.194.014,3.29-.008" transform="translate(-10.432 -26.933)" fill="#fff"/>
        <path id="Trazado_196367" data-name="Trazado 196367" d="M26.529,60.3c.107,0,.215,0,.323,0q8.774,0,17.548,0a2.076,2.076,0,0,0,.765-.067.945.945,0,0,0,.565-1.3,1.075,1.075,0,0,0-1.128-.566q-4.483.012-8.967,0H31.762c-1.742,0-3.483-.005-5.226,0a.978.978,0,0,0-1.1.921c-.021.585.4.979,1.092,1.01" transform="translate(-10.429 -23.93)" fill="#fff"/>
        <path id="Trazado_196368" data-name="Trazado 196368" d="M42.714,80.016a.936.936,0,0,0,.9-.923.951.951,0,0,0-.9-.995,5.134,5.134,0,0,0-.58-.008H26.986a6.169,6.169,0,0,0-.644.008.948.948,0,0,0-.9.989.932.932,0,0,0,.894.929,4.05,4.05,0,0,0,.515.009H42.2a4.291,4.291,0,0,0,.516-.009" transform="translate(-10.43 -32.015)" fill="#fff"/>
        <path id="Trazado_196369" data-name="Trazado 196369" d="M26.66,28.173q7.45,0,14.9,0c.8,0,1.264-.367,1.264-.973s-.46-.961-1.265-.961q-3.709,0-7.417,0-3.741,0-7.482,0c-.767,0-1.2.339-1.223.93-.021.617.439,1,1.224,1" transform="translate(-10.429 -10.758)" fill="#fff"/>
        <path id="Trazado_196370" data-name="Trazado 196370" d="M26.213,20.78a3.64,3.64,0,0,0,.643.026q3.611,0,7.222,0h3.8c1.311,0,2.622.009,3.933-.007a.955.955,0,0,0,1.009-.946,1,1,0,0,0-.94-.966,2.207,2.207,0,0,0-.258-.006q-7.511,0-15.023,0a1.541,1.541,0,0,0-.567.09.944.944,0,0,0,.178,1.8" transform="translate(-10.431 -7.741)" fill="#fff"/>
        <path id="Trazado_196371" data-name="Trazado 196371" d="M39.9,85.486a3.8,3.8,0,0,0-.706-.037q-3.062,0-6.124,0-2.578,0-5.157,0c-.537,0-1.076-.013-1.61.025a.864.864,0,0,0-.85.886.883.883,0,0,0,.75.976,2.6,2.6,0,0,0,.575.047q6.284,0,12.569,0a2.058,2.058,0,0,0,.7-.09.942.942,0,0,0-.144-1.8" transform="translate(-10.434 -35.033)" fill="#fff"/>
      </g>
    </g>
  </g>
</svg>
