<svg xmlns="http://www.w3.org/2000/svg" xmlns:xlink="http://www.w3.org/1999/xlink" width="108" height="108" viewBox="0 0 108 108">
  <defs>
    <clipPath id="clip-path">
      <rect id="Rectángulo_45994" data-name="Rectángulo 45994" width="74.655" height="74.641" fill="#fff"/>
    </clipPath>
  </defs>
  <g id="Grupo_154416" data-name="Grupo 154416" transform="translate(-4815 9257)">
    <circle id="Elipse_5726" data-name="Elipse 5726" cx="54" cy="54" r="54" transform="translate(4815 -9257)" fill="#2194e5"/>
    <g id="Grupo_154344" data-name="Grupo 154344" transform="translate(4832 -9240)">
      <g id="Grupo_154343" data-name="Grupo 154343" clip-path="url(#clip-path)">
        <path id="Trazado_196350" data-name="Trazado 196350" d="M62.2,34.786c3.462.259,4.97,1.428,4.972,3.773s-1.546,3.56-4.972,3.776v.808c0,2.436.071,4.874-.032,7.306a2.5,2.5,0,0,0,1.264,2.419c1.263-.879,1.539-.856,2.627.232,2.236,2.235,4.486,4.456,6.7,6.711a5.681,5.681,0,0,1,1.487,6.343,5.606,5.606,0,0,1-9.14,1.922c-.954-.866-1.794-1.857-2.686-2.791l-.223.1c0,.967.007,1.934,0,2.9a6.2,6.2,0,0,1-5.339,6.279,7.632,7.632,0,0,1-1.238.072q-24.525,0-49.049,0A6.232,6.232,0,0,1,0,68.042q0-3.382,0-6.764c0-1.125.431-1.556,1.541-1.564s2.221,0,3.432,0V1.934C4.977.3,5.28,0,6.93,0H60.254C61.89,0,62.2.306,62.2,1.947V34.786ZM30.779,24.88h-.964q-6.685,0-13.37,0c-.96,0-1.535-.5-1.511-1.281.024-.753.572-1.2,1.509-1.2q8.706.007,17.411.016a2.128,2.128,0,0,0,.724-.2c1.516-.587,3.008-1.243,4.551-1.743a.8.8,0,0,0,.686-.952C39.8,16.041,39.8,12.568,39.806,9.1c0-1.221.411-1.629,1.632-1.631q4.548,0,9.095,0c1.322,0,1.71.388,1.71,1.71,0,4.069.011,8.138-.012,12.206a1.017,1.017,0,0,0,.593,1.028,18.506,18.506,0,0,1,6.491,6.236,3.51,3.51,0,0,0,.346.4V2.543H7.528V59.668H27.367c0-1.18-.008-2.314,0-3.449.009-1.021.454-1.472,1.469-1.479,1.529-.011,3.058,0,4.586-.005a2.212,2.212,0,0,0,.36-.037l-5.158-4.611c0,.017-.013.162-.015.306-.024,1.545-.337,1.855-1.879,1.855q-5.713,0-11.427,0c-1.209,0-1.618-.418-1.62-1.644q0-4.51,0-9.018c0-1.42.36-1.775,1.8-1.776,1.518,0,3.035,0,4.562,0a3.127,3.127,0,0,0-.018-.327,3.718,3.718,0,0,1,3.816-4.648c.46,0,.92,0,1.278,0L26.9,29.857H17.164c-1.635,0-2.245-.346-2.229-1.264s.587-1.225,2.268-1.225h1.633c3.057,0,6.115.007,9.172-.011a1.246,1.246,0,0,0,.814-.273c.65-.663,1.24-1.385,1.958-2.2M2.545,62.23a1.628,1.628,0,0,0-.048.233c0,1.892-.011,3.783-.006,5.676a3.745,3.745,0,0,0,4.042,4.013q21.845,0,43.69,0c.214,0,.429-.031.55-.04a24.2,24.2,0,0,1-.9-2.665,11,11,0,0,1-.116-2.242c-.014-1.649,0-3.3,0-4.974Zm29.8-23.651A11.193,11.193,0,1,0,43.638,27.37,11.213,11.213,0,0,0,32.344,38.579M47.269,59.713c1.06,0,2.222,0,3.384,0s1.587.425,1.59,1.593c.005,2.382-.018,4.764.009,7.145a3.725,3.725,0,0,0,7.45.009,26.95,26.95,0,0,1,.027-2.871,4.756,4.756,0,0,0-1.943-4.832c-.8-.6-.746-1.24-.118-2.013.077-.095.141-.2.156-.222l-4.246-4.243a19.47,19.47,0,0,1-5.9,2.494.767.767,0,0,0-.394.582c-.048.742-.018,1.49-.018,2.356m13.061.067c2.149,2.158,4.276,4.346,6.464,6.47a3.128,3.128,0,1,0,4.456-4.39c-2.118-2.2-4.308-4.321-6.47-6.473-.029-.029-.1-.02-.051-.012l-4.4,4.405M16.227,42.3v7.4h9.866c.076-2.385.207-4.717-.748-6.924-.086-.2-.348-.457-.531-.459-2.844-.029-5.689-.02-8.587-.02M49.7,20.934V10.015H42.357v5.057c3.071-.5,4.91,1.076,4.912,4.134,0,.355,0,.71,0,1.07.463.112.839.195,1.211.3.4.108.787.233,1.222.363m-9.64,30.893a13.844,13.844,0,0,1-9.79-9.779l-2.381.331c1.153,5.9,6.7,10.955,11.836,11.795.109-.762.218-1.524.336-2.347m-.344-28.935A15.887,15.887,0,0,0,27.891,34.855a9.734,9.734,0,0,1,1.169.01,11.233,11.233,0,0,1,1.2.277,13.887,13.887,0,0,1,9.8-9.845l-.34-2.4M59.231,34.855c-1.493-6.714-7.289-11.13-11.879-11.922-.111.782-.223,1.563-.338,2.373a13.878,13.878,0,0,1,9.807,9.845,10.583,10.583,0,0,1,1.19-.285,10.488,10.488,0,0,1,1.22-.011m-2.437,7.193a13.846,13.846,0,0,1-9.784,9.781c.122.839.235,1.62.347,2.4A15.92,15.92,0,0,0,59.184,42.38l-2.39-.332M29.893,59.67H39.912c-.056-.831-.108-1.62-.161-2.408H29.893ZM44.78,21.177c0-.8.015-1.607,0-2.41a1.243,1.243,0,1,0-2.477.02q-.024,2.371,0,4.742a1.241,1.241,0,0,0,1.208,1.345,1.255,1.255,0,0,0,1.269-1.366c.018-.777,0-1.554,0-2.331M26.073,39.808c.8,0,1.606.014,2.409,0a1.255,1.255,0,0,0,1.366-1.269A1.241,1.241,0,0,0,28.5,37.327q-2.37-.026-4.741,0a1.244,1.244,0,1,0-.02,2.477c.776.019,1.554,0,2.331,0m34.872,0c.8,0,1.607.017,2.409-.005a1.241,1.241,0,0,0,1.321-1.234,1.227,1.227,0,0,0-1.311-1.24q-2.41-.031-4.818,0a1.239,1.239,0,1,0-.009,2.474c.8.023,1.606.005,2.409.005M44.779,55.991c0-.8.016-1.607,0-2.41a1.242,1.242,0,0,0-1.227-1.327,1.225,1.225,0,0,0-1.246,1.3q-.032,2.41,0,4.819a1.239,1.239,0,1,0,2.473.022c.024-.8.005-1.606.006-2.41m12.892-5.06-1.767,1.7,3.873,3.863,1.768-1.7-3.874-3.858" transform="translate(0)" fill="#fff"/>
        <path id="Trazado_196351" data-name="Trazado 196351" d="M32.788,18.926c2.8,0,5.6,0,8.4,0,.853,0,1.373.4,1.464,1.085a1.263,1.263,0,0,1-1.387,1.4c-1.736.015-3.472,0-5.208,0-3.887,0-7.774.009-11.66-.012a1.681,1.681,0,0,1-1.14-.312,1.8,1.8,0,0,1-.388-1.295c.1-.632.657-.871,1.294-.87q3.615.006,7.229,0h1.4" transform="translate(-7.832 -6.486)" fill="#fff"/>
        <path id="Trazado_196352" data-name="Trazado 196352" d="M42.887,26.5c1.14,0,2.28-.007,3.42,0,.923.007,1.479.471,1.492,1.221s-.547,1.259-1.451,1.262q-3.536.014-7.074,0a1.258,1.258,0,0,1-1.412-1.221c-.013-.757.543-1.252,1.45-1.261,1.192-.011,2.384,0,3.576,0" transform="translate(-12.976 -9.08)" fill="#fff"/>
        <path id="Trazado_196353" data-name="Trazado 196353" d="M30.2,13.84c-.777,0-1.554.014-2.331,0a1.244,1.244,0,1,1-.006-2.477q2.37-.025,4.741,0a1.244,1.244,0,1,1,.006,2.477c-.8.018-1.606,0-2.41,0" transform="translate(-9.084 -3.889)" fill="#fff"/>
        <path id="Trazado_196354" data-name="Trazado 196354" d="M45.441,13.841c-.8,0-1.606.012-2.41,0a1.248,1.248,0,1,1,.015-2.48q2.332-.02,4.663,0A1.248,1.248,0,0,1,49.1,12.6a1.263,1.263,0,0,1-1.4,1.234c-.751.014-1.5,0-2.254,0" transform="translate(-14.273 -3.889)" fill="#fff"/>
        <path id="Trazado_196355" data-name="Trazado 196355" d="M26.416,28.982c-.777,0-1.554.014-2.331,0a1.244,1.244,0,1,1-.018-2.477q2.37-.026,4.741,0a1.244,1.244,0,1,1,.018,2.477c-.8.019-1.606,0-2.41,0" transform="translate(-7.787 -9.078)" fill="#fff"/>
        <path id="Trazado_196356" data-name="Trazado 196356" d="M69.212,55.53a1.214,1.214,0,0,1-1.083,1.133,2.4,2.4,0,0,1-.7.015,1.136,1.136,0,0,0-1.287.671,4.577,4.577,0,0,1-1.433,1.363.825.825,0,0,0-.475.849,4.839,4.839,0,0,1-.007.931A1.234,1.234,0,0,1,63,61.653a1.142,1.142,0,0,1-1.209-1.159,1.979,1.979,0,0,0-1.213-2.259,1.411,1.411,0,0,1-.659-.741c-.289-.8-.864-.858-1.585-.826-.977.044-1.547-.455-1.546-1.231s.568-1.269,1.547-1.23c.716.028,1.23-.042,1.6-.814a3.581,3.581,0,0,1,1.346-1.231.808.808,0,0,0,.478-.847,4.035,4.035,0,0,1,.015-1.008A1.163,1.163,0,0,1,63,49.235c.688,0,1.255.423,1.194,1.068a2.145,2.145,0,0,0,1.29,2.382,1.237,1.237,0,0,1,.559.629c.3.852.925.931,1.7.9a1.264,1.264,0,0,1,1.471,1.32m-4.975-.106a1.238,1.238,0,1,0-1.207,1.253,1.25,1.25,0,0,0,1.207-1.253" transform="translate(-19.462 -16.874)" fill="#fff"/>
      </g>
    </g>
  </g>
</svg>
